  0
SECTION
  2
HEADER
  9
$ACADVER
  1
AC1009
  9
$FILLMODE
 70
 0
  9
$SPLFRAME
 70
 1
  9
$EXTMIN
 10
0
 20
0
 30
0.0
  9
$EXTMAX
 10
1058.33
 20
1058.33
 30
0.0
  0
ENDSEC
  0
SECTION
  2
TABLES
  0
TABLE
  2
LAYER
 70
1
  0
LAYER
  2
0
 70
     0
 62
     7
  6
CONTINUOUS
  0
ENDTAB
  0
ENDSEC
  0
SECTION
  2
ENTITIES
  0
LINE
  8
0
 62
     0
 10
333.947
 20
115.616
 30
0.0
 11
334.731
 21
115.586
 31
0.0
  0
LINE
  8
0
 62
     0
 10
334.731
 20
115.586
 30
0.0
 11
335.511
 21
115.492
 31
0.0
  0
LINE
  8
0
 62
     0
 10
335.511
 20
115.492
 30
0.0
 11
336.28
 21
115.339
 31
0.0
  0
LINE
  8
0
 62
     0
 10
336.28
 20
115.339
 30
0.0
 11
337.036
 21
115.127
 31
0.0
  0
LINE
  8
0
 62
     0
 10
337.036
 20
115.127
 30
0.0
 11
337.772
 21
114.854
 31
0.0
  0
LINE
  8
0
 62
     0
 10
337.772
 20
114.854
 30
0.0
 11
338.486
 21
114.526
 31
0.0
  0
LINE
  8
0
 62
     0
 10
338.486
 20
114.526
 30
0.0
 11
339.171
 21
114.143
 31
0.0
  0
LINE
  8
0
 62
     0
 10
339.171
 20
114.143
 30
0.0
 11
339.823
 21
113.706
 31
0.0
  0
LINE
  8
0
 62
     0
 10
339.823
 20
113.706
 30
0.0
 11
340.44
 21
113.221
 31
0.0
  0
LINE
  8
0
 62
     0
 10
340.44
 20
113.221
 30
0.0
 11
341.018
 21
112.688
 31
0.0
  0
LINE
  8
0
 62
     0
 10
341.018
 20
112.688
 30
0.0
 11
341.551
 21
112.11
 31
0.0
  0
LINE
  8
0
 62
     0
 10
341.551
 20
112.11
 30
0.0
 11
342.036
 21
111.493
 31
0.0
  0
LINE
  8
0
 62
     0
 10
342.036
 20
111.493
 30
0.0
 11
342.473
 21
110.841
 31
0.0
  0
LINE
  8
0
 62
     0
 10
342.473
 20
110.841
 30
0.0
 11
342.856
 21
110.156
 31
0.0
  0
LINE
  8
0
 62
     0
 10
342.856
 20
110.156
 30
0.0
 11
343.184
 21
109.442
 31
0.0
  0
LINE
  8
0
 62
     0
 10
343.184
 20
109.442
 30
0.0
 11
343.457
 21
108.707
 31
0.0
  0
LINE
  8
0
 62
     0
 10
343.457
 20
108.707
 30
0.0
 11
343.669
 21
107.95
 31
0.0
  0
LINE
  8
0
 62
     0
 10
343.669
 20
107.95
 30
0.0
 11
343.822
 21
107.181
 31
0.0
  0
LINE
  8
0
 62
     0
 10
343.822
 20
107.181
 30
0.0
 11
343.916
 21
106.401
 31
0.0
  0
LINE
  8
0
 62
     0
 10
343.916
 20
106.401
 30
0.0
 11
343.946
 21
105.616
 31
0.0
  0
LINE
  8
0
 62
     0
 10
343.946
 20
105.616
 30
0.0
 11
343.946
 21
10.3656
 31
0.0
  0
LINE
  8
0
 62
     0
 10
343.946
 20
10.3656
 30
0.0
 11
343.916
 21
9.58014
 31
0.0
  0
LINE
  8
0
 62
     0
 10
343.916
 20
9.58014
 30
0.0
 11
343.822
 21
8.80015
 31
0.0
  0
LINE
  8
0
 62
     0
 10
343.822
 20
8.80015
 30
0.0
 11
343.669
 21
8.0312
 31
0.0
  0
LINE
  8
0
 62
     0
 10
343.669
 20
8.0312
 30
0.0
 11
343.457
 21
7.27467
 31
0.0
  0
LINE
  8
0
 62
     0
 10
343.457
 20
7.27467
 30
0.0
 11
343.184
 21
6.53881
 31
0.0
  0
LINE
  8
0
 62
     0
 10
343.184
 20
6.53881
 30
0.0
 11
342.856
 21
5.82496
 31
0.0
  0
LINE
  8
0
 62
     0
 10
342.856
 20
5.82496
 30
0.0
 11
342.473
 21
5.14008
 31
0.0
  0
LINE
  8
0
 62
     0
 10
342.473
 20
5.14008
 30
0.0
 11
342.036
 21
4.48829
 31
0.0
  0
LINE
  8
0
 62
     0
 10
342.036
 20
4.48829
 30
0.0
 11
341.551
 21
3.87092
 31
0.0
  0
LINE
  8
0
 62
     0
 10
341.551
 20
3.87092
 30
0.0
 11
341.018
 21
3.29351
 31
0.0
  0
LINE
  8
0
 62
     0
 10
341.018
 20
3.29351
 30
0.0
 11
340.44
 21
2.76021
 31
0.0
  0
LINE
  8
0
 62
     0
 10
340.44
 20
2.76021
 30
0.0
 11
339.823
 21
2.27514
 31
0.0
  0
LINE
  8
0
 62
     0
 10
339.823
 20
2.27514
 30
0.0
 11
339.171
 21
1.8383
 31
0.0
  0
LINE
  8
0
 62
     0
 10
339.171
 20
1.8383
 30
0.0
 11
338.486
 21
1.45521
 31
0.0
  0
LINE
  8
0
 62
     0
 10
338.486
 20
1.45521
 30
0.0
 11
337.772
 21
1.12723
 31
0.0
  0
LINE
  8
0
 62
     0
 10
337.772
 20
1.12723
 30
0.0
 11
337.036
 21
0.854385
 31
0.0
  0
LINE
  8
0
 62
     0
 10
337.036
 20
0.854385
 30
0.0
 11
336.28
 21
0.642165
 31
0.0
  0
LINE
  8
0
 62
     0
 10
336.28
 20
0.642165
 30
0.0
 11
335.511
 21
0.489204
 31
0.0
  0
LINE
  8
0
 62
     0
 10
335.511
 20
0.489204
 30
0.0
 11
334.731
 21
0.395496
 31
0.0
  0
LINE
  8
0
 62
     0
 10
334.731
 20
0.395496
 30
0.0
 11
333.947
 21
0.365181
 31
0.0
  0
LINE
  8
0
 62
     0
 10
333.947
 20
0.365181
 30
0.0
 11
10.0955
 21
0.365181
 31
0.0
  0
LINE
  8
0
 62
     0
 10
10.0955
 20
0.365181
 30
0.0
 11
9.31002
 21
0.395496
 31
0.0
  0
LINE
  8
0
 62
     0
 10
9.31002
 20
0.395496
 30
0.0
 11
8.53006
 21
0.489204
 31
0.0
  0
LINE
  8
0
 62
     0
 10
8.53006
 20
0.489204
 30
0.0
 11
7.76111
 21
0.642165
 31
0.0
  0
LINE
  8
0
 62
     0
 10
7.76111
 20
0.642165
 30
0.0
 11
7.00458
 21
0.854385
 31
0.0
  0
LINE
  8
0
 62
     0
 10
7.00458
 20
0.854385
 30
0.0
 11
6.26869
 21
1.12723
 31
0.0
  0
LINE
  8
0
 62
     0
 10
6.26869
 20
1.12723
 30
0.0
 11
5.55487
 21
1.45521
 31
0.0
  0
LINE
  8
0
 62
     0
 10
5.55487
 20
1.45521
 30
0.0
 11
4.86999
 21
1.8383
 31
0.0
  0
LINE
  8
0
 62
     0
 10
4.86999
 20
1.8383
 30
0.0
 11
4.21816
 21
2.27514
 31
0.0
  0
LINE
  8
0
 62
     0
 10
4.21816
 20
2.27514
 30
0.0
 11
3.6008
 21
2.76021
 31
0.0
  0
LINE
  8
0
 62
     0
 10
3.6008
 20
2.76021
 30
0.0
 11
3.02341
 21
3.29351
 31
0.0
  0
LINE
  8
0
 62
     0
 10
3.02341
 20
3.29351
 30
0.0
 11
2.49011
 21
3.87092
 31
0.0
  0
LINE
  8
0
 62
     0
 10
2.49011
 20
3.87092
 30
0.0
 11
2.00504
 21
4.48829
 31
0.0
  0
LINE
  8
0
 62
     0
 10
2.00504
 20
4.48829
 30
0.0
 11
1.56821
 21
5.14008
 31
0.0
  0
LINE
  8
0
 62
     0
 10
1.56821
 20
5.14008
 30
0.0
 11
1.18511
 21
5.82496
 31
0.0
  0
LINE
  8
0
 62
     0
 10
1.18511
 20
5.82496
 30
0.0
 11
0.857141
 21
6.53881
 31
0.0
  0
LINE
  8
0
 62
     0
 10
0.857141
 20
6.53881
 30
0.0
 11
0.584288
 21
7.27467
 31
0.0
  0
LINE
  8
0
 62
     0
 10
0.584288
 20
7.27467
 30
0.0
 11
0.372071
 21
8.0312
 31
0.0
  0
LINE
  8
0
 62
     0
 10
0.372071
 20
8.0312
 30
0.0
 11
0.219108
 21
8.80015
 31
0.0
  0
LINE
  8
0
 62
     0
 10
0.219108
 20
8.80015
 30
0.0
 11
0.125402
 21
9.58014
 31
0.0
  0
LINE
  8
0
 62
     0
 10
0.125402
 20
9.58014
 30
0.0
 11
0.0950846
 21
10.3656
 31
0.0
  0
LINE
  8
0
 62
     0
 10
0.0950846
 20
10.3656
 30
0.0
 11
0.0950846
 21
105.616
 31
0.0
  0
LINE
  8
0
 62
     0
 10
0.0950846
 20
105.616
 30
0.0
 11
0.125402
 21
106.401
 31
0.0
  0
LINE
  8
0
 62
     0
 10
0.125402
 20
106.401
 30
0.0
 11
0.219108
 21
107.181
 31
0.0
  0
LINE
  8
0
 62
     0
 10
0.219108
 20
107.181
 30
0.0
 11
0.372071
 21
107.95
 31
0.0
  0
LINE
  8
0
 62
     0
 10
0.372071
 20
107.95
 30
0.0
 11
0.584288
 21
108.707
 31
0.0
  0
LINE
  8
0
 62
     0
 10
0.584288
 20
108.707
 30
0.0
 11
0.857141
 21
109.442
 31
0.0
  0
LINE
  8
0
 62
     0
 10
0.857141
 20
109.442
 30
0.0
 11
1.18511
 21
110.156
 31
0.0
  0
LINE
  8
0
 62
     0
 10
1.18511
 20
110.156
 30
0.0
 11
1.56821
 21
110.841
 31
0.0
  0
LINE
  8
0
 62
     0
 10
1.56821
 20
110.841
 30
0.0
 11
2.00504
 21
111.493
 31
0.0
  0
LINE
  8
0
 62
     0
 10
2.00504
 20
111.493
 30
0.0
 11
2.49011
 21
112.11
 31
0.0
  0
LINE
  8
0
 62
     0
 10
2.49011
 20
112.11
 30
0.0
 11
3.02341
 21
112.688
 31
0.0
  0
LINE
  8
0
 62
     0
 10
3.02341
 20
112.688
 30
0.0
 11
3.6008
 21
113.221
 31
0.0
  0
LINE
  8
0
 62
     0
 10
3.6008
 20
113.221
 30
0.0
 11
4.21816
 21
113.706
 31
0.0
  0
LINE
  8
0
 62
     0
 10
4.21816
 20
113.706
 30
0.0
 11
4.86999
 21
114.143
 31
0.0
  0
LINE
  8
0
 62
     0
 10
4.86999
 20
114.143
 30
0.0
 11
5.55487
 21
114.526
 31
0.0
  0
LINE
  8
0
 62
     0
 10
5.55487
 20
114.526
 30
0.0
 11
6.26869
 21
114.854
 31
0.0
  0
LINE
  8
0
 62
     0
 10
6.26869
 20
114.854
 30
0.0
 11
7.00458
 21
115.127
 31
0.0
  0
LINE
  8
0
 62
     0
 10
7.00458
 20
115.127
 30
0.0
 11
7.76111
 21
115.339
 31
0.0
  0
LINE
  8
0
 62
     0
 10
7.76111
 20
115.339
 30
0.0
 11
8.53006
 21
115.492
 31
0.0
  0
LINE
  8
0
 62
     0
 10
8.53006
 20
115.492
 30
0.0
 11
9.31002
 21
115.586
 31
0.0
  0
LINE
  8
0
 62
     0
 10
9.31002
 20
115.586
 30
0.0
 11
10.0955
 21
115.616
 31
0.0
  0
LINE
  8
0
 62
     0
 10
10.0955
 20
115.616
 30
0.0
 11
333.947
 21
115.616
 31
0.0
  0
LINE
  8
0
 62
     0
 10
338.482
 20
6.79097
 30
0.0
 11
338.064
 21
6.57874
 31
0.0
  0
LINE
  8
0
 62
     0
 10
338.064
 20
6.57874
 30
0.0
 11
337.733
 21
6.24664
 31
0.0
  0
LINE
  8
0
 62
     0
 10
337.733
 20
6.24664
 30
0.0
 11
337.52
 21
5.82909
 31
0.0
  0
LINE
  8
0
 62
     0
 10
337.52
 20
5.82909
 30
0.0
 11
337.447
 21
5.36607
 31
0.0
  0
LINE
  8
0
 62
     0
 10
337.447
 20
5.36607
 30
0.0
 11
337.52
 21
4.90167
 31
0.0
  0
LINE
  8
0
 62
     0
 10
337.52
 20
4.90167
 30
0.0
 11
337.733
 21
4.48412
 31
0.0
  0
LINE
  8
0
 62
     0
 10
337.733
 20
4.48412
 30
0.0
 11
338.064
 21
4.15202
 31
0.0
  0
LINE
  8
0
 62
     0
 10
338.064
 20
4.15202
 30
0.0
 11
338.482
 21
3.93845
 31
0.0
  0
LINE
  8
0
 62
     0
 10
338.482
 20
3.93845
 30
0.0
 11
338.946
 21
3.86539
 31
0.0
  0
LINE
  8
0
 62
     0
 10
338.946
 20
3.86539
 30
0.0
 11
339.409
 21
3.93845
 31
0.0
  0
LINE
  8
0
 62
     0
 10
339.409
 20
3.93845
 30
0.0
 11
339.827
 21
4.15202
 31
0.0
  0
LINE
  8
0
 62
     0
 10
339.827
 20
4.15202
 30
0.0
 11
340.159
 21
4.48412
 31
0.0
  0
LINE
  8
0
 62
     0
 10
340.159
 20
4.48412
 30
0.0
 11
340.373
 21
4.90167
 31
0.0
  0
LINE
  8
0
 62
     0
 10
340.373
 20
4.90167
 30
0.0
 11
340.447
 21
5.36607
 31
0.0
  0
LINE
  8
0
 62
     0
 10
340.447
 20
5.36607
 30
0.0
 11
340.373
 21
5.82909
 31
0.0
  0
LINE
  8
0
 62
     0
 10
340.373
 20
5.82909
 30
0.0
 11
340.159
 21
6.24664
 31
0.0
  0
LINE
  8
0
 62
     0
 10
340.159
 20
6.24664
 30
0.0
 11
339.827
 21
6.57874
 31
0.0
  0
LINE
  8
0
 62
     0
 10
339.827
 20
6.57874
 30
0.0
 11
339.409
 21
6.79097
 31
0.0
  0
LINE
  8
0
 62
     0
 10
339.409
 20
6.79097
 30
0.0
 11
338.946
 21
6.86537
 31
0.0
  0
LINE
  8
0
 62
     0
 10
338.946
 20
6.86537
 30
0.0
 11
338.482
 21
6.79097
 31
0.0
  0
LINE
  8
0
 62
     0
 10
255.018
 20
6.79097
 30
0.0
 11
254.601
 21
6.57874
 31
0.0
  0
LINE
  8
0
 62
     0
 10
254.601
 20
6.57874
 30
0.0
 11
254.269
 21
6.24664
 31
0.0
  0
LINE
  8
0
 62
     0
 10
254.269
 20
6.24664
 30
0.0
 11
254.056
 21
5.82909
 31
0.0
  0
LINE
  8
0
 62
     0
 10
254.056
 20
5.82909
 30
0.0
 11
253.982
 21
5.36607
 31
0.0
  0
LINE
  8
0
 62
     0
 10
253.982
 20
5.36607
 30
0.0
 11
254.056
 21
4.90167
 31
0.0
  0
LINE
  8
0
 62
     0
 10
254.056
 20
4.90167
 30
0.0
 11
254.269
 21
4.48412
 31
0.0
  0
LINE
  8
0
 62
     0
 10
254.269
 20
4.48412
 30
0.0
 11
254.601
 21
4.15202
 31
0.0
  0
LINE
  8
0
 62
     0
 10
254.601
 20
4.15202
 30
0.0
 11
255.018
 21
3.93845
 31
0.0
  0
LINE
  8
0
 62
     0
 10
255.018
 20
3.93845
 30
0.0
 11
255.483
 21
3.86539
 31
0.0
  0
LINE
  8
0
 62
     0
 10
255.483
 20
3.86539
 30
0.0
 11
255.946
 21
3.93845
 31
0.0
  0
LINE
  8
0
 62
     0
 10
255.946
 20
3.93845
 30
0.0
 11
256.365
 21
4.15202
 31
0.0
  0
LINE
  8
0
 62
     0
 10
256.365
 20
4.15202
 30
0.0
 11
256.697
 21
4.48412
 31
0.0
  0
LINE
  8
0
 62
     0
 10
256.697
 20
4.48412
 30
0.0
 11
256.909
 21
4.90167
 31
0.0
  0
LINE
  8
0
 62
     0
 10
256.909
 20
4.90167
 30
0.0
 11
256.982
 21
5.36607
 31
0.0
  0
LINE
  8
0
 62
     0
 10
256.982
 20
5.36607
 30
0.0
 11
256.909
 21
5.82909
 31
0.0
  0
LINE
  8
0
 62
     0
 10
256.909
 20
5.82909
 30
0.0
 11
256.697
 21
6.24664
 31
0.0
  0
LINE
  8
0
 62
     0
 10
256.697
 20
6.24664
 30
0.0
 11
256.365
 21
6.57874
 31
0.0
  0
LINE
  8
0
 62
     0
 10
256.365
 20
6.57874
 30
0.0
 11
255.946
 21
6.79097
 31
0.0
  0
LINE
  8
0
 62
     0
 10
255.946
 20
6.79097
 30
0.0
 11
255.483
 21
6.86537
 31
0.0
  0
LINE
  8
0
 62
     0
 10
255.483
 20
6.86537
 30
0.0
 11
255.018
 21
6.79097
 31
0.0
  0
LINE
  8
0
 62
     0
 10
171.556
 20
6.79097
 30
0.0
 11
171.138
 21
6.57874
 31
0.0
  0
LINE
  8
0
 62
     0
 10
171.138
 20
6.57874
 30
0.0
 11
170.807
 21
6.24664
 31
0.0
  0
LINE
  8
0
 62
     0
 10
170.807
 20
6.24664
 30
0.0
 11
170.593
 21
5.82909
 31
0.0
  0
LINE
  8
0
 62
     0
 10
170.593
 20
5.82909
 30
0.0
 11
170.52
 21
5.36607
 31
0.0
  0
LINE
  8
0
 62
     0
 10
170.52
 20
5.36607
 30
0.0
 11
170.593
 21
4.90167
 31
0.0
  0
LINE
  8
0
 62
     0
 10
170.593
 20
4.90167
 30
0.0
 11
170.807
 21
4.48412
 31
0.0
  0
LINE
  8
0
 62
     0
 10
170.807
 20
4.48412
 30
0.0
 11
171.138
 21
4.15202
 31
0.0
  0
LINE
  8
0
 62
     0
 10
171.138
 20
4.15202
 30
0.0
 11
171.556
 21
3.93845
 31
0.0
  0
LINE
  8
0
 62
     0
 10
171.556
 20
3.93845
 30
0.0
 11
172.02
 21
3.86539
 31
0.0
  0
LINE
  8
0
 62
     0
 10
172.02
 20
3.86539
 30
0.0
 11
172.485
 21
3.93845
 31
0.0
  0
LINE
  8
0
 62
     0
 10
172.485
 20
3.93845
 30
0.0
 11
172.902
 21
4.15202
 31
0.0
  0
LINE
  8
0
 62
     0
 10
172.902
 20
4.15202
 30
0.0
 11
173.235
 21
4.48412
 31
0.0
  0
LINE
  8
0
 62
     0
 10
173.235
 20
4.48412
 30
0.0
 11
173.448
 21
4.90167
 31
0.0
  0
LINE
  8
0
 62
     0
 10
173.448
 20
4.90167
 30
0.0
 11
173.52
 21
5.36607
 31
0.0
  0
LINE
  8
0
 62
     0
 10
173.52
 20
5.36607
 30
0.0
 11
173.448
 21
5.82909
 31
0.0
  0
LINE
  8
0
 62
     0
 10
173.448
 20
5.82909
 30
0.0
 11
173.235
 21
6.24664
 31
0.0
  0
LINE
  8
0
 62
     0
 10
173.235
 20
6.24664
 30
0.0
 11
172.902
 21
6.57874
 31
0.0
  0
LINE
  8
0
 62
     0
 10
172.902
 20
6.57874
 30
0.0
 11
172.485
 21
6.79097
 31
0.0
  0
LINE
  8
0
 62
     0
 10
172.485
 20
6.79097
 30
0.0
 11
172.02
 21
6.86537
 31
0.0
  0
LINE
  8
0
 62
     0
 10
172.02
 20
6.86537
 30
0.0
 11
171.556
 21
6.79097
 31
0.0
  0
LINE
  8
0
 62
     0
 10
88.0939
 20
6.79097
 30
0.0
 11
87.6762
 21
6.57874
 31
0.0
  0
LINE
  8
0
 62
     0
 10
87.6762
 20
6.57874
 30
0.0
 11
87.3442
 21
6.24664
 31
0.0
  0
LINE
  8
0
 62
     0
 10
87.3442
 20
6.24664
 30
0.0
 11
87.1319
 21
5.82909
 31
0.0
  0
LINE
  8
0
 62
     0
 10
87.1319
 20
5.82909
 30
0.0
 11
87.0574
 21
5.36607
 31
0.0
  0
LINE
  8
0
 62
     0
 10
87.0574
 20
5.36607
 30
0.0
 11
87.1319
 21
4.90167
 31
0.0
  0
LINE
  8
0
 62
     0
 10
87.1319
 20
4.90167
 30
0.0
 11
87.3442
 21
4.48412
 31
0.0
  0
LINE
  8
0
 62
     0
 10
87.3442
 20
4.48412
 30
0.0
 11
87.6762
 21
4.15202
 31
0.0
  0
LINE
  8
0
 62
     0
 10
87.6762
 20
4.15202
 30
0.0
 11
88.0939
 21
3.93845
 31
0.0
  0
LINE
  8
0
 62
     0
 10
88.0939
 20
3.93845
 30
0.0
 11
88.5567
 21
3.86539
 31
0.0
  0
LINE
  8
0
 62
     0
 10
88.5567
 20
3.86539
 30
0.0
 11
89.0214
 21
3.93845
 31
0.0
  0
LINE
  8
0
 62
     0
 10
89.0214
 20
3.93845
 30
0.0
 11
89.4387
 21
4.15202
 31
0.0
  0
LINE
  8
0
 62
     0
 10
89.4387
 20
4.15202
 30
0.0
 11
89.771
 21
4.48412
 31
0.0
  0
LINE
  8
0
 62
     0
 10
89.771
 20
4.48412
 30
0.0
 11
89.9844
 21
4.90167
 31
0.0
  0
LINE
  8
0
 62
     0
 10
89.9844
 20
4.90167
 30
0.0
 11
90.0575
 21
5.36607
 31
0.0
  0
LINE
  8
0
 62
     0
 10
90.0575
 20
5.36607
 30
0.0
 11
89.9844
 21
5.82909
 31
0.0
  0
LINE
  8
0
 62
     0
 10
89.9844
 20
5.82909
 30
0.0
 11
89.771
 21
6.24664
 31
0.0
  0
LINE
  8
0
 62
     0
 10
89.771
 20
6.24664
 30
0.0
 11
89.4387
 21
6.57874
 31
0.0
  0
LINE
  8
0
 62
     0
 10
89.4387
 20
6.57874
 30
0.0
 11
89.0214
 21
6.79097
 31
0.0
  0
LINE
  8
0
 62
     0
 10
89.0214
 20
6.79097
 30
0.0
 11
88.5567
 21
6.86537
 31
0.0
  0
LINE
  8
0
 62
     0
 10
88.5567
 20
6.86537
 30
0.0
 11
88.0939
 21
6.79097
 31
0.0
  0
LINE
  8
0
 62
     0
 10
4.63158
 20
6.79097
 30
0.0
 11
4.21404
 21
6.57874
 31
0.0
  0
LINE
  8
0
 62
     0
 10
4.21404
 20
6.57874
 30
0.0
 11
3.88193
 21
6.24664
 31
0.0
  0
LINE
  8
0
 62
     0
 10
3.88193
 20
6.24664
 30
0.0
 11
3.66832
 21
5.82909
 31
0.0
  0
LINE
  8
0
 62
     0
 10
3.66832
 20
5.82909
 30
0.0
 11
3.5953
 21
5.36607
 31
0.0
  0
LINE
  8
0
 62
     0
 10
3.5953
 20
5.36607
 30
0.0
 11
3.66832
 21
4.90167
 31
0.0
  0
LINE
  8
0
 62
     0
 10
3.66832
 20
4.90167
 30
0.0
 11
3.88193
 21
4.48412
 31
0.0
  0
LINE
  8
0
 62
     0
 10
3.88193
 20
4.48412
 30
0.0
 11
4.21404
 21
4.15202
 31
0.0
  0
LINE
  8
0
 62
     0
 10
4.21404
 20
4.15202
 30
0.0
 11
4.63158
 21
3.93845
 31
0.0
  0
LINE
  8
0
 62
     0
 10
4.63158
 20
3.93845
 30
0.0
 11
5.09598
 21
3.86539
 31
0.0
  0
LINE
  8
0
 62
     0
 10
5.09598
 20
3.86539
 30
0.0
 11
5.559
 21
3.93845
 31
0.0
  0
LINE
  8
0
 62
     0
 10
5.559
 20
3.93845
 30
0.0
 11
5.97655
 21
4.15202
 31
0.0
  0
LINE
  8
0
 62
     0
 10
5.97655
 20
4.15202
 30
0.0
 11
6.30865
 21
4.48412
 31
0.0
  0
LINE
  8
0
 62
     0
 10
6.30865
 20
4.48412
 30
0.0
 11
6.52089
 21
4.90167
 31
0.0
  0
LINE
  8
0
 62
     0
 10
6.52089
 20
4.90167
 30
0.0
 11
6.59529
 21
5.36607
 31
0.0
  0
LINE
  8
0
 62
     0
 10
6.59529
 20
5.36607
 30
0.0
 11
6.52089
 21
5.82909
 31
0.0
  0
LINE
  8
0
 62
     0
 10
6.52089
 20
5.82909
 30
0.0
 11
6.30865
 21
6.24664
 31
0.0
  0
LINE
  8
0
 62
     0
 10
6.30865
 20
6.24664
 30
0.0
 11
5.97655
 21
6.57874
 31
0.0
  0
LINE
  8
0
 62
     0
 10
5.97655
 20
6.57874
 30
0.0
 11
5.559
 21
6.79097
 31
0.0
  0
LINE
  8
0
 62
     0
 10
5.559
 20
6.79097
 30
0.0
 11
5.09598
 21
6.86537
 31
0.0
  0
LINE
  8
0
 62
     0
 10
5.09598
 20
6.86537
 30
0.0
 11
4.63158
 21
6.79097
 31
0.0
  0
LINE
  8
0
 62
     0
 10
88.0939
 20
112.043
 30
0.0
 11
87.6762
 21
111.829
 31
0.0
  0
LINE
  8
0
 62
     0
 10
87.6762
 20
111.829
 30
0.0
 11
87.3442
 21
111.497
 31
0.0
  0
LINE
  8
0
 62
     0
 10
87.3442
 20
111.497
 30
0.0
 11
87.1319
 21
111.079
 31
0.0
  0
LINE
  8
0
 62
     0
 10
87.1319
 20
111.079
 30
0.0
 11
87.0574
 21
110.615
 31
0.0
  0
LINE
  8
0
 62
     0
 10
87.0574
 20
110.615
 30
0.0
 11
87.1319
 21
110.152
 31
0.0
  0
LINE
  8
0
 62
     0
 10
87.1319
 20
110.152
 30
0.0
 11
87.3442
 21
109.735
 31
0.0
  0
LINE
  8
0
 62
     0
 10
87.3442
 20
109.735
 30
0.0
 11
87.6762
 21
109.402
 31
0.0
  0
LINE
  8
0
 62
     0
 10
87.6762
 20
109.402
 30
0.0
 11
88.0939
 21
109.19
 31
0.0
  0
LINE
  8
0
 62
     0
 10
88.0939
 20
109.19
 30
0.0
 11
88.5567
 21
109.116
 31
0.0
  0
LINE
  8
0
 62
     0
 10
88.5567
 20
109.116
 30
0.0
 11
89.0214
 21
109.19
 31
0.0
  0
LINE
  8
0
 62
     0
 10
89.0214
 20
109.19
 30
0.0
 11
89.4387
 21
109.402
 31
0.0
  0
LINE
  8
0
 62
     0
 10
89.4387
 20
109.402
 30
0.0
 11
89.771
 21
109.735
 31
0.0
  0
LINE
  8
0
 62
     0
 10
89.771
 20
109.735
 30
0.0
 11
89.9844
 21
110.152
 31
0.0
  0
LINE
  8
0
 62
     0
 10
89.9844
 20
110.152
 30
0.0
 11
90.0575
 21
110.615
 31
0.0
  0
LINE
  8
0
 62
     0
 10
90.0575
 20
110.615
 30
0.0
 11
89.9844
 21
111.079
 31
0.0
  0
LINE
  8
0
 62
     0
 10
89.9844
 20
111.079
 30
0.0
 11
89.771
 21
111.497
 31
0.0
  0
LINE
  8
0
 62
     0
 10
89.771
 20
111.497
 30
0.0
 11
89.4387
 21
111.829
 31
0.0
  0
LINE
  8
0
 62
     0
 10
89.4387
 20
111.829
 30
0.0
 11
89.0214
 21
112.043
 31
0.0
  0
LINE
  8
0
 62
     0
 10
89.0214
 20
112.043
 30
0.0
 11
88.5567
 21
112.116
 31
0.0
  0
LINE
  8
0
 62
     0
 10
88.5567
 20
112.116
 30
0.0
 11
88.0939
 21
112.043
 31
0.0
  0
LINE
  8
0
 62
     0
 10
171.556
 20
112.043
 30
0.0
 11
171.138
 21
111.829
 31
0.0
  0
LINE
  8
0
 62
     0
 10
171.138
 20
111.829
 30
0.0
 11
170.807
 21
111.497
 31
0.0
  0
LINE
  8
0
 62
     0
 10
170.807
 20
111.497
 30
0.0
 11
170.593
 21
111.079
 31
0.0
  0
LINE
  8
0
 62
     0
 10
170.593
 20
111.079
 30
0.0
 11
170.52
 21
110.615
 31
0.0
  0
LINE
  8
0
 62
     0
 10
170.52
 20
110.615
 30
0.0
 11
170.593
 21
110.152
 31
0.0
  0
LINE
  8
0
 62
     0
 10
170.593
 20
110.152
 30
0.0
 11
170.807
 21
109.735
 31
0.0
  0
LINE
  8
0
 62
     0
 10
170.807
 20
109.735
 30
0.0
 11
171.138
 21
109.402
 31
0.0
  0
LINE
  8
0
 62
     0
 10
171.138
 20
109.402
 30
0.0
 11
171.556
 21
109.19
 31
0.0
  0
LINE
  8
0
 62
     0
 10
171.556
 20
109.19
 30
0.0
 11
172.02
 21
109.116
 31
0.0
  0
LINE
  8
0
 62
     0
 10
172.02
 20
109.116
 30
0.0
 11
172.485
 21
109.19
 31
0.0
  0
LINE
  8
0
 62
     0
 10
172.485
 20
109.19
 30
0.0
 11
172.902
 21
109.402
 31
0.0
  0
LINE
  8
0
 62
     0
 10
172.902
 20
109.402
 30
0.0
 11
173.235
 21
109.735
 31
0.0
  0
LINE
  8
0
 62
     0
 10
173.235
 20
109.735
 30
0.0
 11
173.448
 21
110.152
 31
0.0
  0
LINE
  8
0
 62
     0
 10
173.448
 20
110.152
 30
0.0
 11
173.52
 21
110.615
 31
0.0
  0
LINE
  8
0
 62
     0
 10
173.52
 20
110.615
 30
0.0
 11
173.448
 21
111.079
 31
0.0
  0
LINE
  8
0
 62
     0
 10
173.448
 20
111.079
 30
0.0
 11
173.235
 21
111.497
 31
0.0
  0
LINE
  8
0
 62
     0
 10
173.235
 20
111.497
 30
0.0
 11
172.902
 21
111.829
 31
0.0
  0
LINE
  8
0
 62
     0
 10
172.902
 20
111.829
 30
0.0
 11
172.485
 21
112.043
 31
0.0
  0
LINE
  8
0
 62
     0
 10
172.485
 20
112.043
 30
0.0
 11
172.02
 21
112.116
 31
0.0
  0
LINE
  8
0
 62
     0
 10
172.02
 20
112.116
 30
0.0
 11
171.556
 21
112.043
 31
0.0
  0
LINE
  8
0
 62
     0
 10
255.018
 20
112.043
 30
0.0
 11
254.601
 21
111.829
 31
0.0
  0
LINE
  8
0
 62
     0
 10
254.601
 20
111.829
 30
0.0
 11
254.269
 21
111.497
 31
0.0
  0
LINE
  8
0
 62
     0
 10
254.269
 20
111.497
 30
0.0
 11
254.056
 21
111.079
 31
0.0
  0
LINE
  8
0
 62
     0
 10
254.056
 20
111.079
 30
0.0
 11
253.982
 21
110.615
 31
0.0
  0
LINE
  8
0
 62
     0
 10
253.982
 20
110.615
 30
0.0
 11
254.056
 21
110.152
 31
0.0
  0
LINE
  8
0
 62
     0
 10
254.056
 20
110.152
 30
0.0
 11
254.269
 21
109.735
 31
0.0
  0
LINE
  8
0
 62
     0
 10
254.269
 20
109.735
 30
0.0
 11
254.601
 21
109.402
 31
0.0
  0
LINE
  8
0
 62
     0
 10
254.601
 20
109.402
 30
0.0
 11
255.018
 21
109.19
 31
0.0
  0
LINE
  8
0
 62
     0
 10
255.018
 20
109.19
 30
0.0
 11
255.483
 21
109.116
 31
0.0
  0
LINE
  8
0
 62
     0
 10
255.483
 20
109.116
 30
0.0
 11
255.946
 21
109.19
 31
0.0
  0
LINE
  8
0
 62
     0
 10
255.946
 20
109.19
 30
0.0
 11
256.365
 21
109.402
 31
0.0
  0
LINE
  8
0
 62
     0
 10
256.365
 20
109.402
 30
0.0
 11
256.697
 21
109.735
 31
0.0
  0
LINE
  8
0
 62
     0
 10
256.697
 20
109.735
 30
0.0
 11
256.909
 21
110.152
 31
0.0
  0
LINE
  8
0
 62
     0
 10
256.909
 20
110.152
 30
0.0
 11
256.982
 21
110.615
 31
0.0
  0
LINE
  8
0
 62
     0
 10
256.982
 20
110.615
 30
0.0
 11
256.909
 21
111.079
 31
0.0
  0
LINE
  8
0
 62
     0
 10
256.909
 20
111.079
 30
0.0
 11
256.697
 21
111.497
 31
0.0
  0
LINE
  8
0
 62
     0
 10
256.697
 20
111.497
 30
0.0
 11
256.365
 21
111.829
 31
0.0
  0
LINE
  8
0
 62
     0
 10
256.365
 20
111.829
 30
0.0
 11
255.946
 21
112.043
 31
0.0
  0
LINE
  8
0
 62
     0
 10
255.946
 20
112.043
 30
0.0
 11
255.483
 21
112.116
 31
0.0
  0
LINE
  8
0
 62
     0
 10
255.483
 20
112.116
 30
0.0
 11
255.018
 21
112.043
 31
0.0
  0
LINE
  8
0
 62
     0
 10
338.482
 20
112.043
 30
0.0
 11
338.064
 21
111.829
 31
0.0
  0
LINE
  8
0
 62
     0
 10
338.064
 20
111.829
 30
0.0
 11
337.733
 21
111.497
 31
0.0
  0
LINE
  8
0
 62
     0
 10
337.733
 20
111.497
 30
0.0
 11
337.52
 21
111.079
 31
0.0
  0
LINE
  8
0
 62
     0
 10
337.52
 20
111.079
 30
0.0
 11
337.447
 21
110.615
 31
0.0
  0
LINE
  8
0
 62
     0
 10
337.447
 20
110.615
 30
0.0
 11
337.52
 21
110.152
 31
0.0
  0
LINE
  8
0
 62
     0
 10
337.52
 20
110.152
 30
0.0
 11
337.733
 21
109.735
 31
0.0
  0
LINE
  8
0
 62
     0
 10
337.733
 20
109.735
 30
0.0
 11
338.064
 21
109.402
 31
0.0
  0
LINE
  8
0
 62
     0
 10
338.064
 20
109.402
 30
0.0
 11
338.482
 21
109.19
 31
0.0
  0
LINE
  8
0
 62
     0
 10
338.482
 20
109.19
 30
0.0
 11
338.946
 21
109.116
 31
0.0
  0
LINE
  8
0
 62
     0
 10
338.946
 20
109.116
 30
0.0
 11
339.409
 21
109.19
 31
0.0
  0
LINE
  8
0
 62
     0
 10
339.409
 20
109.19
 30
0.0
 11
339.827
 21
109.402
 31
0.0
  0
LINE
  8
0
 62
     0
 10
339.827
 20
109.402
 30
0.0
 11
340.159
 21
109.735
 31
0.0
  0
LINE
  8
0
 62
     0
 10
340.159
 20
109.735
 30
0.0
 11
340.373
 21
110.152
 31
0.0
  0
LINE
  8
0
 62
     0
 10
340.373
 20
110.152
 30
0.0
 11
340.447
 21
110.615
 31
0.0
  0
LINE
  8
0
 62
     0
 10
340.447
 20
110.615
 30
0.0
 11
340.373
 21
111.079
 31
0.0
  0
LINE
  8
0
 62
     0
 10
340.373
 20
111.079
 30
0.0
 11
340.159
 21
111.497
 31
0.0
  0
LINE
  8
0
 62
     0
 10
340.159
 20
111.497
 30
0.0
 11
339.827
 21
111.829
 31
0.0
  0
LINE
  8
0
 62
     0
 10
339.827
 20
111.829
 30
0.0
 11
339.409
 21
112.043
 31
0.0
  0
LINE
  8
0
 62
     0
 10
339.409
 20
112.043
 30
0.0
 11
338.946
 21
112.116
 31
0.0
  0
LINE
  8
0
 62
     0
 10
338.946
 20
112.116
 30
0.0
 11
338.482
 21
112.043
 31
0.0
  0
LINE
  8
0
 62
     0
 10
4.63158
 20
112.043
 30
0.0
 11
4.21404
 21
111.829
 31
0.0
  0
LINE
  8
0
 62
     0
 10
4.21404
 20
111.829
 30
0.0
 11
3.88193
 21
111.497
 31
0.0
  0
LINE
  8
0
 62
     0
 10
3.88193
 20
111.497
 30
0.0
 11
3.66832
 21
111.079
 31
0.0
  0
LINE
  8
0
 62
     0
 10
3.66832
 20
111.079
 30
0.0
 11
3.5953
 21
110.615
 31
0.0
  0
LINE
  8
0
 62
     0
 10
3.5953
 20
110.615
 30
0.0
 11
3.66832
 21
110.152
 31
0.0
  0
LINE
  8
0
 62
     0
 10
3.66832
 20
110.152
 30
0.0
 11
3.88193
 21
109.735
 31
0.0
  0
LINE
  8
0
 62
     0
 10
3.88193
 20
109.735
 30
0.0
 11
4.21404
 21
109.402
 31
0.0
  0
LINE
  8
0
 62
     0
 10
4.21404
 20
109.402
 30
0.0
 11
4.63158
 21
109.19
 31
0.0
  0
LINE
  8
0
 62
     0
 10
4.63158
 20
109.19
 30
0.0
 11
5.09598
 21
109.116
 31
0.0
  0
LINE
  8
0
 62
     0
 10
5.09598
 20
109.116
 30
0.0
 11
5.559
 21
109.19
 31
0.0
  0
LINE
  8
0
 62
     0
 10
5.559
 20
109.19
 30
0.0
 11
5.97655
 21
109.402
 31
0.0
  0
LINE
  8
0
 62
     0
 10
5.97655
 20
109.402
 30
0.0
 11
6.30865
 21
109.735
 31
0.0
  0
LINE
  8
0
 62
     0
 10
6.30865
 20
109.735
 30
0.0
 11
6.52089
 21
110.152
 31
0.0
  0
LINE
  8
0
 62
     0
 10
6.52089
 20
110.152
 30
0.0
 11
6.59529
 21
110.615
 31
0.0
  0
LINE
  8
0
 62
     0
 10
6.59529
 20
110.615
 30
0.0
 11
6.52089
 21
111.079
 31
0.0
  0
LINE
  8
0
 62
     0
 10
6.52089
 20
111.079
 30
0.0
 11
6.30865
 21
111.497
 31
0.0
  0
LINE
  8
0
 62
     0
 10
6.30865
 20
111.497
 30
0.0
 11
5.97655
 21
111.829
 31
0.0
  0
LINE
  8
0
 62
     0
 10
5.97655
 20
111.829
 30
0.0
 11
5.559
 21
112.043
 31
0.0
  0
LINE
  8
0
 62
     0
 10
5.559
 20
112.043
 30
0.0
 11
5.09598
 21
112.116
 31
0.0
  0
LINE
  8
0
 62
     0
 10
5.09598
 20
112.116
 30
0.0
 11
4.63158
 21
112.043
 31
0.0
  0
ENDSEC
  0
EOF
