  0
SECTION
  2
HEADER
  9
$ACADVER
  1
AC1009
  9
$EXTMIN
 10
0.0
 20
0.0
 30
0.0
  9
$EXTMAX
 10
1000.0
 20
1000.0
 30
0.0
  9
$FILLMODE
 70
 0
  9
$SPLFRAME
 70
 1
  0
ENDSEC
  0
SECTION
  2
TABLES
  0
TABLE
  2
LAYER
 70
1
  0
LAYER
  2
0
 70
     0
 62
     7
  6
CONTINUOUS
  0
ENDTAB
  0
ENDSEC
  0
SECTION
  2
ENTITIES
  0
LINE
  8
0
 62
     0
 10
344.422
 20
125.494
 30
0.0
 11
345.205
 21
125.464
 31
0.0
  0
LINE
  8
0
 62
     0
 10
345.205
 20
125.464
 30
0.0
 11
345.985
 21
125.37
 31
0.0
  0
LINE
  8
0
 62
     0
 10
345.985
 20
125.37
 30
0.0
 11
346.756
 21
125.217
 31
0.0
  0
LINE
  8
0
 62
     0
 10
346.756
 20
125.217
 30
0.0
 11
347.511
 21
125.005
 31
0.0
  0
LINE
  8
0
 62
     0
 10
347.511
 20
125.005
 30
0.0
 11
348.248
 21
124.732
 31
0.0
  0
LINE
  8
0
 62
     0
 10
348.248
 20
124.732
 30
0.0
 11
348.961
 21
124.404
 31
0.0
  0
LINE
  8
0
 62
     0
 10
348.961
 20
124.404
 30
0.0
 11
349.645
 21
124.021
 31
0.0
  0
LINE
  8
0
 62
     0
 10
349.645
 20
124.021
 30
0.0
 11
350.299
 21
123.584
 31
0.0
  0
LINE
  8
0
 62
     0
 10
350.299
 20
123.584
 30
0.0
 11
350.916
 21
123.099
 31
0.0
  0
LINE
  8
0
 62
     0
 10
350.916
 20
123.099
 30
0.0
 11
351.492
 21
122.566
 31
0.0
  0
LINE
  8
0
 62
     0
 10
351.492
 20
122.566
 30
0.0
 11
352.025
 21
121.988
 31
0.0
  0
LINE
  8
0
 62
     0
 10
352.025
 20
121.988
 30
0.0
 11
352.512
 21
121.371
 31
0.0
  0
LINE
  8
0
 62
     0
 10
352.512
 20
121.371
 30
0.0
 11
352.947
 21
120.719
 31
0.0
  0
LINE
  8
0
 62
     0
 10
352.947
 20
120.719
 30
0.0
 11
353.332
 21
120.034
 31
0.0
  0
LINE
  8
0
 62
     0
 10
353.332
 20
120.034
 30
0.0
 11
353.66
 21
119.32
 31
0.0
  0
LINE
  8
0
 62
     0
 10
353.66
 20
119.32
 30
0.0
 11
353.931
 21
118.584
 31
0.0
  0
LINE
  8
0
 62
     0
 10
353.931
 20
118.584
 30
0.0
 11
354.147
 21
117.828
 31
0.0
  0
LINE
  8
0
 62
     0
 10
354.147
 20
117.828
 30
0.0
 11
354.298
 21
117.059
 31
0.0
  0
LINE
  8
0
 62
     0
 10
354.298
 20
117.059
 30
0.0
 11
354.39
 21
116.279
 31
0.0
  0
LINE
  8
0
 62
     0
 10
354.39
 20
116.279
 30
0.0
 11
354.422
 21
115.493
 31
0.0
  0
LINE
  8
0
 62
     0
 10
354.422
 20
115.493
 30
0.0
 11
354.422
 21
10.243
 31
0.0
  0
LINE
  8
0
 62
     0
 10
354.422
 20
10.243
 30
0.0
 11
354.39
 21
9.45885
 31
0.0
  0
LINE
  8
0
 62
     0
 10
354.39
 20
9.45885
 30
0.0
 11
354.298
 21
8.6789
 31
0.0
  0
LINE
  8
0
 62
     0
 10
354.298
 20
8.6789
 30
0.0
 11
354.147
 21
7.90857
 31
0.0
  0
LINE
  8
0
 62
     0
 10
354.147
 20
7.90857
 30
0.0
 11
353.931
 21
7.152
 31
0.0
  0
LINE
  8
0
 62
     0
 10
353.931
 20
7.152
 30
0.0
 11
353.66
 21
6.41615
 31
0.0
  0
LINE
  8
0
 62
     0
 10
353.66
 20
6.41615
 30
0.0
 11
353.332
 21
5.70371
 31
0.0
  0
LINE
  8
0
 62
     0
 10
353.332
 20
5.70371
 30
0.0
 11
352.947
 21
5.01883
 31
0.0
  0
LINE
  8
0
 62
     0
 10
352.947
 20
5.01883
 30
0.0
 11
352.512
 21
4.36563
 31
0.0
  0
LINE
  8
0
 62
     0
 10
352.512
 20
4.36563
 30
0.0
 11
352.025
 21
3.74826
 31
0.0
  0
LINE
  8
0
 62
     0
 10
352.025
 20
3.74826
 30
0.0
 11
351.492
 21
3.17087
 31
0.0
  0
LINE
  8
0
 62
     0
 10
351.492
 20
3.17087
 30
0.0
 11
350.916
 21
2.63894
 31
0.0
  0
LINE
  8
0
 62
     0
 10
350.916
 20
2.63894
 30
0.0
 11
350.299
 21
2.15249
 31
0.0
  0
LINE
  8
0
 62
     0
 10
350.299
 20
2.15249
 30
0.0
 11
349.645
 21
1.71704
 31
0.0
  0
LINE
  8
0
 62
     0
 10
349.645
 20
1.71704
 30
0.0
 11
348.961
 21
1.33256
 31
0.0
  0
LINE
  8
0
 62
     0
 10
348.961
 20
1.33256
 30
0.0
 11
348.248
 21
1.00459
 31
0.0
  0
LINE
  8
0
 62
     0
 10
348.248
 20
1.00459
 30
0.0
 11
347.511
 21
0.731739
 31
0.0
  0
LINE
  8
0
 62
     0
 10
347.511
 20
0.731739
 30
0.0
 11
346.756
 21
0.520898
 31
0.0
  0
LINE
  8
0
 62
     0
 10
346.756
 20
0.520898
 30
0.0
 11
345.985
 21
0.366557
 31
0.0
  0
LINE
  8
0
 62
     0
 10
345.985
 20
0.366557
 30
0.0
 11
345.205
 21
0.272852
 31
0.0
  0
LINE
  8
0
 62
     0
 10
345.205
 20
0.272852
 30
0.0
 11
344.422
 21
0.242535
 31
0.0
  0
LINE
  8
0
 62
     0
 10
344.422
 20
0.242535
 30
0.0
 11
10.0955
 21
0.243913
 31
0.0
  0
LINE
  8
0
 62
     0
 10
10.0955
 20
0.243913
 30
0.0
 11
9.31002
 21
0.272852
 31
0.0
  0
LINE
  8
0
 62
     0
 10
9.31002
 20
0.272852
 30
0.0
 11
8.53006
 21
0.366557
 31
0.0
  0
LINE
  8
0
 62
     0
 10
8.53006
 20
0.366557
 30
0.0
 11
7.76111
 21
0.520898
 31
0.0
  0
LINE
  8
0
 62
     0
 10
7.76111
 20
0.520898
 30
0.0
 11
7.00458
 21
0.731739
 31
0.0
  0
LINE
  8
0
 62
     0
 10
7.00458
 20
0.731739
 30
0.0
 11
6.26869
 21
1.00459
 31
0.0
  0
LINE
  8
0
 62
     0
 10
6.26869
 20
1.00459
 30
0.0
 11
5.55487
 21
1.33256
 31
0.0
  0
LINE
  8
0
 62
     0
 10
5.55487
 20
1.33256
 30
0.0
 11
4.86999
 21
1.71704
 31
0.0
  0
LINE
  8
0
 62
     0
 10
4.86999
 20
1.71704
 30
0.0
 11
4.21816
 21
2.15249
 31
0.0
  0
LINE
  8
0
 62
     0
 10
4.21816
 20
2.15249
 30
0.0
 11
3.6008
 21
2.63894
 31
0.0
  0
LINE
  8
0
 62
     0
 10
3.6008
 20
2.63894
 30
0.0
 11
3.02341
 21
3.17087
 31
0.0
  0
LINE
  8
0
 62
     0
 10
3.02341
 20
3.17087
 30
0.0
 11
2.49011
 21
3.74826
 31
0.0
  0
LINE
  8
0
 62
     0
 10
2.49011
 20
3.74826
 30
0.0
 11
2.00504
 21
4.36563
 31
0.0
  0
LINE
  8
0
 62
     0
 10
2.00504
 20
4.36563
 30
0.0
 11
1.56821
 21
5.01883
 31
0.0
  0
LINE
  8
0
 62
     0
 10
1.56821
 20
5.01883
 30
0.0
 11
1.18511
 21
5.70371
 31
0.0
  0
LINE
  8
0
 62
     0
 10
1.18511
 20
5.70371
 30
0.0
 11
0.857141
 21
6.41615
 31
0.0
  0
LINE
  8
0
 62
     0
 10
0.857141
 20
6.41615
 30
0.0
 11
0.584288
 21
7.152
 31
0.0
  0
LINE
  8
0
 62
     0
 10
0.584288
 20
7.152
 30
0.0
 11
0.372071
 21
7.90857
 31
0.0
  0
LINE
  8
0
 62
     0
 10
0.372071
 20
7.90857
 30
0.0
 11
0.219108
 21
8.6789
 31
0.0
  0
LINE
  8
0
 62
     0
 10
0.219108
 20
8.6789
 30
0.0
 11
0.125402
 21
9.45885
 31
0.0
  0
LINE
  8
0
 62
     0
 10
0.125402
 20
9.45885
 30
0.0
 11
0.0950846
 21
10.243
 31
0.0
  0
LINE
  8
0
 62
     0
 10
0.0950846
 20
10.243
 30
0.0
 11
0.0950846
 21
115.493
 31
0.0
  0
LINE
  8
0
 62
     0
 10
0.0950846
 20
115.493
 30
0.0
 11
0.125402
 21
116.279
 31
0.0
  0
LINE
  8
0
 62
     0
 10
0.125402
 20
116.279
 30
0.0
 11
0.219108
 21
117.059
 31
0.0
  0
LINE
  8
0
 62
     0
 10
0.219108
 20
117.059
 30
0.0
 11
0.372071
 21
117.828
 31
0.0
  0
LINE
  8
0
 62
     0
 10
0.372071
 20
117.828
 30
0.0
 11
0.584288
 21
118.584
 31
0.0
  0
LINE
  8
0
 62
     0
 10
0.584288
 20
118.584
 30
0.0
 11
0.857141
 21
119.32
 31
0.0
  0
LINE
  8
0
 62
     0
 10
0.857141
 20
119.32
 30
0.0
 11
1.18511
 21
120.034
 31
0.0
  0
LINE
  8
0
 62
     0
 10
1.18511
 20
120.034
 30
0.0
 11
1.56821
 21
120.719
 31
0.0
  0
LINE
  8
0
 62
     0
 10
1.56821
 20
120.719
 30
0.0
 11
2.00504
 21
121.371
 31
0.0
  0
LINE
  8
0
 62
     0
 10
2.00504
 20
121.371
 30
0.0
 11
2.49011
 21
121.988
 31
0.0
  0
LINE
  8
0
 62
     0
 10
2.49011
 20
121.988
 30
0.0
 11
3.02341
 21
122.566
 31
0.0
  0
LINE
  8
0
 62
     0
 10
3.02341
 20
122.566
 30
0.0
 11
3.6008
 21
123.099
 31
0.0
  0
LINE
  8
0
 62
     0
 10
3.6008
 20
123.099
 30
0.0
 11
4.21816
 21
123.584
 31
0.0
  0
LINE
  8
0
 62
     0
 10
4.21816
 20
123.584
 30
0.0
 11
4.86999
 21
124.021
 31
0.0
  0
LINE
  8
0
 62
     0
 10
4.86999
 20
124.021
 30
0.0
 11
5.55487
 21
124.404
 31
0.0
  0
LINE
  8
0
 62
     0
 10
5.55487
 20
124.404
 30
0.0
 11
6.26869
 21
124.732
 31
0.0
  0
LINE
  8
0
 62
     0
 10
6.26869
 20
124.732
 30
0.0
 11
7.00458
 21
125.005
 31
0.0
  0
LINE
  8
0
 62
     0
 10
7.00458
 20
125.005
 30
0.0
 11
7.76111
 21
125.217
 31
0.0
  0
LINE
  8
0
 62
     0
 10
7.76111
 20
125.217
 30
0.0
 11
8.53006
 21
125.37
 31
0.0
  0
LINE
  8
0
 62
     0
 10
8.53006
 20
125.37
 30
0.0
 11
9.31002
 21
125.464
 31
0.0
  0
LINE
  8
0
 62
     0
 10
9.31002
 20
125.464
 30
0.0
 11
10.0955
 21
125.494
 31
0.0
  0
LINE
  8
0
 62
     0
 10
10.0955
 20
125.494
 30
0.0
 11
344.422
 21
125.494
 31
0.0
  0
LINE
  8
0
 62
     0
 10
6.13089
 20
8.16903
 30
0.0
 11
5.71334
 21
7.9568
 31
0.0
  0
LINE
  8
0
 62
     0
 10
5.71334
 20
7.9568
 30
0.0
 11
5.38124
 21
7.62469
 31
0.0
  0
LINE
  8
0
 62
     0
 10
5.38124
 20
7.62469
 30
0.0
 11
5.16901
 21
7.20577
 31
0.0
  0
LINE
  8
0
 62
     0
 10
5.16901
 20
7.20577
 30
0.0
 11
5.09598
 21
6.74275
 31
0.0
  0
LINE
  8
0
 62
     0
 10
5.09598
 20
6.74275
 30
0.0
 11
5.16901
 21
6.27973
 31
0.0
  0
LINE
  8
0
 62
     0
 10
5.16901
 20
6.27973
 30
0.0
 11
5.38124
 21
5.8608
 31
0.0
  0
LINE
  8
0
 62
     0
 10
5.38124
 20
5.8608
 30
0.0
 11
5.71334
 21
5.53007
 31
0.0
  0
LINE
  8
0
 62
     0
 10
5.71334
 20
5.53007
 30
0.0
 11
6.13089
 21
5.31647
 31
0.0
  0
LINE
  8
0
 62
     0
 10
6.13089
 20
5.31647
 30
0.0
 11
6.59529
 21
5.24344
 31
0.0
  0
LINE
  8
0
 62
     0
 10
6.59529
 20
5.24344
 30
0.0
 11
7.05831
 21
5.31647
 31
0.0
  0
LINE
  8
0
 62
     0
 10
7.05831
 20
5.31647
 30
0.0
 11
7.47586
 21
5.53007
 31
0.0
  0
LINE
  8
0
 62
     0
 10
7.47586
 20
5.53007
 30
0.0
 11
7.80796
 21
5.8608
 31
0.0
  0
LINE
  8
0
 62
     0
 10
7.80796
 20
5.8608
 30
0.0
 11
8.02157
 21
6.27973
 31
0.0
  0
LINE
  8
0
 62
     0
 10
8.02157
 20
6.27973
 30
0.0
 11
8.09597
 21
6.74275
 31
0.0
  0
LINE
  8
0
 62
     0
 10
8.09597
 20
6.74275
 30
0.0
 11
8.02157
 21
7.20577
 31
0.0
  0
LINE
  8
0
 62
     0
 10
8.02157
 20
7.20577
 30
0.0
 11
7.80796
 21
7.62469
 31
0.0
  0
LINE
  8
0
 62
     0
 10
7.80796
 20
7.62469
 30
0.0
 11
7.47586
 21
7.9568
 31
0.0
  0
LINE
  8
0
 62
     0
 10
7.47586
 20
7.9568
 30
0.0
 11
7.05831
 21
8.16903
 31
0.0
  0
LINE
  8
0
 62
     0
 10
7.05831
 20
8.16903
 30
0.0
 11
6.59529
 21
8.24343
 31
0.0
  0
LINE
  8
0
 62
     0
 10
6.59529
 20
8.24343
 30
0.0
 11
6.13089
 21
8.16903
 31
0.0
  0
LINE
  8
0
 62
     0
 10
91.4633
 20
8.16903
 30
0.0
 11
91.0442
 21
7.9568
 31
0.0
  0
LINE
  8
0
 62
     0
 10
91.0442
 20
7.9568
 30
0.0
 11
90.7122
 21
7.62469
 31
0.0
  0
LINE
  8
0
 62
     0
 10
90.7122
 20
7.62469
 30
0.0
 11
90.4998
 21
7.20577
 31
0.0
  0
LINE
  8
0
 62
     0
 10
90.4998
 20
7.20577
 30
0.0
 11
90.4268
 21
6.74275
 31
0.0
  0
LINE
  8
0
 62
     0
 10
90.4268
 20
6.74275
 30
0.0
 11
90.4998
 21
6.27973
 31
0.0
  0
LINE
  8
0
 62
     0
 10
90.4998
 20
6.27973
 30
0.0
 11
90.7122
 21
5.8608
 31
0.0
  0
LINE
  8
0
 62
     0
 10
90.7122
 20
5.8608
 30
0.0
 11
91.0442
 21
5.53007
 31
0.0
  0
LINE
  8
0
 62
     0
 10
91.0442
 20
5.53007
 30
0.0
 11
91.4633
 21
5.31647
 31
0.0
  0
LINE
  8
0
 62
     0
 10
91.4633
 20
5.31647
 30
0.0
 11
91.9261
 21
5.24344
 31
0.0
  0
LINE
  8
0
 62
     0
 10
91.9261
 20
5.24344
 30
0.0
 11
92.3907
 21
5.31647
 31
0.0
  0
LINE
  8
0
 62
     0
 10
92.3907
 20
5.31647
 30
0.0
 11
92.8081
 21
5.53007
 31
0.0
  0
LINE
  8
0
 62
     0
 10
92.8081
 20
5.53007
 30
0.0
 11
93.1404
 21
5.8608
 31
0.0
  0
LINE
  8
0
 62
     0
 10
93.1404
 20
5.8608
 30
0.0
 11
93.3538
 21
6.27973
 31
0.0
  0
LINE
  8
0
 62
     0
 10
93.3538
 20
6.27973
 30
0.0
 11
93.4268
 21
6.74275
 31
0.0
  0
LINE
  8
0
 62
     0
 10
93.4268
 20
6.74275
 30
0.0
 11
93.3538
 21
7.20577
 31
0.0
  0
LINE
  8
0
 62
     0
 10
93.3538
 20
7.20577
 30
0.0
 11
93.1404
 21
7.62469
 31
0.0
  0
LINE
  8
0
 62
     0
 10
93.1404
 20
7.62469
 30
0.0
 11
92.8081
 21
7.9568
 31
0.0
  0
LINE
  8
0
 62
     0
 10
92.8081
 20
7.9568
 30
0.0
 11
92.3907
 21
8.16903
 31
0.0
  0
LINE
  8
0
 62
     0
 10
92.3907
 20
8.16903
 30
0.0
 11
91.9261
 21
8.24343
 31
0.0
  0
LINE
  8
0
 62
     0
 10
91.9261
 20
8.24343
 30
0.0
 11
91.4633
 21
8.16903
 31
0.0
  0
LINE
  8
0
 62
     0
 10
176.794
 20
8.16903
 30
0.0
 11
176.377
 21
7.9568
 31
0.0
  0
LINE
  8
0
 62
     0
 10
176.377
 20
7.9568
 30
0.0
 11
176.044
 21
7.62469
 31
0.0
  0
LINE
  8
0
 62
     0
 10
176.044
 20
7.62469
 30
0.0
 11
175.832
 21
7.20577
 31
0.0
  0
LINE
  8
0
 62
     0
 10
175.832
 20
7.20577
 30
0.0
 11
175.759
 21
6.74275
 31
0.0
  0
LINE
  8
0
 62
     0
 10
175.759
 20
6.74275
 30
0.0
 11
175.832
 21
6.27973
 31
0.0
  0
LINE
  8
0
 62
     0
 10
175.832
 20
6.27973
 30
0.0
 11
176.044
 21
5.8608
 31
0.0
  0
LINE
  8
0
 62
     0
 10
176.044
 20
5.8608
 30
0.0
 11
176.377
 21
5.53007
 31
0.0
  0
LINE
  8
0
 62
     0
 10
176.377
 20
5.53007
 30
0.0
 11
176.794
 21
5.31647
 31
0.0
  0
LINE
  8
0
 62
     0
 10
176.794
 20
5.31647
 30
0.0
 11
177.258
 21
5.24344
 31
0.0
  0
LINE
  8
0
 62
     0
 10
177.258
 20
5.24344
 30
0.0
 11
177.721
 21
5.31647
 31
0.0
  0
LINE
  8
0
 62
     0
 10
177.721
 20
5.31647
 30
0.0
 11
178.139
 21
5.53007
 31
0.0
  0
LINE
  8
0
 62
     0
 10
178.139
 20
5.53007
 30
0.0
 11
178.471
 21
5.8608
 31
0.0
  0
LINE
  8
0
 62
     0
 10
178.471
 20
5.8608
 30
0.0
 11
178.685
 21
6.27973
 31
0.0
  0
LINE
  8
0
 62
     0
 10
178.685
 20
6.27973
 30
0.0
 11
178.759
 21
6.74275
 31
0.0
  0
LINE
  8
0
 62
     0
 10
178.759
 20
6.74275
 30
0.0
 11
178.685
 21
7.20577
 31
0.0
  0
LINE
  8
0
 62
     0
 10
178.685
 20
7.20577
 30
0.0
 11
178.471
 21
7.62469
 31
0.0
  0
LINE
  8
0
 62
     0
 10
178.471
 20
7.62469
 30
0.0
 11
178.139
 21
7.9568
 31
0.0
  0
LINE
  8
0
 62
     0
 10
178.139
 20
7.9568
 30
0.0
 11
177.721
 21
8.16903
 31
0.0
  0
LINE
  8
0
 62
     0
 10
177.721
 20
8.16903
 30
0.0
 11
177.258
 21
8.24343
 31
0.0
  0
LINE
  8
0
 62
     0
 10
177.258
 20
8.24343
 30
0.0
 11
176.794
 21
8.16903
 31
0.0
  0
LINE
  8
0
 62
     0
 10
262.125
 20
8.16903
 30
0.0
 11
261.707
 21
7.9568
 31
0.0
  0
LINE
  8
0
 62
     0
 10
261.707
 20
7.9568
 30
0.0
 11
261.375
 21
7.62469
 31
0.0
  0
LINE
  8
0
 62
     0
 10
261.375
 20
7.62469
 30
0.0
 11
261.163
 21
7.20577
 31
0.0
  0
LINE
  8
0
 62
     0
 10
261.163
 20
7.20577
 30
0.0
 11
261.09
 21
6.74275
 31
0.0
  0
LINE
  8
0
 62
     0
 10
261.09
 20
6.74275
 30
0.0
 11
261.163
 21
6.27973
 31
0.0
  0
LINE
  8
0
 62
     0
 10
261.163
 20
6.27973
 30
0.0
 11
261.375
 21
5.8608
 31
0.0
  0
LINE
  8
0
 62
     0
 10
261.375
 20
5.8608
 30
0.0
 11
261.707
 21
5.53007
 31
0.0
  0
LINE
  8
0
 62
     0
 10
261.707
 20
5.53007
 30
0.0
 11
262.125
 21
5.31647
 31
0.0
  0
LINE
  8
0
 62
     0
 10
262.125
 20
5.31647
 30
0.0
 11
262.589
 21
5.24344
 31
0.0
  0
LINE
  8
0
 62
     0
 10
262.589
 20
5.24344
 30
0.0
 11
263.054
 21
5.31647
 31
0.0
  0
LINE
  8
0
 62
     0
 10
263.054
 20
5.31647
 30
0.0
 11
263.471
 21
5.53007
 31
0.0
  0
LINE
  8
0
 62
     0
 10
263.471
 20
5.53007
 30
0.0
 11
263.803
 21
5.8608
 31
0.0
  0
LINE
  8
0
 62
     0
 10
263.803
 20
5.8608
 30
0.0
 11
264.017
 21
6.27973
 31
0.0
  0
LINE
  8
0
 62
     0
 10
264.017
 20
6.27973
 30
0.0
 11
264.09
 21
6.74275
 31
0.0
  0
LINE
  8
0
 62
     0
 10
264.09
 20
6.74275
 30
0.0
 11
264.017
 21
7.20577
 31
0.0
  0
LINE
  8
0
 62
     0
 10
264.017
 20
7.20577
 30
0.0
 11
263.803
 21
7.62469
 31
0.0
  0
LINE
  8
0
 62
     0
 10
263.803
 20
7.62469
 30
0.0
 11
263.471
 21
7.9568
 31
0.0
  0
LINE
  8
0
 62
     0
 10
263.471
 20
7.9568
 30
0.0
 11
263.054
 21
8.16903
 31
0.0
  0
LINE
  8
0
 62
     0
 10
263.054
 20
8.16903
 30
0.0
 11
262.589
 21
8.24343
 31
0.0
  0
LINE
  8
0
 62
     0
 10
262.589
 20
8.24343
 30
0.0
 11
262.125
 21
8.16903
 31
0.0
  0
LINE
  8
0
 62
     0
 10
347.457
 20
8.16903
 30
0.0
 11
347.039
 21
7.9568
 31
0.0
  0
LINE
  8
0
 62
     0
 10
347.039
 20
7.9568
 30
0.0
 11
346.708
 21
7.62469
 31
0.0
  0
LINE
  8
0
 62
     0
 10
346.708
 20
7.62469
 30
0.0
 11
346.494
 21
7.20577
 31
0.0
  0
LINE
  8
0
 62
     0
 10
346.494
 20
7.20577
 30
0.0
 11
346.421
 21
6.74275
 31
0.0
  0
LINE
  8
0
 62
     0
 10
346.421
 20
6.74275
 30
0.0
 11
346.494
 21
6.27973
 31
0.0
  0
LINE
  8
0
 62
     0
 10
346.494
 20
6.27973
 30
0.0
 11
346.708
 21
5.8608
 31
0.0
  0
LINE
  8
0
 62
     0
 10
346.708
 20
5.8608
 30
0.0
 11
347.039
 21
5.53007
 31
0.0
  0
LINE
  8
0
 62
     0
 10
347.039
 20
5.53007
 30
0.0
 11
347.457
 21
5.31647
 31
0.0
  0
LINE
  8
0
 62
     0
 10
347.457
 20
5.31647
 30
0.0
 11
347.921
 21
5.24344
 31
0.0
  0
LINE
  8
0
 62
     0
 10
347.921
 20
5.24344
 30
0.0
 11
348.385
 21
5.31647
 31
0.0
  0
LINE
  8
0
 62
     0
 10
348.385
 20
5.31647
 30
0.0
 11
348.802
 21
5.53007
 31
0.0
  0
LINE
  8
0
 62
     0
 10
348.802
 20
5.53007
 30
0.0
 11
349.134
 21
5.8608
 31
0.0
  0
LINE
  8
0
 62
     0
 10
349.134
 20
5.8608
 30
0.0
 11
349.348
 21
6.27973
 31
0.0
  0
LINE
  8
0
 62
     0
 10
349.348
 20
6.27973
 30
0.0
 11
349.421
 21
6.74275
 31
0.0
  0
LINE
  8
0
 62
     0
 10
349.421
 20
6.74275
 30
0.0
 11
349.348
 21
7.20577
 31
0.0
  0
LINE
  8
0
 62
     0
 10
349.348
 20
7.20577
 30
0.0
 11
349.134
 21
7.62469
 31
0.0
  0
LINE
  8
0
 62
     0
 10
349.134
 20
7.62469
 30
0.0
 11
348.802
 21
7.9568
 31
0.0
  0
LINE
  8
0
 62
     0
 10
348.802
 20
7.9568
 30
0.0
 11
348.385
 21
8.16903
 31
0.0
  0
LINE
  8
0
 62
     0
 10
348.385
 20
8.16903
 30
0.0
 11
347.921
 21
8.24343
 31
0.0
  0
LINE
  8
0
 62
     0
 10
347.921
 20
8.24343
 30
0.0
 11
347.457
 21
8.16903
 31
0.0
  0
LINE
  8
0
 62
     0
 10
6.13089
 20
120.42
 30
0.0
 11
5.71334
 21
120.208
 31
0.0
  0
LINE
  8
0
 62
     0
 10
5.71334
 20
120.208
 30
0.0
 11
5.38124
 21
119.876
 31
0.0
  0
LINE
  8
0
 62
     0
 10
5.38124
 20
119.876
 30
0.0
 11
5.16901
 21
119.458
 31
0.0
  0
LINE
  8
0
 62
     0
 10
5.16901
 20
119.458
 30
0.0
 11
5.09598
 21
118.994
 31
0.0
  0
LINE
  8
0
 62
     0
 10
5.09598
 20
118.994
 30
0.0
 11
5.16901
 21
118.531
 31
0.0
  0
LINE
  8
0
 62
     0
 10
5.16901
 20
118.531
 30
0.0
 11
5.38124
 21
118.113
 31
0.0
  0
LINE
  8
0
 62
     0
 10
5.38124
 20
118.113
 30
0.0
 11
5.71334
 21
117.781
 31
0.0
  0
LINE
  8
0
 62
     0
 10
5.71334
 20
117.781
 30
0.0
 11
6.13089
 21
117.567
 31
0.0
  0
LINE
  8
0
 62
     0
 10
6.13089
 20
117.567
 30
0.0
 11
6.59529
 21
117.493
 31
0.0
  0
LINE
  8
0
 62
     0
 10
6.59529
 20
117.493
 30
0.0
 11
7.05831
 21
117.567
 31
0.0
  0
LINE
  8
0
 62
     0
 10
7.05831
 20
117.567
 30
0.0
 11
7.47586
 21
117.781
 31
0.0
  0
LINE
  8
0
 62
     0
 10
7.47586
 20
117.781
 30
0.0
 11
7.80796
 21
118.113
 31
0.0
  0
LINE
  8
0
 62
     0
 10
7.80796
 20
118.113
 30
0.0
 11
8.02157
 21
118.531
 31
0.0
  0
LINE
  8
0
 62
     0
 10
8.02157
 20
118.531
 30
0.0
 11
8.09597
 21
118.994
 31
0.0
  0
LINE
  8
0
 62
     0
 10
8.09597
 20
118.994
 30
0.0
 11
8.02157
 21
119.458
 31
0.0
  0
LINE
  8
0
 62
     0
 10
8.02157
 20
119.458
 30
0.0
 11
7.80796
 21
119.876
 31
0.0
  0
LINE
  8
0
 62
     0
 10
7.80796
 20
119.876
 30
0.0
 11
7.47586
 21
120.208
 31
0.0
  0
LINE
  8
0
 62
     0
 10
7.47586
 20
120.208
 30
0.0
 11
7.05831
 21
120.42
 31
0.0
  0
LINE
  8
0
 62
     0
 10
7.05831
 20
120.42
 30
0.0
 11
6.59529
 21
120.493
 31
0.0
  0
LINE
  8
0
 62
     0
 10
6.59529
 20
120.493
 30
0.0
 11
6.13089
 21
120.42
 31
0.0
  0
LINE
  8
0
 62
     0
 10
347.457
 20
120.42
 30
0.0
 11
347.039
 21
120.208
 31
0.0
  0
LINE
  8
0
 62
     0
 10
347.039
 20
120.208
 30
0.0
 11
346.708
 21
119.876
 31
0.0
  0
LINE
  8
0
 62
     0
 10
346.708
 20
119.876
 30
0.0
 11
346.494
 21
119.458
 31
0.0
  0
LINE
  8
0
 62
     0
 10
346.494
 20
119.458
 30
0.0
 11
346.421
 21
118.994
 31
0.0
  0
LINE
  8
0
 62
     0
 10
346.421
 20
118.994
 30
0.0
 11
346.494
 21
118.531
 31
0.0
  0
LINE
  8
0
 62
     0
 10
346.494
 20
118.531
 30
0.0
 11
346.708
 21
118.113
 31
0.0
  0
LINE
  8
0
 62
     0
 10
346.708
 20
118.113
 30
0.0
 11
347.039
 21
117.781
 31
0.0
  0
LINE
  8
0
 62
     0
 10
347.039
 20
117.781
 30
0.0
 11
347.457
 21
117.567
 31
0.0
  0
LINE
  8
0
 62
     0
 10
347.457
 20
117.567
 30
0.0
 11
347.921
 21
117.493
 31
0.0
  0
LINE
  8
0
 62
     0
 10
347.921
 20
117.493
 30
0.0
 11
348.385
 21
117.567
 31
0.0
  0
LINE
  8
0
 62
     0
 10
348.385
 20
117.567
 30
0.0
 11
348.802
 21
117.781
 31
0.0
  0
LINE
  8
0
 62
     0
 10
348.802
 20
117.781
 30
0.0
 11
349.134
 21
118.113
 31
0.0
  0
LINE
  8
0
 62
     0
 10
349.134
 20
118.113
 30
0.0
 11
349.348
 21
118.531
 31
0.0
  0
LINE
  8
0
 62
     0
 10
349.348
 20
118.531
 30
0.0
 11
349.421
 21
118.994
 31
0.0
  0
LINE
  8
0
 62
     0
 10
349.421
 20
118.994
 30
0.0
 11
349.348
 21
119.458
 31
0.0
  0
LINE
  8
0
 62
     0
 10
349.348
 20
119.458
 30
0.0
 11
349.134
 21
119.876
 31
0.0
  0
LINE
  8
0
 62
     0
 10
349.134
 20
119.876
 30
0.0
 11
348.802
 21
120.208
 31
0.0
  0
LINE
  8
0
 62
     0
 10
348.802
 20
120.208
 30
0.0
 11
348.385
 21
120.42
 31
0.0
  0
LINE
  8
0
 62
     0
 10
348.385
 20
120.42
 30
0.0
 11
347.921
 21
120.493
 31
0.0
  0
LINE
  8
0
 62
     0
 10
347.921
 20
120.493
 30
0.0
 11
347.457
 21
120.42
 31
0.0
  0
LINE
  8
0
 62
     0
 10
262.125
 20
120.42
 30
0.0
 11
261.707
 21
120.208
 31
0.0
  0
LINE
  8
0
 62
     0
 10
261.707
 20
120.208
 30
0.0
 11
261.375
 21
119.876
 31
0.0
  0
LINE
  8
0
 62
     0
 10
261.375
 20
119.876
 30
0.0
 11
261.163
 21
119.458
 31
0.0
  0
LINE
  8
0
 62
     0
 10
261.163
 20
119.458
 30
0.0
 11
261.09
 21
118.994
 31
0.0
  0
LINE
  8
0
 62
     0
 10
261.09
 20
118.994
 30
0.0
 11
261.163
 21
118.531
 31
0.0
  0
LINE
  8
0
 62
     0
 10
261.163
 20
118.531
 30
0.0
 11
261.375
 21
118.113
 31
0.0
  0
LINE
  8
0
 62
     0
 10
261.375
 20
118.113
 30
0.0
 11
261.707
 21
117.781
 31
0.0
  0
LINE
  8
0
 62
     0
 10
261.707
 20
117.781
 30
0.0
 11
262.125
 21
117.567
 31
0.0
  0
LINE
  8
0
 62
     0
 10
262.125
 20
117.567
 30
0.0
 11
262.589
 21
117.493
 31
0.0
  0
LINE
  8
0
 62
     0
 10
262.589
 20
117.493
 30
0.0
 11
263.054
 21
117.567
 31
0.0
  0
LINE
  8
0
 62
     0
 10
263.054
 20
117.567
 30
0.0
 11
263.471
 21
117.781
 31
0.0
  0
LINE
  8
0
 62
     0
 10
263.471
 20
117.781
 30
0.0
 11
263.803
 21
118.113
 31
0.0
  0
LINE
  8
0
 62
     0
 10
263.803
 20
118.113
 30
0.0
 11
264.017
 21
118.531
 31
0.0
  0
LINE
  8
0
 62
     0
 10
264.017
 20
118.531
 30
0.0
 11
264.09
 21
118.994
 31
0.0
  0
LINE
  8
0
 62
     0
 10
264.09
 20
118.994
 30
0.0
 11
264.017
 21
119.458
 31
0.0
  0
LINE
  8
0
 62
     0
 10
264.017
 20
119.458
 30
0.0
 11
263.803
 21
119.876
 31
0.0
  0
LINE
  8
0
 62
     0
 10
263.803
 20
119.876
 30
0.0
 11
263.471
 21
120.208
 31
0.0
  0
LINE
  8
0
 62
     0
 10
263.471
 20
120.208
 30
0.0
 11
263.054
 21
120.42
 31
0.0
  0
LINE
  8
0
 62
     0
 10
263.054
 20
120.42
 30
0.0
 11
262.589
 21
120.493
 31
0.0
  0
LINE
  8
0
 62
     0
 10
262.589
 20
120.493
 30
0.0
 11
262.125
 21
120.42
 31
0.0
  0
LINE
  8
0
 62
     0
 10
176.794
 20
120.42
 30
0.0
 11
176.377
 21
120.208
 31
0.0
  0
LINE
  8
0
 62
     0
 10
176.377
 20
120.208
 30
0.0
 11
176.044
 21
119.876
 31
0.0
  0
LINE
  8
0
 62
     0
 10
176.044
 20
119.876
 30
0.0
 11
175.832
 21
119.458
 31
0.0
  0
LINE
  8
0
 62
     0
 10
175.832
 20
119.458
 30
0.0
 11
175.759
 21
118.994
 31
0.0
  0
LINE
  8
0
 62
     0
 10
175.759
 20
118.994
 30
0.0
 11
175.832
 21
118.531
 31
0.0
  0
LINE
  8
0
 62
     0
 10
175.832
 20
118.531
 30
0.0
 11
176.044
 21
118.113
 31
0.0
  0
LINE
  8
0
 62
     0
 10
176.044
 20
118.113
 30
0.0
 11
176.377
 21
117.781
 31
0.0
  0
LINE
  8
0
 62
     0
 10
176.377
 20
117.781
 30
0.0
 11
176.794
 21
117.567
 31
0.0
  0
LINE
  8
0
 62
     0
 10
176.794
 20
117.567
 30
0.0
 11
177.258
 21
117.493
 31
0.0
  0
LINE
  8
0
 62
     0
 10
177.258
 20
117.493
 30
0.0
 11
177.721
 21
117.567
 31
0.0
  0
LINE
  8
0
 62
     0
 10
177.721
 20
117.567
 30
0.0
 11
178.139
 21
117.781
 31
0.0
  0
LINE
  8
0
 62
     0
 10
178.139
 20
117.781
 30
0.0
 11
178.471
 21
118.113
 31
0.0
  0
LINE
  8
0
 62
     0
 10
178.471
 20
118.113
 30
0.0
 11
178.685
 21
118.531
 31
0.0
  0
LINE
  8
0
 62
     0
 10
178.685
 20
118.531
 30
0.0
 11
178.759
 21
118.994
 31
0.0
  0
LINE
  8
0
 62
     0
 10
178.759
 20
118.994
 30
0.0
 11
178.685
 21
119.458
 31
0.0
  0
LINE
  8
0
 62
     0
 10
178.685
 20
119.458
 30
0.0
 11
178.471
 21
119.876
 31
0.0
  0
LINE
  8
0
 62
     0
 10
178.471
 20
119.876
 30
0.0
 11
178.139
 21
120.208
 31
0.0
  0
LINE
  8
0
 62
     0
 10
178.139
 20
120.208
 30
0.0
 11
177.721
 21
120.42
 31
0.0
  0
LINE
  8
0
 62
     0
 10
177.721
 20
120.42
 30
0.0
 11
177.258
 21
120.493
 31
0.0
  0
LINE
  8
0
 62
     0
 10
177.258
 20
120.493
 30
0.0
 11
176.794
 21
120.42
 31
0.0
  0
LINE
  8
0
 62
     0
 10
91.4633
 20
120.42
 30
0.0
 11
91.0442
 21
120.208
 31
0.0
  0
LINE
  8
0
 62
     0
 10
91.0442
 20
120.208
 30
0.0
 11
90.7122
 21
119.876
 31
0.0
  0
LINE
  8
0
 62
     0
 10
90.7122
 20
119.876
 30
0.0
 11
90.4998
 21
119.458
 31
0.0
  0
LINE
  8
0
 62
     0
 10
90.4998
 20
119.458
 30
0.0
 11
90.4268
 21
118.994
 31
0.0
  0
LINE
  8
0
 62
     0
 10
90.4268
 20
118.994
 30
0.0
 11
90.4998
 21
118.531
 31
0.0
  0
LINE
  8
0
 62
     0
 10
90.4998
 20
118.531
 30
0.0
 11
90.7122
 21
118.113
 31
0.0
  0
LINE
  8
0
 62
     0
 10
90.7122
 20
118.113
 30
0.0
 11
91.0442
 21
117.781
 31
0.0
  0
LINE
  8
0
 62
     0
 10
91.0442
 20
117.781
 30
0.0
 11
91.4633
 21
117.567
 31
0.0
  0
LINE
  8
0
 62
     0
 10
91.4633
 20
117.567
 30
0.0
 11
91.9261
 21
117.493
 31
0.0
  0
LINE
  8
0
 62
     0
 10
91.9261
 20
117.493
 30
0.0
 11
92.3907
 21
117.567
 31
0.0
  0
LINE
  8
0
 62
     0
 10
92.3907
 20
117.567
 30
0.0
 11
92.8081
 21
117.781
 31
0.0
  0
LINE
  8
0
 62
     0
 10
92.8081
 20
117.781
 30
0.0
 11
93.1404
 21
118.113
 31
0.0
  0
LINE
  8
0
 62
     0
 10
93.1404
 20
118.113
 30
0.0
 11
93.3538
 21
118.531
 31
0.0
  0
LINE
  8
0
 62
     0
 10
93.3538
 20
118.531
 30
0.0
 11
93.4268
 21
118.994
 31
0.0
  0
LINE
  8
0
 62
     0
 10
93.4268
 20
118.994
 30
0.0
 11
93.3538
 21
119.458
 31
0.0
  0
LINE
  8
0
 62
     0
 10
93.3538
 20
119.458
 30
0.0
 11
93.1404
 21
119.876
 31
0.0
  0
LINE
  8
0
 62
     0
 10
93.1404
 20
119.876
 30
0.0
 11
92.8081
 21
120.208
 31
0.0
  0
LINE
  8
0
 62
     0
 10
92.8081
 20
120.208
 30
0.0
 11
92.3907
 21
120.42
 31
0.0
  0
LINE
  8
0
 62
     0
 10
92.3907
 20
120.42
 30
0.0
 11
91.9261
 21
120.493
 31
0.0
  0
LINE
  8
0
 62
     0
 10
91.9261
 20
120.493
 30
0.0
 11
91.4633
 21
120.42
 31
0.0
  0
ENDSEC
  0
EOF
