  0
SECTION
  2
HEADER
  9
$ACADVER
  1
AC1009
  9
$FILLMODE
 70
 0
  9
$SPLFRAME
 70
 1
  9
$EXTMIN
 10
0
 20
0
 30
0.0
  9
$EXTMAX
 10
1058.33
 20
1058.33
 30
0.0
  0
ENDSEC
  0
SECTION
  2
TABLES
  0
TABLE
  2
LAYER
 70
1
  0
LAYER
  2
0
 70
     0
 62
     7
  6
CONTINUOUS
  0
ENDTAB
  0
ENDSEC
  0
SECTION
  2
ENTITIES
  0
LINE
  8
0
 62
     0
 10
333.947
 20
115.616
 30
0.0
 11
334.731
 21
115.586
 31
0.0
  0
LINE
  8
0
 62
     0
 10
334.731
 20
115.586
 30
0.0
 11
335.511
 21
115.492
 31
0.0
  0
LINE
  8
0
 62
     0
 10
335.511
 20
115.492
 30
0.0
 11
336.28
 21
115.339
 31
0.0
  0
LINE
  8
0
 62
     0
 10
336.28
 20
115.339
 30
0.0
 11
337.036
 21
115.127
 31
0.0
  0
LINE
  8
0
 62
     0
 10
337.036
 20
115.127
 30
0.0
 11
337.772
 21
114.854
 31
0.0
  0
LINE
  8
0
 62
     0
 10
337.772
 20
114.854
 30
0.0
 11
338.486
 21
114.526
 31
0.0
  0
LINE
  8
0
 62
     0
 10
338.486
 20
114.526
 30
0.0
 11
339.171
 21
114.143
 31
0.0
  0
LINE
  8
0
 62
     0
 10
339.171
 20
114.143
 30
0.0
 11
339.823
 21
113.706
 31
0.0
  0
LINE
  8
0
 62
     0
 10
339.823
 20
113.706
 30
0.0
 11
340.44
 21
113.221
 31
0.0
  0
LINE
  8
0
 62
     0
 10
340.44
 20
113.221
 30
0.0
 11
341.018
 21
112.688
 31
0.0
  0
LINE
  8
0
 62
     0
 10
341.018
 20
112.688
 30
0.0
 11
341.551
 21
112.11
 31
0.0
  0
LINE
  8
0
 62
     0
 10
341.551
 20
112.11
 30
0.0
 11
342.036
 21
111.493
 31
0.0
  0
LINE
  8
0
 62
     0
 10
342.036
 20
111.493
 30
0.0
 11
342.473
 21
110.841
 31
0.0
  0
LINE
  8
0
 62
     0
 10
342.473
 20
110.841
 30
0.0
 11
342.856
 21
110.156
 31
0.0
  0
LINE
  8
0
 62
     0
 10
342.856
 20
110.156
 30
0.0
 11
343.184
 21
109.442
 31
0.0
  0
LINE
  8
0
 62
     0
 10
343.184
 20
109.442
 30
0.0
 11
343.457
 21
108.707
 31
0.0
  0
LINE
  8
0
 62
     0
 10
343.457
 20
108.707
 30
0.0
 11
343.669
 21
107.95
 31
0.0
  0
LINE
  8
0
 62
     0
 10
343.669
 20
107.95
 30
0.0
 11
343.822
 21
107.181
 31
0.0
  0
LINE
  8
0
 62
     0
 10
343.822
 20
107.181
 30
0.0
 11
343.916
 21
106.401
 31
0.0
  0
LINE
  8
0
 62
     0
 10
343.916
 20
106.401
 30
0.0
 11
343.946
 21
105.616
 31
0.0
  0
LINE
  8
0
 62
     0
 10
343.946
 20
105.616
 30
0.0
 11
343.946
 21
10.3656
 31
0.0
  0
LINE
  8
0
 62
     0
 10
343.946
 20
10.3656
 30
0.0
 11
343.916
 21
9.58014
 31
0.0
  0
LINE
  8
0
 62
     0
 10
343.916
 20
9.58014
 30
0.0
 11
343.822
 21
8.80015
 31
0.0
  0
LINE
  8
0
 62
     0
 10
343.822
 20
8.80015
 30
0.0
 11
343.669
 21
8.0312
 31
0.0
  0
LINE
  8
0
 62
     0
 10
343.669
 20
8.0312
 30
0.0
 11
343.457
 21
7.27467
 31
0.0
  0
LINE
  8
0
 62
     0
 10
343.457
 20
7.27467
 30
0.0
 11
343.184
 21
6.53881
 31
0.0
  0
LINE
  8
0
 62
     0
 10
343.184
 20
6.53881
 30
0.0
 11
342.856
 21
5.82496
 31
0.0
  0
LINE
  8
0
 62
     0
 10
342.856
 20
5.82496
 30
0.0
 11
342.473
 21
5.14008
 31
0.0
  0
LINE
  8
0
 62
     0
 10
342.473
 20
5.14008
 30
0.0
 11
342.036
 21
4.48829
 31
0.0
  0
LINE
  8
0
 62
     0
 10
342.036
 20
4.48829
 30
0.0
 11
341.551
 21
3.87092
 31
0.0
  0
LINE
  8
0
 62
     0
 10
341.551
 20
3.87092
 30
0.0
 11
341.018
 21
3.29351
 31
0.0
  0
LINE
  8
0
 62
     0
 10
341.018
 20
3.29351
 30
0.0
 11
340.44
 21
2.76021
 31
0.0
  0
LINE
  8
0
 62
     0
 10
340.44
 20
2.76021
 30
0.0
 11
339.823
 21
2.27514
 31
0.0
  0
LINE
  8
0
 62
     0
 10
339.823
 20
2.27514
 30
0.0
 11
339.171
 21
1.8383
 31
0.0
  0
LINE
  8
0
 62
     0
 10
339.171
 20
1.8383
 30
0.0
 11
338.486
 21
1.45521
 31
0.0
  0
LINE
  8
0
 62
     0
 10
338.486
 20
1.45521
 30
0.0
 11
337.772
 21
1.12723
 31
0.0
  0
LINE
  8
0
 62
     0
 10
337.772
 20
1.12723
 30
0.0
 11
337.036
 21
0.854385
 31
0.0
  0
LINE
  8
0
 62
     0
 10
337.036
 20
0.854385
 30
0.0
 11
336.28
 21
0.642165
 31
0.0
  0
LINE
  8
0
 62
     0
 10
336.28
 20
0.642165
 30
0.0
 11
335.511
 21
0.489204
 31
0.0
  0
LINE
  8
0
 62
     0
 10
335.511
 20
0.489204
 30
0.0
 11
334.731
 21
0.395496
 31
0.0
  0
LINE
  8
0
 62
     0
 10
334.731
 20
0.395496
 30
0.0
 11
333.947
 21
0.365181
 31
0.0
  0
LINE
  8
0
 62
     0
 10
333.947
 20
0.365181
 30
0.0
 11
10.0955
 21
0.365181
 31
0.0
  0
LINE
  8
0
 62
     0
 10
10.0955
 20
0.365181
 30
0.0
 11
9.31002
 21
0.395496
 31
0.0
  0
LINE
  8
0
 62
     0
 10
9.31002
 20
0.395496
 30
0.0
 11
8.53006
 21
0.489204
 31
0.0
  0
LINE
  8
0
 62
     0
 10
8.53006
 20
0.489204
 30
0.0
 11
7.76111
 21
0.642165
 31
0.0
  0
LINE
  8
0
 62
     0
 10
7.76111
 20
0.642165
 30
0.0
 11
7.00458
 21
0.854385
 31
0.0
  0
LINE
  8
0
 62
     0
 10
7.00458
 20
0.854385
 30
0.0
 11
6.26869
 21
1.12723
 31
0.0
  0
LINE
  8
0
 62
     0
 10
6.26869
 20
1.12723
 30
0.0
 11
5.55487
 21
1.45521
 31
0.0
  0
LINE
  8
0
 62
     0
 10
5.55487
 20
1.45521
 30
0.0
 11
4.86999
 21
1.8383
 31
0.0
  0
LINE
  8
0
 62
     0
 10
4.86999
 20
1.8383
 30
0.0
 11
4.21816
 21
2.27514
 31
0.0
  0
LINE
  8
0
 62
     0
 10
4.21816
 20
2.27514
 30
0.0
 11
3.6008
 21
2.76021
 31
0.0
  0
LINE
  8
0
 62
     0
 10
3.6008
 20
2.76021
 30
0.0
 11
3.02341
 21
3.29351
 31
0.0
  0
LINE
  8
0
 62
     0
 10
3.02341
 20
3.29351
 30
0.0
 11
2.49011
 21
3.87092
 31
0.0
  0
LINE
  8
0
 62
     0
 10
2.49011
 20
3.87092
 30
0.0
 11
2.00504
 21
4.48829
 31
0.0
  0
LINE
  8
0
 62
     0
 10
2.00504
 20
4.48829
 30
0.0
 11
1.56821
 21
5.14008
 31
0.0
  0
LINE
  8
0
 62
     0
 10
1.56821
 20
5.14008
 30
0.0
 11
1.18511
 21
5.82496
 31
0.0
  0
LINE
  8
0
 62
     0
 10
1.18511
 20
5.82496
 30
0.0
 11
0.857141
 21
6.53881
 31
0.0
  0
LINE
  8
0
 62
     0
 10
0.857141
 20
6.53881
 30
0.0
 11
0.584288
 21
7.27467
 31
0.0
  0
LINE
  8
0
 62
     0
 10
0.584288
 20
7.27467
 30
0.0
 11
0.372071
 21
8.0312
 31
0.0
  0
LINE
  8
0
 62
     0
 10
0.372071
 20
8.0312
 30
0.0
 11
0.219108
 21
8.80015
 31
0.0
  0
LINE
  8
0
 62
     0
 10
0.219108
 20
8.80015
 30
0.0
 11
0.125402
 21
9.58014
 31
0.0
  0
LINE
  8
0
 62
     0
 10
0.125402
 20
9.58014
 30
0.0
 11
0.0950846
 21
10.3656
 31
0.0
  0
LINE
  8
0
 62
     0
 10
0.0950846
 20
10.3656
 30
0.0
 11
0.0950846
 21
105.616
 31
0.0
  0
LINE
  8
0
 62
     0
 10
0.0950846
 20
105.616
 30
0.0
 11
0.125402
 21
106.401
 31
0.0
  0
LINE
  8
0
 62
     0
 10
0.125402
 20
106.401
 30
0.0
 11
0.219108
 21
107.181
 31
0.0
  0
LINE
  8
0
 62
     0
 10
0.219108
 20
107.181
 30
0.0
 11
0.372071
 21
107.95
 31
0.0
  0
LINE
  8
0
 62
     0
 10
0.372071
 20
107.95
 30
0.0
 11
0.584288
 21
108.707
 31
0.0
  0
LINE
  8
0
 62
     0
 10
0.584288
 20
108.707
 30
0.0
 11
0.857141
 21
109.442
 31
0.0
  0
LINE
  8
0
 62
     0
 10
0.857141
 20
109.442
 30
0.0
 11
1.18511
 21
110.156
 31
0.0
  0
LINE
  8
0
 62
     0
 10
1.18511
 20
110.156
 30
0.0
 11
1.56821
 21
110.841
 31
0.0
  0
LINE
  8
0
 62
     0
 10
1.56821
 20
110.841
 30
0.0
 11
2.00504
 21
111.493
 31
0.0
  0
LINE
  8
0
 62
     0
 10
2.00504
 20
111.493
 30
0.0
 11
2.49011
 21
112.11
 31
0.0
  0
LINE
  8
0
 62
     0
 10
2.49011
 20
112.11
 30
0.0
 11
3.02341
 21
112.688
 31
0.0
  0
LINE
  8
0
 62
     0
 10
3.02341
 20
112.688
 30
0.0
 11
3.6008
 21
113.221
 31
0.0
  0
LINE
  8
0
 62
     0
 10
3.6008
 20
113.221
 30
0.0
 11
4.21816
 21
113.706
 31
0.0
  0
LINE
  8
0
 62
     0
 10
4.21816
 20
113.706
 30
0.0
 11
4.86999
 21
114.143
 31
0.0
  0
LINE
  8
0
 62
     0
 10
4.86999
 20
114.143
 30
0.0
 11
5.55487
 21
114.526
 31
0.0
  0
LINE
  8
0
 62
     0
 10
5.55487
 20
114.526
 30
0.0
 11
6.26869
 21
114.854
 31
0.0
  0
LINE
  8
0
 62
     0
 10
6.26869
 20
114.854
 30
0.0
 11
7.00458
 21
115.127
 31
0.0
  0
LINE
  8
0
 62
     0
 10
7.00458
 20
115.127
 30
0.0
 11
7.76111
 21
115.339
 31
0.0
  0
LINE
  8
0
 62
     0
 10
7.76111
 20
115.339
 30
0.0
 11
8.53006
 21
115.492
 31
0.0
  0
LINE
  8
0
 62
     0
 10
8.53006
 20
115.492
 30
0.0
 11
9.31002
 21
115.586
 31
0.0
  0
LINE
  8
0
 62
     0
 10
9.31002
 20
115.586
 30
0.0
 11
10.0955
 21
115.616
 31
0.0
  0
LINE
  8
0
 62
     0
 10
10.0955
 20
115.616
 30
0.0
 11
333.947
 21
115.616
 31
0.0
  0
LINE
  8
0
 62
     0
 10
338.482
 20
6.79097
 30
0.0
 11
338.064
 21
6.57874
 31
0.0
  0
LINE
  8
0
 62
     0
 10
338.064
 20
6.57874
 30
0.0
 11
337.733
 21
6.24664
 31
0.0
  0
LINE
  8
0
 62
     0
 10
337.733
 20
6.24664
 30
0.0
 11
337.52
 21
5.82909
 31
0.0
  0
LINE
  8
0
 62
     0
 10
337.52
 20
5.82909
 30
0.0
 11
337.447
 21
5.36607
 31
0.0
  0
LINE
  8
0
 62
     0
 10
337.447
 20
5.36607
 30
0.0
 11
337.52
 21
4.90167
 31
0.0
  0
LINE
  8
0
 62
     0
 10
337.52
 20
4.90167
 30
0.0
 11
337.733
 21
4.48412
 31
0.0
  0
LINE
  8
0
 62
     0
 10
337.733
 20
4.48412
 30
0.0
 11
338.064
 21
4.15202
 31
0.0
  0
LINE
  8
0
 62
     0
 10
338.064
 20
4.15202
 30
0.0
 11
338.482
 21
3.93845
 31
0.0
  0
LINE
  8
0
 62
     0
 10
338.482
 20
3.93845
 30
0.0
 11
338.946
 21
3.86539
 31
0.0
  0
LINE
  8
0
 62
     0
 10
338.946
 20
3.86539
 30
0.0
 11
339.409
 21
3.93845
 31
0.0
  0
LINE
  8
0
 62
     0
 10
339.409
 20
3.93845
 30
0.0
 11
339.827
 21
4.15202
 31
0.0
  0
LINE
  8
0
 62
     0
 10
339.827
 20
4.15202
 30
0.0
 11
340.159
 21
4.48412
 31
0.0
  0
LINE
  8
0
 62
     0
 10
340.159
 20
4.48412
 30
0.0
 11
340.373
 21
4.90167
 31
0.0
  0
LINE
  8
0
 62
     0
 10
340.373
 20
4.90167
 30
0.0
 11
340.447
 21
5.36607
 31
0.0
  0
LINE
  8
0
 62
     0
 10
340.447
 20
5.36607
 30
0.0
 11
340.373
 21
5.82909
 31
0.0
  0
LINE
  8
0
 62
     0
 10
340.373
 20
5.82909
 30
0.0
 11
340.159
 21
6.24664
 31
0.0
  0
LINE
  8
0
 62
     0
 10
340.159
 20
6.24664
 30
0.0
 11
339.827
 21
6.57874
 31
0.0
  0
LINE
  8
0
 62
     0
 10
339.827
 20
6.57874
 30
0.0
 11
339.409
 21
6.79097
 31
0.0
  0
LINE
  8
0
 62
     0
 10
339.409
 20
6.79097
 30
0.0
 11
338.946
 21
6.86537
 31
0.0
  0
LINE
  8
0
 62
     0
 10
338.946
 20
6.86537
 30
0.0
 11
338.482
 21
6.79097
 31
0.0
  0
LINE
  8
0
 62
     0
 10
255.018
 20
6.79097
 30
0.0
 11
254.601
 21
6.57874
 31
0.0
  0
LINE
  8
0
 62
     0
 10
254.601
 20
6.57874
 30
0.0
 11
254.269
 21
6.24664
 31
0.0
  0
LINE
  8
0
 62
     0
 10
254.269
 20
6.24664
 30
0.0
 11
254.056
 21
5.82909
 31
0.0
  0
LINE
  8
0
 62
     0
 10
254.056
 20
5.82909
 30
0.0
 11
253.982
 21
5.36607
 31
0.0
  0
LINE
  8
0
 62
     0
 10
253.982
 20
5.36607
 30
0.0
 11
254.056
 21
4.90167
 31
0.0
  0
LINE
  8
0
 62
     0
 10
254.056
 20
4.90167
 30
0.0
 11
254.269
 21
4.48412
 31
0.0
  0
LINE
  8
0
 62
     0
 10
254.269
 20
4.48412
 30
0.0
 11
254.601
 21
4.15202
 31
0.0
  0
LINE
  8
0
 62
     0
 10
254.601
 20
4.15202
 30
0.0
 11
255.018
 21
3.93845
 31
0.0
  0
LINE
  8
0
 62
     0
 10
255.018
 20
3.93845
 30
0.0
 11
255.483
 21
3.86539
 31
0.0
  0
LINE
  8
0
 62
     0
 10
255.483
 20
3.86539
 30
0.0
 11
255.946
 21
3.93845
 31
0.0
  0
LINE
  8
0
 62
     0
 10
255.946
 20
3.93845
 30
0.0
 11
256.365
 21
4.15202
 31
0.0
  0
LINE
  8
0
 62
     0
 10
256.365
 20
4.15202
 30
0.0
 11
256.697
 21
4.48412
 31
0.0
  0
LINE
  8
0
 62
     0
 10
256.697
 20
4.48412
 30
0.0
 11
256.909
 21
4.90167
 31
0.0
  0
LINE
  8
0
 62
     0
 10
256.909
 20
4.90167
 30
0.0
 11
256.982
 21
5.36607
 31
0.0
  0
LINE
  8
0
 62
     0
 10
256.982
 20
5.36607
 30
0.0
 11
256.909
 21
5.82909
 31
0.0
  0
LINE
  8
0
 62
     0
 10
256.909
 20
5.82909
 30
0.0
 11
256.697
 21
6.24664
 31
0.0
  0
LINE
  8
0
 62
     0
 10
256.697
 20
6.24664
 30
0.0
 11
256.365
 21
6.57874
 31
0.0
  0
LINE
  8
0
 62
     0
 10
256.365
 20
6.57874
 30
0.0
 11
255.946
 21
6.79097
 31
0.0
  0
LINE
  8
0
 62
     0
 10
255.946
 20
6.79097
 30
0.0
 11
255.483
 21
6.86537
 31
0.0
  0
LINE
  8
0
 62
     0
 10
255.483
 20
6.86537
 30
0.0
 11
255.018
 21
6.79097
 31
0.0
  0
LINE
  8
0
 62
     0
 10
171.556
 20
6.79097
 30
0.0
 11
171.138
 21
6.57874
 31
0.0
  0
LINE
  8
0
 62
     0
 10
171.138
 20
6.57874
 30
0.0
 11
170.807
 21
6.24664
 31
0.0
  0
LINE
  8
0
 62
     0
 10
170.807
 20
6.24664
 30
0.0
 11
170.593
 21
5.82909
 31
0.0
  0
LINE
  8
0
 62
     0
 10
170.593
 20
5.82909
 30
0.0
 11
170.52
 21
5.36607
 31
0.0
  0
LINE
  8
0
 62
     0
 10
170.52
 20
5.36607
 30
0.0
 11
170.593
 21
4.90167
 31
0.0
  0
LINE
  8
0
 62
     0
 10
170.593
 20
4.90167
 30
0.0
 11
170.807
 21
4.48412
 31
0.0
  0
LINE
  8
0
 62
     0
 10
170.807
 20
4.48412
 30
0.0
 11
171.138
 21
4.15202
 31
0.0
  0
LINE
  8
0
 62
     0
 10
171.138
 20
4.15202
 30
0.0
 11
171.556
 21
3.93845
 31
0.0
  0
LINE
  8
0
 62
     0
 10
171.556
 20
3.93845
 30
0.0
 11
172.02
 21
3.86539
 31
0.0
  0
LINE
  8
0
 62
     0
 10
172.02
 20
3.86539
 30
0.0
 11
172.485
 21
3.93845
 31
0.0
  0
LINE
  8
0
 62
     0
 10
172.485
 20
3.93845
 30
0.0
 11
172.902
 21
4.15202
 31
0.0
  0
LINE
  8
0
 62
     0
 10
172.902
 20
4.15202
 30
0.0
 11
173.235
 21
4.48412
 31
0.0
  0
LINE
  8
0
 62
     0
 10
173.235
 20
4.48412
 30
0.0
 11
173.448
 21
4.90167
 31
0.0
  0
LINE
  8
0
 62
     0
 10
173.448
 20
4.90167
 30
0.0
 11
173.52
 21
5.36607
 31
0.0
  0
LINE
  8
0
 62
     0
 10
173.52
 20
5.36607
 30
0.0
 11
173.448
 21
5.82909
 31
0.0
  0
LINE
  8
0
 62
     0
 10
173.448
 20
5.82909
 30
0.0
 11
173.235
 21
6.24664
 31
0.0
  0
LINE
  8
0
 62
     0
 10
173.235
 20
6.24664
 30
0.0
 11
172.902
 21
6.57874
 31
0.0
  0
LINE
  8
0
 62
     0
 10
172.902
 20
6.57874
 30
0.0
 11
172.485
 21
6.79097
 31
0.0
  0
LINE
  8
0
 62
     0
 10
172.485
 20
6.79097
 30
0.0
 11
172.02
 21
6.86537
 31
0.0
  0
LINE
  8
0
 62
     0
 10
172.02
 20
6.86537
 30
0.0
 11
171.556
 21
6.79097
 31
0.0
  0
LINE
  8
0
 62
     0
 10
88.0939
 20
6.79097
 30
0.0
 11
87.6762
 21
6.57874
 31
0.0
  0
LINE
  8
0
 62
     0
 10
87.6762
 20
6.57874
 30
0.0
 11
87.3442
 21
6.24664
 31
0.0
  0
LINE
  8
0
 62
     0
 10
87.3442
 20
6.24664
 30
0.0
 11
87.1319
 21
5.82909
 31
0.0
  0
LINE
  8
0
 62
     0
 10
87.1319
 20
5.82909
 30
0.0
 11
87.0574
 21
5.36607
 31
0.0
  0
LINE
  8
0
 62
     0
 10
87.0574
 20
5.36607
 30
0.0
 11
87.1319
 21
4.90167
 31
0.0
  0
LINE
  8
0
 62
     0
 10
87.1319
 20
4.90167
 30
0.0
 11
87.3442
 21
4.48412
 31
0.0
  0
LINE
  8
0
 62
     0
 10
87.3442
 20
4.48412
 30
0.0
 11
87.6762
 21
4.15202
 31
0.0
  0
LINE
  8
0
 62
     0
 10
87.6762
 20
4.15202
 30
0.0
 11
88.0939
 21
3.93845
 31
0.0
  0
LINE
  8
0
 62
     0
 10
88.0939
 20
3.93845
 30
0.0
 11
88.5567
 21
3.86539
 31
0.0
  0
LINE
  8
0
 62
     0
 10
88.5567
 20
3.86539
 30
0.0
 11
89.0214
 21
3.93845
 31
0.0
  0
LINE
  8
0
 62
     0
 10
89.0214
 20
3.93845
 30
0.0
 11
89.4387
 21
4.15202
 31
0.0
  0
LINE
  8
0
 62
     0
 10
89.4387
 20
4.15202
 30
0.0
 11
89.771
 21
4.48412
 31
0.0
  0
LINE
  8
0
 62
     0
 10
89.771
 20
4.48412
 30
0.0
 11
89.9844
 21
4.90167
 31
0.0
  0
LINE
  8
0
 62
     0
 10
89.9844
 20
4.90167
 30
0.0
 11
90.0575
 21
5.36607
 31
0.0
  0
LINE
  8
0
 62
     0
 10
90.0575
 20
5.36607
 30
0.0
 11
89.9844
 21
5.82909
 31
0.0
  0
LINE
  8
0
 62
     0
 10
89.9844
 20
5.82909
 30
0.0
 11
89.771
 21
6.24664
 31
0.0
  0
LINE
  8
0
 62
     0
 10
89.771
 20
6.24664
 30
0.0
 11
89.4387
 21
6.57874
 31
0.0
  0
LINE
  8
0
 62
     0
 10
89.4387
 20
6.57874
 30
0.0
 11
89.0214
 21
6.79097
 31
0.0
  0
LINE
  8
0
 62
     0
 10
89.0214
 20
6.79097
 30
0.0
 11
88.5567
 21
6.86537
 31
0.0
  0
LINE
  8
0
 62
     0
 10
88.5567
 20
6.86537
 30
0.0
 11
88.0939
 21
6.79097
 31
0.0
  0
LINE
  8
0
 62
     0
 10
4.63158
 20
6.79097
 30
0.0
 11
4.21404
 21
6.57874
 31
0.0
  0
LINE
  8
0
 62
     0
 10
4.21404
 20
6.57874
 30
0.0
 11
3.88193
 21
6.24664
 31
0.0
  0
LINE
  8
0
 62
     0
 10
3.88193
 20
6.24664
 30
0.0
 11
3.66832
 21
5.82909
 31
0.0
  0
LINE
  8
0
 62
     0
 10
3.66832
 20
5.82909
 30
0.0
 11
3.5953
 21
5.36607
 31
0.0
  0
LINE
  8
0
 62
     0
 10
3.5953
 20
5.36607
 30
0.0
 11
3.66832
 21
4.90167
 31
0.0
  0
LINE
  8
0
 62
     0
 10
3.66832
 20
4.90167
 30
0.0
 11
3.88193
 21
4.48412
 31
0.0
  0
LINE
  8
0
 62
     0
 10
3.88193
 20
4.48412
 30
0.0
 11
4.21404
 21
4.15202
 31
0.0
  0
LINE
  8
0
 62
     0
 10
4.21404
 20
4.15202
 30
0.0
 11
4.63158
 21
3.93845
 31
0.0
  0
LINE
  8
0
 62
     0
 10
4.63158
 20
3.93845
 30
0.0
 11
5.09598
 21
3.86539
 31
0.0
  0
LINE
  8
0
 62
     0
 10
5.09598
 20
3.86539
 30
0.0
 11
5.559
 21
3.93845
 31
0.0
  0
LINE
  8
0
 62
     0
 10
5.559
 20
3.93845
 30
0.0
 11
5.97655
 21
4.15202
 31
0.0
  0
LINE
  8
0
 62
     0
 10
5.97655
 20
4.15202
 30
0.0
 11
6.30865
 21
4.48412
 31
0.0
  0
LINE
  8
0
 62
     0
 10
6.30865
 20
4.48412
 30
0.0
 11
6.52089
 21
4.90167
 31
0.0
  0
LINE
  8
0
 62
     0
 10
6.52089
 20
4.90167
 30
0.0
 11
6.59529
 21
5.36607
 31
0.0
  0
LINE
  8
0
 62
     0
 10
6.59529
 20
5.36607
 30
0.0
 11
6.52089
 21
5.82909
 31
0.0
  0
LINE
  8
0
 62
     0
 10
6.52089
 20
5.82909
 30
0.0
 11
6.30865
 21
6.24664
 31
0.0
  0
LINE
  8
0
 62
     0
 10
6.30865
 20
6.24664
 30
0.0
 11
5.97655
 21
6.57874
 31
0.0
  0
LINE
  8
0
 62
     0
 10
5.97655
 20
6.57874
 30
0.0
 11
5.559
 21
6.79097
 31
0.0
  0
LINE
  8
0
 62
     0
 10
5.559
 20
6.79097
 30
0.0
 11
5.09598
 21
6.86537
 31
0.0
  0
LINE
  8
0
 62
     0
 10
5.09598
 20
6.86537
 30
0.0
 11
4.63158
 21
6.79097
 31
0.0
  0
LINE
  8
0
 62
     0
 10
176.926
 20
26.8911
 30
0.0
 11
176.926
 21
22.1905
 31
0.0
  0
LINE
  8
0
 62
     0
 10
176.926
 20
22.1905
 30
0.0
 11
137.301
 21
22.1905
 31
0.0
  0
LINE
  8
0
 62
     0
 10
137.301
 20
22.1905
 30
0.0
 11
137.301
 21
25.4207
 31
0.0
  0
LINE
  8
0
 62
     0
 10
137.301
 20
25.4207
 30
0.0
 11
135.577
 21
25.4207
 31
0.0
  0
LINE
  8
0
 62
     0
 10
135.577
 20
25.4207
 30
0.0
 11
135.577
 21
26.3412
 31
0.0
  0
LINE
  8
0
 62
     0
 10
135.577
 20
26.3412
 30
0.0
 11
132.276
 21
26.3412
 31
0.0
  0
LINE
  8
0
 62
     0
 10
132.276
 20
26.3412
 30
0.0
 11
132.276
 21
25.4207
 31
0.0
  0
LINE
  8
0
 62
     0
 10
132.276
 20
25.4207
 30
0.0
 11
130.551
 21
25.4207
 31
0.0
  0
LINE
  8
0
 62
     0
 10
130.551
 20
25.4207
 30
0.0
 11
130.551
 21
22.1905
 31
0.0
  0
LINE
  8
0
 62
     0
 10
130.551
 20
22.1905
 30
0.0
 11
129.727
 21
22.1905
 31
0.0
  0
LINE
  8
0
 62
     0
 10
129.727
 20
22.1905
 30
0.0
 11
129.727
 21
19.3904
 31
0.0
  0
LINE
  8
0
 62
     0
 10
129.727
 20
19.3904
 30
0.0
 11
130.551
 21
19.3904
 31
0.0
  0
LINE
  8
0
 62
     0
 10
130.551
 20
19.3904
 30
0.0
 11
130.551
 21
13.1217
 31
0.0
  0
LINE
  8
0
 62
     0
 10
130.551
 20
13.1217
 30
0.0
 11
132.276
 21
13.1217
 31
0.0
  0
LINE
  8
0
 62
     0
 10
132.276
 20
13.1217
 30
0.0
 11
132.276
 21
12.1405
 31
0.0
  0
LINE
  8
0
 62
     0
 10
132.276
 20
12.1405
 30
0.0
 11
135.577
 21
12.1405
 31
0.0
  0
LINE
  8
0
 62
     0
 10
135.577
 20
12.1405
 30
0.0
 11
135.577
 21
13.1217
 31
0.0
  0
LINE
  8
0
 62
     0
 10
135.577
 20
13.1217
 30
0.0
 11
137.301
 21
13.1217
 31
0.0
  0
LINE
  8
0
 62
     0
 10
137.301
 20
13.1217
 30
0.0
 11
137.301
 21
17.592
 31
0.0
  0
LINE
  8
0
 62
     0
 10
137.301
 20
17.592
 30
0.0
 11
176.926
 21
17.592
 31
0.0
  0
LINE
  8
0
 62
     0
 10
176.926
 20
17.592
 30
0.0
 11
176.926
 21
12.8902
 31
0.0
  0
LINE
  8
0
 62
     0
 10
176.926
 20
12.8902
 30
0.0
 11
190.926
 21
12.8902
 31
0.0
  0
LINE
  8
0
 62
     0
 10
190.926
 20
12.8902
 30
0.0
 11
190.926
 21
17.592
 31
0.0
  0
LINE
  8
0
 62
     0
 10
190.926
 20
17.592
 30
0.0
 11
230.551
 21
17.592
 31
0.0
  0
LINE
  8
0
 62
     0
 10
230.551
 20
17.592
 30
0.0
 11
230.551
 21
13.1217
 31
0.0
  0
LINE
  8
0
 62
     0
 10
230.551
 20
13.1217
 30
0.0
 11
232.277
 21
13.1217
 31
0.0
  0
LINE
  8
0
 62
     0
 10
232.277
 20
13.1217
 30
0.0
 11
232.277
 21
12.1405
 31
0.0
  0
LINE
  8
0
 62
     0
 10
232.277
 20
12.1405
 30
0.0
 11
235.577
 21
12.1405
 31
0.0
  0
LINE
  8
0
 62
     0
 10
235.577
 20
12.1405
 30
0.0
 11
235.577
 21
13.1217
 31
0.0
  0
LINE
  8
0
 62
     0
 10
235.577
 20
13.1217
 30
0.0
 11
237.301
 21
13.1217
 31
0.0
  0
LINE
  8
0
 62
     0
 10
237.301
 20
13.1217
 30
0.0
 11
237.301
 21
19.3904
 31
0.0
  0
LINE
  8
0
 62
     0
 10
237.301
 20
19.3904
 30
0.0
 11
238.126
 21
19.3904
 31
0.0
  0
LINE
  8
0
 62
     0
 10
238.126
 20
19.3904
 30
0.0
 11
238.126
 21
22.1905
 31
0.0
  0
LINE
  8
0
 62
     0
 10
238.126
 20
22.1905
 30
0.0
 11
237.301
 21
22.1905
 31
0.0
  0
LINE
  8
0
 62
     0
 10
237.301
 20
22.1905
 30
0.0
 11
237.301
 21
25.4207
 31
0.0
  0
LINE
  8
0
 62
     0
 10
237.301
 20
25.4207
 30
0.0
 11
235.577
 21
25.4207
 31
0.0
  0
LINE
  8
0
 62
     0
 10
235.577
 20
25.4207
 30
0.0
 11
235.577
 21
26.3412
 31
0.0
  0
LINE
  8
0
 62
     0
 10
235.577
 20
26.3412
 30
0.0
 11
232.277
 21
26.3412
 31
0.0
  0
LINE
  8
0
 62
     0
 10
232.277
 20
26.3412
 30
0.0
 11
232.277
 21
25.4207
 31
0.0
  0
LINE
  8
0
 62
     0
 10
232.277
 20
25.4207
 30
0.0
 11
230.551
 21
25.4207
 31
0.0
  0
LINE
  8
0
 62
     0
 10
230.551
 20
25.4207
 30
0.0
 11
230.551
 21
22.1905
 31
0.0
  0
LINE
  8
0
 62
     0
 10
230.551
 20
22.1905
 30
0.0
 11
190.926
 21
22.1905
 31
0.0
  0
LINE
  8
0
 62
     0
 10
190.926
 20
22.1905
 30
0.0
 11
190.926
 21
26.8911
 31
0.0
  0
LINE
  8
0
 62
     0
 10
190.926
 20
26.8911
 30
0.0
 11
176.926
 21
26.8911
 31
0.0
  0
LINE
  8
0
 62
     0
 10
60.2449
 20
26.8911
 30
0.0
 11
74.246
 21
26.8911
 31
0.0
  0
LINE
  8
0
 62
     0
 10
74.246
 20
26.8911
 30
0.0
 11
74.246
 21
12.8902
 31
0.0
  0
LINE
  8
0
 62
     0
 10
74.246
 20
12.8902
 30
0.0
 11
60.2449
 21
12.8902
 31
0.0
  0
LINE
  8
0
 62
     0
 10
60.2449
 20
12.8902
 30
0.0
 11
60.2449
 21
26.8911
 31
0.0
  0
LINE
  8
0
 62
     0
 10
81.6762
 20
26.8911
 30
0.0
 11
95.6758
 21
26.8911
 31
0.0
  0
LINE
  8
0
 62
     0
 10
95.6758
 20
26.8911
 30
0.0
 11
95.6758
 21
12.8902
 31
0.0
  0
LINE
  8
0
 62
     0
 10
95.6758
 20
12.8902
 30
0.0
 11
81.6762
 21
12.8902
 31
0.0
  0
LINE
  8
0
 62
     0
 10
81.6762
 20
12.8902
 30
0.0
 11
81.6762
 21
26.8911
 31
0.0
  0
LINE
  8
0
 62
     0
 10
105.489
 20
26.8911
 30
0.0
 11
119.488
 21
26.8911
 31
0.0
  0
LINE
  8
0
 62
     0
 10
119.488
 20
26.8911
 30
0.0
 11
119.488
 21
12.8902
 31
0.0
  0
LINE
  8
0
 62
     0
 10
119.488
 20
12.8902
 30
0.0
 11
105.489
 21
12.8902
 31
0.0
  0
LINE
  8
0
 62
     0
 10
105.489
 20
12.8902
 30
0.0
 11
105.489
 21
26.8911
 31
0.0
  0
LINE
  8
0
 62
     0
 10
248.364
 20
26.8911
 30
0.0
 11
262.363
 21
26.8911
 31
0.0
  0
LINE
  8
0
 62
     0
 10
262.363
 20
26.8911
 30
0.0
 11
262.363
 21
12.8902
 31
0.0
  0
LINE
  8
0
 62
     0
 10
262.363
 20
12.8902
 30
0.0
 11
248.364
 21
12.8902
 31
0.0
  0
LINE
  8
0
 62
     0
 10
248.364
 20
12.8902
 30
0.0
 11
248.364
 21
26.8911
 31
0.0
  0
LINE
  8
0
 62
     0
 10
272.176
 20
26.8911
 30
0.0
 11
286.176
 21
26.8911
 31
0.0
  0
LINE
  8
0
 62
     0
 10
286.176
 20
26.8911
 30
0.0
 11
286.176
 21
12.8902
 31
0.0
  0
LINE
  8
0
 62
     0
 10
286.176
 20
12.8902
 30
0.0
 11
272.176
 21
12.8902
 31
0.0
  0
LINE
  8
0
 62
     0
 10
272.176
 20
12.8902
 30
0.0
 11
272.176
 21
26.8911
 31
0.0
  0
LINE
  8
0
 62
     0
 10
62.6262
 20
45.9412
 30
0.0
 11
62.6262
 21
41.2404
 31
0.0
  0
LINE
  8
0
 62
     0
 10
62.6262
 20
41.2404
 30
0.0
 11
61.1008
 21
41.2404
 31
0.0
  0
LINE
  8
0
 62
     0
 10
61.1008
 20
41.2404
 30
0.0
 11
61.1008
 21
44.4708
 31
0.0
  0
LINE
  8
0
 62
     0
 10
61.1008
 20
44.4708
 30
0.0
 11
59.3771
 21
44.4708
 31
0.0
  0
LINE
  8
0
 62
     0
 10
59.3771
 20
44.4708
 30
0.0
 11
59.3771
 21
45.3912
 31
0.0
  0
LINE
  8
0
 62
     0
 10
59.3771
 20
45.3912
 30
0.0
 11
56.0765
 21
45.3912
 31
0.0
  0
LINE
  8
0
 62
     0
 10
56.0765
 20
45.3912
 30
0.0
 11
56.0765
 21
44.4708
 31
0.0
  0
LINE
  8
0
 62
     0
 10
56.0765
 20
44.4708
 30
0.0
 11
54.3511
 21
44.4708
 31
0.0
  0
LINE
  8
0
 62
     0
 10
54.3511
 20
44.4708
 30
0.0
 11
54.3511
 21
41.2404
 31
0.0
  0
LINE
  8
0
 62
     0
 10
54.3511
 20
41.2404
 30
0.0
 11
53.527
 21
41.2404
 31
0.0
  0
LINE
  8
0
 62
     0
 10
53.527
 20
41.2404
 30
0.0
 11
53.527
 21
38.4404
 31
0.0
  0
LINE
  8
0
 62
     0
 10
53.527
 20
38.4404
 30
0.0
 11
54.3511
 21
38.4404
 31
0.0
  0
LINE
  8
0
 62
     0
 10
54.3511
 20
38.4404
 30
0.0
 11
54.3511
 21
32.1703
 31
0.0
  0
LINE
  8
0
 62
     0
 10
54.3511
 20
32.1703
 30
0.0
 11
56.0765
 21
32.1703
 31
0.0
  0
LINE
  8
0
 62
     0
 10
56.0765
 20
32.1703
 30
0.0
 11
56.0765
 21
31.1905
 31
0.0
  0
LINE
  8
0
 62
     0
 10
56.0765
 20
31.1905
 30
0.0
 11
59.3771
 21
31.1905
 31
0.0
  0
LINE
  8
0
 62
     0
 10
59.3771
 20
31.1905
 30
0.0
 11
59.3771
 21
32.1703
 31
0.0
  0
LINE
  8
0
 62
     0
 10
59.3771
 20
32.1703
 30
0.0
 11
61.1008
 21
32.1703
 31
0.0
  0
LINE
  8
0
 62
     0
 10
61.1008
 20
32.1703
 30
0.0
 11
61.1008
 21
36.6406
 31
0.0
  0
LINE
  8
0
 62
     0
 10
61.1008
 20
36.6406
 30
0.0
 11
62.6262
 21
36.6406
 31
0.0
  0
LINE
  8
0
 62
     0
 10
62.6262
 20
36.6406
 30
0.0
 11
62.6262
 21
31.9402
 31
0.0
  0
LINE
  8
0
 62
     0
 10
62.6262
 20
31.9402
 30
0.0
 11
76.6258
 21
31.9402
 31
0.0
  0
LINE
  8
0
 62
     0
 10
76.6258
 20
31.9402
 30
0.0
 11
76.6258
 21
36.6406
 31
0.0
  0
LINE
  8
0
 62
     0
 10
76.6258
 20
36.6406
 30
0.0
 11
78.1512
 21
36.6406
 31
0.0
  0
LINE
  8
0
 62
     0
 10
78.1512
 20
36.6406
 30
0.0
 11
78.1512
 21
32.1703
 31
0.0
  0
LINE
  8
0
 62
     0
 10
78.1512
 20
32.1703
 30
0.0
 11
79.8766
 21
32.1703
 31
0.0
  0
LINE
  8
0
 62
     0
 10
79.8766
 20
32.1703
 30
0.0
 11
79.8766
 21
31.1905
 31
0.0
  0
LINE
  8
0
 62
     0
 10
79.8766
 20
31.1905
 30
0.0
 11
83.1769
 21
31.1905
 31
0.0
  0
LINE
  8
0
 62
     0
 10
83.1769
 20
31.1905
 30
0.0
 11
83.1769
 21
32.1703
 31
0.0
  0
LINE
  8
0
 62
     0
 10
83.1769
 20
32.1703
 30
0.0
 11
84.9009
 21
32.1703
 31
0.0
  0
LINE
  8
0
 62
     0
 10
84.9009
 20
32.1703
 30
0.0
 11
84.9009
 21
38.4404
 31
0.0
  0
LINE
  8
0
 62
     0
 10
84.9009
 20
38.4404
 30
0.0
 11
85.7264
 21
38.4404
 31
0.0
  0
LINE
  8
0
 62
     0
 10
85.7264
 20
38.4404
 30
0.0
 11
85.7264
 21
41.2404
 31
0.0
  0
LINE
  8
0
 62
     0
 10
85.7264
 20
41.2404
 30
0.0
 11
84.9009
 21
41.2404
 31
0.0
  0
LINE
  8
0
 62
     0
 10
84.9009
 20
41.2404
 30
0.0
 11
84.9009
 21
44.4708
 31
0.0
  0
LINE
  8
0
 62
     0
 10
84.9009
 20
44.4708
 30
0.0
 11
83.1769
 21
44.4708
 31
0.0
  0
LINE
  8
0
 62
     0
 10
83.1769
 20
44.4708
 30
0.0
 11
83.1769
 21
45.3912
 31
0.0
  0
LINE
  8
0
 62
     0
 10
83.1769
 20
45.3912
 30
0.0
 11
79.8766
 21
45.3912
 31
0.0
  0
LINE
  8
0
 62
     0
 10
79.8766
 20
45.3912
 30
0.0
 11
79.8766
 21
44.4708
 31
0.0
  0
LINE
  8
0
 62
     0
 10
79.8766
 20
44.4708
 30
0.0
 11
78.1512
 21
44.4708
 31
0.0
  0
LINE
  8
0
 62
     0
 10
78.1512
 20
44.4708
 30
0.0
 11
78.1512
 21
41.2404
 31
0.0
  0
LINE
  8
0
 62
     0
 10
78.1512
 20
41.2404
 30
0.0
 11
76.6258
 21
41.2404
 31
0.0
  0
LINE
  8
0
 62
     0
 10
76.6258
 20
41.2404
 30
0.0
 11
76.6258
 21
45.9412
 31
0.0
  0
LINE
  8
0
 62
     0
 10
76.6258
 20
45.9412
 30
0.0
 11
62.6262
 21
45.9412
 31
0.0
  0
LINE
  8
0
 62
     0
 10
93.5824
 20
45.9412
 30
0.0
 11
107.582
 21
45.9412
 31
0.0
  0
LINE
  8
0
 62
     0
 10
107.582
 20
45.9412
 30
0.0
 11
107.582
 21
31.9402
 31
0.0
  0
LINE
  8
0
 62
     0
 10
107.582
 20
31.9402
 30
0.0
 11
93.5824
 21
31.9402
 31
0.0
  0
LINE
  8
0
 62
     0
 10
93.5824
 20
31.9402
 30
0.0
 11
93.5824
 21
45.9412
 31
0.0
  0
LINE
  8
0
 62
     0
 10
112.632
 20
45.9412
 30
0.0
 11
126.632
 21
45.9412
 31
0.0
  0
LINE
  8
0
 62
     0
 10
126.632
 20
45.9412
 30
0.0
 11
126.632
 21
31.9402
 31
0.0
  0
LINE
  8
0
 62
     0
 10
126.632
 20
31.9402
 30
0.0
 11
112.632
 21
31.9402
 31
0.0
  0
LINE
  8
0
 62
     0
 10
112.632
 20
31.9402
 30
0.0
 11
112.632
 21
45.9412
 31
0.0
  0
LINE
  8
0
 62
     0
 10
131.682
 20
45.9412
 30
0.0
 11
145.682
 21
45.9412
 31
0.0
  0
LINE
  8
0
 62
     0
 10
145.682
 20
45.9412
 30
0.0
 11
145.682
 21
31.9402
 31
0.0
  0
LINE
  8
0
 62
     0
 10
145.682
 20
31.9402
 30
0.0
 11
131.682
 21
31.9402
 31
0.0
  0
LINE
  8
0
 62
     0
 10
131.682
 20
31.9402
 30
0.0
 11
131.682
 21
45.9412
 31
0.0
  0
LINE
  8
0
 62
     0
 10
150.732
 20
45.9412
 30
0.0
 11
164.732
 21
45.9412
 31
0.0
  0
LINE
  8
0
 62
     0
 10
164.732
 20
45.9412
 30
0.0
 11
164.732
 21
31.9402
 31
0.0
  0
LINE
  8
0
 62
     0
 10
164.732
 20
31.9402
 30
0.0
 11
150.732
 21
31.9402
 31
0.0
  0
LINE
  8
0
 62
     0
 10
150.732
 20
31.9402
 30
0.0
 11
150.732
 21
45.9412
 31
0.0
  0
LINE
  8
0
 62
     0
 10
169.782
 20
45.9412
 30
0.0
 11
183.782
 21
45.9412
 31
0.0
  0
LINE
  8
0
 62
     0
 10
183.782
 20
45.9412
 30
0.0
 11
183.782
 21
31.9402
 31
0.0
  0
LINE
  8
0
 62
     0
 10
183.782
 20
31.9402
 30
0.0
 11
169.782
 21
31.9402
 31
0.0
  0
LINE
  8
0
 62
     0
 10
169.782
 20
31.9402
 30
0.0
 11
169.782
 21
45.9412
 31
0.0
  0
LINE
  8
0
 62
     0
 10
188.832
 20
45.9412
 30
0.0
 11
202.832
 21
45.9412
 31
0.0
  0
LINE
  8
0
 62
     0
 10
202.832
 20
45.9412
 30
0.0
 11
202.832
 21
31.9402
 31
0.0
  0
LINE
  8
0
 62
     0
 10
202.832
 20
31.9402
 30
0.0
 11
188.832
 21
31.9402
 31
0.0
  0
LINE
  8
0
 62
     0
 10
188.832
 20
31.9402
 30
0.0
 11
188.832
 21
45.9412
 31
0.0
  0
LINE
  8
0
 62
     0
 10
207.882
 20
45.9412
 30
0.0
 11
221.882
 21
45.9412
 31
0.0
  0
LINE
  8
0
 62
     0
 10
221.882
 20
45.9412
 30
0.0
 11
221.882
 21
31.9402
 31
0.0
  0
LINE
  8
0
 62
     0
 10
221.882
 20
31.9402
 30
0.0
 11
207.882
 21
31.9402
 31
0.0
  0
LINE
  8
0
 62
     0
 10
207.882
 20
31.9402
 30
0.0
 11
207.882
 21
45.9412
 31
0.0
  0
LINE
  8
0
 62
     0
 10
226.932
 20
45.9412
 30
0.0
 11
240.932
 21
45.9412
 31
0.0
  0
LINE
  8
0
 62
     0
 10
240.932
 20
45.9412
 30
0.0
 11
240.932
 21
31.9402
 31
0.0
  0
LINE
  8
0
 62
     0
 10
240.932
 20
31.9402
 30
0.0
 11
226.932
 21
31.9402
 31
0.0
  0
LINE
  8
0
 62
     0
 10
226.932
 20
31.9402
 30
0.0
 11
226.932
 21
45.9412
 31
0.0
  0
LINE
  8
0
 62
     0
 10
245.982
 20
45.9412
 30
0.0
 11
259.982
 21
45.9412
 31
0.0
  0
LINE
  8
0
 62
     0
 10
259.982
 20
45.9412
 30
0.0
 11
259.982
 21
31.9402
 31
0.0
  0
LINE
  8
0
 62
     0
 10
259.982
 20
31.9402
 30
0.0
 11
245.982
 21
31.9402
 31
0.0
  0
LINE
  8
0
 62
     0
 10
245.982
 20
31.9402
 30
0.0
 11
245.982
 21
45.9412
 31
0.0
  0
LINE
  8
0
 62
     0
 10
265.032
 20
45.9412
 30
0.0
 11
279.032
 21
45.9412
 31
0.0
  0
LINE
  8
0
 62
     0
 10
279.032
 20
45.9412
 30
0.0
 11
279.032
 21
31.9402
 31
0.0
  0
LINE
  8
0
 62
     0
 10
279.032
 20
31.9402
 30
0.0
 11
265.032
 21
31.9402
 31
0.0
  0
LINE
  8
0
 62
     0
 10
265.032
 20
31.9402
 30
0.0
 11
265.032
 21
45.9412
 31
0.0
  0
LINE
  8
0
 62
     0
 10
291.226
 20
45.9412
 30
0.0
 11
305.226
 21
45.9412
 31
0.0
  0
LINE
  8
0
 62
     0
 10
305.226
 20
45.9412
 30
0.0
 11
305.226
 21
31.9402
 31
0.0
  0
LINE
  8
0
 62
     0
 10
305.226
 20
31.9402
 30
0.0
 11
291.226
 21
31.9402
 31
0.0
  0
LINE
  8
0
 62
     0
 10
291.226
 20
31.9402
 30
0.0
 11
291.226
 21
45.9412
 31
0.0
  0
LINE
  8
0
 62
     0
 10
317.42
 20
45.9412
 30
0.0
 11
331.421
 21
45.9412
 31
0.0
  0
LINE
  8
0
 62
     0
 10
331.421
 20
45.9412
 30
0.0
 11
331.421
 21
31.9402
 31
0.0
  0
LINE
  8
0
 62
     0
 10
331.421
 20
31.9402
 30
0.0
 11
317.42
 21
31.9402
 31
0.0
  0
LINE
  8
0
 62
     0
 10
317.42
 20
31.9402
 30
0.0
 11
317.42
 21
45.9412
 31
0.0
  0
LINE
  8
0
 62
     0
 10
305.514
 20
64.9912
 30
0.0
 11
305.514
 21
60.2904
 31
0.0
  0
LINE
  8
0
 62
     0
 10
305.514
 20
60.2904
 30
0.0
 11
303.988
 21
60.2904
 31
0.0
  0
LINE
  8
0
 62
     0
 10
303.988
 20
60.2904
 30
0.0
 11
303.988
 21
63.5208
 31
0.0
  0
LINE
  8
0
 62
     0
 10
303.988
 20
63.5208
 30
0.0
 11
302.263
 21
63.5208
 31
0.0
  0
LINE
  8
0
 62
     0
 10
302.263
 20
63.5208
 30
0.0
 11
302.263
 21
64.4412
 31
0.0
  0
LINE
  8
0
 62
     0
 10
302.263
 20
64.4412
 30
0.0
 11
298.964
 21
64.4412
 31
0.0
  0
LINE
  8
0
 62
     0
 10
298.964
 20
64.4412
 30
0.0
 11
298.964
 21
63.5208
 31
0.0
  0
LINE
  8
0
 62
     0
 10
298.964
 20
63.5208
 30
0.0
 11
297.239
 21
63.5208
 31
0.0
  0
LINE
  8
0
 62
     0
 10
297.239
 20
63.5208
 30
0.0
 11
297.239
 21
60.2904
 31
0.0
  0
LINE
  8
0
 62
     0
 10
297.239
 20
60.2904
 30
0.0
 11
296.413
 21
60.2904
 31
0.0
  0
LINE
  8
0
 62
     0
 10
296.413
 20
60.2904
 30
0.0
 11
296.413
 21
57.4904
 31
0.0
  0
LINE
  8
0
 62
     0
 10
296.413
 20
57.4904
 30
0.0
 11
297.239
 21
57.4904
 31
0.0
  0
LINE
  8
0
 62
     0
 10
297.239
 20
57.4904
 30
0.0
 11
297.239
 21
51.2202
 31
0.0
  0
LINE
  8
0
 62
     0
 10
297.239
 20
51.2202
 30
0.0
 11
298.964
 21
51.2202
 31
0.0
  0
LINE
  8
0
 62
     0
 10
298.964
 20
51.2202
 30
0.0
 11
298.964
 21
50.2405
 31
0.0
  0
LINE
  8
0
 62
     0
 10
298.964
 20
50.2405
 30
0.0
 11
302.263
 21
50.2405
 31
0.0
  0
LINE
  8
0
 62
     0
 10
302.263
 20
50.2405
 30
0.0
 11
302.263
 21
51.2202
 31
0.0
  0
LINE
  8
0
 62
     0
 10
302.263
 20
51.2202
 30
0.0
 11
303.988
 21
51.2202
 31
0.0
  0
LINE
  8
0
 62
     0
 10
303.988
 20
51.2202
 30
0.0
 11
303.988
 21
55.6906
 31
0.0
  0
LINE
  8
0
 62
     0
 10
303.988
 20
55.6906
 30
0.0
 11
305.514
 21
55.6906
 31
0.0
  0
LINE
  8
0
 62
     0
 10
305.514
 20
55.6906
 30
0.0
 11
305.514
 21
50.9901
 31
0.0
  0
LINE
  8
0
 62
     0
 10
305.514
 20
50.9901
 30
0.0
 11
319.513
 21
50.9901
 31
0.0
  0
LINE
  8
0
 62
     0
 10
319.513
 20
50.9901
 30
0.0
 11
319.513
 21
55.6906
 31
0.0
  0
LINE
  8
0
 62
     0
 10
319.513
 20
55.6906
 30
0.0
 11
321.039
 21
55.6906
 31
0.0
  0
LINE
  8
0
 62
     0
 10
321.039
 20
55.6906
 30
0.0
 11
321.039
 21
51.2202
 31
0.0
  0
LINE
  8
0
 62
     0
 10
321.039
 20
51.2202
 30
0.0
 11
322.764
 21
51.2202
 31
0.0
  0
LINE
  8
0
 62
     0
 10
322.764
 20
51.2202
 30
0.0
 11
322.764
 21
50.2405
 31
0.0
  0
LINE
  8
0
 62
     0
 10
322.764
 20
50.2405
 30
0.0
 11
326.063
 21
50.2405
 31
0.0
  0
LINE
  8
0
 62
     0
 10
326.063
 20
50.2405
 30
0.0
 11
326.063
 21
51.2202
 31
0.0
  0
LINE
  8
0
 62
     0
 10
326.063
 20
51.2202
 30
0.0
 11
327.788
 21
51.2202
 31
0.0
  0
LINE
  8
0
 62
     0
 10
327.788
 20
51.2202
 30
0.0
 11
327.788
 21
57.4904
 31
0.0
  0
LINE
  8
0
 62
     0
 10
327.788
 20
57.4904
 30
0.0
 11
328.614
 21
57.4904
 31
0.0
  0
LINE
  8
0
 62
     0
 10
328.614
 20
57.4904
 30
0.0
 11
328.614
 21
60.2904
 31
0.0
  0
LINE
  8
0
 62
     0
 10
328.614
 20
60.2904
 30
0.0
 11
327.788
 21
60.2904
 31
0.0
  0
LINE
  8
0
 62
     0
 10
327.788
 20
60.2904
 30
0.0
 11
327.788
 21
63.5208
 31
0.0
  0
LINE
  8
0
 62
     0
 10
327.788
 20
63.5208
 30
0.0
 11
326.063
 21
63.5208
 31
0.0
  0
LINE
  8
0
 62
     0
 10
326.063
 20
63.5208
 30
0.0
 11
326.063
 21
64.4412
 31
0.0
  0
LINE
  8
0
 62
     0
 10
326.063
 20
64.4412
 30
0.0
 11
322.764
 21
64.4412
 31
0.0
  0
LINE
  8
0
 62
     0
 10
322.764
 20
64.4412
 30
0.0
 11
322.764
 21
63.5208
 31
0.0
  0
LINE
  8
0
 62
     0
 10
322.764
 20
63.5208
 30
0.0
 11
321.039
 21
63.5208
 31
0.0
  0
LINE
  8
0
 62
     0
 10
321.039
 20
63.5208
 30
0.0
 11
321.039
 21
60.2904
 31
0.0
  0
LINE
  8
0
 62
     0
 10
321.039
 20
60.2904
 30
0.0
 11
319.513
 21
60.2904
 31
0.0
  0
LINE
  8
0
 62
     0
 10
319.513
 20
60.2904
 30
0.0
 11
319.513
 21
64.9912
 31
0.0
  0
LINE
  8
0
 62
     0
 10
319.513
 20
64.9912
 30
0.0
 11
305.514
 21
64.9912
 31
0.0
  0
LINE
  8
0
 62
     0
 10
12.6201
 20
64.9912
 30
0.0
 11
26.6209
 21
64.9912
 31
0.0
  0
LINE
  8
0
 62
     0
 10
26.6209
 20
64.9912
 30
0.0
 11
26.6209
 21
50.9901
 31
0.0
  0
LINE
  8
0
 62
     0
 10
26.6209
 20
50.9901
 30
0.0
 11
12.6201
 21
50.9901
 31
0.0
  0
LINE
  8
0
 62
     0
 10
12.6201
 20
50.9901
 30
0.0
 11
12.6201
 21
64.9912
 31
0.0
  0
LINE
  8
0
 62
     0
 10
57.8637
 20
64.9912
 30
0.0
 11
71.8633
 21
64.9912
 31
0.0
  0
LINE
  8
0
 62
     0
 10
71.8633
 20
64.9912
 30
0.0
 11
71.8633
 21
50.9901
 31
0.0
  0
LINE
  8
0
 62
     0
 10
71.8633
 20
50.9901
 30
0.0
 11
57.8637
 21
50.9901
 31
0.0
  0
LINE
  8
0
 62
     0
 10
57.8637
 20
50.9901
 30
0.0
 11
57.8637
 21
64.9912
 31
0.0
  0
LINE
  8
0
 62
     0
 10
84.0574
 20
64.9912
 30
0.0
 11
98.0571
 21
64.9912
 31
0.0
  0
LINE
  8
0
 62
     0
 10
98.0571
 20
64.9912
 30
0.0
 11
98.0571
 21
50.9901
 31
0.0
  0
LINE
  8
0
 62
     0
 10
98.0571
 20
50.9901
 30
0.0
 11
84.0574
 21
50.9901
 31
0.0
  0
LINE
  8
0
 62
     0
 10
84.0574
 20
50.9901
 30
0.0
 11
84.0574
 21
64.9912
 31
0.0
  0
LINE
  8
0
 62
     0
 10
103.107
 20
64.9912
 30
0.0
 11
117.107
 21
64.9912
 31
0.0
  0
LINE
  8
0
 62
     0
 10
117.107
 20
64.9912
 30
0.0
 11
117.107
 21
50.9901
 31
0.0
  0
LINE
  8
0
 62
     0
 10
117.107
 20
50.9901
 30
0.0
 11
103.107
 21
50.9901
 31
0.0
  0
LINE
  8
0
 62
     0
 10
103.107
 20
50.9901
 30
0.0
 11
103.107
 21
64.9912
 31
0.0
  0
LINE
  8
0
 62
     0
 10
122.157
 20
64.9912
 30
0.0
 11
136.157
 21
64.9912
 31
0.0
  0
LINE
  8
0
 62
     0
 10
136.157
 20
64.9912
 30
0.0
 11
136.157
 21
50.9901
 31
0.0
  0
LINE
  8
0
 62
     0
 10
136.157
 20
50.9901
 30
0.0
 11
122.157
 21
50.9901
 31
0.0
  0
LINE
  8
0
 62
     0
 10
122.157
 20
50.9901
 30
0.0
 11
122.157
 21
64.9912
 31
0.0
  0
LINE
  8
0
 62
     0
 10
141.207
 20
64.9912
 30
0.0
 11
155.207
 21
64.9912
 31
0.0
  0
LINE
  8
0
 62
     0
 10
155.207
 20
64.9912
 30
0.0
 11
155.207
 21
50.9901
 31
0.0
  0
LINE
  8
0
 62
     0
 10
155.207
 20
50.9901
 30
0.0
 11
141.207
 21
50.9901
 31
0.0
  0
LINE
  8
0
 62
     0
 10
141.207
 20
50.9901
 30
0.0
 11
141.207
 21
64.9912
 31
0.0
  0
LINE
  8
0
 62
     0
 10
160.257
 20
64.9912
 30
0.0
 11
174.257
 21
64.9912
 31
0.0
  0
LINE
  8
0
 62
     0
 10
174.257
 20
64.9912
 30
0.0
 11
174.257
 21
50.9901
 31
0.0
  0
LINE
  8
0
 62
     0
 10
174.257
 20
50.9901
 30
0.0
 11
160.257
 21
50.9901
 31
0.0
  0
LINE
  8
0
 62
     0
 10
160.257
 20
50.9901
 30
0.0
 11
160.257
 21
64.9912
 31
0.0
  0
LINE
  8
0
 62
     0
 10
179.307
 20
64.9912
 30
0.0
 11
193.307
 21
64.9912
 31
0.0
  0
LINE
  8
0
 62
     0
 10
193.307
 20
64.9912
 30
0.0
 11
193.307
 21
50.9901
 31
0.0
  0
LINE
  8
0
 62
     0
 10
193.307
 20
50.9901
 30
0.0
 11
179.307
 21
50.9901
 31
0.0
  0
LINE
  8
0
 62
     0
 10
179.307
 20
50.9901
 30
0.0
 11
179.307
 21
64.9912
 31
0.0
  0
LINE
  8
0
 62
     0
 10
198.357
 20
64.9912
 30
0.0
 11
212.357
 21
64.9912
 31
0.0
  0
LINE
  8
0
 62
     0
 10
212.357
 20
64.9912
 30
0.0
 11
212.357
 21
50.9901
 31
0.0
  0
LINE
  8
0
 62
     0
 10
212.357
 20
50.9901
 30
0.0
 11
198.357
 21
50.9901
 31
0.0
  0
LINE
  8
0
 62
     0
 10
198.357
 20
50.9901
 30
0.0
 11
198.357
 21
64.9912
 31
0.0
  0
LINE
  8
0
 62
     0
 10
217.407
 20
64.9912
 30
0.0
 11
231.407
 21
64.9912
 31
0.0
  0
LINE
  8
0
 62
     0
 10
231.407
 20
64.9912
 30
0.0
 11
231.407
 21
50.9901
 31
0.0
  0
LINE
  8
0
 62
     0
 10
231.407
 20
50.9901
 30
0.0
 11
217.407
 21
50.9901
 31
0.0
  0
LINE
  8
0
 62
     0
 10
217.407
 20
50.9901
 30
0.0
 11
217.407
 21
64.9912
 31
0.0
  0
LINE
  8
0
 62
     0
 10
236.457
 20
64.9912
 30
0.0
 11
250.457
 21
64.9912
 31
0.0
  0
LINE
  8
0
 62
     0
 10
250.457
 20
64.9912
 30
0.0
 11
250.457
 21
50.9901
 31
0.0
  0
LINE
  8
0
 62
     0
 10
250.457
 20
50.9901
 30
0.0
 11
236.457
 21
50.9901
 31
0.0
  0
LINE
  8
0
 62
     0
 10
236.457
 20
50.9901
 30
0.0
 11
236.457
 21
64.9912
 31
0.0
  0
LINE
  8
0
 62
     0
 10
255.506
 20
64.9912
 30
0.0
 11
269.507
 21
64.9912
 31
0.0
  0
LINE
  8
0
 62
     0
 10
269.507
 20
64.9912
 30
0.0
 11
269.507
 21
50.9901
 31
0.0
  0
LINE
  8
0
 62
     0
 10
269.507
 20
50.9901
 30
0.0
 11
255.506
 21
50.9901
 31
0.0
  0
LINE
  8
0
 62
     0
 10
255.506
 20
50.9901
 30
0.0
 11
255.506
 21
64.9912
 31
0.0
  0
LINE
  8
0
 62
     0
 10
274.557
 20
64.9912
 30
0.0
 11
288.557
 21
64.9912
 31
0.0
  0
LINE
  8
0
 62
     0
 10
288.557
 20
64.9912
 30
0.0
 11
288.557
 21
50.9901
 31
0.0
  0
LINE
  8
0
 62
     0
 10
288.557
 20
50.9901
 30
0.0
 11
274.557
 21
50.9901
 31
0.0
  0
LINE
  8
0
 62
     0
 10
274.557
 20
50.9901
 30
0.0
 11
274.557
 21
64.9912
 31
0.0
  0
LINE
  8
0
 62
     0
 10
17.3826
 20
84.0412
 30
0.0
 11
31.3821
 21
84.0412
 31
0.0
  0
LINE
  8
0
 62
     0
 10
31.3821
 20
84.0412
 30
0.0
 11
31.3821
 21
70.0401
 31
0.0
  0
LINE
  8
0
 62
     0
 10
31.3821
 20
70.0401
 30
0.0
 11
17.3826
 21
70.0401
 31
0.0
  0
LINE
  8
0
 62
     0
 10
17.3826
 20
70.0401
 30
0.0
 11
17.3826
 21
84.0412
 31
0.0
  0
LINE
  8
0
 62
     0
 10
55.4824
 20
84.0412
 30
0.0
 11
69.4821
 21
84.0412
 31
0.0
  0
LINE
  8
0
 62
     0
 10
69.4821
 20
84.0412
 30
0.0
 11
69.4821
 21
70.0401
 31
0.0
  0
LINE
  8
0
 62
     0
 10
69.4821
 20
70.0401
 30
0.0
 11
55.4824
 21
70.0401
 31
0.0
  0
LINE
  8
0
 62
     0
 10
55.4824
 20
70.0401
 30
0.0
 11
55.4824
 21
84.0412
 31
0.0
  0
LINE
  8
0
 62
     0
 10
79.2949
 20
84.0412
 30
0.0
 11
93.296
 21
84.0412
 31
0.0
  0
LINE
  8
0
 62
     0
 10
93.296
 20
84.0412
 30
0.0
 11
93.296
 21
70.0401
 31
0.0
  0
LINE
  8
0
 62
     0
 10
93.296
 20
70.0401
 30
0.0
 11
79.2949
 21
70.0401
 31
0.0
  0
LINE
  8
0
 62
     0
 10
79.2949
 20
70.0401
 30
0.0
 11
79.2949
 21
84.0412
 31
0.0
  0
LINE
  8
0
 62
     0
 10
98.3449
 20
84.0412
 30
0.0
 11
112.346
 21
84.0412
 31
0.0
  0
LINE
  8
0
 62
     0
 10
112.346
 20
84.0412
 30
0.0
 11
112.346
 21
70.0401
 31
0.0
  0
LINE
  8
0
 62
     0
 10
112.346
 20
70.0401
 30
0.0
 11
98.3449
 21
70.0401
 31
0.0
  0
LINE
  8
0
 62
     0
 10
98.3449
 20
70.0401
 30
0.0
 11
98.3449
 21
84.0412
 31
0.0
  0
LINE
  8
0
 62
     0
 10
117.395
 20
84.0412
 30
0.0
 11
131.396
 21
84.0412
 31
0.0
  0
LINE
  8
0
 62
     0
 10
131.396
 20
84.0412
 30
0.0
 11
131.396
 21
70.0401
 31
0.0
  0
LINE
  8
0
 62
     0
 10
131.396
 20
70.0401
 30
0.0
 11
117.395
 21
70.0401
 31
0.0
  0
LINE
  8
0
 62
     0
 10
117.395
 20
70.0401
 30
0.0
 11
117.395
 21
84.0412
 31
0.0
  0
LINE
  8
0
 62
     0
 10
136.445
 20
84.0412
 30
0.0
 11
150.446
 21
84.0412
 31
0.0
  0
LINE
  8
0
 62
     0
 10
150.446
 20
84.0412
 30
0.0
 11
150.446
 21
70.0401
 31
0.0
  0
LINE
  8
0
 62
     0
 10
150.446
 20
70.0401
 30
0.0
 11
136.445
 21
70.0401
 31
0.0
  0
LINE
  8
0
 62
     0
 10
136.445
 20
70.0401
 30
0.0
 11
136.445
 21
84.0412
 31
0.0
  0
LINE
  8
0
 62
     0
 10
155.495
 20
84.0412
 30
0.0
 11
169.496
 21
84.0412
 31
0.0
  0
LINE
  8
0
 62
     0
 10
169.496
 20
84.0412
 30
0.0
 11
169.496
 21
70.0401
 31
0.0
  0
LINE
  8
0
 62
     0
 10
169.496
 20
70.0401
 30
0.0
 11
155.495
 21
70.0401
 31
0.0
  0
LINE
  8
0
 62
     0
 10
155.495
 20
70.0401
 30
0.0
 11
155.495
 21
84.0412
 31
0.0
  0
LINE
  8
0
 62
     0
 10
174.545
 20
84.0412
 30
0.0
 11
188.546
 21
84.0412
 31
0.0
  0
LINE
  8
0
 62
     0
 10
188.546
 20
84.0412
 30
0.0
 11
188.546
 21
70.0401
 31
0.0
  0
LINE
  8
0
 62
     0
 10
188.546
 20
70.0401
 30
0.0
 11
174.545
 21
70.0401
 31
0.0
  0
LINE
  8
0
 62
     0
 10
174.545
 20
70.0401
 30
0.0
 11
174.545
 21
84.0412
 31
0.0
  0
LINE
  8
0
 62
     0
 10
193.595
 20
84.0412
 30
0.0
 11
207.596
 21
84.0412
 31
0.0
  0
LINE
  8
0
 62
     0
 10
207.596
 20
84.0412
 30
0.0
 11
207.596
 21
70.0401
 31
0.0
  0
LINE
  8
0
 62
     0
 10
207.596
 20
70.0401
 30
0.0
 11
193.595
 21
70.0401
 31
0.0
  0
LINE
  8
0
 62
     0
 10
193.595
 20
70.0401
 30
0.0
 11
193.595
 21
84.0412
 31
0.0
  0
LINE
  8
0
 62
     0
 10
212.645
 20
84.0412
 30
0.0
 11
226.646
 21
84.0412
 31
0.0
  0
LINE
  8
0
 62
     0
 10
226.646
 20
84.0412
 30
0.0
 11
226.646
 21
70.0401
 31
0.0
  0
LINE
  8
0
 62
     0
 10
226.646
 20
70.0401
 30
0.0
 11
212.645
 21
70.0401
 31
0.0
  0
LINE
  8
0
 62
     0
 10
212.645
 20
70.0401
 30
0.0
 11
212.645
 21
84.0412
 31
0.0
  0
LINE
  8
0
 62
     0
 10
231.695
 20
84.0412
 30
0.0
 11
245.696
 21
84.0412
 31
0.0
  0
LINE
  8
0
 62
     0
 10
245.696
 20
84.0412
 30
0.0
 11
245.696
 21
70.0401
 31
0.0
  0
LINE
  8
0
 62
     0
 10
245.696
 20
70.0401
 30
0.0
 11
231.695
 21
70.0401
 31
0.0
  0
LINE
  8
0
 62
     0
 10
231.695
 20
70.0401
 30
0.0
 11
231.695
 21
84.0412
 31
0.0
  0
LINE
  8
0
 62
     0
 10
250.745
 20
84.0412
 30
0.0
 11
264.746
 21
84.0412
 31
0.0
  0
LINE
  8
0
 62
     0
 10
264.746
 20
84.0412
 30
0.0
 11
264.746
 21
70.0401
 31
0.0
  0
LINE
  8
0
 62
     0
 10
264.746
 20
70.0401
 30
0.0
 11
250.745
 21
70.0401
 31
0.0
  0
LINE
  8
0
 62
     0
 10
250.745
 20
70.0401
 30
0.0
 11
250.745
 21
84.0412
 31
0.0
  0
LINE
  8
0
 62
     0
 10
269.795
 20
84.0412
 30
0.0
 11
283.796
 21
84.0412
 31
0.0
  0
LINE
  8
0
 62
     0
 10
283.796
 20
84.0412
 30
0.0
 11
283.796
 21
70.0401
 31
0.0
  0
LINE
  8
0
 62
     0
 10
283.796
 20
70.0401
 30
0.0
 11
269.795
 21
70.0401
 31
0.0
  0
LINE
  8
0
 62
     0
 10
269.795
 20
70.0401
 30
0.0
 11
269.795
 21
84.0412
 31
0.0
  0
LINE
  8
0
 62
     0
 10
288.845
 20
84.0412
 30
0.0
 11
302.846
 21
84.0412
 31
0.0
  0
LINE
  8
0
 62
     0
 10
302.846
 20
84.0412
 30
0.0
 11
302.846
 21
70.0401
 31
0.0
  0
LINE
  8
0
 62
     0
 10
302.846
 20
70.0401
 30
0.0
 11
288.845
 21
70.0401
 31
0.0
  0
LINE
  8
0
 62
     0
 10
288.845
 20
70.0401
 30
0.0
 11
288.845
 21
84.0412
 31
0.0
  0
LINE
  8
0
 62
     0
 10
312.657
 20
84.0412
 30
0.0
 11
326.657
 21
84.0412
 31
0.0
  0
LINE
  8
0
 62
     0
 10
326.657
 20
84.0412
 30
0.0
 11
326.657
 21
70.0401
 31
0.0
  0
LINE
  8
0
 62
     0
 10
326.657
 20
70.0401
 30
0.0
 11
312.657
 21
70.0401
 31
0.0
  0
LINE
  8
0
 62
     0
 10
312.657
 20
70.0401
 30
0.0
 11
312.657
 21
84.0412
 31
0.0
  0
LINE
  8
0
 62
     0
 10
22.1451
 20
103.091
 30
0.0
 11
36.146
 21
103.091
 31
0.0
  0
LINE
  8
0
 62
     0
 10
36.146
 20
103.091
 30
0.0
 11
36.146
 21
89.0901
 31
0.0
  0
LINE
  8
0
 62
     0
 10
36.146
 20
89.0901
 30
0.0
 11
22.1451
 21
89.0901
 31
0.0
  0
LINE
  8
0
 62
     0
 10
22.1451
 20
89.0901
 30
0.0
 11
22.1451
 21
103.091
 31
0.0
  0
LINE
  8
0
 62
     0
 10
50.7199
 20
103.091
 30
0.0
 11
64.721
 21
103.091
 31
0.0
  0
LINE
  8
0
 62
     0
 10
64.721
 20
103.091
 30
0.0
 11
64.721
 21
89.0901
 31
0.0
  0
LINE
  8
0
 62
     0
 10
64.721
 20
89.0901
 30
0.0
 11
50.7199
 21
89.0901
 31
0.0
  0
LINE
  8
0
 62
     0
 10
50.7199
 20
89.0901
 30
0.0
 11
50.7199
 21
103.091
 31
0.0
  0
LINE
  8
0
 62
     0
 10
69.7699
 20
103.091
 30
0.0
 11
83.771
 21
103.091
 31
0.0
  0
LINE
  8
0
 62
     0
 10
83.771
 20
103.091
 30
0.0
 11
83.771
 21
89.0901
 31
0.0
  0
LINE
  8
0
 62
     0
 10
83.771
 20
89.0901
 30
0.0
 11
69.7699
 21
89.0901
 31
0.0
  0
LINE
  8
0
 62
     0
 10
69.7699
 20
89.0901
 30
0.0
 11
69.7699
 21
103.091
 31
0.0
  0
LINE
  8
0
 62
     0
 10
88.8199
 20
103.091
 30
0.0
 11
102.821
 21
103.091
 31
0.0
  0
LINE
  8
0
 62
     0
 10
102.821
 20
103.091
 30
0.0
 11
102.821
 21
89.0901
 31
0.0
  0
LINE
  8
0
 62
     0
 10
102.821
 20
89.0901
 30
0.0
 11
88.8199
 21
89.0901
 31
0.0
  0
LINE
  8
0
 62
     0
 10
88.8199
 20
89.0901
 30
0.0
 11
88.8199
 21
103.091
 31
0.0
  0
LINE
  8
0
 62
     0
 10
107.87
 20
103.091
 30
0.0
 11
121.87
 21
103.091
 31
0.0
  0
LINE
  8
0
 62
     0
 10
121.87
 20
103.091
 30
0.0
 11
121.87
 21
89.0901
 31
0.0
  0
LINE
  8
0
 62
     0
 10
121.87
 20
89.0901
 30
0.0
 11
107.87
 21
89.0901
 31
0.0
  0
LINE
  8
0
 62
     0
 10
107.87
 20
89.0901
 30
0.0
 11
107.87
 21
103.091
 31
0.0
  0
LINE
  8
0
 62
     0
 10
126.92
 20
103.091
 30
0.0
 11
140.921
 21
103.091
 31
0.0
  0
LINE
  8
0
 62
     0
 10
140.921
 20
103.091
 30
0.0
 11
140.921
 21
89.0901
 31
0.0
  0
LINE
  8
0
 62
     0
 10
140.921
 20
89.0901
 30
0.0
 11
126.92
 21
89.0901
 31
0.0
  0
LINE
  8
0
 62
     0
 10
126.92
 20
89.0901
 30
0.0
 11
126.92
 21
103.091
 31
0.0
  0
LINE
  8
0
 62
     0
 10
145.97
 20
103.091
 30
0.0
 11
159.971
 21
103.091
 31
0.0
  0
LINE
  8
0
 62
     0
 10
159.971
 20
103.091
 30
0.0
 11
159.971
 21
89.0901
 31
0.0
  0
LINE
  8
0
 62
     0
 10
159.971
 20
89.0901
 30
0.0
 11
145.97
 21
89.0901
 31
0.0
  0
LINE
  8
0
 62
     0
 10
145.97
 20
89.0901
 30
0.0
 11
145.97
 21
103.091
 31
0.0
  0
LINE
  8
0
 62
     0
 10
165.02
 20
103.091
 30
0.0
 11
179.021
 21
103.091
 31
0.0
  0
LINE
  8
0
 62
     0
 10
179.021
 20
103.091
 30
0.0
 11
179.021
 21
89.0901
 31
0.0
  0
LINE
  8
0
 62
     0
 10
179.021
 20
89.0901
 30
0.0
 11
165.02
 21
89.0901
 31
0.0
  0
LINE
  8
0
 62
     0
 10
165.02
 20
89.0901
 30
0.0
 11
165.02
 21
103.091
 31
0.0
  0
LINE
  8
0
 62
     0
 10
184.07
 20
103.091
 30
0.0
 11
198.071
 21
103.091
 31
0.0
  0
LINE
  8
0
 62
     0
 10
198.071
 20
103.091
 30
0.0
 11
198.071
 21
89.0901
 31
0.0
  0
LINE
  8
0
 62
     0
 10
198.071
 20
89.0901
 30
0.0
 11
184.07
 21
89.0901
 31
0.0
  0
LINE
  8
0
 62
     0
 10
184.07
 20
89.0901
 30
0.0
 11
184.07
 21
103.091
 31
0.0
  0
LINE
  8
0
 62
     0
 10
203.12
 20
103.091
 30
0.0
 11
217.121
 21
103.091
 31
0.0
  0
LINE
  8
0
 62
     0
 10
217.121
 20
103.091
 30
0.0
 11
217.121
 21
89.0901
 31
0.0
  0
LINE
  8
0
 62
     0
 10
217.121
 20
89.0901
 30
0.0
 11
203.12
 21
89.0901
 31
0.0
  0
LINE
  8
0
 62
     0
 10
203.12
 20
89.0901
 30
0.0
 11
203.12
 21
103.091
 31
0.0
  0
LINE
  8
0
 62
     0
 10
222.17
 20
103.091
 30
0.0
 11
236.171
 21
103.091
 31
0.0
  0
LINE
  8
0
 62
     0
 10
236.171
 20
103.091
 30
0.0
 11
236.171
 21
89.0901
 31
0.0
  0
LINE
  8
0
 62
     0
 10
236.171
 20
89.0901
 30
0.0
 11
222.17
 21
89.0901
 31
0.0
  0
LINE
  8
0
 62
     0
 10
222.17
 20
89.0901
 30
0.0
 11
222.17
 21
103.091
 31
0.0
  0
LINE
  8
0
 62
     0
 10
241.22
 20
103.091
 30
0.0
 11
255.221
 21
103.091
 31
0.0
  0
LINE
  8
0
 62
     0
 10
255.221
 20
103.091
 30
0.0
 11
255.221
 21
89.0901
 31
0.0
  0
LINE
  8
0
 62
     0
 10
255.221
 20
89.0901
 30
0.0
 11
241.22
 21
89.0901
 31
0.0
  0
LINE
  8
0
 62
     0
 10
241.22
 20
89.0901
 30
0.0
 11
241.22
 21
103.091
 31
0.0
  0
LINE
  8
0
 62
     0
 10
260.27
 20
103.091
 30
0.0
 11
274.271
 21
103.091
 31
0.0
  0
LINE
  8
0
 62
     0
 10
274.271
 20
103.091
 30
0.0
 11
274.271
 21
89.0901
 31
0.0
  0
LINE
  8
0
 62
     0
 10
274.271
 20
89.0901
 30
0.0
 11
260.27
 21
89.0901
 31
0.0
  0
LINE
  8
0
 62
     0
 10
260.27
 20
89.0901
 30
0.0
 11
260.27
 21
103.091
 31
0.0
  0
LINE
  8
0
 62
     0
 10
279.32
 20
103.091
 30
0.0
 11
293.321
 21
103.091
 31
0.0
  0
LINE
  8
0
 62
     0
 10
293.321
 20
103.091
 30
0.0
 11
293.321
 21
89.0901
 31
0.0
  0
LINE
  8
0
 62
     0
 10
293.321
 20
89.0901
 30
0.0
 11
279.32
 21
89.0901
 31
0.0
  0
LINE
  8
0
 62
     0
 10
279.32
 20
89.0901
 30
0.0
 11
279.32
 21
103.091
 31
0.0
  0
LINE
  8
0
 62
     0
 10
298.37
 20
103.091
 30
0.0
 11
312.371
 21
103.091
 31
0.0
  0
LINE
  8
0
 62
     0
 10
312.371
 20
103.091
 30
0.0
 11
312.371
 21
89.0901
 31
0.0
  0
LINE
  8
0
 62
     0
 10
312.371
 20
89.0901
 30
0.0
 11
298.37
 21
89.0901
 31
0.0
  0
LINE
  8
0
 62
     0
 10
298.37
 20
89.0901
 30
0.0
 11
298.37
 21
103.091
 31
0.0
  0
LINE
  8
0
 62
     0
 10
317.42
 20
103.091
 30
0.0
 11
331.421
 21
103.091
 31
0.0
  0
LINE
  8
0
 62
     0
 10
331.421
 20
103.091
 30
0.0
 11
331.421
 21
89.0901
 31
0.0
  0
LINE
  8
0
 62
     0
 10
331.421
 20
89.0901
 30
0.0
 11
317.42
 21
89.0901
 31
0.0
  0
LINE
  8
0
 62
     0
 10
317.42
 20
89.0901
 30
0.0
 11
317.42
 21
103.091
 31
0.0
  0
LINE
  8
0
 62
     0
 10
88.0939
 20
112.043
 30
0.0
 11
87.6762
 21
111.829
 31
0.0
  0
LINE
  8
0
 62
     0
 10
87.6762
 20
111.829
 30
0.0
 11
87.3442
 21
111.497
 31
0.0
  0
LINE
  8
0
 62
     0
 10
87.3442
 20
111.497
 30
0.0
 11
87.1319
 21
111.079
 31
0.0
  0
LINE
  8
0
 62
     0
 10
87.1319
 20
111.079
 30
0.0
 11
87.0574
 21
110.615
 31
0.0
  0
LINE
  8
0
 62
     0
 10
87.0574
 20
110.615
 30
0.0
 11
87.1319
 21
110.152
 31
0.0
  0
LINE
  8
0
 62
     0
 10
87.1319
 20
110.152
 30
0.0
 11
87.3442
 21
109.735
 31
0.0
  0
LINE
  8
0
 62
     0
 10
87.3442
 20
109.735
 30
0.0
 11
87.6762
 21
109.402
 31
0.0
  0
LINE
  8
0
 62
     0
 10
87.6762
 20
109.402
 30
0.0
 11
88.0939
 21
109.19
 31
0.0
  0
LINE
  8
0
 62
     0
 10
88.0939
 20
109.19
 30
0.0
 11
88.5567
 21
109.116
 31
0.0
  0
LINE
  8
0
 62
     0
 10
88.5567
 20
109.116
 30
0.0
 11
89.0214
 21
109.19
 31
0.0
  0
LINE
  8
0
 62
     0
 10
89.0214
 20
109.19
 30
0.0
 11
89.4387
 21
109.402
 31
0.0
  0
LINE
  8
0
 62
     0
 10
89.4387
 20
109.402
 30
0.0
 11
89.771
 21
109.735
 31
0.0
  0
LINE
  8
0
 62
     0
 10
89.771
 20
109.735
 30
0.0
 11
89.9844
 21
110.152
 31
0.0
  0
LINE
  8
0
 62
     0
 10
89.9844
 20
110.152
 30
0.0
 11
90.0575
 21
110.615
 31
0.0
  0
LINE
  8
0
 62
     0
 10
90.0575
 20
110.615
 30
0.0
 11
89.9844
 21
111.079
 31
0.0
  0
LINE
  8
0
 62
     0
 10
89.9844
 20
111.079
 30
0.0
 11
89.771
 21
111.497
 31
0.0
  0
LINE
  8
0
 62
     0
 10
89.771
 20
111.497
 30
0.0
 11
89.4387
 21
111.829
 31
0.0
  0
LINE
  8
0
 62
     0
 10
89.4387
 20
111.829
 30
0.0
 11
89.0214
 21
112.043
 31
0.0
  0
LINE
  8
0
 62
     0
 10
89.0214
 20
112.043
 30
0.0
 11
88.5567
 21
112.116
 31
0.0
  0
LINE
  8
0
 62
     0
 10
88.5567
 20
112.116
 30
0.0
 11
88.0939
 21
112.043
 31
0.0
  0
LINE
  8
0
 62
     0
 10
171.556
 20
112.043
 30
0.0
 11
171.138
 21
111.829
 31
0.0
  0
LINE
  8
0
 62
     0
 10
171.138
 20
111.829
 30
0.0
 11
170.807
 21
111.497
 31
0.0
  0
LINE
  8
0
 62
     0
 10
170.807
 20
111.497
 30
0.0
 11
170.593
 21
111.079
 31
0.0
  0
LINE
  8
0
 62
     0
 10
170.593
 20
111.079
 30
0.0
 11
170.52
 21
110.615
 31
0.0
  0
LINE
  8
0
 62
     0
 10
170.52
 20
110.615
 30
0.0
 11
170.593
 21
110.152
 31
0.0
  0
LINE
  8
0
 62
     0
 10
170.593
 20
110.152
 30
0.0
 11
170.807
 21
109.735
 31
0.0
  0
LINE
  8
0
 62
     0
 10
170.807
 20
109.735
 30
0.0
 11
171.138
 21
109.402
 31
0.0
  0
LINE
  8
0
 62
     0
 10
171.138
 20
109.402
 30
0.0
 11
171.556
 21
109.19
 31
0.0
  0
LINE
  8
0
 62
     0
 10
171.556
 20
109.19
 30
0.0
 11
172.02
 21
109.116
 31
0.0
  0
LINE
  8
0
 62
     0
 10
172.02
 20
109.116
 30
0.0
 11
172.485
 21
109.19
 31
0.0
  0
LINE
  8
0
 62
     0
 10
172.485
 20
109.19
 30
0.0
 11
172.902
 21
109.402
 31
0.0
  0
LINE
  8
0
 62
     0
 10
172.902
 20
109.402
 30
0.0
 11
173.235
 21
109.735
 31
0.0
  0
LINE
  8
0
 62
     0
 10
173.235
 20
109.735
 30
0.0
 11
173.448
 21
110.152
 31
0.0
  0
LINE
  8
0
 62
     0
 10
173.448
 20
110.152
 30
0.0
 11
173.52
 21
110.615
 31
0.0
  0
LINE
  8
0
 62
     0
 10
173.52
 20
110.615
 30
0.0
 11
173.448
 21
111.079
 31
0.0
  0
LINE
  8
0
 62
     0
 10
173.448
 20
111.079
 30
0.0
 11
173.235
 21
111.497
 31
0.0
  0
LINE
  8
0
 62
     0
 10
173.235
 20
111.497
 30
0.0
 11
172.902
 21
111.829
 31
0.0
  0
LINE
  8
0
 62
     0
 10
172.902
 20
111.829
 30
0.0
 11
172.485
 21
112.043
 31
0.0
  0
LINE
  8
0
 62
     0
 10
172.485
 20
112.043
 30
0.0
 11
172.02
 21
112.116
 31
0.0
  0
LINE
  8
0
 62
     0
 10
172.02
 20
112.116
 30
0.0
 11
171.556
 21
112.043
 31
0.0
  0
LINE
  8
0
 62
     0
 10
255.018
 20
112.043
 30
0.0
 11
254.601
 21
111.829
 31
0.0
  0
LINE
  8
0
 62
     0
 10
254.601
 20
111.829
 30
0.0
 11
254.269
 21
111.497
 31
0.0
  0
LINE
  8
0
 62
     0
 10
254.269
 20
111.497
 30
0.0
 11
254.056
 21
111.079
 31
0.0
  0
LINE
  8
0
 62
     0
 10
254.056
 20
111.079
 30
0.0
 11
253.982
 21
110.615
 31
0.0
  0
LINE
  8
0
 62
     0
 10
253.982
 20
110.615
 30
0.0
 11
254.056
 21
110.152
 31
0.0
  0
LINE
  8
0
 62
     0
 10
254.056
 20
110.152
 30
0.0
 11
254.269
 21
109.735
 31
0.0
  0
LINE
  8
0
 62
     0
 10
254.269
 20
109.735
 30
0.0
 11
254.601
 21
109.402
 31
0.0
  0
LINE
  8
0
 62
     0
 10
254.601
 20
109.402
 30
0.0
 11
255.018
 21
109.19
 31
0.0
  0
LINE
  8
0
 62
     0
 10
255.018
 20
109.19
 30
0.0
 11
255.483
 21
109.116
 31
0.0
  0
LINE
  8
0
 62
     0
 10
255.483
 20
109.116
 30
0.0
 11
255.946
 21
109.19
 31
0.0
  0
LINE
  8
0
 62
     0
 10
255.946
 20
109.19
 30
0.0
 11
256.365
 21
109.402
 31
0.0
  0
LINE
  8
0
 62
     0
 10
256.365
 20
109.402
 30
0.0
 11
256.697
 21
109.735
 31
0.0
  0
LINE
  8
0
 62
     0
 10
256.697
 20
109.735
 30
0.0
 11
256.909
 21
110.152
 31
0.0
  0
LINE
  8
0
 62
     0
 10
256.909
 20
110.152
 30
0.0
 11
256.982
 21
110.615
 31
0.0
  0
LINE
  8
0
 62
     0
 10
256.982
 20
110.615
 30
0.0
 11
256.909
 21
111.079
 31
0.0
  0
LINE
  8
0
 62
     0
 10
256.909
 20
111.079
 30
0.0
 11
256.697
 21
111.497
 31
0.0
  0
LINE
  8
0
 62
     0
 10
256.697
 20
111.497
 30
0.0
 11
256.365
 21
111.829
 31
0.0
  0
LINE
  8
0
 62
     0
 10
256.365
 20
111.829
 30
0.0
 11
255.946
 21
112.043
 31
0.0
  0
LINE
  8
0
 62
     0
 10
255.946
 20
112.043
 30
0.0
 11
255.483
 21
112.116
 31
0.0
  0
LINE
  8
0
 62
     0
 10
255.483
 20
112.116
 30
0.0
 11
255.018
 21
112.043
 31
0.0
  0
LINE
  8
0
 62
     0
 10
338.482
 20
112.043
 30
0.0
 11
338.064
 21
111.829
 31
0.0
  0
LINE
  8
0
 62
     0
 10
338.064
 20
111.829
 30
0.0
 11
337.733
 21
111.497
 31
0.0
  0
LINE
  8
0
 62
     0
 10
337.733
 20
111.497
 30
0.0
 11
337.52
 21
111.079
 31
0.0
  0
LINE
  8
0
 62
     0
 10
337.52
 20
111.079
 30
0.0
 11
337.447
 21
110.615
 31
0.0
  0
LINE
  8
0
 62
     0
 10
337.447
 20
110.615
 30
0.0
 11
337.52
 21
110.152
 31
0.0
  0
LINE
  8
0
 62
     0
 10
337.52
 20
110.152
 30
0.0
 11
337.733
 21
109.735
 31
0.0
  0
LINE
  8
0
 62
     0
 10
337.733
 20
109.735
 30
0.0
 11
338.064
 21
109.402
 31
0.0
  0
LINE
  8
0
 62
     0
 10
338.064
 20
109.402
 30
0.0
 11
338.482
 21
109.19
 31
0.0
  0
LINE
  8
0
 62
     0
 10
338.482
 20
109.19
 30
0.0
 11
338.946
 21
109.116
 31
0.0
  0
LINE
  8
0
 62
     0
 10
338.946
 20
109.116
 30
0.0
 11
339.409
 21
109.19
 31
0.0
  0
LINE
  8
0
 62
     0
 10
339.409
 20
109.19
 30
0.0
 11
339.827
 21
109.402
 31
0.0
  0
LINE
  8
0
 62
     0
 10
339.827
 20
109.402
 30
0.0
 11
340.159
 21
109.735
 31
0.0
  0
LINE
  8
0
 62
     0
 10
340.159
 20
109.735
 30
0.0
 11
340.373
 21
110.152
 31
0.0
  0
LINE
  8
0
 62
     0
 10
340.373
 20
110.152
 30
0.0
 11
340.447
 21
110.615
 31
0.0
  0
LINE
  8
0
 62
     0
 10
340.447
 20
110.615
 30
0.0
 11
340.373
 21
111.079
 31
0.0
  0
LINE
  8
0
 62
     0
 10
340.373
 20
111.079
 30
0.0
 11
340.159
 21
111.497
 31
0.0
  0
LINE
  8
0
 62
     0
 10
340.159
 20
111.497
 30
0.0
 11
339.827
 21
111.829
 31
0.0
  0
LINE
  8
0
 62
     0
 10
339.827
 20
111.829
 30
0.0
 11
339.409
 21
112.043
 31
0.0
  0
LINE
  8
0
 62
     0
 10
339.409
 20
112.043
 30
0.0
 11
338.946
 21
112.116
 31
0.0
  0
LINE
  8
0
 62
     0
 10
338.946
 20
112.116
 30
0.0
 11
338.482
 21
112.043
 31
0.0
  0
LINE
  8
0
 62
     0
 10
4.63158
 20
112.043
 30
0.0
 11
4.21404
 21
111.829
 31
0.0
  0
LINE
  8
0
 62
     0
 10
4.21404
 20
111.829
 30
0.0
 11
3.88193
 21
111.497
 31
0.0
  0
LINE
  8
0
 62
     0
 10
3.88193
 20
111.497
 30
0.0
 11
3.66832
 21
111.079
 31
0.0
  0
LINE
  8
0
 62
     0
 10
3.66832
 20
111.079
 30
0.0
 11
3.5953
 21
110.615
 31
0.0
  0
LINE
  8
0
 62
     0
 10
3.5953
 20
110.615
 30
0.0
 11
3.66832
 21
110.152
 31
0.0
  0
LINE
  8
0
 62
     0
 10
3.66832
 20
110.152
 30
0.0
 11
3.88193
 21
109.735
 31
0.0
  0
LINE
  8
0
 62
     0
 10
3.88193
 20
109.735
 30
0.0
 11
4.21404
 21
109.402
 31
0.0
  0
LINE
  8
0
 62
     0
 10
4.21404
 20
109.402
 30
0.0
 11
4.63158
 21
109.19
 31
0.0
  0
LINE
  8
0
 62
     0
 10
4.63158
 20
109.19
 30
0.0
 11
5.09598
 21
109.116
 31
0.0
  0
LINE
  8
0
 62
     0
 10
5.09598
 20
109.116
 30
0.0
 11
5.559
 21
109.19
 31
0.0
  0
LINE
  8
0
 62
     0
 10
5.559
 20
109.19
 30
0.0
 11
5.97655
 21
109.402
 31
0.0
  0
LINE
  8
0
 62
     0
 10
5.97655
 20
109.402
 30
0.0
 11
6.30865
 21
109.735
 31
0.0
  0
LINE
  8
0
 62
     0
 10
6.30865
 20
109.735
 30
0.0
 11
6.52089
 21
110.152
 31
0.0
  0
LINE
  8
0
 62
     0
 10
6.52089
 20
110.152
 30
0.0
 11
6.59529
 21
110.615
 31
0.0
  0
LINE
  8
0
 62
     0
 10
6.59529
 20
110.615
 30
0.0
 11
6.52089
 21
111.079
 31
0.0
  0
LINE
  8
0
 62
     0
 10
6.52089
 20
111.079
 30
0.0
 11
6.30865
 21
111.497
 31
0.0
  0
LINE
  8
0
 62
     0
 10
6.30865
 20
111.497
 30
0.0
 11
5.97655
 21
111.829
 31
0.0
  0
LINE
  8
0
 62
     0
 10
5.97655
 20
111.829
 30
0.0
 11
5.559
 21
112.043
 31
0.0
  0
LINE
  8
0
 62
     0
 10
5.559
 20
112.043
 30
0.0
 11
5.09598
 21
112.116
 31
0.0
  0
LINE
  8
0
 62
     0
 10
5.09598
 20
112.116
 30
0.0
 11
4.63158
 21
112.043
 31
0.0
  0
ENDSEC
  0
EOF
