  0
SECTION
  2
HEADER
  9
$ACADVER
  1
AC1009
  9
$EXTMIN
 10
0.0
 20
0.0
 30
0.0
  9
$EXTMAX
 10
1000.0
 20
1000.0
 30
0.0
  9
$FILLMODE
 70
 0
  9
$SPLFRAME
 70
 1
  0
ENDSEC
  0
SECTION
  2
TABLES
  0
TABLE
  2
LAYER
 70
1
  0
LAYER
  2
0
 70
     0
 62
     7
  6
CONTINUOUS
  0
ENDTAB
  0
ENDSEC
  0
SECTION
  2
ENTITIES
  0
LINE
  8
0
 62
     0
 10
353.945
 20
125.494
 30
0.0
 11
354.732
 21
125.464
 31
0.0
  0
LINE
  8
0
 62
     0
 10
354.732
 20
125.464
 30
0.0
 11
355.512
 21
125.37
 31
0.0
  0
LINE
  8
0
 62
     0
 10
355.512
 20
125.37
 30
0.0
 11
356.281
 21
125.217
 31
0.0
  0
LINE
  8
0
 62
     0
 10
356.281
 20
125.217
 30
0.0
 11
357.036
 21
125.005
 31
0.0
  0
LINE
  8
0
 62
     0
 10
357.036
 20
125.005
 30
0.0
 11
357.773
 21
124.732
 31
0.0
  0
LINE
  8
0
 62
     0
 10
357.773
 20
124.732
 30
0.0
 11
358.486
 21
124.404
 31
0.0
  0
LINE
  8
0
 62
     0
 10
358.486
 20
124.404
 30
0.0
 11
359.17
 21
124.021
 31
0.0
  0
LINE
  8
0
 62
     0
 10
359.17
 20
124.021
 30
0.0
 11
359.823
 21
123.584
 31
0.0
  0
LINE
  8
0
 62
     0
 10
359.823
 20
123.584
 30
0.0
 11
360.44
 21
123.099
 31
0.0
  0
LINE
  8
0
 62
     0
 10
360.44
 20
123.099
 30
0.0
 11
361.019
 21
122.566
 31
0.0
  0
LINE
  8
0
 62
     0
 10
361.019
 20
122.566
 30
0.0
 11
361.551
 21
121.988
 31
0.0
  0
LINE
  8
0
 62
     0
 10
361.551
 20
121.988
 30
0.0
 11
362.038
 21
121.371
 31
0.0
  0
LINE
  8
0
 62
     0
 10
362.038
 20
121.371
 30
0.0
 11
362.472
 21
120.719
 31
0.0
  0
LINE
  8
0
 62
     0
 10
362.472
 20
120.719
 30
0.0
 11
362.857
 21
120.034
 31
0.0
  0
LINE
  8
0
 62
     0
 10
362.857
 20
120.034
 30
0.0
 11
363.185
 21
119.32
 31
0.0
  0
LINE
  8
0
 62
     0
 10
363.185
 20
119.32
 30
0.0
 11
363.456
 21
118.584
 31
0.0
  0
LINE
  8
0
 62
     0
 10
363.456
 20
118.584
 30
0.0
 11
363.672
 21
117.828
 31
0.0
  0
LINE
  8
0
 62
     0
 10
363.672
 20
117.828
 30
0.0
 11
363.823
 21
117.059
 31
0.0
  0
LINE
  8
0
 62
     0
 10
363.823
 20
117.059
 30
0.0
 11
363.915
 21
116.279
 31
0.0
  0
LINE
  8
0
 62
     0
 10
363.915
 20
116.279
 30
0.0
 11
363.947
 21
115.493
 31
0.0
  0
LINE
  8
0
 62
     0
 10
363.947
 20
115.493
 30
0.0
 11
363.947
 21
10.243
 31
0.0
  0
LINE
  8
0
 62
     0
 10
363.947
 20
10.243
 30
0.0
 11
363.915
 21
9.45885
 31
0.0
  0
LINE
  8
0
 62
     0
 10
363.915
 20
9.45885
 30
0.0
 11
363.823
 21
8.6789
 31
0.0
  0
LINE
  8
0
 62
     0
 10
363.823
 20
8.6789
 30
0.0
 11
363.672
 21
7.90857
 31
0.0
  0
LINE
  8
0
 62
     0
 10
363.672
 20
7.90857
 30
0.0
 11
363.456
 21
7.152
 31
0.0
  0
LINE
  8
0
 62
     0
 10
363.456
 20
7.152
 30
0.0
 11
363.185
 21
6.41615
 31
0.0
  0
LINE
  8
0
 62
     0
 10
363.185
 20
6.41615
 30
0.0
 11
362.857
 21
5.70371
 31
0.0
  0
LINE
  8
0
 62
     0
 10
362.857
 20
5.70371
 30
0.0
 11
362.472
 21
5.01883
 31
0.0
  0
LINE
  8
0
 62
     0
 10
362.472
 20
5.01883
 30
0.0
 11
362.038
 21
4.36563
 31
0.0
  0
LINE
  8
0
 62
     0
 10
362.038
 20
4.36563
 30
0.0
 11
361.551
 21
3.74826
 31
0.0
  0
LINE
  8
0
 62
     0
 10
361.551
 20
3.74826
 30
0.0
 11
361.019
 21
3.17087
 31
0.0
  0
LINE
  8
0
 62
     0
 10
361.019
 20
3.17087
 30
0.0
 11
360.44
 21
2.63894
 31
0.0
  0
LINE
  8
0
 62
     0
 10
360.44
 20
2.63894
 30
0.0
 11
359.823
 21
2.15249
 31
0.0
  0
LINE
  8
0
 62
     0
 10
359.823
 20
2.15249
 30
0.0
 11
359.17
 21
1.71704
 31
0.0
  0
LINE
  8
0
 62
     0
 10
359.17
 20
1.71704
 30
0.0
 11
358.486
 21
1.33256
 31
0.0
  0
LINE
  8
0
 62
     0
 10
358.486
 20
1.33256
 30
0.0
 11
357.773
 21
1.00459
 31
0.0
  0
LINE
  8
0
 62
     0
 10
357.773
 20
1.00459
 30
0.0
 11
357.036
 21
0.731739
 31
0.0
  0
LINE
  8
0
 62
     0
 10
357.036
 20
0.731739
 30
0.0
 11
356.281
 21
0.520898
 31
0.0
  0
LINE
  8
0
 62
     0
 10
356.281
 20
0.520898
 30
0.0
 11
355.512
 21
0.366557
 31
0.0
  0
LINE
  8
0
 62
     0
 10
355.512
 20
0.366557
 30
0.0
 11
354.732
 21
0.272852
 31
0.0
  0
LINE
  8
0
 62
     0
 10
354.732
 20
0.272852
 30
0.0
 11
353.945
 21
0.242535
 31
0.0
  0
LINE
  8
0
 62
     0
 10
353.945
 20
0.242535
 30
0.0
 11
10.0955
 21
0.243913
 31
0.0
  0
LINE
  8
0
 62
     0
 10
10.0955
 20
0.243913
 30
0.0
 11
9.31002
 21
0.272852
 31
0.0
  0
LINE
  8
0
 62
     0
 10
9.31002
 20
0.272852
 30
0.0
 11
8.53006
 21
0.366557
 31
0.0
  0
LINE
  8
0
 62
     0
 10
8.53006
 20
0.366557
 30
0.0
 11
7.76111
 21
0.520898
 31
0.0
  0
LINE
  8
0
 62
     0
 10
7.76111
 20
0.520898
 30
0.0
 11
7.00458
 21
0.731739
 31
0.0
  0
LINE
  8
0
 62
     0
 10
7.00458
 20
0.731739
 30
0.0
 11
6.26869
 21
1.00459
 31
0.0
  0
LINE
  8
0
 62
     0
 10
6.26869
 20
1.00459
 30
0.0
 11
5.55487
 21
1.33256
 31
0.0
  0
LINE
  8
0
 62
     0
 10
5.55487
 20
1.33256
 30
0.0
 11
4.86999
 21
1.71704
 31
0.0
  0
LINE
  8
0
 62
     0
 10
4.86999
 20
1.71704
 30
0.0
 11
4.21816
 21
2.15249
 31
0.0
  0
LINE
  8
0
 62
     0
 10
4.21816
 20
2.15249
 30
0.0
 11
3.6008
 21
2.63894
 31
0.0
  0
LINE
  8
0
 62
     0
 10
3.6008
 20
2.63894
 30
0.0
 11
3.02341
 21
3.17087
 31
0.0
  0
LINE
  8
0
 62
     0
 10
3.02341
 20
3.17087
 30
0.0
 11
2.49011
 21
3.74826
 31
0.0
  0
LINE
  8
0
 62
     0
 10
2.49011
 20
3.74826
 30
0.0
 11
2.00504
 21
4.36563
 31
0.0
  0
LINE
  8
0
 62
     0
 10
2.00504
 20
4.36563
 30
0.0
 11
1.56821
 21
5.01883
 31
0.0
  0
LINE
  8
0
 62
     0
 10
1.56821
 20
5.01883
 30
0.0
 11
1.18511
 21
5.70371
 31
0.0
  0
LINE
  8
0
 62
     0
 10
1.18511
 20
5.70371
 30
0.0
 11
0.857141
 21
6.41615
 31
0.0
  0
LINE
  8
0
 62
     0
 10
0.857141
 20
6.41615
 30
0.0
 11
0.584288
 21
7.152
 31
0.0
  0
LINE
  8
0
 62
     0
 10
0.584288
 20
7.152
 30
0.0
 11
0.372071
 21
7.90857
 31
0.0
  0
LINE
  8
0
 62
     0
 10
0.372071
 20
7.90857
 30
0.0
 11
0.219108
 21
8.6789
 31
0.0
  0
LINE
  8
0
 62
     0
 10
0.219108
 20
8.6789
 30
0.0
 11
0.125402
 21
9.45885
 31
0.0
  0
LINE
  8
0
 62
     0
 10
0.125402
 20
9.45885
 30
0.0
 11
0.0950846
 21
10.243
 31
0.0
  0
LINE
  8
0
 62
     0
 10
0.0950846
 20
10.243
 30
0.0
 11
0.0950846
 21
115.493
 31
0.0
  0
LINE
  8
0
 62
     0
 10
0.0950846
 20
115.493
 30
0.0
 11
0.125402
 21
116.279
 31
0.0
  0
LINE
  8
0
 62
     0
 10
0.125402
 20
116.279
 30
0.0
 11
0.219108
 21
117.059
 31
0.0
  0
LINE
  8
0
 62
     0
 10
0.219108
 20
117.059
 30
0.0
 11
0.372071
 21
117.828
 31
0.0
  0
LINE
  8
0
 62
     0
 10
0.372071
 20
117.828
 30
0.0
 11
0.584288
 21
118.584
 31
0.0
  0
LINE
  8
0
 62
     0
 10
0.584288
 20
118.584
 30
0.0
 11
0.857141
 21
119.32
 31
0.0
  0
LINE
  8
0
 62
     0
 10
0.857141
 20
119.32
 30
0.0
 11
1.18511
 21
120.034
 31
0.0
  0
LINE
  8
0
 62
     0
 10
1.18511
 20
120.034
 30
0.0
 11
1.56821
 21
120.719
 31
0.0
  0
LINE
  8
0
 62
     0
 10
1.56821
 20
120.719
 30
0.0
 11
2.00504
 21
121.371
 31
0.0
  0
LINE
  8
0
 62
     0
 10
2.00504
 20
121.371
 30
0.0
 11
2.49011
 21
121.988
 31
0.0
  0
LINE
  8
0
 62
     0
 10
2.49011
 20
121.988
 30
0.0
 11
3.02341
 21
122.566
 31
0.0
  0
LINE
  8
0
 62
     0
 10
3.02341
 20
122.566
 30
0.0
 11
3.6008
 21
123.099
 31
0.0
  0
LINE
  8
0
 62
     0
 10
3.6008
 20
123.099
 30
0.0
 11
4.21816
 21
123.584
 31
0.0
  0
LINE
  8
0
 62
     0
 10
4.21816
 20
123.584
 30
0.0
 11
4.86999
 21
124.021
 31
0.0
  0
LINE
  8
0
 62
     0
 10
4.86999
 20
124.021
 30
0.0
 11
5.55487
 21
124.404
 31
0.0
  0
LINE
  8
0
 62
     0
 10
5.55487
 20
124.404
 30
0.0
 11
6.26869
 21
124.732
 31
0.0
  0
LINE
  8
0
 62
     0
 10
6.26869
 20
124.732
 30
0.0
 11
7.00458
 21
125.005
 31
0.0
  0
LINE
  8
0
 62
     0
 10
7.00458
 20
125.005
 30
0.0
 11
7.76111
 21
125.217
 31
0.0
  0
LINE
  8
0
 62
     0
 10
7.76111
 20
125.217
 30
0.0
 11
8.53006
 21
125.37
 31
0.0
  0
LINE
  8
0
 62
     0
 10
8.53006
 20
125.37
 30
0.0
 11
9.31002
 21
125.464
 31
0.0
  0
LINE
  8
0
 62
     0
 10
9.31002
 20
125.464
 30
0.0
 11
10.0955
 21
125.494
 31
0.0
  0
LINE
  8
0
 62
     0
 10
10.0955
 20
125.494
 30
0.0
 11
353.945
 21
125.494
 31
0.0
  0
LINE
  8
0
 62
     0
 10
6.13089
 20
8.16903
 30
0.0
 11
5.71334
 21
7.9568
 31
0.0
  0
LINE
  8
0
 62
     0
 10
5.71334
 20
7.9568
 30
0.0
 11
5.38124
 21
7.62469
 31
0.0
  0
LINE
  8
0
 62
     0
 10
5.38124
 20
7.62469
 30
0.0
 11
5.16901
 21
7.20577
 31
0.0
  0
LINE
  8
0
 62
     0
 10
5.16901
 20
7.20577
 30
0.0
 11
5.09598
 21
6.74275
 31
0.0
  0
LINE
  8
0
 62
     0
 10
5.09598
 20
6.74275
 30
0.0
 11
5.16901
 21
6.27973
 31
0.0
  0
LINE
  8
0
 62
     0
 10
5.16901
 20
6.27973
 30
0.0
 11
5.38124
 21
5.8608
 31
0.0
  0
LINE
  8
0
 62
     0
 10
5.38124
 20
5.8608
 30
0.0
 11
5.71334
 21
5.53007
 31
0.0
  0
LINE
  8
0
 62
     0
 10
5.71334
 20
5.53007
 30
0.0
 11
6.13089
 21
5.31647
 31
0.0
  0
LINE
  8
0
 62
     0
 10
6.13089
 20
5.31647
 30
0.0
 11
6.59529
 21
5.24344
 31
0.0
  0
LINE
  8
0
 62
     0
 10
6.59529
 20
5.24344
 30
0.0
 11
7.05831
 21
5.31647
 31
0.0
  0
LINE
  8
0
 62
     0
 10
7.05831
 20
5.31647
 30
0.0
 11
7.47586
 21
5.53007
 31
0.0
  0
LINE
  8
0
 62
     0
 10
7.47586
 20
5.53007
 30
0.0
 11
7.80796
 21
5.8608
 31
0.0
  0
LINE
  8
0
 62
     0
 10
7.80796
 20
5.8608
 30
0.0
 11
8.02157
 21
6.27973
 31
0.0
  0
LINE
  8
0
 62
     0
 10
8.02157
 20
6.27973
 30
0.0
 11
8.09597
 21
6.74275
 31
0.0
  0
LINE
  8
0
 62
     0
 10
8.09597
 20
6.74275
 30
0.0
 11
8.02157
 21
7.20577
 31
0.0
  0
LINE
  8
0
 62
     0
 10
8.02157
 20
7.20577
 30
0.0
 11
7.80796
 21
7.62469
 31
0.0
  0
LINE
  8
0
 62
     0
 10
7.80796
 20
7.62469
 30
0.0
 11
7.47586
 21
7.9568
 31
0.0
  0
LINE
  8
0
 62
     0
 10
7.47586
 20
7.9568
 30
0.0
 11
7.05831
 21
8.16903
 31
0.0
  0
LINE
  8
0
 62
     0
 10
7.05831
 20
8.16903
 30
0.0
 11
6.59529
 21
8.24343
 31
0.0
  0
LINE
  8
0
 62
     0
 10
6.59529
 20
8.24343
 30
0.0
 11
6.13089
 21
8.16903
 31
0.0
  0
LINE
  8
0
 62
     0
 10
93.8445
 20
8.16903
 30
0.0
 11
93.4268
 21
7.9568
 31
0.0
  0
LINE
  8
0
 62
     0
 10
93.4268
 20
7.9568
 30
0.0
 11
93.0949
 21
7.62469
 31
0.0
  0
LINE
  8
0
 62
     0
 10
93.0949
 20
7.62469
 30
0.0
 11
92.8811
 21
7.20577
 31
0.0
  0
LINE
  8
0
 62
     0
 10
92.8811
 20
7.20577
 30
0.0
 11
92.8081
 21
6.74275
 31
0.0
  0
LINE
  8
0
 62
     0
 10
92.8081
 20
6.74275
 30
0.0
 11
92.8811
 21
6.27973
 31
0.0
  0
LINE
  8
0
 62
     0
 10
92.8811
 20
6.27973
 30
0.0
 11
93.0949
 21
5.8608
 31
0.0
  0
LINE
  8
0
 62
     0
 10
93.0949
 20
5.8608
 30
0.0
 11
93.4268
 21
5.53007
 31
0.0
  0
LINE
  8
0
 62
     0
 10
93.4268
 20
5.53007
 30
0.0
 11
93.8445
 21
5.31647
 31
0.0
  0
LINE
  8
0
 62
     0
 10
93.8445
 20
5.31647
 30
0.0
 11
94.3074
 21
5.24344
 31
0.0
  0
LINE
  8
0
 62
     0
 10
94.3074
 20
5.24344
 30
0.0
 11
94.772
 21
5.31647
 31
0.0
  0
LINE
  8
0
 62
     0
 10
94.772
 20
5.31647
 30
0.0
 11
95.1893
 21
5.53007
 31
0.0
  0
LINE
  8
0
 62
     0
 10
95.1893
 20
5.53007
 30
0.0
 11
95.5216
 21
5.8608
 31
0.0
  0
LINE
  8
0
 62
     0
 10
95.5216
 20
5.8608
 30
0.0
 11
95.7351
 21
6.27973
 31
0.0
  0
LINE
  8
0
 62
     0
 10
95.7351
 20
6.27973
 30
0.0
 11
95.8081
 21
6.74275
 31
0.0
  0
LINE
  8
0
 62
     0
 10
95.8081
 20
6.74275
 30
0.0
 11
95.7351
 21
7.20577
 31
0.0
  0
LINE
  8
0
 62
     0
 10
95.7351
 20
7.20577
 30
0.0
 11
95.5216
 21
7.62469
 31
0.0
  0
LINE
  8
0
 62
     0
 10
95.5216
 20
7.62469
 30
0.0
 11
95.1893
 21
7.9568
 31
0.0
  0
LINE
  8
0
 62
     0
 10
95.1893
 20
7.9568
 30
0.0
 11
94.772
 21
8.16903
 31
0.0
  0
LINE
  8
0
 62
     0
 10
94.772
 20
8.16903
 30
0.0
 11
94.3074
 21
8.24343
 31
0.0
  0
LINE
  8
0
 62
     0
 10
94.3074
 20
8.24343
 30
0.0
 11
93.8445
 21
8.16903
 31
0.0
  0
LINE
  8
0
 62
     0
 10
181.556
 20
8.16903
 30
0.0
 11
181.139
 21
7.9568
 31
0.0
  0
LINE
  8
0
 62
     0
 10
181.139
 20
7.9568
 30
0.0
 11
180.807
 21
7.62469
 31
0.0
  0
LINE
  8
0
 62
     0
 10
180.807
 20
7.62469
 30
0.0
 11
180.593
 21
7.20577
 31
0.0
  0
LINE
  8
0
 62
     0
 10
180.593
 20
7.20577
 30
0.0
 11
180.52
 21
6.74275
 31
0.0
  0
LINE
  8
0
 62
     0
 10
180.52
 20
6.74275
 30
0.0
 11
180.593
 21
6.27973
 31
0.0
  0
LINE
  8
0
 62
     0
 10
180.593
 20
6.27973
 30
0.0
 11
180.807
 21
5.8608
 31
0.0
  0
LINE
  8
0
 62
     0
 10
180.807
 20
5.8608
 30
0.0
 11
181.139
 21
5.53007
 31
0.0
  0
LINE
  8
0
 62
     0
 10
181.139
 20
5.53007
 30
0.0
 11
181.556
 21
5.31647
 31
0.0
  0
LINE
  8
0
 62
     0
 10
181.556
 20
5.31647
 30
0.0
 11
182.021
 21
5.24344
 31
0.0
  0
LINE
  8
0
 62
     0
 10
182.021
 20
5.24344
 30
0.0
 11
182.484
 21
5.31647
 31
0.0
  0
LINE
  8
0
 62
     0
 10
182.484
 20
5.31647
 30
0.0
 11
182.903
 21
5.53007
 31
0.0
  0
LINE
  8
0
 62
     0
 10
182.903
 20
5.53007
 30
0.0
 11
183.235
 21
5.8608
 31
0.0
  0
LINE
  8
0
 62
     0
 10
183.235
 20
5.8608
 30
0.0
 11
183.447
 21
6.27973
 31
0.0
  0
LINE
  8
0
 62
     0
 10
183.447
 20
6.27973
 30
0.0
 11
183.52
 21
6.74275
 31
0.0
  0
LINE
  8
0
 62
     0
 10
183.52
 20
6.74275
 30
0.0
 11
183.447
 21
7.20577
 31
0.0
  0
LINE
  8
0
 62
     0
 10
183.447
 20
7.20577
 30
0.0
 11
183.235
 21
7.62469
 31
0.0
  0
LINE
  8
0
 62
     0
 10
183.235
 20
7.62469
 30
0.0
 11
182.903
 21
7.9568
 31
0.0
  0
LINE
  8
0
 62
     0
 10
182.903
 20
7.9568
 30
0.0
 11
182.484
 21
8.16903
 31
0.0
  0
LINE
  8
0
 62
     0
 10
182.484
 20
8.16903
 30
0.0
 11
182.021
 21
8.24343
 31
0.0
  0
LINE
  8
0
 62
     0
 10
182.021
 20
8.24343
 30
0.0
 11
181.556
 21
8.16903
 31
0.0
  0
LINE
  8
0
 62
     0
 10
269.27
 20
8.16903
 30
0.0
 11
268.851
 21
7.9568
 31
0.0
  0
LINE
  8
0
 62
     0
 10
268.851
 20
7.9568
 30
0.0
 11
268.519
 21
7.62469
 31
0.0
  0
LINE
  8
0
 62
     0
 10
268.519
 20
7.62469
 30
0.0
 11
268.307
 21
7.20577
 31
0.0
  0
LINE
  8
0
 62
     0
 10
268.307
 20
7.20577
 30
0.0
 11
268.234
 21
6.74275
 31
0.0
  0
LINE
  8
0
 62
     0
 10
268.234
 20
6.74275
 30
0.0
 11
268.307
 21
6.27973
 31
0.0
  0
LINE
  8
0
 62
     0
 10
268.307
 20
6.27973
 30
0.0
 11
268.519
 21
5.8608
 31
0.0
  0
LINE
  8
0
 62
     0
 10
268.519
 20
5.8608
 30
0.0
 11
268.851
 21
5.53007
 31
0.0
  0
LINE
  8
0
 62
     0
 10
268.851
 20
5.53007
 30
0.0
 11
269.27
 21
5.31647
 31
0.0
  0
LINE
  8
0
 62
     0
 10
269.27
 20
5.31647
 30
0.0
 11
269.733
 21
5.24344
 31
0.0
  0
LINE
  8
0
 62
     0
 10
269.733
 20
5.24344
 30
0.0
 11
270.196
 21
5.31647
 31
0.0
  0
LINE
  8
0
 62
     0
 10
270.196
 20
5.31647
 30
0.0
 11
270.615
 21
5.53007
 31
0.0
  0
LINE
  8
0
 62
     0
 10
270.615
 20
5.53007
 30
0.0
 11
270.947
 21
5.8608
 31
0.0
  0
LINE
  8
0
 62
     0
 10
270.947
 20
5.8608
 30
0.0
 11
271.159
 21
6.27973
 31
0.0
  0
LINE
  8
0
 62
     0
 10
271.159
 20
6.27973
 30
0.0
 11
271.234
 21
6.74275
 31
0.0
  0
LINE
  8
0
 62
     0
 10
271.234
 20
6.74275
 30
0.0
 11
271.159
 21
7.20577
 31
0.0
  0
LINE
  8
0
 62
     0
 10
271.159
 20
7.20577
 30
0.0
 11
270.947
 21
7.62469
 31
0.0
  0
LINE
  8
0
 62
     0
 10
270.947
 20
7.62469
 30
0.0
 11
270.615
 21
7.9568
 31
0.0
  0
LINE
  8
0
 62
     0
 10
270.615
 20
7.9568
 30
0.0
 11
270.196
 21
8.16903
 31
0.0
  0
LINE
  8
0
 62
     0
 10
270.196
 20
8.16903
 30
0.0
 11
269.733
 21
8.24343
 31
0.0
  0
LINE
  8
0
 62
     0
 10
269.733
 20
8.24343
 30
0.0
 11
269.27
 21
8.16903
 31
0.0
  0
LINE
  8
0
 62
     0
 10
356.983
 20
8.16903
 30
0.0
 11
356.563
 21
7.9568
 31
0.0
  0
LINE
  8
0
 62
     0
 10
356.563
 20
7.9568
 30
0.0
 11
356.231
 21
7.62469
 31
0.0
  0
LINE
  8
0
 62
     0
 10
356.231
 20
7.62469
 30
0.0
 11
356.02
 21
7.20577
 31
0.0
  0
LINE
  8
0
 62
     0
 10
356.02
 20
7.20577
 30
0.0
 11
355.946
 21
6.74275
 31
0.0
  0
LINE
  8
0
 62
     0
 10
355.946
 20
6.74275
 30
0.0
 11
356.02
 21
6.27973
 31
0.0
  0
LINE
  8
0
 62
     0
 10
356.02
 20
6.27973
 30
0.0
 11
356.231
 21
5.8608
 31
0.0
  0
LINE
  8
0
 62
     0
 10
356.231
 20
5.8608
 30
0.0
 11
356.563
 21
5.53007
 31
0.0
  0
LINE
  8
0
 62
     0
 10
356.563
 20
5.53007
 30
0.0
 11
356.983
 21
5.31647
 31
0.0
  0
LINE
  8
0
 62
     0
 10
356.983
 20
5.31647
 30
0.0
 11
357.445
 21
5.24344
 31
0.0
  0
LINE
  8
0
 62
     0
 10
357.445
 20
5.24344
 30
0.0
 11
357.911
 21
5.31647
 31
0.0
  0
LINE
  8
0
 62
     0
 10
357.911
 20
5.31647
 30
0.0
 11
358.327
 21
5.53007
 31
0.0
  0
LINE
  8
0
 62
     0
 10
358.327
 20
5.53007
 30
0.0
 11
358.659
 21
5.8608
 31
0.0
  0
LINE
  8
0
 62
     0
 10
358.659
 20
5.8608
 30
0.0
 11
358.874
 21
6.27973
 31
0.0
  0
LINE
  8
0
 62
     0
 10
358.874
 20
6.27973
 30
0.0
 11
358.944
 21
6.74275
 31
0.0
  0
LINE
  8
0
 62
     0
 10
358.944
 20
6.74275
 30
0.0
 11
358.874
 21
7.20577
 31
0.0
  0
LINE
  8
0
 62
     0
 10
358.874
 20
7.20577
 30
0.0
 11
358.659
 21
7.62469
 31
0.0
  0
LINE
  8
0
 62
     0
 10
358.659
 20
7.62469
 30
0.0
 11
358.327
 21
7.9568
 31
0.0
  0
LINE
  8
0
 62
     0
 10
358.327
 20
7.9568
 30
0.0
 11
357.911
 21
8.16903
 31
0.0
  0
LINE
  8
0
 62
     0
 10
357.911
 20
8.16903
 30
0.0
 11
357.445
 21
8.24343
 31
0.0
  0
LINE
  8
0
 62
     0
 10
357.445
 20
8.24343
 30
0.0
 11
356.983
 21
8.16903
 31
0.0
  0
LINE
  8
0
 62
     0
 10
13.0955
 20
112.493
 30
0.0
 11
350.947
 21
112.493
 31
0.0
  0
LINE
  8
0
 62
     0
 10
350.947
 20
112.493
 30
0.0
 11
350.947
 21
13.243
 31
0.0
  0
LINE
  8
0
 62
     0
 10
350.947
 20
13.243
 30
0.0
 11
13.0955
 21
13.243
 31
0.0
  0
LINE
  8
0
 62
     0
 10
13.0955
 20
13.243
 30
0.0
 11
13.0955
 21
112.493
 31
0.0
  0
LINE
  8
0
 62
     0
 10
6.13089
 20
120.42
 30
0.0
 11
5.71334
 21
120.208
 31
0.0
  0
LINE
  8
0
 62
     0
 10
5.71334
 20
120.208
 30
0.0
 11
5.38124
 21
119.876
 31
0.0
  0
LINE
  8
0
 62
     0
 10
5.38124
 20
119.876
 30
0.0
 11
5.16901
 21
119.458
 31
0.0
  0
LINE
  8
0
 62
     0
 10
5.16901
 20
119.458
 30
0.0
 11
5.09598
 21
118.994
 31
0.0
  0
LINE
  8
0
 62
     0
 10
5.09598
 20
118.994
 30
0.0
 11
5.16901
 21
118.531
 31
0.0
  0
LINE
  8
0
 62
     0
 10
5.16901
 20
118.531
 30
0.0
 11
5.38124
 21
118.113
 31
0.0
  0
LINE
  8
0
 62
     0
 10
5.38124
 20
118.113
 30
0.0
 11
5.71334
 21
117.781
 31
0.0
  0
LINE
  8
0
 62
     0
 10
5.71334
 20
117.781
 30
0.0
 11
6.13089
 21
117.567
 31
0.0
  0
LINE
  8
0
 62
     0
 10
6.13089
 20
117.567
 30
0.0
 11
6.59529
 21
117.493
 31
0.0
  0
LINE
  8
0
 62
     0
 10
6.59529
 20
117.493
 30
0.0
 11
7.05831
 21
117.567
 31
0.0
  0
LINE
  8
0
 62
     0
 10
7.05831
 20
117.567
 30
0.0
 11
7.47586
 21
117.781
 31
0.0
  0
LINE
  8
0
 62
     0
 10
7.47586
 20
117.781
 30
0.0
 11
7.80796
 21
118.113
 31
0.0
  0
LINE
  8
0
 62
     0
 10
7.80796
 20
118.113
 30
0.0
 11
8.02157
 21
118.531
 31
0.0
  0
LINE
  8
0
 62
     0
 10
8.02157
 20
118.531
 30
0.0
 11
8.09597
 21
118.994
 31
0.0
  0
LINE
  8
0
 62
     0
 10
8.09597
 20
118.994
 30
0.0
 11
8.02157
 21
119.458
 31
0.0
  0
LINE
  8
0
 62
     0
 10
8.02157
 20
119.458
 30
0.0
 11
7.80796
 21
119.876
 31
0.0
  0
LINE
  8
0
 62
     0
 10
7.80796
 20
119.876
 30
0.0
 11
7.47586
 21
120.208
 31
0.0
  0
LINE
  8
0
 62
     0
 10
7.47586
 20
120.208
 30
0.0
 11
7.05831
 21
120.42
 31
0.0
  0
LINE
  8
0
 62
     0
 10
7.05831
 20
120.42
 30
0.0
 11
6.59529
 21
120.493
 31
0.0
  0
LINE
  8
0
 62
     0
 10
6.59529
 20
120.493
 30
0.0
 11
6.13089
 21
120.42
 31
0.0
  0
LINE
  8
0
 62
     0
 10
356.983
 20
120.42
 30
0.0
 11
356.563
 21
120.208
 31
0.0
  0
LINE
  8
0
 62
     0
 10
356.563
 20
120.208
 30
0.0
 11
356.231
 21
119.876
 31
0.0
  0
LINE
  8
0
 62
     0
 10
356.231
 20
119.876
 30
0.0
 11
356.02
 21
119.458
 31
0.0
  0
LINE
  8
0
 62
     0
 10
356.02
 20
119.458
 30
0.0
 11
355.946
 21
118.994
 31
0.0
  0
LINE
  8
0
 62
     0
 10
355.946
 20
118.994
 30
0.0
 11
356.02
 21
118.531
 31
0.0
  0
LINE
  8
0
 62
     0
 10
356.02
 20
118.531
 30
0.0
 11
356.231
 21
118.113
 31
0.0
  0
LINE
  8
0
 62
     0
 10
356.231
 20
118.113
 30
0.0
 11
356.563
 21
117.781
 31
0.0
  0
LINE
  8
0
 62
     0
 10
356.563
 20
117.781
 30
0.0
 11
356.983
 21
117.567
 31
0.0
  0
LINE
  8
0
 62
     0
 10
356.983
 20
117.567
 30
0.0
 11
357.445
 21
117.493
 31
0.0
  0
LINE
  8
0
 62
     0
 10
357.445
 20
117.493
 30
0.0
 11
357.911
 21
117.567
 31
0.0
  0
LINE
  8
0
 62
     0
 10
357.911
 20
117.567
 30
0.0
 11
358.327
 21
117.781
 31
0.0
  0
LINE
  8
0
 62
     0
 10
358.327
 20
117.781
 30
0.0
 11
358.659
 21
118.113
 31
0.0
  0
LINE
  8
0
 62
     0
 10
358.659
 20
118.113
 30
0.0
 11
358.874
 21
118.531
 31
0.0
  0
LINE
  8
0
 62
     0
 10
358.874
 20
118.531
 30
0.0
 11
358.944
 21
118.994
 31
0.0
  0
LINE
  8
0
 62
     0
 10
358.944
 20
118.994
 30
0.0
 11
358.874
 21
119.458
 31
0.0
  0
LINE
  8
0
 62
     0
 10
358.874
 20
119.458
 30
0.0
 11
358.659
 21
119.876
 31
0.0
  0
LINE
  8
0
 62
     0
 10
358.659
 20
119.876
 30
0.0
 11
358.327
 21
120.208
 31
0.0
  0
LINE
  8
0
 62
     0
 10
358.327
 20
120.208
 30
0.0
 11
357.911
 21
120.42
 31
0.0
  0
LINE
  8
0
 62
     0
 10
357.911
 20
120.42
 30
0.0
 11
357.445
 21
120.493
 31
0.0
  0
LINE
  8
0
 62
     0
 10
357.445
 20
120.493
 30
0.0
 11
356.983
 21
120.42
 31
0.0
  0
LINE
  8
0
 62
     0
 10
269.27
 20
120.42
 30
0.0
 11
268.851
 21
120.208
 31
0.0
  0
LINE
  8
0
 62
     0
 10
268.851
 20
120.208
 30
0.0
 11
268.519
 21
119.876
 31
0.0
  0
LINE
  8
0
 62
     0
 10
268.519
 20
119.876
 30
0.0
 11
268.307
 21
119.458
 31
0.0
  0
LINE
  8
0
 62
     0
 10
268.307
 20
119.458
 30
0.0
 11
268.234
 21
118.994
 31
0.0
  0
LINE
  8
0
 62
     0
 10
268.234
 20
118.994
 30
0.0
 11
268.307
 21
118.531
 31
0.0
  0
LINE
  8
0
 62
     0
 10
268.307
 20
118.531
 30
0.0
 11
268.519
 21
118.113
 31
0.0
  0
LINE
  8
0
 62
     0
 10
268.519
 20
118.113
 30
0.0
 11
268.851
 21
117.781
 31
0.0
  0
LINE
  8
0
 62
     0
 10
268.851
 20
117.781
 30
0.0
 11
269.27
 21
117.567
 31
0.0
  0
LINE
  8
0
 62
     0
 10
269.27
 20
117.567
 30
0.0
 11
269.733
 21
117.493
 31
0.0
  0
LINE
  8
0
 62
     0
 10
269.733
 20
117.493
 30
0.0
 11
270.196
 21
117.567
 31
0.0
  0
LINE
  8
0
 62
     0
 10
270.196
 20
117.567
 30
0.0
 11
270.615
 21
117.781
 31
0.0
  0
LINE
  8
0
 62
     0
 10
270.615
 20
117.781
 30
0.0
 11
270.947
 21
118.113
 31
0.0
  0
LINE
  8
0
 62
     0
 10
270.947
 20
118.113
 30
0.0
 11
271.159
 21
118.531
 31
0.0
  0
LINE
  8
0
 62
     0
 10
271.159
 20
118.531
 30
0.0
 11
271.234
 21
118.994
 31
0.0
  0
LINE
  8
0
 62
     0
 10
271.234
 20
118.994
 30
0.0
 11
271.159
 21
119.458
 31
0.0
  0
LINE
  8
0
 62
     0
 10
271.159
 20
119.458
 30
0.0
 11
270.947
 21
119.876
 31
0.0
  0
LINE
  8
0
 62
     0
 10
270.947
 20
119.876
 30
0.0
 11
270.615
 21
120.208
 31
0.0
  0
LINE
  8
0
 62
     0
 10
270.615
 20
120.208
 30
0.0
 11
270.196
 21
120.42
 31
0.0
  0
LINE
  8
0
 62
     0
 10
270.196
 20
120.42
 30
0.0
 11
269.733
 21
120.493
 31
0.0
  0
LINE
  8
0
 62
     0
 10
269.733
 20
120.493
 30
0.0
 11
269.27
 21
120.42
 31
0.0
  0
LINE
  8
0
 62
     0
 10
181.556
 20
120.42
 30
0.0
 11
181.139
 21
120.208
 31
0.0
  0
LINE
  8
0
 62
     0
 10
181.139
 20
120.208
 30
0.0
 11
180.807
 21
119.876
 31
0.0
  0
LINE
  8
0
 62
     0
 10
180.807
 20
119.876
 30
0.0
 11
180.593
 21
119.458
 31
0.0
  0
LINE
  8
0
 62
     0
 10
180.593
 20
119.458
 30
0.0
 11
180.52
 21
118.994
 31
0.0
  0
LINE
  8
0
 62
     0
 10
180.52
 20
118.994
 30
0.0
 11
180.593
 21
118.531
 31
0.0
  0
LINE
  8
0
 62
     0
 10
180.593
 20
118.531
 30
0.0
 11
180.807
 21
118.113
 31
0.0
  0
LINE
  8
0
 62
     0
 10
180.807
 20
118.113
 30
0.0
 11
181.139
 21
117.781
 31
0.0
  0
LINE
  8
0
 62
     0
 10
181.139
 20
117.781
 30
0.0
 11
181.556
 21
117.567
 31
0.0
  0
LINE
  8
0
 62
     0
 10
181.556
 20
117.567
 30
0.0
 11
182.021
 21
117.493
 31
0.0
  0
LINE
  8
0
 62
     0
 10
182.021
 20
117.493
 30
0.0
 11
182.484
 21
117.567
 31
0.0
  0
LINE
  8
0
 62
     0
 10
182.484
 20
117.567
 30
0.0
 11
182.903
 21
117.781
 31
0.0
  0
LINE
  8
0
 62
     0
 10
182.903
 20
117.781
 30
0.0
 11
183.235
 21
118.113
 31
0.0
  0
LINE
  8
0
 62
     0
 10
183.235
 20
118.113
 30
0.0
 11
183.447
 21
118.531
 31
0.0
  0
LINE
  8
0
 62
     0
 10
183.447
 20
118.531
 30
0.0
 11
183.52
 21
118.994
 31
0.0
  0
LINE
  8
0
 62
     0
 10
183.52
 20
118.994
 30
0.0
 11
183.447
 21
119.458
 31
0.0
  0
LINE
  8
0
 62
     0
 10
183.447
 20
119.458
 30
0.0
 11
183.235
 21
119.876
 31
0.0
  0
LINE
  8
0
 62
     0
 10
183.235
 20
119.876
 30
0.0
 11
182.903
 21
120.208
 31
0.0
  0
LINE
  8
0
 62
     0
 10
182.903
 20
120.208
 30
0.0
 11
182.484
 21
120.42
 31
0.0
  0
LINE
  8
0
 62
     0
 10
182.484
 20
120.42
 30
0.0
 11
182.021
 21
120.493
 31
0.0
  0
LINE
  8
0
 62
     0
 10
182.021
 20
120.493
 30
0.0
 11
181.556
 21
120.42
 31
0.0
  0
LINE
  8
0
 62
     0
 10
93.8445
 20
120.42
 30
0.0
 11
93.4268
 21
120.208
 31
0.0
  0
LINE
  8
0
 62
     0
 10
93.4268
 20
120.208
 30
0.0
 11
93.0949
 21
119.876
 31
0.0
  0
LINE
  8
0
 62
     0
 10
93.0949
 20
119.876
 30
0.0
 11
92.8811
 21
119.458
 31
0.0
  0
LINE
  8
0
 62
     0
 10
92.8811
 20
119.458
 30
0.0
 11
92.8081
 21
118.994
 31
0.0
  0
LINE
  8
0
 62
     0
 10
92.8081
 20
118.994
 30
0.0
 11
92.8811
 21
118.531
 31
0.0
  0
LINE
  8
0
 62
     0
 10
92.8811
 20
118.531
 30
0.0
 11
93.0949
 21
118.113
 31
0.0
  0
LINE
  8
0
 62
     0
 10
93.0949
 20
118.113
 30
0.0
 11
93.4268
 21
117.781
 31
0.0
  0
LINE
  8
0
 62
     0
 10
93.4268
 20
117.781
 30
0.0
 11
93.8445
 21
117.567
 31
0.0
  0
LINE
  8
0
 62
     0
 10
93.8445
 20
117.567
 30
0.0
 11
94.3074
 21
117.493
 31
0.0
  0
LINE
  8
0
 62
     0
 10
94.3074
 20
117.493
 30
0.0
 11
94.772
 21
117.567
 31
0.0
  0
LINE
  8
0
 62
     0
 10
94.772
 20
117.567
 30
0.0
 11
95.1893
 21
117.781
 31
0.0
  0
LINE
  8
0
 62
     0
 10
95.1893
 20
117.781
 30
0.0
 11
95.5216
 21
118.113
 31
0.0
  0
LINE
  8
0
 62
     0
 10
95.5216
 20
118.113
 30
0.0
 11
95.7351
 21
118.531
 31
0.0
  0
LINE
  8
0
 62
     0
 10
95.7351
 20
118.531
 30
0.0
 11
95.8081
 21
118.994
 31
0.0
  0
LINE
  8
0
 62
     0
 10
95.8081
 20
118.994
 30
0.0
 11
95.7351
 21
119.458
 31
0.0
  0
LINE
  8
0
 62
     0
 10
95.7351
 20
119.458
 30
0.0
 11
95.5216
 21
119.876
 31
0.0
  0
LINE
  8
0
 62
     0
 10
95.5216
 20
119.876
 30
0.0
 11
95.1893
 21
120.208
 31
0.0
  0
LINE
  8
0
 62
     0
 10
95.1893
 20
120.208
 30
0.0
 11
94.772
 21
120.42
 31
0.0
  0
LINE
  8
0
 62
     0
 10
94.772
 20
120.42
 30
0.0
 11
94.3074
 21
120.493
 31
0.0
  0
LINE
  8
0
 62
     0
 10
94.3074
 20
120.493
 30
0.0
 11
93.8445
 21
120.42
 31
0.0
  0
ENDSEC
  0
EOF
