  0
SECTION
  2
HEADER
  9
$ACADVER
  1
AC1009
  9
$EXTMIN
 10
0.0
 20
0.0
 30
0.0
  9
$EXTMAX
 10
1000.0
 20
1000.0
 30
0.0
  9
$FILLMODE
 70
 0
  9
$SPLFRAME
 70
 1
  0
ENDSEC
  0
SECTION
  2
TABLES
  0
TABLE
  2
LAYER
 70
1
  0
LAYER
  2
0
 70
     0
 62
     7
  6
CONTINUOUS
  0
ENDTAB
  0
ENDSEC
  0
SECTION
  2
ENTITIES
  0
LINE
  8
0
 62
     0
 10
353.945
 20
125.494
 30
0.0
 11
354.732
 21
125.464
 31
0.0
  0
LINE
  8
0
 62
     0
 10
354.732
 20
125.464
 30
0.0
 11
355.512
 21
125.37
 31
0.0
  0
LINE
  8
0
 62
     0
 10
355.512
 20
125.37
 30
0.0
 11
356.281
 21
125.217
 31
0.0
  0
LINE
  8
0
 62
     0
 10
356.281
 20
125.217
 30
0.0
 11
357.036
 21
125.005
 31
0.0
  0
LINE
  8
0
 62
     0
 10
357.036
 20
125.005
 30
0.0
 11
357.773
 21
124.732
 31
0.0
  0
LINE
  8
0
 62
     0
 10
357.773
 20
124.732
 30
0.0
 11
358.486
 21
124.404
 31
0.0
  0
LINE
  8
0
 62
     0
 10
358.486
 20
124.404
 30
0.0
 11
359.17
 21
124.021
 31
0.0
  0
LINE
  8
0
 62
     0
 10
359.17
 20
124.021
 30
0.0
 11
359.823
 21
123.584
 31
0.0
  0
LINE
  8
0
 62
     0
 10
359.823
 20
123.584
 30
0.0
 11
360.44
 21
123.099
 31
0.0
  0
LINE
  8
0
 62
     0
 10
360.44
 20
123.099
 30
0.0
 11
361.019
 21
122.566
 31
0.0
  0
LINE
  8
0
 62
     0
 10
361.019
 20
122.566
 30
0.0
 11
361.551
 21
121.988
 31
0.0
  0
LINE
  8
0
 62
     0
 10
361.551
 20
121.988
 30
0.0
 11
362.038
 21
121.371
 31
0.0
  0
LINE
  8
0
 62
     0
 10
362.038
 20
121.371
 30
0.0
 11
362.472
 21
120.719
 31
0.0
  0
LINE
  8
0
 62
     0
 10
362.472
 20
120.719
 30
0.0
 11
362.857
 21
120.034
 31
0.0
  0
LINE
  8
0
 62
     0
 10
362.857
 20
120.034
 30
0.0
 11
363.185
 21
119.32
 31
0.0
  0
LINE
  8
0
 62
     0
 10
363.185
 20
119.32
 30
0.0
 11
363.456
 21
118.584
 31
0.0
  0
LINE
  8
0
 62
     0
 10
363.456
 20
118.584
 30
0.0
 11
363.672
 21
117.828
 31
0.0
  0
LINE
  8
0
 62
     0
 10
363.672
 20
117.828
 30
0.0
 11
363.823
 21
117.059
 31
0.0
  0
LINE
  8
0
 62
     0
 10
363.823
 20
117.059
 30
0.0
 11
363.915
 21
116.279
 31
0.0
  0
LINE
  8
0
 62
     0
 10
363.915
 20
116.279
 30
0.0
 11
363.947
 21
115.493
 31
0.0
  0
LINE
  8
0
 62
     0
 10
363.947
 20
115.493
 30
0.0
 11
363.947
 21
10.243
 31
0.0
  0
LINE
  8
0
 62
     0
 10
363.947
 20
10.243
 30
0.0
 11
363.915
 21
9.45885
 31
0.0
  0
LINE
  8
0
 62
     0
 10
363.915
 20
9.45885
 30
0.0
 11
363.823
 21
8.6789
 31
0.0
  0
LINE
  8
0
 62
     0
 10
363.823
 20
8.6789
 30
0.0
 11
363.672
 21
7.90857
 31
0.0
  0
LINE
  8
0
 62
     0
 10
363.672
 20
7.90857
 30
0.0
 11
363.456
 21
7.152
 31
0.0
  0
LINE
  8
0
 62
     0
 10
363.456
 20
7.152
 30
0.0
 11
363.185
 21
6.41615
 31
0.0
  0
LINE
  8
0
 62
     0
 10
363.185
 20
6.41615
 30
0.0
 11
362.857
 21
5.70371
 31
0.0
  0
LINE
  8
0
 62
     0
 10
362.857
 20
5.70371
 30
0.0
 11
362.472
 21
5.01883
 31
0.0
  0
LINE
  8
0
 62
     0
 10
362.472
 20
5.01883
 30
0.0
 11
362.038
 21
4.36563
 31
0.0
  0
LINE
  8
0
 62
     0
 10
362.038
 20
4.36563
 30
0.0
 11
361.551
 21
3.74826
 31
0.0
  0
LINE
  8
0
 62
     0
 10
361.551
 20
3.74826
 30
0.0
 11
361.019
 21
3.17087
 31
0.0
  0
LINE
  8
0
 62
     0
 10
361.019
 20
3.17087
 30
0.0
 11
360.44
 21
2.63894
 31
0.0
  0
LINE
  8
0
 62
     0
 10
360.44
 20
2.63894
 30
0.0
 11
359.823
 21
2.15249
 31
0.0
  0
LINE
  8
0
 62
     0
 10
359.823
 20
2.15249
 30
0.0
 11
359.17
 21
1.71704
 31
0.0
  0
LINE
  8
0
 62
     0
 10
359.17
 20
1.71704
 30
0.0
 11
358.486
 21
1.33256
 31
0.0
  0
LINE
  8
0
 62
     0
 10
358.486
 20
1.33256
 30
0.0
 11
357.773
 21
1.00459
 31
0.0
  0
LINE
  8
0
 62
     0
 10
357.773
 20
1.00459
 30
0.0
 11
357.036
 21
0.731739
 31
0.0
  0
LINE
  8
0
 62
     0
 10
357.036
 20
0.731739
 30
0.0
 11
356.281
 21
0.520898
 31
0.0
  0
LINE
  8
0
 62
     0
 10
356.281
 20
0.520898
 30
0.0
 11
355.512
 21
0.366557
 31
0.0
  0
LINE
  8
0
 62
     0
 10
355.512
 20
0.366557
 30
0.0
 11
354.732
 21
0.272852
 31
0.0
  0
LINE
  8
0
 62
     0
 10
354.732
 20
0.272852
 30
0.0
 11
353.945
 21
0.242535
 31
0.0
  0
LINE
  8
0
 62
     0
 10
353.945
 20
0.242535
 30
0.0
 11
10.0955
 21
0.243913
 31
0.0
  0
LINE
  8
0
 62
     0
 10
10.0955
 20
0.243913
 30
0.0
 11
9.31002
 21
0.272852
 31
0.0
  0
LINE
  8
0
 62
     0
 10
9.31002
 20
0.272852
 30
0.0
 11
8.53006
 21
0.366557
 31
0.0
  0
LINE
  8
0
 62
     0
 10
8.53006
 20
0.366557
 30
0.0
 11
7.76111
 21
0.520898
 31
0.0
  0
LINE
  8
0
 62
     0
 10
7.76111
 20
0.520898
 30
0.0
 11
7.00458
 21
0.731739
 31
0.0
  0
LINE
  8
0
 62
     0
 10
7.00458
 20
0.731739
 30
0.0
 11
6.26869
 21
1.00459
 31
0.0
  0
LINE
  8
0
 62
     0
 10
6.26869
 20
1.00459
 30
0.0
 11
5.55487
 21
1.33256
 31
0.0
  0
LINE
  8
0
 62
     0
 10
5.55487
 20
1.33256
 30
0.0
 11
4.86999
 21
1.71704
 31
0.0
  0
LINE
  8
0
 62
     0
 10
4.86999
 20
1.71704
 30
0.0
 11
4.21816
 21
2.15249
 31
0.0
  0
LINE
  8
0
 62
     0
 10
4.21816
 20
2.15249
 30
0.0
 11
3.6008
 21
2.63894
 31
0.0
  0
LINE
  8
0
 62
     0
 10
3.6008
 20
2.63894
 30
0.0
 11
3.02341
 21
3.17087
 31
0.0
  0
LINE
  8
0
 62
     0
 10
3.02341
 20
3.17087
 30
0.0
 11
2.49011
 21
3.74826
 31
0.0
  0
LINE
  8
0
 62
     0
 10
2.49011
 20
3.74826
 30
0.0
 11
2.00504
 21
4.36563
 31
0.0
  0
LINE
  8
0
 62
     0
 10
2.00504
 20
4.36563
 30
0.0
 11
1.56821
 21
5.01883
 31
0.0
  0
LINE
  8
0
 62
     0
 10
1.56821
 20
5.01883
 30
0.0
 11
1.18511
 21
5.70371
 31
0.0
  0
LINE
  8
0
 62
     0
 10
1.18511
 20
5.70371
 30
0.0
 11
0.857141
 21
6.41615
 31
0.0
  0
LINE
  8
0
 62
     0
 10
0.857141
 20
6.41615
 30
0.0
 11
0.584288
 21
7.152
 31
0.0
  0
LINE
  8
0
 62
     0
 10
0.584288
 20
7.152
 30
0.0
 11
0.372071
 21
7.90857
 31
0.0
  0
LINE
  8
0
 62
     0
 10
0.372071
 20
7.90857
 30
0.0
 11
0.219108
 21
8.6789
 31
0.0
  0
LINE
  8
0
 62
     0
 10
0.219108
 20
8.6789
 30
0.0
 11
0.125402
 21
9.45885
 31
0.0
  0
LINE
  8
0
 62
     0
 10
0.125402
 20
9.45885
 30
0.0
 11
0.0950846
 21
10.243
 31
0.0
  0
LINE
  8
0
 62
     0
 10
0.0950846
 20
10.243
 30
0.0
 11
0.0950846
 21
115.493
 31
0.0
  0
LINE
  8
0
 62
     0
 10
0.0950846
 20
115.493
 30
0.0
 11
0.125402
 21
116.279
 31
0.0
  0
LINE
  8
0
 62
     0
 10
0.125402
 20
116.279
 30
0.0
 11
0.219108
 21
117.059
 31
0.0
  0
LINE
  8
0
 62
     0
 10
0.219108
 20
117.059
 30
0.0
 11
0.372071
 21
117.828
 31
0.0
  0
LINE
  8
0
 62
     0
 10
0.372071
 20
117.828
 30
0.0
 11
0.584288
 21
118.584
 31
0.0
  0
LINE
  8
0
 62
     0
 10
0.584288
 20
118.584
 30
0.0
 11
0.857141
 21
119.32
 31
0.0
  0
LINE
  8
0
 62
     0
 10
0.857141
 20
119.32
 30
0.0
 11
1.18511
 21
120.034
 31
0.0
  0
LINE
  8
0
 62
     0
 10
1.18511
 20
120.034
 30
0.0
 11
1.56821
 21
120.719
 31
0.0
  0
LINE
  8
0
 62
     0
 10
1.56821
 20
120.719
 30
0.0
 11
2.00504
 21
121.371
 31
0.0
  0
LINE
  8
0
 62
     0
 10
2.00504
 20
121.371
 30
0.0
 11
2.49011
 21
121.988
 31
0.0
  0
LINE
  8
0
 62
     0
 10
2.49011
 20
121.988
 30
0.0
 11
3.02341
 21
122.566
 31
0.0
  0
LINE
  8
0
 62
     0
 10
3.02341
 20
122.566
 30
0.0
 11
3.6008
 21
123.099
 31
0.0
  0
LINE
  8
0
 62
     0
 10
3.6008
 20
123.099
 30
0.0
 11
4.21816
 21
123.584
 31
0.0
  0
LINE
  8
0
 62
     0
 10
4.21816
 20
123.584
 30
0.0
 11
4.86999
 21
124.021
 31
0.0
  0
LINE
  8
0
 62
     0
 10
4.86999
 20
124.021
 30
0.0
 11
5.55487
 21
124.404
 31
0.0
  0
LINE
  8
0
 62
     0
 10
5.55487
 20
124.404
 30
0.0
 11
6.26869
 21
124.732
 31
0.0
  0
LINE
  8
0
 62
     0
 10
6.26869
 20
124.732
 30
0.0
 11
7.00458
 21
125.005
 31
0.0
  0
LINE
  8
0
 62
     0
 10
7.00458
 20
125.005
 30
0.0
 11
7.76111
 21
125.217
 31
0.0
  0
LINE
  8
0
 62
     0
 10
7.76111
 20
125.217
 30
0.0
 11
8.53006
 21
125.37
 31
0.0
  0
LINE
  8
0
 62
     0
 10
8.53006
 20
125.37
 30
0.0
 11
9.31002
 21
125.464
 31
0.0
  0
LINE
  8
0
 62
     0
 10
9.31002
 20
125.464
 30
0.0
 11
10.0955
 21
125.494
 31
0.0
  0
LINE
  8
0
 62
     0
 10
10.0955
 20
125.494
 30
0.0
 11
353.945
 21
125.494
 31
0.0
  0
LINE
  8
0
 62
     0
 10
6.13089
 20
8.16903
 30
0.0
 11
5.71334
 21
7.9568
 31
0.0
  0
LINE
  8
0
 62
     0
 10
5.71334
 20
7.9568
 30
0.0
 11
5.38124
 21
7.62469
 31
0.0
  0
LINE
  8
0
 62
     0
 10
5.38124
 20
7.62469
 30
0.0
 11
5.16901
 21
7.20577
 31
0.0
  0
LINE
  8
0
 62
     0
 10
5.16901
 20
7.20577
 30
0.0
 11
5.09598
 21
6.74275
 31
0.0
  0
LINE
  8
0
 62
     0
 10
5.09598
 20
6.74275
 30
0.0
 11
5.16901
 21
6.27973
 31
0.0
  0
LINE
  8
0
 62
     0
 10
5.16901
 20
6.27973
 30
0.0
 11
5.38124
 21
5.8608
 31
0.0
  0
LINE
  8
0
 62
     0
 10
5.38124
 20
5.8608
 30
0.0
 11
5.71334
 21
5.53007
 31
0.0
  0
LINE
  8
0
 62
     0
 10
5.71334
 20
5.53007
 30
0.0
 11
6.13089
 21
5.31647
 31
0.0
  0
LINE
  8
0
 62
     0
 10
6.13089
 20
5.31647
 30
0.0
 11
6.59529
 21
5.24344
 31
0.0
  0
LINE
  8
0
 62
     0
 10
6.59529
 20
5.24344
 30
0.0
 11
7.05831
 21
5.31647
 31
0.0
  0
LINE
  8
0
 62
     0
 10
7.05831
 20
5.31647
 30
0.0
 11
7.47586
 21
5.53007
 31
0.0
  0
LINE
  8
0
 62
     0
 10
7.47586
 20
5.53007
 30
0.0
 11
7.80796
 21
5.8608
 31
0.0
  0
LINE
  8
0
 62
     0
 10
7.80796
 20
5.8608
 30
0.0
 11
8.02157
 21
6.27973
 31
0.0
  0
LINE
  8
0
 62
     0
 10
8.02157
 20
6.27973
 30
0.0
 11
8.09597
 21
6.74275
 31
0.0
  0
LINE
  8
0
 62
     0
 10
8.09597
 20
6.74275
 30
0.0
 11
8.02157
 21
7.20577
 31
0.0
  0
LINE
  8
0
 62
     0
 10
8.02157
 20
7.20577
 30
0.0
 11
7.80796
 21
7.62469
 31
0.0
  0
LINE
  8
0
 62
     0
 10
7.80796
 20
7.62469
 30
0.0
 11
7.47586
 21
7.9568
 31
0.0
  0
LINE
  8
0
 62
     0
 10
7.47586
 20
7.9568
 30
0.0
 11
7.05831
 21
8.16903
 31
0.0
  0
LINE
  8
0
 62
     0
 10
7.05831
 20
8.16903
 30
0.0
 11
6.59529
 21
8.24343
 31
0.0
  0
LINE
  8
0
 62
     0
 10
6.59529
 20
8.24343
 30
0.0
 11
6.13089
 21
8.16903
 31
0.0
  0
LINE
  8
0
 62
     0
 10
93.8445
 20
8.16903
 30
0.0
 11
93.4268
 21
7.9568
 31
0.0
  0
LINE
  8
0
 62
     0
 10
93.4268
 20
7.9568
 30
0.0
 11
93.0949
 21
7.62469
 31
0.0
  0
LINE
  8
0
 62
     0
 10
93.0949
 20
7.62469
 30
0.0
 11
92.8811
 21
7.20577
 31
0.0
  0
LINE
  8
0
 62
     0
 10
92.8811
 20
7.20577
 30
0.0
 11
92.8081
 21
6.74275
 31
0.0
  0
LINE
  8
0
 62
     0
 10
92.8081
 20
6.74275
 30
0.0
 11
92.8811
 21
6.27973
 31
0.0
  0
LINE
  8
0
 62
     0
 10
92.8811
 20
6.27973
 30
0.0
 11
93.0949
 21
5.8608
 31
0.0
  0
LINE
  8
0
 62
     0
 10
93.0949
 20
5.8608
 30
0.0
 11
93.4268
 21
5.53007
 31
0.0
  0
LINE
  8
0
 62
     0
 10
93.4268
 20
5.53007
 30
0.0
 11
93.8445
 21
5.31647
 31
0.0
  0
LINE
  8
0
 62
     0
 10
93.8445
 20
5.31647
 30
0.0
 11
94.3074
 21
5.24344
 31
0.0
  0
LINE
  8
0
 62
     0
 10
94.3074
 20
5.24344
 30
0.0
 11
94.772
 21
5.31647
 31
0.0
  0
LINE
  8
0
 62
     0
 10
94.772
 20
5.31647
 30
0.0
 11
95.1893
 21
5.53007
 31
0.0
  0
LINE
  8
0
 62
     0
 10
95.1893
 20
5.53007
 30
0.0
 11
95.5216
 21
5.8608
 31
0.0
  0
LINE
  8
0
 62
     0
 10
95.5216
 20
5.8608
 30
0.0
 11
95.7351
 21
6.27973
 31
0.0
  0
LINE
  8
0
 62
     0
 10
95.7351
 20
6.27973
 30
0.0
 11
95.8081
 21
6.74275
 31
0.0
  0
LINE
  8
0
 62
     0
 10
95.8081
 20
6.74275
 30
0.0
 11
95.7351
 21
7.20577
 31
0.0
  0
LINE
  8
0
 62
     0
 10
95.7351
 20
7.20577
 30
0.0
 11
95.5216
 21
7.62469
 31
0.0
  0
LINE
  8
0
 62
     0
 10
95.5216
 20
7.62469
 30
0.0
 11
95.1893
 21
7.9568
 31
0.0
  0
LINE
  8
0
 62
     0
 10
95.1893
 20
7.9568
 30
0.0
 11
94.772
 21
8.16903
 31
0.0
  0
LINE
  8
0
 62
     0
 10
94.772
 20
8.16903
 30
0.0
 11
94.3074
 21
8.24343
 31
0.0
  0
LINE
  8
0
 62
     0
 10
94.3074
 20
8.24343
 30
0.0
 11
93.8445
 21
8.16903
 31
0.0
  0
LINE
  8
0
 62
     0
 10
181.556
 20
8.16903
 30
0.0
 11
181.139
 21
7.9568
 31
0.0
  0
LINE
  8
0
 62
     0
 10
181.139
 20
7.9568
 30
0.0
 11
180.807
 21
7.62469
 31
0.0
  0
LINE
  8
0
 62
     0
 10
180.807
 20
7.62469
 30
0.0
 11
180.593
 21
7.20577
 31
0.0
  0
LINE
  8
0
 62
     0
 10
180.593
 20
7.20577
 30
0.0
 11
180.52
 21
6.74275
 31
0.0
  0
LINE
  8
0
 62
     0
 10
180.52
 20
6.74275
 30
0.0
 11
180.593
 21
6.27973
 31
0.0
  0
LINE
  8
0
 62
     0
 10
180.593
 20
6.27973
 30
0.0
 11
180.807
 21
5.8608
 31
0.0
  0
LINE
  8
0
 62
     0
 10
180.807
 20
5.8608
 30
0.0
 11
181.139
 21
5.53007
 31
0.0
  0
LINE
  8
0
 62
     0
 10
181.139
 20
5.53007
 30
0.0
 11
181.556
 21
5.31647
 31
0.0
  0
LINE
  8
0
 62
     0
 10
181.556
 20
5.31647
 30
0.0
 11
182.021
 21
5.24344
 31
0.0
  0
LINE
  8
0
 62
     0
 10
182.021
 20
5.24344
 30
0.0
 11
182.484
 21
5.31647
 31
0.0
  0
LINE
  8
0
 62
     0
 10
182.484
 20
5.31647
 30
0.0
 11
182.903
 21
5.53007
 31
0.0
  0
LINE
  8
0
 62
     0
 10
182.903
 20
5.53007
 30
0.0
 11
183.235
 21
5.8608
 31
0.0
  0
LINE
  8
0
 62
     0
 10
183.235
 20
5.8608
 30
0.0
 11
183.447
 21
6.27973
 31
0.0
  0
LINE
  8
0
 62
     0
 10
183.447
 20
6.27973
 30
0.0
 11
183.52
 21
6.74275
 31
0.0
  0
LINE
  8
0
 62
     0
 10
183.52
 20
6.74275
 30
0.0
 11
183.447
 21
7.20577
 31
0.0
  0
LINE
  8
0
 62
     0
 10
183.447
 20
7.20577
 30
0.0
 11
183.235
 21
7.62469
 31
0.0
  0
LINE
  8
0
 62
     0
 10
183.235
 20
7.62469
 30
0.0
 11
182.903
 21
7.9568
 31
0.0
  0
LINE
  8
0
 62
     0
 10
182.903
 20
7.9568
 30
0.0
 11
182.484
 21
8.16903
 31
0.0
  0
LINE
  8
0
 62
     0
 10
182.484
 20
8.16903
 30
0.0
 11
182.021
 21
8.24343
 31
0.0
  0
LINE
  8
0
 62
     0
 10
182.021
 20
8.24343
 30
0.0
 11
181.556
 21
8.16903
 31
0.0
  0
LINE
  8
0
 62
     0
 10
269.27
 20
8.16903
 30
0.0
 11
268.851
 21
7.9568
 31
0.0
  0
LINE
  8
0
 62
     0
 10
268.851
 20
7.9568
 30
0.0
 11
268.519
 21
7.62469
 31
0.0
  0
LINE
  8
0
 62
     0
 10
268.519
 20
7.62469
 30
0.0
 11
268.307
 21
7.20577
 31
0.0
  0
LINE
  8
0
 62
     0
 10
268.307
 20
7.20577
 30
0.0
 11
268.234
 21
6.74275
 31
0.0
  0
LINE
  8
0
 62
     0
 10
268.234
 20
6.74275
 30
0.0
 11
268.307
 21
6.27973
 31
0.0
  0
LINE
  8
0
 62
     0
 10
268.307
 20
6.27973
 30
0.0
 11
268.519
 21
5.8608
 31
0.0
  0
LINE
  8
0
 62
     0
 10
268.519
 20
5.8608
 30
0.0
 11
268.851
 21
5.53007
 31
0.0
  0
LINE
  8
0
 62
     0
 10
268.851
 20
5.53007
 30
0.0
 11
269.27
 21
5.31647
 31
0.0
  0
LINE
  8
0
 62
     0
 10
269.27
 20
5.31647
 30
0.0
 11
269.733
 21
5.24344
 31
0.0
  0
LINE
  8
0
 62
     0
 10
269.733
 20
5.24344
 30
0.0
 11
270.196
 21
5.31647
 31
0.0
  0
LINE
  8
0
 62
     0
 10
270.196
 20
5.31647
 30
0.0
 11
270.615
 21
5.53007
 31
0.0
  0
LINE
  8
0
 62
     0
 10
270.615
 20
5.53007
 30
0.0
 11
270.947
 21
5.8608
 31
0.0
  0
LINE
  8
0
 62
     0
 10
270.947
 20
5.8608
 30
0.0
 11
271.159
 21
6.27973
 31
0.0
  0
LINE
  8
0
 62
     0
 10
271.159
 20
6.27973
 30
0.0
 11
271.234
 21
6.74275
 31
0.0
  0
LINE
  8
0
 62
     0
 10
271.234
 20
6.74275
 30
0.0
 11
271.159
 21
7.20577
 31
0.0
  0
LINE
  8
0
 62
     0
 10
271.159
 20
7.20577
 30
0.0
 11
270.947
 21
7.62469
 31
0.0
  0
LINE
  8
0
 62
     0
 10
270.947
 20
7.62469
 30
0.0
 11
270.615
 21
7.9568
 31
0.0
  0
LINE
  8
0
 62
     0
 10
270.615
 20
7.9568
 30
0.0
 11
270.196
 21
8.16903
 31
0.0
  0
LINE
  8
0
 62
     0
 10
270.196
 20
8.16903
 30
0.0
 11
269.733
 21
8.24343
 31
0.0
  0
LINE
  8
0
 62
     0
 10
269.733
 20
8.24343
 30
0.0
 11
269.27
 21
8.16903
 31
0.0
  0
LINE
  8
0
 62
     0
 10
356.983
 20
8.16903
 30
0.0
 11
356.563
 21
7.9568
 31
0.0
  0
LINE
  8
0
 62
     0
 10
356.563
 20
7.9568
 30
0.0
 11
356.231
 21
7.62469
 31
0.0
  0
LINE
  8
0
 62
     0
 10
356.231
 20
7.62469
 30
0.0
 11
356.02
 21
7.20577
 31
0.0
  0
LINE
  8
0
 62
     0
 10
356.02
 20
7.20577
 30
0.0
 11
355.946
 21
6.74275
 31
0.0
  0
LINE
  8
0
 62
     0
 10
355.946
 20
6.74275
 30
0.0
 11
356.02
 21
6.27973
 31
0.0
  0
LINE
  8
0
 62
     0
 10
356.02
 20
6.27973
 30
0.0
 11
356.231
 21
5.8608
 31
0.0
  0
LINE
  8
0
 62
     0
 10
356.231
 20
5.8608
 30
0.0
 11
356.563
 21
5.53007
 31
0.0
  0
LINE
  8
0
 62
     0
 10
356.563
 20
5.53007
 30
0.0
 11
356.983
 21
5.31647
 31
0.0
  0
LINE
  8
0
 62
     0
 10
356.983
 20
5.31647
 30
0.0
 11
357.445
 21
5.24344
 31
0.0
  0
LINE
  8
0
 62
     0
 10
357.445
 20
5.24344
 30
0.0
 11
357.911
 21
5.31647
 31
0.0
  0
LINE
  8
0
 62
     0
 10
357.911
 20
5.31647
 30
0.0
 11
358.327
 21
5.53007
 31
0.0
  0
LINE
  8
0
 62
     0
 10
358.327
 20
5.53007
 30
0.0
 11
358.659
 21
5.8608
 31
0.0
  0
LINE
  8
0
 62
     0
 10
358.659
 20
5.8608
 30
0.0
 11
358.874
 21
6.27973
 31
0.0
  0
LINE
  8
0
 62
     0
 10
358.874
 20
6.27973
 30
0.0
 11
358.944
 21
6.74275
 31
0.0
  0
LINE
  8
0
 62
     0
 10
358.944
 20
6.74275
 30
0.0
 11
358.874
 21
7.20577
 31
0.0
  0
LINE
  8
0
 62
     0
 10
358.874
 20
7.20577
 30
0.0
 11
358.659
 21
7.62469
 31
0.0
  0
LINE
  8
0
 62
     0
 10
358.659
 20
7.62469
 30
0.0
 11
358.327
 21
7.9568
 31
0.0
  0
LINE
  8
0
 62
     0
 10
358.327
 20
7.9568
 30
0.0
 11
357.911
 21
8.16903
 31
0.0
  0
LINE
  8
0
 62
     0
 10
357.911
 20
8.16903
 30
0.0
 11
357.445
 21
8.24343
 31
0.0
  0
LINE
  8
0
 62
     0
 10
357.445
 20
8.24343
 30
0.0
 11
356.983
 21
8.16903
 31
0.0
  0
LINE
  8
0
 62
     0
 10
182.163
 20
31.7679
 30
0.0
 11
182.163
 21
27.0688
 31
0.0
  0
LINE
  8
0
 62
     0
 10
182.163
 20
27.0688
 30
0.0
 11
142.539
 21
27.0688
 31
0.0
  0
LINE
  8
0
 62
     0
 10
142.539
 20
27.0688
 30
0.0
 11
142.539
 21
30.2989
 31
0.0
  0
LINE
  8
0
 62
     0
 10
142.539
 20
30.2989
 30
0.0
 11
140.813
 21
30.2989
 31
0.0
  0
LINE
  8
0
 62
     0
 10
140.813
 20
30.2989
 30
0.0
 11
140.813
 21
31.2195
 31
0.0
  0
LINE
  8
0
 62
     0
 10
140.813
 20
31.2195
 30
0.0
 11
137.513
 21
31.2195
 31
0.0
  0
LINE
  8
0
 62
     0
 10
137.513
 20
31.2195
 30
0.0
 11
137.513
 21
30.2989
 31
0.0
  0
LINE
  8
0
 62
     0
 10
137.513
 20
30.2989
 30
0.0
 11
135.789
 21
30.2989
 31
0.0
  0
LINE
  8
0
 62
     0
 10
135.789
 20
30.2989
 30
0.0
 11
135.789
 21
27.0688
 31
0.0
  0
LINE
  8
0
 62
     0
 10
135.789
 20
27.0688
 30
0.0
 11
134.964
 21
27.0688
 31
0.0
  0
LINE
  8
0
 62
     0
 10
134.964
 20
27.0688
 30
0.0
 11
134.964
 21
24.2686
 31
0.0
  0
LINE
  8
0
 62
     0
 10
134.964
 20
24.2686
 30
0.0
 11
135.789
 21
24.2686
 31
0.0
  0
LINE
  8
0
 62
     0
 10
135.789
 20
24.2686
 30
0.0
 11
135.789
 21
17.9999
 31
0.0
  0
LINE
  8
0
 62
     0
 10
135.789
 20
17.9999
 30
0.0
 11
137.513
 21
17.9999
 31
0.0
  0
LINE
  8
0
 62
     0
 10
137.513
 20
17.9999
 30
0.0
 11
137.513
 21
17.0188
 31
0.0
  0
LINE
  8
0
 62
     0
 10
137.513
 20
17.0188
 30
0.0
 11
140.813
 21
17.0188
 31
0.0
  0
LINE
  8
0
 62
     0
 10
140.813
 20
17.0188
 30
0.0
 11
140.813
 21
17.9999
 31
0.0
  0
LINE
  8
0
 62
     0
 10
140.813
 20
17.9999
 30
0.0
 11
142.539
 21
17.9999
 31
0.0
  0
LINE
  8
0
 62
     0
 10
142.539
 20
17.9999
 30
0.0
 11
142.539
 21
22.4689
 31
0.0
  0
LINE
  8
0
 62
     0
 10
142.539
 20
22.4689
 30
0.0
 11
182.163
 21
22.4689
 31
0.0
  0
LINE
  8
0
 62
     0
 10
182.163
 20
22.4689
 30
0.0
 11
182.163
 21
17.7684
 31
0.0
  0
LINE
  8
0
 62
     0
 10
182.163
 20
17.7684
 30
0.0
 11
196.164
 21
17.7684
 31
0.0
  0
LINE
  8
0
 62
     0
 10
196.164
 20
17.7684
 30
0.0
 11
196.164
 21
22.4689
 31
0.0
  0
LINE
  8
0
 62
     0
 10
196.164
 20
22.4689
 30
0.0
 11
235.788
 21
22.4689
 31
0.0
  0
LINE
  8
0
 62
     0
 10
235.788
 20
22.4689
 30
0.0
 11
235.788
 21
17.9999
 31
0.0
  0
LINE
  8
0
 62
     0
 10
235.788
 20
17.9999
 30
0.0
 11
237.513
 21
17.9999
 31
0.0
  0
LINE
  8
0
 62
     0
 10
237.513
 20
17.9999
 30
0.0
 11
237.513
 21
17.0188
 31
0.0
  0
LINE
  8
0
 62
     0
 10
237.513
 20
17.0188
 30
0.0
 11
240.814
 21
17.0188
 31
0.0
  0
LINE
  8
0
 62
     0
 10
240.814
 20
17.0188
 30
0.0
 11
240.814
 21
17.9999
 31
0.0
  0
LINE
  8
0
 62
     0
 10
240.814
 20
17.9999
 30
0.0
 11
242.539
 21
17.9999
 31
0.0
  0
LINE
  8
0
 62
     0
 10
242.539
 20
17.9999
 30
0.0
 11
242.539
 21
24.2686
 31
0.0
  0
LINE
  8
0
 62
     0
 10
242.539
 20
24.2686
 30
0.0
 11
243.363
 21
24.2686
 31
0.0
  0
LINE
  8
0
 62
     0
 10
243.363
 20
24.2686
 30
0.0
 11
243.363
 21
27.0688
 31
0.0
  0
LINE
  8
0
 62
     0
 10
243.363
 20
27.0688
 30
0.0
 11
242.539
 21
27.0688
 31
0.0
  0
LINE
  8
0
 62
     0
 10
242.539
 20
27.0688
 30
0.0
 11
242.539
 21
30.2989
 31
0.0
  0
LINE
  8
0
 62
     0
 10
242.539
 20
30.2989
 30
0.0
 11
240.814
 21
30.2989
 31
0.0
  0
LINE
  8
0
 62
     0
 10
240.814
 20
30.2989
 30
0.0
 11
240.814
 21
31.2195
 31
0.0
  0
LINE
  8
0
 62
     0
 10
240.814
 20
31.2195
 30
0.0
 11
237.513
 21
31.2195
 31
0.0
  0
LINE
  8
0
 62
     0
 10
237.513
 20
31.2195
 30
0.0
 11
237.513
 21
30.2989
 31
0.0
  0
LINE
  8
0
 62
     0
 10
237.513
 20
30.2989
 30
0.0
 11
235.788
 21
30.2989
 31
0.0
  0
LINE
  8
0
 62
     0
 10
235.788
 20
30.2989
 30
0.0
 11
235.788
 21
27.0688
 31
0.0
  0
LINE
  8
0
 62
     0
 10
235.788
 20
27.0688
 30
0.0
 11
196.164
 21
27.0688
 31
0.0
  0
LINE
  8
0
 62
     0
 10
196.164
 20
27.0688
 30
0.0
 11
196.164
 21
31.7679
 31
0.0
  0
LINE
  8
0
 62
     0
 10
196.164
 20
31.7679
 30
0.0
 11
182.163
 21
31.7679
 31
0.0
  0
LINE
  8
0
 62
     0
 10
275.033
 20
31.7679
 30
0.0
 11
289.033
 21
31.7679
 31
0.0
  0
LINE
  8
0
 62
     0
 10
289.033
 20
31.7679
 30
0.0
 11
289.033
 21
17.7684
 31
0.0
  0
LINE
  8
0
 62
     0
 10
289.033
 20
17.7684
 30
0.0
 11
275.033
 21
17.7684
 31
0.0
  0
LINE
  8
0
 62
     0
 10
275.033
 20
17.7684
 30
0.0
 11
275.033
 21
31.7679
 31
0.0
  0
LINE
  8
0
 62
     0
 10
253.6
 20
31.7679
 30
0.0
 11
267.601
 21
31.7679
 31
0.0
  0
LINE
  8
0
 62
     0
 10
267.601
 20
31.7679
 30
0.0
 11
267.601
 21
17.7684
 31
0.0
  0
LINE
  8
0
 62
     0
 10
267.601
 20
17.7684
 30
0.0
 11
253.6
 21
17.7684
 31
0.0
  0
LINE
  8
0
 62
     0
 10
253.6
 20
17.7684
 30
0.0
 11
253.6
 21
31.7679
 31
0.0
  0
LINE
  8
0
 62
     0
 10
110.727
 20
31.7679
 30
0.0
 11
124.726
 21
31.7679
 31
0.0
  0
LINE
  8
0
 62
     0
 10
124.726
 20
31.7679
 30
0.0
 11
124.726
 21
17.7684
 31
0.0
  0
LINE
  8
0
 62
     0
 10
124.726
 20
17.7684
 30
0.0
 11
110.727
 21
17.7684
 31
0.0
  0
LINE
  8
0
 62
     0
 10
110.727
 20
17.7684
 30
0.0
 11
110.727
 21
31.7679
 31
0.0
  0
LINE
  8
0
 62
     0
 10
89.2955
 20
31.7679
 30
0.0
 11
103.295
 21
31.7679
 31
0.0
  0
LINE
  8
0
 62
     0
 10
103.295
 20
31.7679
 30
0.0
 11
103.295
 21
17.7684
 31
0.0
  0
LINE
  8
0
 62
     0
 10
103.295
 20
17.7684
 30
0.0
 11
89.2955
 21
17.7684
 31
0.0
  0
LINE
  8
0
 62
     0
 10
89.2955
 20
17.7684
 30
0.0
 11
89.2955
 21
31.7679
 31
0.0
  0
LINE
  8
0
 62
     0
 10
72.6267
 20
50.818
 30
0.0
 11
72.6267
 21
46.1186
 31
0.0
  0
LINE
  8
0
 62
     0
 10
72.6267
 20
46.1186
 30
0.0
 11
71.1013
 21
46.1186
 31
0.0
  0
LINE
  8
0
 62
     0
 10
71.1013
 20
46.1186
 30
0.0
 11
71.1013
 21
49.349
 31
0.0
  0
LINE
  8
0
 62
     0
 10
71.1013
 20
49.349
 30
0.0
 11
69.3759
 21
49.349
 31
0.0
  0
LINE
  8
0
 62
     0
 10
69.3759
 20
49.349
 30
0.0
 11
69.3759
 21
50.268
 31
0.0
  0
LINE
  8
0
 62
     0
 10
69.3759
 20
50.268
 30
0.0
 11
66.077
 21
50.268
 31
0.0
  0
LINE
  8
0
 62
     0
 10
66.077
 20
50.268
 30
0.0
 11
66.077
 21
49.349
 31
0.0
  0
LINE
  8
0
 62
     0
 10
66.077
 20
49.349
 30
0.0
 11
64.3516
 21
49.349
 31
0.0
  0
LINE
  8
0
 62
     0
 10
64.3516
 20
49.349
 30
0.0
 11
64.3516
 21
46.1186
 31
0.0
  0
LINE
  8
0
 62
     0
 10
64.3516
 20
46.1186
 30
0.0
 11
63.5261
 21
46.1186
 31
0.0
  0
LINE
  8
0
 62
     0
 10
63.5261
 20
46.1186
 30
0.0
 11
63.5261
 21
43.3186
 31
0.0
  0
LINE
  8
0
 62
     0
 10
63.5261
 20
43.3186
 30
0.0
 11
64.3516
 21
43.3186
 31
0.0
  0
LINE
  8
0
 62
     0
 10
64.3516
 20
43.3186
 30
0.0
 11
64.3516
 21
37.0487
 31
0.0
  0
LINE
  8
0
 62
     0
 10
64.3516
 20
37.0487
 30
0.0
 11
66.077
 21
37.0487
 31
0.0
  0
LINE
  8
0
 62
     0
 10
66.077
 20
37.0487
 30
0.0
 11
66.077
 21
36.0687
 31
0.0
  0
LINE
  8
0
 62
     0
 10
66.077
 20
36.0687
 30
0.0
 11
69.3759
 21
36.0687
 31
0.0
  0
LINE
  8
0
 62
     0
 10
69.3759
 20
36.0687
 30
0.0
 11
69.3759
 21
37.0487
 31
0.0
  0
LINE
  8
0
 62
     0
 10
69.3759
 20
37.0487
 30
0.0
 11
71.1013
 21
37.0487
 31
0.0
  0
LINE
  8
0
 62
     0
 10
71.1013
 20
37.0487
 30
0.0
 11
71.1013
 21
41.5188
 31
0.0
  0
LINE
  8
0
 62
     0
 10
71.1013
 20
41.5188
 30
0.0
 11
72.6267
 21
41.5188
 31
0.0
  0
LINE
  8
0
 62
     0
 10
72.6267
 20
41.5188
 30
0.0
 11
72.6267
 21
36.8184
 31
0.0
  0
LINE
  8
0
 62
     0
 10
72.6267
 20
36.8184
 30
0.0
 11
86.6263
 21
36.8184
 31
0.0
  0
LINE
  8
0
 62
     0
 10
86.6263
 20
36.8184
 30
0.0
 11
86.6263
 21
41.5188
 31
0.0
  0
LINE
  8
0
 62
     0
 10
86.6263
 20
41.5188
 30
0.0
 11
88.1518
 21
41.5188
 31
0.0
  0
LINE
  8
0
 62
     0
 10
88.1518
 20
41.5188
 30
0.0
 11
88.1518
 21
37.0487
 31
0.0
  0
LINE
  8
0
 62
     0
 10
88.1518
 20
37.0487
 30
0.0
 11
89.8772
 21
37.0487
 31
0.0
  0
LINE
  8
0
 62
     0
 10
89.8772
 20
37.0487
 30
0.0
 11
89.8772
 21
36.0687
 31
0.0
  0
LINE
  8
0
 62
     0
 10
89.8772
 20
36.0687
 30
0.0
 11
93.176
 21
36.0687
 31
0.0
  0
LINE
  8
0
 62
     0
 10
93.176
 20
36.0687
 30
0.0
 11
93.176
 21
37.0487
 31
0.0
  0
LINE
  8
0
 62
     0
 10
93.176
 20
37.0487
 30
0.0
 11
94.9015
 21
37.0487
 31
0.0
  0
LINE
  8
0
 62
     0
 10
94.9015
 20
37.0487
 30
0.0
 11
94.9015
 21
43.3186
 31
0.0
  0
LINE
  8
0
 62
     0
 10
94.9015
 20
43.3186
 30
0.0
 11
95.727
 21
43.3186
 31
0.0
  0
LINE
  8
0
 62
     0
 10
95.727
 20
43.3186
 30
0.0
 11
95.727
 21
46.1186
 31
0.0
  0
LINE
  8
0
 62
     0
 10
95.727
 20
46.1186
 30
0.0
 11
94.9015
 21
46.1186
 31
0.0
  0
LINE
  8
0
 62
     0
 10
94.9015
 20
46.1186
 30
0.0
 11
94.9015
 21
49.349
 31
0.0
  0
LINE
  8
0
 62
     0
 10
94.9015
 20
49.349
 30
0.0
 11
93.176
 21
49.349
 31
0.0
  0
LINE
  8
0
 62
     0
 10
93.176
 20
49.349
 30
0.0
 11
93.176
 21
50.268
 31
0.0
  0
LINE
  8
0
 62
     0
 10
93.176
 20
50.268
 30
0.0
 11
89.8772
 21
50.268
 31
0.0
  0
LINE
  8
0
 62
     0
 10
89.8772
 20
50.268
 30
0.0
 11
89.8772
 21
49.349
 31
0.0
  0
LINE
  8
0
 62
     0
 10
89.8772
 20
49.349
 30
0.0
 11
88.1518
 21
49.349
 31
0.0
  0
LINE
  8
0
 62
     0
 10
88.1518
 20
49.349
 30
0.0
 11
88.1518
 21
46.1186
 31
0.0
  0
LINE
  8
0
 62
     0
 10
88.1518
 20
46.1186
 30
0.0
 11
86.6263
 21
46.1186
 31
0.0
  0
LINE
  8
0
 62
     0
 10
86.6263
 20
46.1186
 30
0.0
 11
86.6263
 21
50.818
 31
0.0
  0
LINE
  8
0
 62
     0
 10
86.6263
 20
50.818
 30
0.0
 11
72.6267
 21
50.818
 31
0.0
  0
LINE
  8
0
 62
     0
 10
327.42
 20
50.818
 30
0.0
 11
341.42
 21
50.818
 31
0.0
  0
LINE
  8
0
 62
     0
 10
341.42
 20
50.818
 30
0.0
 11
341.42
 21
36.8184
 31
0.0
  0
LINE
  8
0
 62
     0
 10
341.42
 20
36.8184
 30
0.0
 11
327.42
 21
36.8184
 31
0.0
  0
LINE
  8
0
 62
     0
 10
327.42
 20
36.8184
 30
0.0
 11
327.42
 21
50.818
 31
0.0
  0
LINE
  8
0
 62
     0
 10
301.227
 20
50.818
 30
0.0
 11
315.226
 21
50.818
 31
0.0
  0
LINE
  8
0
 62
     0
 10
315.226
 20
50.818
 30
0.0
 11
315.226
 21
36.8184
 31
0.0
  0
LINE
  8
0
 62
     0
 10
315.226
 20
36.8184
 30
0.0
 11
301.227
 21
36.8184
 31
0.0
  0
LINE
  8
0
 62
     0
 10
301.227
 20
36.8184
 30
0.0
 11
301.227
 21
50.818
 31
0.0
  0
LINE
  8
0
 62
     0
 10
275.033
 20
50.818
 30
0.0
 11
289.033
 21
50.818
 31
0.0
  0
LINE
  8
0
 62
     0
 10
289.033
 20
50.818
 30
0.0
 11
289.033
 21
36.8184
 31
0.0
  0
LINE
  8
0
 62
     0
 10
289.033
 20
36.8184
 30
0.0
 11
275.033
 21
36.8184
 31
0.0
  0
LINE
  8
0
 62
     0
 10
275.033
 20
36.8184
 30
0.0
 11
275.033
 21
50.818
 31
0.0
  0
LINE
  8
0
 62
     0
 10
255.983
 20
50.818
 30
0.0
 11
269.983
 21
50.818
 31
0.0
  0
LINE
  8
0
 62
     0
 10
269.983
 20
50.818
 30
0.0
 11
269.983
 21
36.8184
 31
0.0
  0
LINE
  8
0
 62
     0
 10
269.983
 20
36.8184
 30
0.0
 11
255.983
 21
36.8184
 31
0.0
  0
LINE
  8
0
 62
     0
 10
255.983
 20
36.8184
 30
0.0
 11
255.983
 21
50.818
 31
0.0
  0
LINE
  8
0
 62
     0
 10
236.933
 20
50.818
 30
0.0
 11
250.933
 21
50.818
 31
0.0
  0
LINE
  8
0
 62
     0
 10
250.933
 20
50.818
 30
0.0
 11
250.933
 21
36.8184
 31
0.0
  0
LINE
  8
0
 62
     0
 10
250.933
 20
36.8184
 30
0.0
 11
236.933
 21
36.8184
 31
0.0
  0
LINE
  8
0
 62
     0
 10
236.933
 20
36.8184
 30
0.0
 11
236.933
 21
50.818
 31
0.0
  0
LINE
  8
0
 62
     0
 10
217.883
 20
50.818
 30
0.0
 11
231.883
 21
50.818
 31
0.0
  0
LINE
  8
0
 62
     0
 10
231.883
 20
50.818
 30
0.0
 11
231.883
 21
36.8184
 31
0.0
  0
LINE
  8
0
 62
     0
 10
231.883
 20
36.8184
 30
0.0
 11
217.883
 21
36.8184
 31
0.0
  0
LINE
  8
0
 62
     0
 10
217.883
 20
36.8184
 30
0.0
 11
217.883
 21
50.818
 31
0.0
  0
LINE
  8
0
 62
     0
 10
198.833
 20
50.818
 30
0.0
 11
212.833
 21
50.818
 31
0.0
  0
LINE
  8
0
 62
     0
 10
212.833
 20
50.818
 30
0.0
 11
212.833
 21
36.8184
 31
0.0
  0
LINE
  8
0
 62
     0
 10
212.833
 20
36.8184
 30
0.0
 11
198.833
 21
36.8184
 31
0.0
  0
LINE
  8
0
 62
     0
 10
198.833
 20
36.8184
 30
0.0
 11
198.833
 21
50.818
 31
0.0
  0
LINE
  8
0
 62
     0
 10
179.783
 20
50.818
 30
0.0
 11
193.783
 21
50.818
 31
0.0
  0
LINE
  8
0
 62
     0
 10
193.783
 20
50.818
 30
0.0
 11
193.783
 21
36.8184
 31
0.0
  0
LINE
  8
0
 62
     0
 10
193.783
 20
36.8184
 30
0.0
 11
179.783
 21
36.8184
 31
0.0
  0
LINE
  8
0
 62
     0
 10
179.783
 20
36.8184
 30
0.0
 11
179.783
 21
50.818
 31
0.0
  0
LINE
  8
0
 62
     0
 10
160.733
 20
50.818
 30
0.0
 11
174.733
 21
50.818
 31
0.0
  0
LINE
  8
0
 62
     0
 10
174.733
 20
50.818
 30
0.0
 11
174.733
 21
36.8184
 31
0.0
  0
LINE
  8
0
 62
     0
 10
174.733
 20
36.8184
 30
0.0
 11
160.733
 21
36.8184
 31
0.0
  0
LINE
  8
0
 62
     0
 10
160.733
 20
36.8184
 30
0.0
 11
160.733
 21
50.818
 31
0.0
  0
LINE
  8
0
 62
     0
 10
141.683
 20
50.818
 30
0.0
 11
155.683
 21
50.818
 31
0.0
  0
LINE
  8
0
 62
     0
 10
155.683
 20
50.818
 30
0.0
 11
155.683
 21
36.8184
 31
0.0
  0
LINE
  8
0
 62
     0
 10
155.683
 20
36.8184
 30
0.0
 11
141.683
 21
36.8184
 31
0.0
  0
LINE
  8
0
 62
     0
 10
141.683
 20
36.8184
 30
0.0
 11
141.683
 21
50.818
 31
0.0
  0
LINE
  8
0
 62
     0
 10
122.633
 20
50.818
 30
0.0
 11
136.633
 21
50.818
 31
0.0
  0
LINE
  8
0
 62
     0
 10
136.633
 20
50.818
 30
0.0
 11
136.633
 21
36.8184
 31
0.0
  0
LINE
  8
0
 62
     0
 10
136.633
 20
36.8184
 30
0.0
 11
122.633
 21
36.8184
 31
0.0
  0
LINE
  8
0
 62
     0
 10
122.633
 20
36.8184
 30
0.0
 11
122.633
 21
50.818
 31
0.0
  0
LINE
  8
0
 62
     0
 10
103.583
 20
50.818
 30
0.0
 11
117.583
 21
50.818
 31
0.0
  0
LINE
  8
0
 62
     0
 10
117.583
 20
50.818
 30
0.0
 11
117.583
 21
36.8184
 31
0.0
  0
LINE
  8
0
 62
     0
 10
117.583
 20
36.8184
 30
0.0
 11
103.583
 21
36.8184
 31
0.0
  0
LINE
  8
0
 62
     0
 10
103.583
 20
36.8184
 30
0.0
 11
103.583
 21
50.818
 31
0.0
  0
LINE
  8
0
 62
     0
 10
315.513
 20
69.868
 30
0.0
 11
315.513
 21
65.1686
 31
0.0
  0
LINE
  8
0
 62
     0
 10
315.513
 20
65.1686
 30
0.0
 11
313.989
 21
65.1686
 31
0.0
  0
LINE
  8
0
 62
     0
 10
313.989
 20
65.1686
 30
0.0
 11
313.989
 21
68.399
 31
0.0
  0
LINE
  8
0
 62
     0
 10
313.989
 20
68.399
 30
0.0
 11
312.263
 21
68.399
 31
0.0
  0
LINE
  8
0
 62
     0
 10
312.263
 20
68.399
 30
0.0
 11
312.263
 21
69.318
 31
0.0
  0
LINE
  8
0
 62
     0
 10
312.263
 20
69.318
 30
0.0
 11
308.963
 21
69.318
 31
0.0
  0
LINE
  8
0
 62
     0
 10
308.963
 20
69.318
 30
0.0
 11
308.963
 21
68.399
 31
0.0
  0
LINE
  8
0
 62
     0
 10
308.963
 20
68.399
 30
0.0
 11
307.239
 21
68.399
 31
0.0
  0
LINE
  8
0
 62
     0
 10
307.239
 20
68.399
 30
0.0
 11
307.239
 21
65.1686
 31
0.0
  0
LINE
  8
0
 62
     0
 10
307.239
 20
65.1686
 30
0.0
 11
306.414
 21
65.1686
 31
0.0
  0
LINE
  8
0
 62
     0
 10
306.414
 20
65.1686
 30
0.0
 11
306.414
 21
62.3686
 31
0.0
  0
LINE
  8
0
 62
     0
 10
306.414
 20
62.3686
 30
0.0
 11
307.239
 21
62.3686
 31
0.0
  0
LINE
  8
0
 62
     0
 10
307.239
 20
62.3686
 30
0.0
 11
307.239
 21
56.0987
 31
0.0
  0
LINE
  8
0
 62
     0
 10
307.239
 20
56.0987
 30
0.0
 11
308.963
 21
56.0987
 31
0.0
  0
LINE
  8
0
 62
     0
 10
308.963
 20
56.0987
 30
0.0
 11
308.963
 21
55.1187
 31
0.0
  0
LINE
  8
0
 62
     0
 10
308.963
 20
55.1187
 30
0.0
 11
312.263
 21
55.1187
 31
0.0
  0
LINE
  8
0
 62
     0
 10
312.263
 20
55.1187
 30
0.0
 11
312.263
 21
56.0987
 31
0.0
  0
LINE
  8
0
 62
     0
 10
312.263
 20
56.0987
 30
0.0
 11
313.989
 21
56.0987
 31
0.0
  0
LINE
  8
0
 62
     0
 10
313.989
 20
56.0987
 30
0.0
 11
313.989
 21
60.5688
 31
0.0
  0
LINE
  8
0
 62
     0
 10
313.989
 20
60.5688
 30
0.0
 11
315.513
 21
60.5688
 31
0.0
  0
LINE
  8
0
 62
     0
 10
315.513
 20
60.5688
 30
0.0
 11
315.513
 21
55.8684
 31
0.0
  0
LINE
  8
0
 62
     0
 10
315.513
 20
55.8684
 30
0.0
 11
329.514
 21
55.8684
 31
0.0
  0
LINE
  8
0
 62
     0
 10
329.514
 20
55.8684
 30
0.0
 11
329.514
 21
60.5688
 31
0.0
  0
LINE
  8
0
 62
     0
 10
329.514
 20
60.5688
 30
0.0
 11
331.038
 21
60.5688
 31
0.0
  0
LINE
  8
0
 62
     0
 10
331.038
 20
60.5688
 30
0.0
 11
331.038
 21
56.0987
 31
0.0
  0
LINE
  8
0
 62
     0
 10
331.038
 20
56.0987
 30
0.0
 11
332.763
 21
56.0987
 31
0.0
  0
LINE
  8
0
 62
     0
 10
332.763
 20
56.0987
 30
0.0
 11
332.763
 21
55.1187
 31
0.0
  0
LINE
  8
0
 62
     0
 10
332.763
 20
55.1187
 30
0.0
 11
336.064
 21
55.1187
 31
0.0
  0
LINE
  8
0
 62
     0
 10
336.064
 20
55.1187
 30
0.0
 11
336.064
 21
56.0987
 31
0.0
  0
LINE
  8
0
 62
     0
 10
336.064
 20
56.0987
 30
0.0
 11
337.789
 21
56.0987
 31
0.0
  0
LINE
  8
0
 62
     0
 10
337.789
 20
56.0987
 30
0.0
 11
337.789
 21
62.3686
 31
0.0
  0
LINE
  8
0
 62
     0
 10
337.789
 20
62.3686
 30
0.0
 11
338.613
 21
62.3686
 31
0.0
  0
LINE
  8
0
 62
     0
 10
338.613
 20
62.3686
 30
0.0
 11
338.613
 21
65.1686
 31
0.0
  0
LINE
  8
0
 62
     0
 10
338.613
 20
65.1686
 30
0.0
 11
337.789
 21
65.1686
 31
0.0
  0
LINE
  8
0
 62
     0
 10
337.789
 20
65.1686
 30
0.0
 11
337.789
 21
68.399
 31
0.0
  0
LINE
  8
0
 62
     0
 10
337.789
 20
68.399
 30
0.0
 11
336.064
 21
68.399
 31
0.0
  0
LINE
  8
0
 62
     0
 10
336.064
 20
68.399
 30
0.0
 11
336.064
 21
69.318
 31
0.0
  0
LINE
  8
0
 62
     0
 10
336.064
 20
69.318
 30
0.0
 11
332.763
 21
69.318
 31
0.0
  0
LINE
  8
0
 62
     0
 10
332.763
 20
69.318
 30
0.0
 11
332.763
 21
68.399
 31
0.0
  0
LINE
  8
0
 62
     0
 10
332.763
 20
68.399
 30
0.0
 11
331.038
 21
68.399
 31
0.0
  0
LINE
  8
0
 62
     0
 10
331.038
 20
68.399
 30
0.0
 11
331.038
 21
65.1686
 31
0.0
  0
LINE
  8
0
 62
     0
 10
331.038
 20
65.1686
 30
0.0
 11
329.514
 21
65.1686
 31
0.0
  0
LINE
  8
0
 62
     0
 10
329.514
 20
65.1686
 30
0.0
 11
329.514
 21
69.868
 31
0.0
  0
LINE
  8
0
 62
     0
 10
329.514
 20
69.868
 30
0.0
 11
315.513
 21
69.868
 31
0.0
  0
LINE
  8
0
 62
     0
 10
284.558
 20
69.868
 30
0.0
 11
298.558
 21
69.868
 31
0.0
  0
LINE
  8
0
 62
     0
 10
298.558
 20
69.868
 30
0.0
 11
298.558
 21
55.8684
 31
0.0
  0
LINE
  8
0
 62
     0
 10
298.558
 20
55.8684
 30
0.0
 11
284.558
 21
55.8684
 31
0.0
  0
LINE
  8
0
 62
     0
 10
284.558
 20
55.8684
 30
0.0
 11
284.558
 21
69.868
 31
0.0
  0
LINE
  8
0
 62
     0
 10
265.508
 20
69.868
 30
0.0
 11
279.508
 21
69.868
 31
0.0
  0
LINE
  8
0
 62
     0
 10
279.508
 20
69.868
 30
0.0
 11
279.508
 21
55.8684
 31
0.0
  0
LINE
  8
0
 62
     0
 10
279.508
 20
55.8684
 30
0.0
 11
265.508
 21
55.8684
 31
0.0
  0
LINE
  8
0
 62
     0
 10
265.508
 20
55.8684
 30
0.0
 11
265.508
 21
69.868
 31
0.0
  0
LINE
  8
0
 62
     0
 10
246.458
 20
69.868
 30
0.0
 11
260.458
 21
69.868
 31
0.0
  0
LINE
  8
0
 62
     0
 10
260.458
 20
69.868
 30
0.0
 11
260.458
 21
55.8684
 31
0.0
  0
LINE
  8
0
 62
     0
 10
260.458
 20
55.8684
 30
0.0
 11
246.458
 21
55.8684
 31
0.0
  0
LINE
  8
0
 62
     0
 10
246.458
 20
55.8684
 30
0.0
 11
246.458
 21
69.868
 31
0.0
  0
LINE
  8
0
 62
     0
 10
227.408
 20
69.868
 30
0.0
 11
241.408
 21
69.868
 31
0.0
  0
LINE
  8
0
 62
     0
 10
241.408
 20
69.868
 30
0.0
 11
241.408
 21
55.8684
 31
0.0
  0
LINE
  8
0
 62
     0
 10
241.408
 20
55.8684
 30
0.0
 11
227.408
 21
55.8684
 31
0.0
  0
LINE
  8
0
 62
     0
 10
227.408
 20
55.8684
 30
0.0
 11
227.408
 21
69.868
 31
0.0
  0
LINE
  8
0
 62
     0
 10
208.358
 20
69.868
 30
0.0
 11
222.358
 21
69.868
 31
0.0
  0
LINE
  8
0
 62
     0
 10
222.358
 20
69.868
 30
0.0
 11
222.358
 21
55.8684
 31
0.0
  0
LINE
  8
0
 62
     0
 10
222.358
 20
55.8684
 30
0.0
 11
208.358
 21
55.8684
 31
0.0
  0
LINE
  8
0
 62
     0
 10
208.358
 20
55.8684
 30
0.0
 11
208.358
 21
69.868
 31
0.0
  0
LINE
  8
0
 62
     0
 10
189.308
 20
69.868
 30
0.0
 11
203.308
 21
69.868
 31
0.0
  0
LINE
  8
0
 62
     0
 10
203.308
 20
69.868
 30
0.0
 11
203.308
 21
55.8684
 31
0.0
  0
LINE
  8
0
 62
     0
 10
203.308
 20
55.8684
 30
0.0
 11
189.308
 21
55.8684
 31
0.0
  0
LINE
  8
0
 62
     0
 10
189.308
 20
55.8684
 30
0.0
 11
189.308
 21
69.868
 31
0.0
  0
LINE
  8
0
 62
     0
 10
170.258
 20
69.868
 30
0.0
 11
184.258
 21
69.868
 31
0.0
  0
LINE
  8
0
 62
     0
 10
184.258
 20
69.868
 30
0.0
 11
184.258
 21
55.8684
 31
0.0
  0
LINE
  8
0
 62
     0
 10
184.258
 20
55.8684
 30
0.0
 11
170.258
 21
55.8684
 31
0.0
  0
LINE
  8
0
 62
     0
 10
170.258
 20
55.8684
 30
0.0
 11
170.258
 21
69.868
 31
0.0
  0
LINE
  8
0
 62
     0
 10
151.208
 20
69.868
 30
0.0
 11
165.208
 21
69.868
 31
0.0
  0
LINE
  8
0
 62
     0
 10
165.208
 20
69.868
 30
0.0
 11
165.208
 21
55.8684
 31
0.0
  0
LINE
  8
0
 62
     0
 10
165.208
 20
55.8684
 30
0.0
 11
151.208
 21
55.8684
 31
0.0
  0
LINE
  8
0
 62
     0
 10
151.208
 20
55.8684
 30
0.0
 11
151.208
 21
69.868
 31
0.0
  0
LINE
  8
0
 62
     0
 10
132.158
 20
69.868
 30
0.0
 11
146.158
 21
69.868
 31
0.0
  0
LINE
  8
0
 62
     0
 10
146.158
 20
69.868
 30
0.0
 11
146.158
 21
55.8684
 31
0.0
  0
LINE
  8
0
 62
     0
 10
146.158
 20
55.8684
 30
0.0
 11
132.158
 21
55.8684
 31
0.0
  0
LINE
  8
0
 62
     0
 10
132.158
 20
55.8684
 30
0.0
 11
132.158
 21
69.868
 31
0.0
  0
LINE
  8
0
 62
     0
 10
113.108
 20
69.868
 30
0.0
 11
127.108
 21
69.868
 31
0.0
  0
LINE
  8
0
 62
     0
 10
127.108
 20
69.868
 30
0.0
 11
127.108
 21
55.8684
 31
0.0
  0
LINE
  8
0
 62
     0
 10
127.108
 20
55.8684
 30
0.0
 11
113.108
 21
55.8684
 31
0.0
  0
LINE
  8
0
 62
     0
 10
113.108
 20
55.8684
 30
0.0
 11
113.108
 21
69.868
 31
0.0
  0
LINE
  8
0
 62
     0
 10
94.058
 20
69.868
 30
0.0
 11
108.058
 21
69.868
 31
0.0
  0
LINE
  8
0
 62
     0
 10
108.058
 20
69.868
 30
0.0
 11
108.058
 21
55.8684
 31
0.0
  0
LINE
  8
0
 62
     0
 10
108.058
 20
55.8684
 30
0.0
 11
94.058
 21
55.8684
 31
0.0
  0
LINE
  8
0
 62
     0
 10
94.058
 20
55.8684
 30
0.0
 11
94.058
 21
69.868
 31
0.0
  0
LINE
  8
0
 62
     0
 10
67.8628
 20
69.868
 30
0.0
 11
81.8638
 21
69.868
 31
0.0
  0
LINE
  8
0
 62
     0
 10
81.8638
 20
69.868
 30
0.0
 11
81.8638
 21
55.8684
 31
0.0
  0
LINE
  8
0
 62
     0
 10
81.8638
 20
55.8684
 30
0.0
 11
67.8628
 21
55.8684
 31
0.0
  0
LINE
  8
0
 62
     0
 10
67.8628
 20
55.8684
 30
0.0
 11
67.8628
 21
69.868
 31
0.0
  0
LINE
  8
0
 62
     0
 10
22.6205
 20
69.868
 30
0.0
 11
36.6201
 21
69.868
 31
0.0
  0
LINE
  8
0
 62
     0
 10
36.6201
 20
69.868
 30
0.0
 11
36.6201
 21
55.8684
 31
0.0
  0
LINE
  8
0
 62
     0
 10
36.6201
 20
55.8684
 30
0.0
 11
22.6205
 21
55.8684
 31
0.0
  0
LINE
  8
0
 62
     0
 10
22.6205
 20
55.8684
 30
0.0
 11
22.6205
 21
69.868
 31
0.0
  0
LINE
  8
0
 62
     0
 10
322.658
 20
88.918
 30
0.0
 11
336.658
 21
88.918
 31
0.0
  0
LINE
  8
0
 62
     0
 10
336.658
 20
88.918
 30
0.0
 11
336.658
 21
74.9184
 31
0.0
  0
LINE
  8
0
 62
     0
 10
336.658
 20
74.9184
 30
0.0
 11
322.658
 21
74.9184
 31
0.0
  0
LINE
  8
0
 62
     0
 10
322.658
 20
74.9184
 30
0.0
 11
322.658
 21
88.918
 31
0.0
  0
LINE
  8
0
 62
     0
 10
298.845
 20
88.918
 30
0.0
 11
312.845
 21
88.918
 31
0.0
  0
LINE
  8
0
 62
     0
 10
312.845
 20
88.918
 30
0.0
 11
312.845
 21
74.9184
 31
0.0
  0
LINE
  8
0
 62
     0
 10
312.845
 20
74.9184
 30
0.0
 11
298.845
 21
74.9184
 31
0.0
  0
LINE
  8
0
 62
     0
 10
298.845
 20
74.9184
 30
0.0
 11
298.845
 21
88.918
 31
0.0
  0
LINE
  8
0
 62
     0
 10
279.795
 20
88.918
 30
0.0
 11
293.795
 21
88.918
 31
0.0
  0
LINE
  8
0
 62
     0
 10
293.795
 20
88.918
 30
0.0
 11
293.795
 21
74.9184
 31
0.0
  0
LINE
  8
0
 62
     0
 10
293.795
 20
74.9184
 30
0.0
 11
279.795
 21
74.9184
 31
0.0
  0
LINE
  8
0
 62
     0
 10
279.795
 20
74.9184
 30
0.0
 11
279.795
 21
88.918
 31
0.0
  0
LINE
  8
0
 62
     0
 10
260.745
 20
88.918
 30
0.0
 11
274.745
 21
88.918
 31
0.0
  0
LINE
  8
0
 62
     0
 10
274.745
 20
88.918
 30
0.0
 11
274.745
 21
74.9184
 31
0.0
  0
LINE
  8
0
 62
     0
 10
274.745
 20
74.9184
 30
0.0
 11
260.745
 21
74.9184
 31
0.0
  0
LINE
  8
0
 62
     0
 10
260.745
 20
74.9184
 30
0.0
 11
260.745
 21
88.918
 31
0.0
  0
LINE
  8
0
 62
     0
 10
241.695
 20
88.918
 30
0.0
 11
255.695
 21
88.918
 31
0.0
  0
LINE
  8
0
 62
     0
 10
255.695
 20
88.918
 30
0.0
 11
255.695
 21
74.9184
 31
0.0
  0
LINE
  8
0
 62
     0
 10
255.695
 20
74.9184
 30
0.0
 11
241.695
 21
74.9184
 31
0.0
  0
LINE
  8
0
 62
     0
 10
241.695
 20
74.9184
 30
0.0
 11
241.695
 21
88.918
 31
0.0
  0
LINE
  8
0
 62
     0
 10
222.645
 20
88.918
 30
0.0
 11
236.645
 21
88.918
 31
0.0
  0
LINE
  8
0
 62
     0
 10
236.645
 20
88.918
 30
0.0
 11
236.645
 21
74.9184
 31
0.0
  0
LINE
  8
0
 62
     0
 10
236.645
 20
74.9184
 30
0.0
 11
222.645
 21
74.9184
 31
0.0
  0
LINE
  8
0
 62
     0
 10
222.645
 20
74.9184
 30
0.0
 11
222.645
 21
88.918
 31
0.0
  0
LINE
  8
0
 62
     0
 10
203.595
 20
88.918
 30
0.0
 11
217.595
 21
88.918
 31
0.0
  0
LINE
  8
0
 62
     0
 10
217.595
 20
88.918
 30
0.0
 11
217.595
 21
74.9184
 31
0.0
  0
LINE
  8
0
 62
     0
 10
217.595
 20
74.9184
 30
0.0
 11
203.595
 21
74.9184
 31
0.0
  0
LINE
  8
0
 62
     0
 10
203.595
 20
74.9184
 30
0.0
 11
203.595
 21
88.918
 31
0.0
  0
LINE
  8
0
 62
     0
 10
184.545
 20
88.918
 30
0.0
 11
198.545
 21
88.918
 31
0.0
  0
LINE
  8
0
 62
     0
 10
198.545
 20
88.918
 30
0.0
 11
198.545
 21
74.9184
 31
0.0
  0
LINE
  8
0
 62
     0
 10
198.545
 20
74.9184
 30
0.0
 11
184.545
 21
74.9184
 31
0.0
  0
LINE
  8
0
 62
     0
 10
184.545
 20
74.9184
 30
0.0
 11
184.545
 21
88.918
 31
0.0
  0
LINE
  8
0
 62
     0
 10
165.495
 20
88.918
 30
0.0
 11
179.495
 21
88.918
 31
0.0
  0
LINE
  8
0
 62
     0
 10
179.495
 20
88.918
 30
0.0
 11
179.495
 21
74.9184
 31
0.0
  0
LINE
  8
0
 62
     0
 10
179.495
 20
74.9184
 30
0.0
 11
165.495
 21
74.9184
 31
0.0
  0
LINE
  8
0
 62
     0
 10
165.495
 20
74.9184
 30
0.0
 11
165.495
 21
88.918
 31
0.0
  0
LINE
  8
0
 62
     0
 10
146.445
 20
88.918
 30
0.0
 11
160.445
 21
88.918
 31
0.0
  0
LINE
  8
0
 62
     0
 10
160.445
 20
88.918
 30
0.0
 11
160.445
 21
74.9184
 31
0.0
  0
LINE
  8
0
 62
     0
 10
160.445
 20
74.9184
 30
0.0
 11
146.445
 21
74.9184
 31
0.0
  0
LINE
  8
0
 62
     0
 10
146.445
 20
74.9184
 30
0.0
 11
146.445
 21
88.918
 31
0.0
  0
LINE
  8
0
 62
     0
 10
127.395
 20
88.918
 30
0.0
 11
141.395
 21
88.918
 31
0.0
  0
LINE
  8
0
 62
     0
 10
141.395
 20
88.918
 30
0.0
 11
141.395
 21
74.9184
 31
0.0
  0
LINE
  8
0
 62
     0
 10
141.395
 20
74.9184
 30
0.0
 11
127.395
 21
74.9184
 31
0.0
  0
LINE
  8
0
 62
     0
 10
127.395
 20
74.9184
 30
0.0
 11
127.395
 21
88.918
 31
0.0
  0
LINE
  8
0
 62
     0
 10
108.345
 20
88.918
 30
0.0
 11
122.345
 21
88.918
 31
0.0
  0
LINE
  8
0
 62
     0
 10
122.345
 20
88.918
 30
0.0
 11
122.345
 21
74.9184
 31
0.0
  0
LINE
  8
0
 62
     0
 10
122.345
 20
74.9184
 30
0.0
 11
108.345
 21
74.9184
 31
0.0
  0
LINE
  8
0
 62
     0
 10
108.345
 20
74.9184
 30
0.0
 11
108.345
 21
88.918
 31
0.0
  0
LINE
  8
0
 62
     0
 10
89.2955
 20
88.918
 30
0.0
 11
103.295
 21
88.918
 31
0.0
  0
LINE
  8
0
 62
     0
 10
103.295
 20
88.918
 30
0.0
 11
103.295
 21
74.9184
 31
0.0
  0
LINE
  8
0
 62
     0
 10
103.295
 20
74.9184
 30
0.0
 11
89.2955
 21
74.9184
 31
0.0
  0
LINE
  8
0
 62
     0
 10
89.2955
 20
74.9184
 30
0.0
 11
89.2955
 21
88.918
 31
0.0
  0
LINE
  8
0
 62
     0
 10
65.483
 20
88.918
 30
0.0
 11
79.4826
 21
88.918
 31
0.0
  0
LINE
  8
0
 62
     0
 10
79.4826
 20
88.918
 30
0.0
 11
79.4826
 21
74.9184
 31
0.0
  0
LINE
  8
0
 62
     0
 10
79.4826
 20
74.9184
 30
0.0
 11
65.483
 21
74.9184
 31
0.0
  0
LINE
  8
0
 62
     0
 10
65.483
 20
74.9184
 30
0.0
 11
65.483
 21
88.918
 31
0.0
  0
LINE
  8
0
 62
     0
 10
27.383
 20
88.918
 30
0.0
 11
41.3826
 21
88.918
 31
0.0
  0
LINE
  8
0
 62
     0
 10
41.3826
 20
88.918
 30
0.0
 11
41.3826
 21
74.9184
 31
0.0
  0
LINE
  8
0
 62
     0
 10
41.3826
 20
74.9184
 30
0.0
 11
27.383
 21
74.9184
 31
0.0
  0
LINE
  8
0
 62
     0
 10
27.383
 20
74.9184
 30
0.0
 11
27.383
 21
88.918
 31
0.0
  0
LINE
  8
0
 62
     0
 10
327.42
 20
107.968
 30
0.0
 11
341.42
 21
107.968
 31
0.0
  0
LINE
  8
0
 62
     0
 10
341.42
 20
107.968
 30
0.0
 11
341.42
 21
93.9684
 31
0.0
  0
LINE
  8
0
 62
     0
 10
341.42
 20
93.9684
 30
0.0
 11
327.42
 21
93.9684
 31
0.0
  0
LINE
  8
0
 62
     0
 10
327.42
 20
93.9684
 30
0.0
 11
327.42
 21
107.968
 31
0.0
  0
LINE
  8
0
 62
     0
 10
308.37
 20
107.968
 30
0.0
 11
322.37
 21
107.968
 31
0.0
  0
LINE
  8
0
 62
     0
 10
322.37
 20
107.968
 30
0.0
 11
322.37
 21
93.9684
 31
0.0
  0
LINE
  8
0
 62
     0
 10
322.37
 20
93.9684
 30
0.0
 11
308.37
 21
93.9684
 31
0.0
  0
LINE
  8
0
 62
     0
 10
308.37
 20
93.9684
 30
0.0
 11
308.37
 21
107.968
 31
0.0
  0
LINE
  8
0
 62
     0
 10
289.32
 20
107.968
 30
0.0
 11
303.32
 21
107.968
 31
0.0
  0
LINE
  8
0
 62
     0
 10
303.32
 20
107.968
 30
0.0
 11
303.32
 21
93.9684
 31
0.0
  0
LINE
  8
0
 62
     0
 10
303.32
 20
93.9684
 30
0.0
 11
289.32
 21
93.9684
 31
0.0
  0
LINE
  8
0
 62
     0
 10
289.32
 20
93.9684
 30
0.0
 11
289.32
 21
107.968
 31
0.0
  0
LINE
  8
0
 62
     0
 10
270.27
 20
107.968
 30
0.0
 11
284.27
 21
107.968
 31
0.0
  0
LINE
  8
0
 62
     0
 10
284.27
 20
107.968
 30
0.0
 11
284.27
 21
93.9684
 31
0.0
  0
LINE
  8
0
 62
     0
 10
284.27
 20
93.9684
 30
0.0
 11
270.27
 21
93.9684
 31
0.0
  0
LINE
  8
0
 62
     0
 10
270.27
 20
93.9684
 30
0.0
 11
270.27
 21
107.968
 31
0.0
  0
LINE
  8
0
 62
     0
 10
251.22
 20
107.968
 30
0.0
 11
265.22
 21
107.968
 31
0.0
  0
LINE
  8
0
 62
     0
 10
265.22
 20
107.968
 30
0.0
 11
265.22
 21
93.9684
 31
0.0
  0
LINE
  8
0
 62
     0
 10
265.22
 20
93.9684
 30
0.0
 11
251.22
 21
93.9684
 31
0.0
  0
LINE
  8
0
 62
     0
 10
251.22
 20
93.9684
 30
0.0
 11
251.22
 21
107.968
 31
0.0
  0
LINE
  8
0
 62
     0
 10
232.17
 20
107.968
 30
0.0
 11
246.17
 21
107.968
 31
0.0
  0
LINE
  8
0
 62
     0
 10
246.17
 20
107.968
 30
0.0
 11
246.17
 21
93.9684
 31
0.0
  0
LINE
  8
0
 62
     0
 10
246.17
 20
93.9684
 30
0.0
 11
232.17
 21
93.9684
 31
0.0
  0
LINE
  8
0
 62
     0
 10
232.17
 20
93.9684
 30
0.0
 11
232.17
 21
107.968
 31
0.0
  0
LINE
  8
0
 62
     0
 10
213.12
 20
107.968
 30
0.0
 11
227.12
 21
107.968
 31
0.0
  0
LINE
  8
0
 62
     0
 10
227.12
 20
107.968
 30
0.0
 11
227.12
 21
93.9684
 31
0.0
  0
LINE
  8
0
 62
     0
 10
227.12
 20
93.9684
 30
0.0
 11
213.12
 21
93.9684
 31
0.0
  0
LINE
  8
0
 62
     0
 10
213.12
 20
93.9684
 30
0.0
 11
213.12
 21
107.968
 31
0.0
  0
LINE
  8
0
 62
     0
 10
194.07
 20
107.968
 30
0.0
 11
208.07
 21
107.968
 31
0.0
  0
LINE
  8
0
 62
     0
 10
208.07
 20
107.968
 30
0.0
 11
208.07
 21
93.9684
 31
0.0
  0
LINE
  8
0
 62
     0
 10
208.07
 20
93.9684
 30
0.0
 11
194.07
 21
93.9684
 31
0.0
  0
LINE
  8
0
 62
     0
 10
194.07
 20
93.9684
 30
0.0
 11
194.07
 21
107.968
 31
0.0
  0
LINE
  8
0
 62
     0
 10
175.02
 20
107.968
 30
0.0
 11
189.02
 21
107.968
 31
0.0
  0
LINE
  8
0
 62
     0
 10
189.02
 20
107.968
 30
0.0
 11
189.02
 21
93.9684
 31
0.0
  0
LINE
  8
0
 62
     0
 10
189.02
 20
93.9684
 30
0.0
 11
175.02
 21
93.9684
 31
0.0
  0
LINE
  8
0
 62
     0
 10
175.02
 20
93.9684
 30
0.0
 11
175.02
 21
107.968
 31
0.0
  0
LINE
  8
0
 62
     0
 10
155.97
 20
107.968
 30
0.0
 11
169.97
 21
107.968
 31
0.0
  0
LINE
  8
0
 62
     0
 10
169.97
 20
107.968
 30
0.0
 11
169.97
 21
93.9684
 31
0.0
  0
LINE
  8
0
 62
     0
 10
169.97
 20
93.9684
 30
0.0
 11
155.97
 21
93.9684
 31
0.0
  0
LINE
  8
0
 62
     0
 10
155.97
 20
93.9684
 30
0.0
 11
155.97
 21
107.968
 31
0.0
  0
LINE
  8
0
 62
     0
 10
136.92
 20
107.968
 30
0.0
 11
150.92
 21
107.968
 31
0.0
  0
LINE
  8
0
 62
     0
 10
150.92
 20
107.968
 30
0.0
 11
150.92
 21
93.9684
 31
0.0
  0
LINE
  8
0
 62
     0
 10
150.92
 20
93.9684
 30
0.0
 11
136.92
 21
93.9684
 31
0.0
  0
LINE
  8
0
 62
     0
 10
136.92
 20
93.9684
 30
0.0
 11
136.92
 21
107.968
 31
0.0
  0
LINE
  8
0
 62
     0
 10
117.87
 20
107.968
 30
0.0
 11
131.87
 21
107.968
 31
0.0
  0
LINE
  8
0
 62
     0
 10
131.87
 20
107.968
 30
0.0
 11
131.87
 21
93.9684
 31
0.0
  0
LINE
  8
0
 62
     0
 10
131.87
 20
93.9684
 30
0.0
 11
117.87
 21
93.9684
 31
0.0
  0
LINE
  8
0
 62
     0
 10
117.87
 20
93.9684
 30
0.0
 11
117.87
 21
107.968
 31
0.0
  0
LINE
  8
0
 62
     0
 10
98.8205
 20
107.968
 30
0.0
 11
112.82
 21
107.968
 31
0.0
  0
LINE
  8
0
 62
     0
 10
112.82
 20
107.968
 30
0.0
 11
112.82
 21
93.9684
 31
0.0
  0
LINE
  8
0
 62
     0
 10
112.82
 20
93.9684
 30
0.0
 11
98.8205
 21
93.9684
 31
0.0
  0
LINE
  8
0
 62
     0
 10
98.8205
 20
93.9684
 30
0.0
 11
98.8205
 21
107.968
 31
0.0
  0
LINE
  8
0
 62
     0
 10
79.7705
 20
107.968
 30
0.0
 11
93.7701
 21
107.968
 31
0.0
  0
LINE
  8
0
 62
     0
 10
93.7701
 20
107.968
 30
0.0
 11
93.7701
 21
93.9684
 31
0.0
  0
LINE
  8
0
 62
     0
 10
93.7701
 20
93.9684
 30
0.0
 11
79.7705
 21
93.9684
 31
0.0
  0
LINE
  8
0
 62
     0
 10
79.7705
 20
93.9684
 30
0.0
 11
79.7705
 21
107.968
 31
0.0
  0
LINE
  8
0
 62
     0
 10
60.7205
 20
107.968
 30
0.0
 11
74.7201
 21
107.968
 31
0.0
  0
LINE
  8
0
 62
     0
 10
74.7201
 20
107.968
 30
0.0
 11
74.7201
 21
93.9684
 31
0.0
  0
LINE
  8
0
 62
     0
 10
74.7201
 20
93.9684
 30
0.0
 11
60.7205
 21
93.9684
 31
0.0
  0
LINE
  8
0
 62
     0
 10
60.7205
 20
93.9684
 30
0.0
 11
60.7205
 21
107.968
 31
0.0
  0
LINE
  8
0
 62
     0
 10
32.1455
 20
107.968
 30
0.0
 11
46.1451
 21
107.968
 31
0.0
  0
LINE
  8
0
 62
     0
 10
46.1451
 20
107.968
 30
0.0
 11
46.1451
 21
93.9684
 31
0.0
  0
LINE
  8
0
 62
     0
 10
46.1451
 20
93.9684
 30
0.0
 11
32.1455
 21
93.9684
 31
0.0
  0
LINE
  8
0
 62
     0
 10
32.1455
 20
93.9684
 30
0.0
 11
32.1455
 21
107.968
 31
0.0
  0
LINE
  8
0
 62
     0
 10
6.13089
 20
120.42
 30
0.0
 11
5.71334
 21
120.208
 31
0.0
  0
LINE
  8
0
 62
     0
 10
5.71334
 20
120.208
 30
0.0
 11
5.38124
 21
119.876
 31
0.0
  0
LINE
  8
0
 62
     0
 10
5.38124
 20
119.876
 30
0.0
 11
5.16901
 21
119.458
 31
0.0
  0
LINE
  8
0
 62
     0
 10
5.16901
 20
119.458
 30
0.0
 11
5.09598
 21
118.994
 31
0.0
  0
LINE
  8
0
 62
     0
 10
5.09598
 20
118.994
 30
0.0
 11
5.16901
 21
118.531
 31
0.0
  0
LINE
  8
0
 62
     0
 10
5.16901
 20
118.531
 30
0.0
 11
5.38124
 21
118.113
 31
0.0
  0
LINE
  8
0
 62
     0
 10
5.38124
 20
118.113
 30
0.0
 11
5.71334
 21
117.781
 31
0.0
  0
LINE
  8
0
 62
     0
 10
5.71334
 20
117.781
 30
0.0
 11
6.13089
 21
117.567
 31
0.0
  0
LINE
  8
0
 62
     0
 10
6.13089
 20
117.567
 30
0.0
 11
6.59529
 21
117.493
 31
0.0
  0
LINE
  8
0
 62
     0
 10
6.59529
 20
117.493
 30
0.0
 11
7.05831
 21
117.567
 31
0.0
  0
LINE
  8
0
 62
     0
 10
7.05831
 20
117.567
 30
0.0
 11
7.47586
 21
117.781
 31
0.0
  0
LINE
  8
0
 62
     0
 10
7.47586
 20
117.781
 30
0.0
 11
7.80796
 21
118.113
 31
0.0
  0
LINE
  8
0
 62
     0
 10
7.80796
 20
118.113
 30
0.0
 11
8.02157
 21
118.531
 31
0.0
  0
LINE
  8
0
 62
     0
 10
8.02157
 20
118.531
 30
0.0
 11
8.09597
 21
118.994
 31
0.0
  0
LINE
  8
0
 62
     0
 10
8.09597
 20
118.994
 30
0.0
 11
8.02157
 21
119.458
 31
0.0
  0
LINE
  8
0
 62
     0
 10
8.02157
 20
119.458
 30
0.0
 11
7.80796
 21
119.876
 31
0.0
  0
LINE
  8
0
 62
     0
 10
7.80796
 20
119.876
 30
0.0
 11
7.47586
 21
120.208
 31
0.0
  0
LINE
  8
0
 62
     0
 10
7.47586
 20
120.208
 30
0.0
 11
7.05831
 21
120.42
 31
0.0
  0
LINE
  8
0
 62
     0
 10
7.05831
 20
120.42
 30
0.0
 11
6.59529
 21
120.493
 31
0.0
  0
LINE
  8
0
 62
     0
 10
6.59529
 20
120.493
 30
0.0
 11
6.13089
 21
120.42
 31
0.0
  0
LINE
  8
0
 62
     0
 10
356.983
 20
120.42
 30
0.0
 11
356.563
 21
120.208
 31
0.0
  0
LINE
  8
0
 62
     0
 10
356.563
 20
120.208
 30
0.0
 11
356.231
 21
119.876
 31
0.0
  0
LINE
  8
0
 62
     0
 10
356.231
 20
119.876
 30
0.0
 11
356.02
 21
119.458
 31
0.0
  0
LINE
  8
0
 62
     0
 10
356.02
 20
119.458
 30
0.0
 11
355.946
 21
118.994
 31
0.0
  0
LINE
  8
0
 62
     0
 10
355.946
 20
118.994
 30
0.0
 11
356.02
 21
118.531
 31
0.0
  0
LINE
  8
0
 62
     0
 10
356.02
 20
118.531
 30
0.0
 11
356.231
 21
118.113
 31
0.0
  0
LINE
  8
0
 62
     0
 10
356.231
 20
118.113
 30
0.0
 11
356.563
 21
117.781
 31
0.0
  0
LINE
  8
0
 62
     0
 10
356.563
 20
117.781
 30
0.0
 11
356.983
 21
117.567
 31
0.0
  0
LINE
  8
0
 62
     0
 10
356.983
 20
117.567
 30
0.0
 11
357.445
 21
117.493
 31
0.0
  0
LINE
  8
0
 62
     0
 10
357.445
 20
117.493
 30
0.0
 11
357.911
 21
117.567
 31
0.0
  0
LINE
  8
0
 62
     0
 10
357.911
 20
117.567
 30
0.0
 11
358.327
 21
117.781
 31
0.0
  0
LINE
  8
0
 62
     0
 10
358.327
 20
117.781
 30
0.0
 11
358.659
 21
118.113
 31
0.0
  0
LINE
  8
0
 62
     0
 10
358.659
 20
118.113
 30
0.0
 11
358.874
 21
118.531
 31
0.0
  0
LINE
  8
0
 62
     0
 10
358.874
 20
118.531
 30
0.0
 11
358.944
 21
118.994
 31
0.0
  0
LINE
  8
0
 62
     0
 10
358.944
 20
118.994
 30
0.0
 11
358.874
 21
119.458
 31
0.0
  0
LINE
  8
0
 62
     0
 10
358.874
 20
119.458
 30
0.0
 11
358.659
 21
119.876
 31
0.0
  0
LINE
  8
0
 62
     0
 10
358.659
 20
119.876
 30
0.0
 11
358.327
 21
120.208
 31
0.0
  0
LINE
  8
0
 62
     0
 10
358.327
 20
120.208
 30
0.0
 11
357.911
 21
120.42
 31
0.0
  0
LINE
  8
0
 62
     0
 10
357.911
 20
120.42
 30
0.0
 11
357.445
 21
120.493
 31
0.0
  0
LINE
  8
0
 62
     0
 10
357.445
 20
120.493
 30
0.0
 11
356.983
 21
120.42
 31
0.0
  0
LINE
  8
0
 62
     0
 10
269.27
 20
120.42
 30
0.0
 11
268.851
 21
120.208
 31
0.0
  0
LINE
  8
0
 62
     0
 10
268.851
 20
120.208
 30
0.0
 11
268.519
 21
119.876
 31
0.0
  0
LINE
  8
0
 62
     0
 10
268.519
 20
119.876
 30
0.0
 11
268.307
 21
119.458
 31
0.0
  0
LINE
  8
0
 62
     0
 10
268.307
 20
119.458
 30
0.0
 11
268.234
 21
118.994
 31
0.0
  0
LINE
  8
0
 62
     0
 10
268.234
 20
118.994
 30
0.0
 11
268.307
 21
118.531
 31
0.0
  0
LINE
  8
0
 62
     0
 10
268.307
 20
118.531
 30
0.0
 11
268.519
 21
118.113
 31
0.0
  0
LINE
  8
0
 62
     0
 10
268.519
 20
118.113
 30
0.0
 11
268.851
 21
117.781
 31
0.0
  0
LINE
  8
0
 62
     0
 10
268.851
 20
117.781
 30
0.0
 11
269.27
 21
117.567
 31
0.0
  0
LINE
  8
0
 62
     0
 10
269.27
 20
117.567
 30
0.0
 11
269.733
 21
117.493
 31
0.0
  0
LINE
  8
0
 62
     0
 10
269.733
 20
117.493
 30
0.0
 11
270.196
 21
117.567
 31
0.0
  0
LINE
  8
0
 62
     0
 10
270.196
 20
117.567
 30
0.0
 11
270.615
 21
117.781
 31
0.0
  0
LINE
  8
0
 62
     0
 10
270.615
 20
117.781
 30
0.0
 11
270.947
 21
118.113
 31
0.0
  0
LINE
  8
0
 62
     0
 10
270.947
 20
118.113
 30
0.0
 11
271.159
 21
118.531
 31
0.0
  0
LINE
  8
0
 62
     0
 10
271.159
 20
118.531
 30
0.0
 11
271.234
 21
118.994
 31
0.0
  0
LINE
  8
0
 62
     0
 10
271.234
 20
118.994
 30
0.0
 11
271.159
 21
119.458
 31
0.0
  0
LINE
  8
0
 62
     0
 10
271.159
 20
119.458
 30
0.0
 11
270.947
 21
119.876
 31
0.0
  0
LINE
  8
0
 62
     0
 10
270.947
 20
119.876
 30
0.0
 11
270.615
 21
120.208
 31
0.0
  0
LINE
  8
0
 62
     0
 10
270.615
 20
120.208
 30
0.0
 11
270.196
 21
120.42
 31
0.0
  0
LINE
  8
0
 62
     0
 10
270.196
 20
120.42
 30
0.0
 11
269.733
 21
120.493
 31
0.0
  0
LINE
  8
0
 62
     0
 10
269.733
 20
120.493
 30
0.0
 11
269.27
 21
120.42
 31
0.0
  0
LINE
  8
0
 62
     0
 10
181.556
 20
120.42
 30
0.0
 11
181.139
 21
120.208
 31
0.0
  0
LINE
  8
0
 62
     0
 10
181.139
 20
120.208
 30
0.0
 11
180.807
 21
119.876
 31
0.0
  0
LINE
  8
0
 62
     0
 10
180.807
 20
119.876
 30
0.0
 11
180.593
 21
119.458
 31
0.0
  0
LINE
  8
0
 62
     0
 10
180.593
 20
119.458
 30
0.0
 11
180.52
 21
118.994
 31
0.0
  0
LINE
  8
0
 62
     0
 10
180.52
 20
118.994
 30
0.0
 11
180.593
 21
118.531
 31
0.0
  0
LINE
  8
0
 62
     0
 10
180.593
 20
118.531
 30
0.0
 11
180.807
 21
118.113
 31
0.0
  0
LINE
  8
0
 62
     0
 10
180.807
 20
118.113
 30
0.0
 11
181.139
 21
117.781
 31
0.0
  0
LINE
  8
0
 62
     0
 10
181.139
 20
117.781
 30
0.0
 11
181.556
 21
117.567
 31
0.0
  0
LINE
  8
0
 62
     0
 10
181.556
 20
117.567
 30
0.0
 11
182.021
 21
117.493
 31
0.0
  0
LINE
  8
0
 62
     0
 10
182.021
 20
117.493
 30
0.0
 11
182.484
 21
117.567
 31
0.0
  0
LINE
  8
0
 62
     0
 10
182.484
 20
117.567
 30
0.0
 11
182.903
 21
117.781
 31
0.0
  0
LINE
  8
0
 62
     0
 10
182.903
 20
117.781
 30
0.0
 11
183.235
 21
118.113
 31
0.0
  0
LINE
  8
0
 62
     0
 10
183.235
 20
118.113
 30
0.0
 11
183.447
 21
118.531
 31
0.0
  0
LINE
  8
0
 62
     0
 10
183.447
 20
118.531
 30
0.0
 11
183.52
 21
118.994
 31
0.0
  0
LINE
  8
0
 62
     0
 10
183.52
 20
118.994
 30
0.0
 11
183.447
 21
119.458
 31
0.0
  0
LINE
  8
0
 62
     0
 10
183.447
 20
119.458
 30
0.0
 11
183.235
 21
119.876
 31
0.0
  0
LINE
  8
0
 62
     0
 10
183.235
 20
119.876
 30
0.0
 11
182.903
 21
120.208
 31
0.0
  0
LINE
  8
0
 62
     0
 10
182.903
 20
120.208
 30
0.0
 11
182.484
 21
120.42
 31
0.0
  0
LINE
  8
0
 62
     0
 10
182.484
 20
120.42
 30
0.0
 11
182.021
 21
120.493
 31
0.0
  0
LINE
  8
0
 62
     0
 10
182.021
 20
120.493
 30
0.0
 11
181.556
 21
120.42
 31
0.0
  0
LINE
  8
0
 62
     0
 10
93.8445
 20
120.42
 30
0.0
 11
93.4268
 21
120.208
 31
0.0
  0
LINE
  8
0
 62
     0
 10
93.4268
 20
120.208
 30
0.0
 11
93.0949
 21
119.876
 31
0.0
  0
LINE
  8
0
 62
     0
 10
93.0949
 20
119.876
 30
0.0
 11
92.8811
 21
119.458
 31
0.0
  0
LINE
  8
0
 62
     0
 10
92.8811
 20
119.458
 30
0.0
 11
92.8081
 21
118.994
 31
0.0
  0
LINE
  8
0
 62
     0
 10
92.8081
 20
118.994
 30
0.0
 11
92.8811
 21
118.531
 31
0.0
  0
LINE
  8
0
 62
     0
 10
92.8811
 20
118.531
 30
0.0
 11
93.0949
 21
118.113
 31
0.0
  0
LINE
  8
0
 62
     0
 10
93.0949
 20
118.113
 30
0.0
 11
93.4268
 21
117.781
 31
0.0
  0
LINE
  8
0
 62
     0
 10
93.4268
 20
117.781
 30
0.0
 11
93.8445
 21
117.567
 31
0.0
  0
LINE
  8
0
 62
     0
 10
93.8445
 20
117.567
 30
0.0
 11
94.3074
 21
117.493
 31
0.0
  0
LINE
  8
0
 62
     0
 10
94.3074
 20
117.493
 30
0.0
 11
94.772
 21
117.567
 31
0.0
  0
LINE
  8
0
 62
     0
 10
94.772
 20
117.567
 30
0.0
 11
95.1893
 21
117.781
 31
0.0
  0
LINE
  8
0
 62
     0
 10
95.1893
 20
117.781
 30
0.0
 11
95.5216
 21
118.113
 31
0.0
  0
LINE
  8
0
 62
     0
 10
95.5216
 20
118.113
 30
0.0
 11
95.7351
 21
118.531
 31
0.0
  0
LINE
  8
0
 62
     0
 10
95.7351
 20
118.531
 30
0.0
 11
95.8081
 21
118.994
 31
0.0
  0
LINE
  8
0
 62
     0
 10
95.8081
 20
118.994
 30
0.0
 11
95.7351
 21
119.458
 31
0.0
  0
LINE
  8
0
 62
     0
 10
95.7351
 20
119.458
 30
0.0
 11
95.5216
 21
119.876
 31
0.0
  0
LINE
  8
0
 62
     0
 10
95.5216
 20
119.876
 30
0.0
 11
95.1893
 21
120.208
 31
0.0
  0
LINE
  8
0
 62
     0
 10
95.1893
 20
120.208
 30
0.0
 11
94.772
 21
120.42
 31
0.0
  0
LINE
  8
0
 62
     0
 10
94.772
 20
120.42
 30
0.0
 11
94.3074
 21
120.493
 31
0.0
  0
LINE
  8
0
 62
     0
 10
94.3074
 20
120.493
 30
0.0
 11
93.8445
 21
120.42
 31
0.0
  0
ENDSEC
  0
EOF
