  0
SECTION
  2
HEADER
  9
$ACADVER
  1
AC1009
  9
$EXTMIN
 10
0.0
 20
0.0
 30
0.0
  9
$EXTMAX
 10
1000.0
 20
1000.0
 30
0.0
  9
$FILLMODE
 70
 0
  9
$SPLFRAME
 70
 1
  0
ENDSEC
  0
SECTION
  2
TABLES
  0
TABLE
  2
LAYER
 70
1
  0
LAYER
  2
0
 70
     0
 62
     7
  6
CONTINUOUS
  0
ENDTAB
  0
ENDSEC
  0
SECTION
  2
ENTITIES
  0
LINE
  8
0
 62
     0
 10
344.422
 20
125.494
 30
0.0
 11
345.205
 21
125.464
 31
0.0
  0
LINE
  8
0
 62
     0
 10
345.205
 20
125.464
 30
0.0
 11
345.985
 21
125.37
 31
0.0
  0
LINE
  8
0
 62
     0
 10
345.985
 20
125.37
 30
0.0
 11
346.756
 21
125.217
 31
0.0
  0
LINE
  8
0
 62
     0
 10
346.756
 20
125.217
 30
0.0
 11
347.511
 21
125.005
 31
0.0
  0
LINE
  8
0
 62
     0
 10
347.511
 20
125.005
 30
0.0
 11
348.248
 21
124.732
 31
0.0
  0
LINE
  8
0
 62
     0
 10
348.248
 20
124.732
 30
0.0
 11
348.961
 21
124.404
 31
0.0
  0
LINE
  8
0
 62
     0
 10
348.961
 20
124.404
 30
0.0
 11
349.645
 21
124.021
 31
0.0
  0
LINE
  8
0
 62
     0
 10
349.645
 20
124.021
 30
0.0
 11
350.299
 21
123.584
 31
0.0
  0
LINE
  8
0
 62
     0
 10
350.299
 20
123.584
 30
0.0
 11
350.916
 21
123.099
 31
0.0
  0
LINE
  8
0
 62
     0
 10
350.916
 20
123.099
 30
0.0
 11
351.492
 21
122.566
 31
0.0
  0
LINE
  8
0
 62
     0
 10
351.492
 20
122.566
 30
0.0
 11
352.025
 21
121.988
 31
0.0
  0
LINE
  8
0
 62
     0
 10
352.025
 20
121.988
 30
0.0
 11
352.512
 21
121.371
 31
0.0
  0
LINE
  8
0
 62
     0
 10
352.512
 20
121.371
 30
0.0
 11
352.947
 21
120.719
 31
0.0
  0
LINE
  8
0
 62
     0
 10
352.947
 20
120.719
 30
0.0
 11
353.332
 21
120.034
 31
0.0
  0
LINE
  8
0
 62
     0
 10
353.332
 20
120.034
 30
0.0
 11
353.66
 21
119.32
 31
0.0
  0
LINE
  8
0
 62
     0
 10
353.66
 20
119.32
 30
0.0
 11
353.931
 21
118.584
 31
0.0
  0
LINE
  8
0
 62
     0
 10
353.931
 20
118.584
 30
0.0
 11
354.147
 21
117.828
 31
0.0
  0
LINE
  8
0
 62
     0
 10
354.147
 20
117.828
 30
0.0
 11
354.298
 21
117.059
 31
0.0
  0
LINE
  8
0
 62
     0
 10
354.298
 20
117.059
 30
0.0
 11
354.39
 21
116.279
 31
0.0
  0
LINE
  8
0
 62
     0
 10
354.39
 20
116.279
 30
0.0
 11
354.422
 21
115.493
 31
0.0
  0
LINE
  8
0
 62
     0
 10
354.422
 20
115.493
 30
0.0
 11
354.422
 21
10.243
 31
0.0
  0
LINE
  8
0
 62
     0
 10
354.422
 20
10.243
 30
0.0
 11
354.39
 21
9.45885
 31
0.0
  0
LINE
  8
0
 62
     0
 10
354.39
 20
9.45885
 30
0.0
 11
354.298
 21
8.6789
 31
0.0
  0
LINE
  8
0
 62
     0
 10
354.298
 20
8.6789
 30
0.0
 11
354.147
 21
7.90857
 31
0.0
  0
LINE
  8
0
 62
     0
 10
354.147
 20
7.90857
 30
0.0
 11
353.931
 21
7.152
 31
0.0
  0
LINE
  8
0
 62
     0
 10
353.931
 20
7.152
 30
0.0
 11
353.66
 21
6.41615
 31
0.0
  0
LINE
  8
0
 62
     0
 10
353.66
 20
6.41615
 30
0.0
 11
353.332
 21
5.70371
 31
0.0
  0
LINE
  8
0
 62
     0
 10
353.332
 20
5.70371
 30
0.0
 11
352.947
 21
5.01883
 31
0.0
  0
LINE
  8
0
 62
     0
 10
352.947
 20
5.01883
 30
0.0
 11
352.512
 21
4.36563
 31
0.0
  0
LINE
  8
0
 62
     0
 10
352.512
 20
4.36563
 30
0.0
 11
352.025
 21
3.74826
 31
0.0
  0
LINE
  8
0
 62
     0
 10
352.025
 20
3.74826
 30
0.0
 11
351.492
 21
3.17087
 31
0.0
  0
LINE
  8
0
 62
     0
 10
351.492
 20
3.17087
 30
0.0
 11
350.916
 21
2.63894
 31
0.0
  0
LINE
  8
0
 62
     0
 10
350.916
 20
2.63894
 30
0.0
 11
350.299
 21
2.15249
 31
0.0
  0
LINE
  8
0
 62
     0
 10
350.299
 20
2.15249
 30
0.0
 11
349.645
 21
1.71704
 31
0.0
  0
LINE
  8
0
 62
     0
 10
349.645
 20
1.71704
 30
0.0
 11
348.961
 21
1.33256
 31
0.0
  0
LINE
  8
0
 62
     0
 10
348.961
 20
1.33256
 30
0.0
 11
348.248
 21
1.00459
 31
0.0
  0
LINE
  8
0
 62
     0
 10
348.248
 20
1.00459
 30
0.0
 11
347.511
 21
0.731739
 31
0.0
  0
LINE
  8
0
 62
     0
 10
347.511
 20
0.731739
 30
0.0
 11
346.756
 21
0.520898
 31
0.0
  0
LINE
  8
0
 62
     0
 10
346.756
 20
0.520898
 30
0.0
 11
345.985
 21
0.366557
 31
0.0
  0
LINE
  8
0
 62
     0
 10
345.985
 20
0.366557
 30
0.0
 11
345.205
 21
0.272852
 31
0.0
  0
LINE
  8
0
 62
     0
 10
345.205
 20
0.272852
 30
0.0
 11
344.422
 21
0.242535
 31
0.0
  0
LINE
  8
0
 62
     0
 10
344.422
 20
0.242535
 30
0.0
 11
10.0955
 21
0.243913
 31
0.0
  0
LINE
  8
0
 62
     0
 10
10.0955
 20
0.243913
 30
0.0
 11
9.31002
 21
0.272852
 31
0.0
  0
LINE
  8
0
 62
     0
 10
9.31002
 20
0.272852
 30
0.0
 11
8.53006
 21
0.366557
 31
0.0
  0
LINE
  8
0
 62
     0
 10
8.53006
 20
0.366557
 30
0.0
 11
7.76111
 21
0.520898
 31
0.0
  0
LINE
  8
0
 62
     0
 10
7.76111
 20
0.520898
 30
0.0
 11
7.00458
 21
0.731739
 31
0.0
  0
LINE
  8
0
 62
     0
 10
7.00458
 20
0.731739
 30
0.0
 11
6.26869
 21
1.00459
 31
0.0
  0
LINE
  8
0
 62
     0
 10
6.26869
 20
1.00459
 30
0.0
 11
5.55487
 21
1.33256
 31
0.0
  0
LINE
  8
0
 62
     0
 10
5.55487
 20
1.33256
 30
0.0
 11
4.86999
 21
1.71704
 31
0.0
  0
LINE
  8
0
 62
     0
 10
4.86999
 20
1.71704
 30
0.0
 11
4.21816
 21
2.15249
 31
0.0
  0
LINE
  8
0
 62
     0
 10
4.21816
 20
2.15249
 30
0.0
 11
3.6008
 21
2.63894
 31
0.0
  0
LINE
  8
0
 62
     0
 10
3.6008
 20
2.63894
 30
0.0
 11
3.02341
 21
3.17087
 31
0.0
  0
LINE
  8
0
 62
     0
 10
3.02341
 20
3.17087
 30
0.0
 11
2.49011
 21
3.74826
 31
0.0
  0
LINE
  8
0
 62
     0
 10
2.49011
 20
3.74826
 30
0.0
 11
2.00504
 21
4.36563
 31
0.0
  0
LINE
  8
0
 62
     0
 10
2.00504
 20
4.36563
 30
0.0
 11
1.56821
 21
5.01883
 31
0.0
  0
LINE
  8
0
 62
     0
 10
1.56821
 20
5.01883
 30
0.0
 11
1.18511
 21
5.70371
 31
0.0
  0
LINE
  8
0
 62
     0
 10
1.18511
 20
5.70371
 30
0.0
 11
0.857141
 21
6.41615
 31
0.0
  0
LINE
  8
0
 62
     0
 10
0.857141
 20
6.41615
 30
0.0
 11
0.584288
 21
7.152
 31
0.0
  0
LINE
  8
0
 62
     0
 10
0.584288
 20
7.152
 30
0.0
 11
0.372071
 21
7.90857
 31
0.0
  0
LINE
  8
0
 62
     0
 10
0.372071
 20
7.90857
 30
0.0
 11
0.219108
 21
8.6789
 31
0.0
  0
LINE
  8
0
 62
     0
 10
0.219108
 20
8.6789
 30
0.0
 11
0.125402
 21
9.45885
 31
0.0
  0
LINE
  8
0
 62
     0
 10
0.125402
 20
9.45885
 30
0.0
 11
0.0950846
 21
10.243
 31
0.0
  0
LINE
  8
0
 62
     0
 10
0.0950846
 20
10.243
 30
0.0
 11
0.0950846
 21
115.493
 31
0.0
  0
LINE
  8
0
 62
     0
 10
0.0950846
 20
115.493
 30
0.0
 11
0.125402
 21
116.279
 31
0.0
  0
LINE
  8
0
 62
     0
 10
0.125402
 20
116.279
 30
0.0
 11
0.219108
 21
117.059
 31
0.0
  0
LINE
  8
0
 62
     0
 10
0.219108
 20
117.059
 30
0.0
 11
0.372071
 21
117.828
 31
0.0
  0
LINE
  8
0
 62
     0
 10
0.372071
 20
117.828
 30
0.0
 11
0.584288
 21
118.584
 31
0.0
  0
LINE
  8
0
 62
     0
 10
0.584288
 20
118.584
 30
0.0
 11
0.857141
 21
119.32
 31
0.0
  0
LINE
  8
0
 62
     0
 10
0.857141
 20
119.32
 30
0.0
 11
1.18511
 21
120.034
 31
0.0
  0
LINE
  8
0
 62
     0
 10
1.18511
 20
120.034
 30
0.0
 11
1.56821
 21
120.719
 31
0.0
  0
LINE
  8
0
 62
     0
 10
1.56821
 20
120.719
 30
0.0
 11
2.00504
 21
121.371
 31
0.0
  0
LINE
  8
0
 62
     0
 10
2.00504
 20
121.371
 30
0.0
 11
2.49011
 21
121.988
 31
0.0
  0
LINE
  8
0
 62
     0
 10
2.49011
 20
121.988
 30
0.0
 11
3.02341
 21
122.566
 31
0.0
  0
LINE
  8
0
 62
     0
 10
3.02341
 20
122.566
 30
0.0
 11
3.6008
 21
123.099
 31
0.0
  0
LINE
  8
0
 62
     0
 10
3.6008
 20
123.099
 30
0.0
 11
4.21816
 21
123.584
 31
0.0
  0
LINE
  8
0
 62
     0
 10
4.21816
 20
123.584
 30
0.0
 11
4.86999
 21
124.021
 31
0.0
  0
LINE
  8
0
 62
     0
 10
4.86999
 20
124.021
 30
0.0
 11
5.55487
 21
124.404
 31
0.0
  0
LINE
  8
0
 62
     0
 10
5.55487
 20
124.404
 30
0.0
 11
6.26869
 21
124.732
 31
0.0
  0
LINE
  8
0
 62
     0
 10
6.26869
 20
124.732
 30
0.0
 11
7.00458
 21
125.005
 31
0.0
  0
LINE
  8
0
 62
     0
 10
7.00458
 20
125.005
 30
0.0
 11
7.76111
 21
125.217
 31
0.0
  0
LINE
  8
0
 62
     0
 10
7.76111
 20
125.217
 30
0.0
 11
8.53006
 21
125.37
 31
0.0
  0
LINE
  8
0
 62
     0
 10
8.53006
 20
125.37
 30
0.0
 11
9.31002
 21
125.464
 31
0.0
  0
LINE
  8
0
 62
     0
 10
9.31002
 20
125.464
 30
0.0
 11
10.0955
 21
125.494
 31
0.0
  0
LINE
  8
0
 62
     0
 10
10.0955
 20
125.494
 30
0.0
 11
344.422
 21
125.494
 31
0.0
  0
LINE
  8
0
 62
     0
 10
6.13089
 20
8.16903
 30
0.0
 11
5.71334
 21
7.9568
 31
0.0
  0
LINE
  8
0
 62
     0
 10
5.71334
 20
7.9568
 30
0.0
 11
5.38124
 21
7.62469
 31
0.0
  0
LINE
  8
0
 62
     0
 10
5.38124
 20
7.62469
 30
0.0
 11
5.16901
 21
7.20577
 31
0.0
  0
LINE
  8
0
 62
     0
 10
5.16901
 20
7.20577
 30
0.0
 11
5.09598
 21
6.74275
 31
0.0
  0
LINE
  8
0
 62
     0
 10
5.09598
 20
6.74275
 30
0.0
 11
5.16901
 21
6.27973
 31
0.0
  0
LINE
  8
0
 62
     0
 10
5.16901
 20
6.27973
 30
0.0
 11
5.38124
 21
5.8608
 31
0.0
  0
LINE
  8
0
 62
     0
 10
5.38124
 20
5.8608
 30
0.0
 11
5.71334
 21
5.53007
 31
0.0
  0
LINE
  8
0
 62
     0
 10
5.71334
 20
5.53007
 30
0.0
 11
6.13089
 21
5.31647
 31
0.0
  0
LINE
  8
0
 62
     0
 10
6.13089
 20
5.31647
 30
0.0
 11
6.59529
 21
5.24344
 31
0.0
  0
LINE
  8
0
 62
     0
 10
6.59529
 20
5.24344
 30
0.0
 11
7.05831
 21
5.31647
 31
0.0
  0
LINE
  8
0
 62
     0
 10
7.05831
 20
5.31647
 30
0.0
 11
7.47586
 21
5.53007
 31
0.0
  0
LINE
  8
0
 62
     0
 10
7.47586
 20
5.53007
 30
0.0
 11
7.80796
 21
5.8608
 31
0.0
  0
LINE
  8
0
 62
     0
 10
7.80796
 20
5.8608
 30
0.0
 11
8.02157
 21
6.27973
 31
0.0
  0
LINE
  8
0
 62
     0
 10
8.02157
 20
6.27973
 30
0.0
 11
8.09597
 21
6.74275
 31
0.0
  0
LINE
  8
0
 62
     0
 10
8.09597
 20
6.74275
 30
0.0
 11
8.02157
 21
7.20577
 31
0.0
  0
LINE
  8
0
 62
     0
 10
8.02157
 20
7.20577
 30
0.0
 11
7.80796
 21
7.62469
 31
0.0
  0
LINE
  8
0
 62
     0
 10
7.80796
 20
7.62469
 30
0.0
 11
7.47586
 21
7.9568
 31
0.0
  0
LINE
  8
0
 62
     0
 10
7.47586
 20
7.9568
 30
0.0
 11
7.05831
 21
8.16903
 31
0.0
  0
LINE
  8
0
 62
     0
 10
7.05831
 20
8.16903
 30
0.0
 11
6.59529
 21
8.24343
 31
0.0
  0
LINE
  8
0
 62
     0
 10
6.59529
 20
8.24343
 30
0.0
 11
6.13089
 21
8.16903
 31
0.0
  0
LINE
  8
0
 62
     0
 10
91.4633
 20
8.16903
 30
0.0
 11
91.0442
 21
7.9568
 31
0.0
  0
LINE
  8
0
 62
     0
 10
91.0442
 20
7.9568
 30
0.0
 11
90.7122
 21
7.62469
 31
0.0
  0
LINE
  8
0
 62
     0
 10
90.7122
 20
7.62469
 30
0.0
 11
90.4998
 21
7.20577
 31
0.0
  0
LINE
  8
0
 62
     0
 10
90.4998
 20
7.20577
 30
0.0
 11
90.4268
 21
6.74275
 31
0.0
  0
LINE
  8
0
 62
     0
 10
90.4268
 20
6.74275
 30
0.0
 11
90.4998
 21
6.27973
 31
0.0
  0
LINE
  8
0
 62
     0
 10
90.4998
 20
6.27973
 30
0.0
 11
90.7122
 21
5.8608
 31
0.0
  0
LINE
  8
0
 62
     0
 10
90.7122
 20
5.8608
 30
0.0
 11
91.0442
 21
5.53007
 31
0.0
  0
LINE
  8
0
 62
     0
 10
91.0442
 20
5.53007
 30
0.0
 11
91.4633
 21
5.31647
 31
0.0
  0
LINE
  8
0
 62
     0
 10
91.4633
 20
5.31647
 30
0.0
 11
91.9261
 21
5.24344
 31
0.0
  0
LINE
  8
0
 62
     0
 10
91.9261
 20
5.24344
 30
0.0
 11
92.3907
 21
5.31647
 31
0.0
  0
LINE
  8
0
 62
     0
 10
92.3907
 20
5.31647
 30
0.0
 11
92.8081
 21
5.53007
 31
0.0
  0
LINE
  8
0
 62
     0
 10
92.8081
 20
5.53007
 30
0.0
 11
93.1404
 21
5.8608
 31
0.0
  0
LINE
  8
0
 62
     0
 10
93.1404
 20
5.8608
 30
0.0
 11
93.3538
 21
6.27973
 31
0.0
  0
LINE
  8
0
 62
     0
 10
93.3538
 20
6.27973
 30
0.0
 11
93.4268
 21
6.74275
 31
0.0
  0
LINE
  8
0
 62
     0
 10
93.4268
 20
6.74275
 30
0.0
 11
93.3538
 21
7.20577
 31
0.0
  0
LINE
  8
0
 62
     0
 10
93.3538
 20
7.20577
 30
0.0
 11
93.1404
 21
7.62469
 31
0.0
  0
LINE
  8
0
 62
     0
 10
93.1404
 20
7.62469
 30
0.0
 11
92.8081
 21
7.9568
 31
0.0
  0
LINE
  8
0
 62
     0
 10
92.8081
 20
7.9568
 30
0.0
 11
92.3907
 21
8.16903
 31
0.0
  0
LINE
  8
0
 62
     0
 10
92.3907
 20
8.16903
 30
0.0
 11
91.9261
 21
8.24343
 31
0.0
  0
LINE
  8
0
 62
     0
 10
91.9261
 20
8.24343
 30
0.0
 11
91.4633
 21
8.16903
 31
0.0
  0
LINE
  8
0
 62
     0
 10
176.794
 20
8.16903
 30
0.0
 11
176.377
 21
7.9568
 31
0.0
  0
LINE
  8
0
 62
     0
 10
176.377
 20
7.9568
 30
0.0
 11
176.044
 21
7.62469
 31
0.0
  0
LINE
  8
0
 62
     0
 10
176.044
 20
7.62469
 30
0.0
 11
175.832
 21
7.20577
 31
0.0
  0
LINE
  8
0
 62
     0
 10
175.832
 20
7.20577
 30
0.0
 11
175.759
 21
6.74275
 31
0.0
  0
LINE
  8
0
 62
     0
 10
175.759
 20
6.74275
 30
0.0
 11
175.832
 21
6.27973
 31
0.0
  0
LINE
  8
0
 62
     0
 10
175.832
 20
6.27973
 30
0.0
 11
176.044
 21
5.8608
 31
0.0
  0
LINE
  8
0
 62
     0
 10
176.044
 20
5.8608
 30
0.0
 11
176.377
 21
5.53007
 31
0.0
  0
LINE
  8
0
 62
     0
 10
176.377
 20
5.53007
 30
0.0
 11
176.794
 21
5.31647
 31
0.0
  0
LINE
  8
0
 62
     0
 10
176.794
 20
5.31647
 30
0.0
 11
177.258
 21
5.24344
 31
0.0
  0
LINE
  8
0
 62
     0
 10
177.258
 20
5.24344
 30
0.0
 11
177.721
 21
5.31647
 31
0.0
  0
LINE
  8
0
 62
     0
 10
177.721
 20
5.31647
 30
0.0
 11
178.139
 21
5.53007
 31
0.0
  0
LINE
  8
0
 62
     0
 10
178.139
 20
5.53007
 30
0.0
 11
178.471
 21
5.8608
 31
0.0
  0
LINE
  8
0
 62
     0
 10
178.471
 20
5.8608
 30
0.0
 11
178.685
 21
6.27973
 31
0.0
  0
LINE
  8
0
 62
     0
 10
178.685
 20
6.27973
 30
0.0
 11
178.759
 21
6.74275
 31
0.0
  0
LINE
  8
0
 62
     0
 10
178.759
 20
6.74275
 30
0.0
 11
178.685
 21
7.20577
 31
0.0
  0
LINE
  8
0
 62
     0
 10
178.685
 20
7.20577
 30
0.0
 11
178.471
 21
7.62469
 31
0.0
  0
LINE
  8
0
 62
     0
 10
178.471
 20
7.62469
 30
0.0
 11
178.139
 21
7.9568
 31
0.0
  0
LINE
  8
0
 62
     0
 10
178.139
 20
7.9568
 30
0.0
 11
177.721
 21
8.16903
 31
0.0
  0
LINE
  8
0
 62
     0
 10
177.721
 20
8.16903
 30
0.0
 11
177.258
 21
8.24343
 31
0.0
  0
LINE
  8
0
 62
     0
 10
177.258
 20
8.24343
 30
0.0
 11
176.794
 21
8.16903
 31
0.0
  0
LINE
  8
0
 62
     0
 10
262.125
 20
8.16903
 30
0.0
 11
261.707
 21
7.9568
 31
0.0
  0
LINE
  8
0
 62
     0
 10
261.707
 20
7.9568
 30
0.0
 11
261.375
 21
7.62469
 31
0.0
  0
LINE
  8
0
 62
     0
 10
261.375
 20
7.62469
 30
0.0
 11
261.163
 21
7.20577
 31
0.0
  0
LINE
  8
0
 62
     0
 10
261.163
 20
7.20577
 30
0.0
 11
261.09
 21
6.74275
 31
0.0
  0
LINE
  8
0
 62
     0
 10
261.09
 20
6.74275
 30
0.0
 11
261.163
 21
6.27973
 31
0.0
  0
LINE
  8
0
 62
     0
 10
261.163
 20
6.27973
 30
0.0
 11
261.375
 21
5.8608
 31
0.0
  0
LINE
  8
0
 62
     0
 10
261.375
 20
5.8608
 30
0.0
 11
261.707
 21
5.53007
 31
0.0
  0
LINE
  8
0
 62
     0
 10
261.707
 20
5.53007
 30
0.0
 11
262.125
 21
5.31647
 31
0.0
  0
LINE
  8
0
 62
     0
 10
262.125
 20
5.31647
 30
0.0
 11
262.589
 21
5.24344
 31
0.0
  0
LINE
  8
0
 62
     0
 10
262.589
 20
5.24344
 30
0.0
 11
263.054
 21
5.31647
 31
0.0
  0
LINE
  8
0
 62
     0
 10
263.054
 20
5.31647
 30
0.0
 11
263.471
 21
5.53007
 31
0.0
  0
LINE
  8
0
 62
     0
 10
263.471
 20
5.53007
 30
0.0
 11
263.803
 21
5.8608
 31
0.0
  0
LINE
  8
0
 62
     0
 10
263.803
 20
5.8608
 30
0.0
 11
264.017
 21
6.27973
 31
0.0
  0
LINE
  8
0
 62
     0
 10
264.017
 20
6.27973
 30
0.0
 11
264.09
 21
6.74275
 31
0.0
  0
LINE
  8
0
 62
     0
 10
264.09
 20
6.74275
 30
0.0
 11
264.017
 21
7.20577
 31
0.0
  0
LINE
  8
0
 62
     0
 10
264.017
 20
7.20577
 30
0.0
 11
263.803
 21
7.62469
 31
0.0
  0
LINE
  8
0
 62
     0
 10
263.803
 20
7.62469
 30
0.0
 11
263.471
 21
7.9568
 31
0.0
  0
LINE
  8
0
 62
     0
 10
263.471
 20
7.9568
 30
0.0
 11
263.054
 21
8.16903
 31
0.0
  0
LINE
  8
0
 62
     0
 10
263.054
 20
8.16903
 30
0.0
 11
262.589
 21
8.24343
 31
0.0
  0
LINE
  8
0
 62
     0
 10
262.589
 20
8.24343
 30
0.0
 11
262.125
 21
8.16903
 31
0.0
  0
LINE
  8
0
 62
     0
 10
347.457
 20
8.16903
 30
0.0
 11
347.039
 21
7.9568
 31
0.0
  0
LINE
  8
0
 62
     0
 10
347.039
 20
7.9568
 30
0.0
 11
346.708
 21
7.62469
 31
0.0
  0
LINE
  8
0
 62
     0
 10
346.708
 20
7.62469
 30
0.0
 11
346.494
 21
7.20577
 31
0.0
  0
LINE
  8
0
 62
     0
 10
346.494
 20
7.20577
 30
0.0
 11
346.421
 21
6.74275
 31
0.0
  0
LINE
  8
0
 62
     0
 10
346.421
 20
6.74275
 30
0.0
 11
346.494
 21
6.27973
 31
0.0
  0
LINE
  8
0
 62
     0
 10
346.494
 20
6.27973
 30
0.0
 11
346.708
 21
5.8608
 31
0.0
  0
LINE
  8
0
 62
     0
 10
346.708
 20
5.8608
 30
0.0
 11
347.039
 21
5.53007
 31
0.0
  0
LINE
  8
0
 62
     0
 10
347.039
 20
5.53007
 30
0.0
 11
347.457
 21
5.31647
 31
0.0
  0
LINE
  8
0
 62
     0
 10
347.457
 20
5.31647
 30
0.0
 11
347.921
 21
5.24344
 31
0.0
  0
LINE
  8
0
 62
     0
 10
347.921
 20
5.24344
 30
0.0
 11
348.385
 21
5.31647
 31
0.0
  0
LINE
  8
0
 62
     0
 10
348.385
 20
5.31647
 30
0.0
 11
348.802
 21
5.53007
 31
0.0
  0
LINE
  8
0
 62
     0
 10
348.802
 20
5.53007
 30
0.0
 11
349.134
 21
5.8608
 31
0.0
  0
LINE
  8
0
 62
     0
 10
349.134
 20
5.8608
 30
0.0
 11
349.348
 21
6.27973
 31
0.0
  0
LINE
  8
0
 62
     0
 10
349.348
 20
6.27973
 30
0.0
 11
349.421
 21
6.74275
 31
0.0
  0
LINE
  8
0
 62
     0
 10
349.421
 20
6.74275
 30
0.0
 11
349.348
 21
7.20577
 31
0.0
  0
LINE
  8
0
 62
     0
 10
349.348
 20
7.20577
 30
0.0
 11
349.134
 21
7.62469
 31
0.0
  0
LINE
  8
0
 62
     0
 10
349.134
 20
7.62469
 30
0.0
 11
348.802
 21
7.9568
 31
0.0
  0
LINE
  8
0
 62
     0
 10
348.802
 20
7.9568
 30
0.0
 11
348.385
 21
8.16903
 31
0.0
  0
LINE
  8
0
 62
     0
 10
348.385
 20
8.16903
 30
0.0
 11
347.921
 21
8.24343
 31
0.0
  0
LINE
  8
0
 62
     0
 10
347.921
 20
8.24343
 30
0.0
 11
347.457
 21
8.16903
 31
0.0
  0
LINE
  8
0
 62
     0
 10
172.638
 20
31.7679
 30
0.0
 11
172.638
 21
27.0688
 31
0.0
  0
LINE
  8
0
 62
     0
 10
172.638
 20
27.0688
 30
0.0
 11
133.014
 21
27.0688
 31
0.0
  0
LINE
  8
0
 62
     0
 10
133.014
 20
27.0688
 30
0.0
 11
133.014
 21
30.2989
 31
0.0
  0
LINE
  8
0
 62
     0
 10
133.014
 20
30.2989
 30
0.0
 11
131.288
 21
30.2989
 31
0.0
  0
LINE
  8
0
 62
     0
 10
131.288
 20
30.2989
 30
0.0
 11
131.288
 21
31.2195
 31
0.0
  0
LINE
  8
0
 62
     0
 10
131.288
 20
31.2195
 30
0.0
 11
127.988
 21
31.2195
 31
0.0
  0
LINE
  8
0
 62
     0
 10
127.988
 20
31.2195
 30
0.0
 11
127.988
 21
30.2989
 31
0.0
  0
LINE
  8
0
 62
     0
 10
127.988
 20
30.2989
 30
0.0
 11
126.264
 21
30.2989
 31
0.0
  0
LINE
  8
0
 62
     0
 10
126.264
 20
30.2989
 30
0.0
 11
126.264
 21
27.0688
 31
0.0
  0
LINE
  8
0
 62
     0
 10
126.264
 20
27.0688
 30
0.0
 11
125.437
 21
27.0688
 31
0.0
  0
LINE
  8
0
 62
     0
 10
125.437
 20
27.0688
 30
0.0
 11
125.437
 21
24.2686
 31
0.0
  0
LINE
  8
0
 62
     0
 10
125.437
 20
24.2686
 30
0.0
 11
126.264
 21
24.2686
 31
0.0
  0
LINE
  8
0
 62
     0
 10
126.264
 20
24.2686
 30
0.0
 11
126.264
 21
17.9999
 31
0.0
  0
LINE
  8
0
 62
     0
 10
126.264
 20
17.9999
 30
0.0
 11
127.988
 21
17.9999
 31
0.0
  0
LINE
  8
0
 62
     0
 10
127.988
 20
17.9999
 30
0.0
 11
127.988
 21
17.0188
 31
0.0
  0
LINE
  8
0
 62
     0
 10
127.988
 20
17.0188
 30
0.0
 11
131.288
 21
17.0188
 31
0.0
  0
LINE
  8
0
 62
     0
 10
131.288
 20
17.0188
 30
0.0
 11
131.288
 21
17.9999
 31
0.0
  0
LINE
  8
0
 62
     0
 10
131.288
 20
17.9999
 30
0.0
 11
133.014
 21
17.9999
 31
0.0
  0
LINE
  8
0
 62
     0
 10
133.014
 20
17.9999
 30
0.0
 11
133.014
 21
22.4689
 31
0.0
  0
LINE
  8
0
 62
     0
 10
133.014
 20
22.4689
 30
0.0
 11
172.638
 21
22.4689
 31
0.0
  0
LINE
  8
0
 62
     0
 10
172.638
 20
22.4689
 30
0.0
 11
172.638
 21
17.7684
 31
0.0
  0
LINE
  8
0
 62
     0
 10
172.638
 20
17.7684
 30
0.0
 11
186.639
 21
17.7684
 31
0.0
  0
LINE
  8
0
 62
     0
 10
186.639
 20
17.7684
 30
0.0
 11
186.639
 21
22.4689
 31
0.0
  0
LINE
  8
0
 62
     0
 10
186.639
 20
22.4689
 30
0.0
 11
226.263
 21
22.4689
 31
0.0
  0
LINE
  8
0
 62
     0
 10
226.263
 20
22.4689
 30
0.0
 11
226.263
 21
17.9999
 31
0.0
  0
LINE
  8
0
 62
     0
 10
226.263
 20
17.9999
 30
0.0
 11
227.988
 21
17.9999
 31
0.0
  0
LINE
  8
0
 62
     0
 10
227.988
 20
17.9999
 30
0.0
 11
227.988
 21
17.0188
 31
0.0
  0
LINE
  8
0
 62
     0
 10
227.988
 20
17.0188
 30
0.0
 11
231.289
 21
17.0188
 31
0.0
  0
LINE
  8
0
 62
     0
 10
231.289
 20
17.0188
 30
0.0
 11
231.289
 21
17.9999
 31
0.0
  0
LINE
  8
0
 62
     0
 10
231.289
 20
17.9999
 30
0.0
 11
233.014
 21
17.9999
 31
0.0
  0
LINE
  8
0
 62
     0
 10
233.014
 20
17.9999
 30
0.0
 11
233.014
 21
24.2686
 31
0.0
  0
LINE
  8
0
 62
     0
 10
233.014
 20
24.2686
 30
0.0
 11
233.838
 21
24.2686
 31
0.0
  0
LINE
  8
0
 62
     0
 10
233.838
 20
24.2686
 30
0.0
 11
233.838
 21
27.0688
 31
0.0
  0
LINE
  8
0
 62
     0
 10
233.838
 20
27.0688
 30
0.0
 11
233.014
 21
27.0688
 31
0.0
  0
LINE
  8
0
 62
     0
 10
233.014
 20
27.0688
 30
0.0
 11
233.014
 21
30.2989
 31
0.0
  0
LINE
  8
0
 62
     0
 10
233.014
 20
30.2989
 30
0.0
 11
231.289
 21
30.2989
 31
0.0
  0
LINE
  8
0
 62
     0
 10
231.289
 20
30.2989
 30
0.0
 11
231.289
 21
31.2195
 31
0.0
  0
LINE
  8
0
 62
     0
 10
231.289
 20
31.2195
 30
0.0
 11
227.988
 21
31.2195
 31
0.0
  0
LINE
  8
0
 62
     0
 10
227.988
 20
31.2195
 30
0.0
 11
227.988
 21
30.2989
 31
0.0
  0
LINE
  8
0
 62
     0
 10
227.988
 20
30.2989
 30
0.0
 11
226.263
 21
30.2989
 31
0.0
  0
LINE
  8
0
 62
     0
 10
226.263
 20
30.2989
 30
0.0
 11
226.263
 21
27.0688
 31
0.0
  0
LINE
  8
0
 62
     0
 10
226.263
 20
27.0688
 30
0.0
 11
186.639
 21
27.0688
 31
0.0
  0
LINE
  8
0
 62
     0
 10
186.639
 20
27.0688
 30
0.0
 11
186.639
 21
31.7679
 31
0.0
  0
LINE
  8
0
 62
     0
 10
186.639
 20
31.7679
 30
0.0
 11
172.638
 21
31.7679
 31
0.0
  0
LINE
  8
0
 62
     0
 10
265.508
 20
31.7679
 30
0.0
 11
279.508
 21
31.7679
 31
0.0
  0
LINE
  8
0
 62
     0
 10
279.508
 20
31.7679
 30
0.0
 11
279.508
 21
17.7684
 31
0.0
  0
LINE
  8
0
 62
     0
 10
279.508
 20
17.7684
 30
0.0
 11
265.508
 21
17.7684
 31
0.0
  0
LINE
  8
0
 62
     0
 10
265.508
 20
17.7684
 30
0.0
 11
265.508
 21
31.7679
 31
0.0
  0
LINE
  8
0
 62
     0
 10
244.077
 20
31.7679
 30
0.0
 11
258.076
 21
31.7679
 31
0.0
  0
LINE
  8
0
 62
     0
 10
258.076
 20
31.7679
 30
0.0
 11
258.076
 21
17.7684
 31
0.0
  0
LINE
  8
0
 62
     0
 10
258.076
 20
17.7684
 30
0.0
 11
244.077
 21
17.7684
 31
0.0
  0
LINE
  8
0
 62
     0
 10
244.077
 20
17.7684
 30
0.0
 11
244.077
 21
31.7679
 31
0.0
  0
LINE
  8
0
 62
     0
 10
101.202
 20
31.7679
 30
0.0
 11
115.201
 21
31.7679
 31
0.0
  0
LINE
  8
0
 62
     0
 10
115.201
 20
31.7679
 30
0.0
 11
115.201
 21
17.7684
 31
0.0
  0
LINE
  8
0
 62
     0
 10
115.201
 20
17.7684
 30
0.0
 11
101.202
 21
17.7684
 31
0.0
  0
LINE
  8
0
 62
     0
 10
101.202
 20
17.7684
 30
0.0
 11
101.202
 21
31.7679
 31
0.0
  0
LINE
  8
0
 62
     0
 10
79.7705
 20
31.7679
 30
0.0
 11
93.7701
 21
31.7679
 31
0.0
  0
LINE
  8
0
 62
     0
 10
93.7701
 20
31.7679
 30
0.0
 11
93.7701
 21
17.7684
 31
0.0
  0
LINE
  8
0
 62
     0
 10
93.7701
 20
17.7684
 30
0.0
 11
79.7705
 21
17.7684
 31
0.0
  0
LINE
  8
0
 62
     0
 10
79.7705
 20
17.7684
 30
0.0
 11
79.7705
 21
31.7679
 31
0.0
  0
LINE
  8
0
 62
     0
 10
63.1017
 20
50.818
 30
0.0
 11
63.1017
 21
46.1186
 31
0.0
  0
LINE
  8
0
 62
     0
 10
63.1017
 20
46.1186
 30
0.0
 11
61.5763
 21
46.1186
 31
0.0
  0
LINE
  8
0
 62
     0
 10
61.5763
 20
46.1186
 30
0.0
 11
61.5763
 21
49.349
 31
0.0
  0
LINE
  8
0
 62
     0
 10
61.5763
 20
49.349
 30
0.0
 11
59.8509
 21
49.349
 31
0.0
  0
LINE
  8
0
 62
     0
 10
59.8509
 20
49.349
 30
0.0
 11
59.8509
 21
50.268
 31
0.0
  0
LINE
  8
0
 62
     0
 10
59.8509
 20
50.268
 30
0.0
 11
56.552
 21
50.268
 31
0.0
  0
LINE
  8
0
 62
     0
 10
56.552
 20
50.268
 30
0.0
 11
56.552
 21
49.349
 31
0.0
  0
LINE
  8
0
 62
     0
 10
56.552
 20
49.349
 30
0.0
 11
54.8266
 21
49.349
 31
0.0
  0
LINE
  8
0
 62
     0
 10
54.8266
 20
49.349
 30
0.0
 11
54.8266
 21
46.1186
 31
0.0
  0
LINE
  8
0
 62
     0
 10
54.8266
 20
46.1186
 30
0.0
 11
54.0011
 21
46.1186
 31
0.0
  0
LINE
  8
0
 62
     0
 10
54.0011
 20
46.1186
 30
0.0
 11
54.0011
 21
43.3186
 31
0.0
  0
LINE
  8
0
 62
     0
 10
54.0011
 20
43.3186
 30
0.0
 11
54.8266
 21
43.3186
 31
0.0
  0
LINE
  8
0
 62
     0
 10
54.8266
 20
43.3186
 30
0.0
 11
54.8266
 21
37.0487
 31
0.0
  0
LINE
  8
0
 62
     0
 10
54.8266
 20
37.0487
 30
0.0
 11
56.552
 21
37.0487
 31
0.0
  0
LINE
  8
0
 62
     0
 10
56.552
 20
37.0487
 30
0.0
 11
56.552
 21
36.0687
 31
0.0
  0
LINE
  8
0
 62
     0
 10
56.552
 20
36.0687
 30
0.0
 11
59.8509
 21
36.0687
 31
0.0
  0
LINE
  8
0
 62
     0
 10
59.8509
 20
36.0687
 30
0.0
 11
59.8509
 21
37.0487
 31
0.0
  0
LINE
  8
0
 62
     0
 10
59.8509
 20
37.0487
 30
0.0
 11
61.5763
 21
37.0487
 31
0.0
  0
LINE
  8
0
 62
     0
 10
61.5763
 20
37.0487
 30
0.0
 11
61.5763
 21
41.5188
 31
0.0
  0
LINE
  8
0
 62
     0
 10
61.5763
 20
41.5188
 30
0.0
 11
63.1017
 21
41.5188
 31
0.0
  0
LINE
  8
0
 62
     0
 10
63.1017
 20
41.5188
 30
0.0
 11
63.1017
 21
36.8184
 31
0.0
  0
LINE
  8
0
 62
     0
 10
63.1017
 20
36.8184
 30
0.0
 11
77.1013
 21
36.8184
 31
0.0
  0
LINE
  8
0
 62
     0
 10
77.1013
 20
36.8184
 30
0.0
 11
77.1013
 21
41.5188
 31
0.0
  0
LINE
  8
0
 62
     0
 10
77.1013
 20
41.5188
 30
0.0
 11
78.6268
 21
41.5188
 31
0.0
  0
LINE
  8
0
 62
     0
 10
78.6268
 20
41.5188
 30
0.0
 11
78.6268
 21
37.0487
 31
0.0
  0
LINE
  8
0
 62
     0
 10
78.6268
 20
37.0487
 30
0.0
 11
80.3522
 21
37.0487
 31
0.0
  0
LINE
  8
0
 62
     0
 10
80.3522
 20
37.0487
 30
0.0
 11
80.3522
 21
36.0687
 31
0.0
  0
LINE
  8
0
 62
     0
 10
80.3522
 20
36.0687
 30
0.0
 11
83.651
 21
36.0687
 31
0.0
  0
LINE
  8
0
 62
     0
 10
83.651
 20
36.0687
 30
0.0
 11
83.651
 21
37.0487
 31
0.0
  0
LINE
  8
0
 62
     0
 10
83.651
 20
37.0487
 30
0.0
 11
85.3765
 21
37.0487
 31
0.0
  0
LINE
  8
0
 62
     0
 10
85.3765
 20
37.0487
 30
0.0
 11
85.3765
 21
43.3186
 31
0.0
  0
LINE
  8
0
 62
     0
 10
85.3765
 20
43.3186
 30
0.0
 11
86.202
 21
43.3186
 31
0.0
  0
LINE
  8
0
 62
     0
 10
86.202
 20
43.3186
 30
0.0
 11
86.202
 21
46.1186
 31
0.0
  0
LINE
  8
0
 62
     0
 10
86.202
 20
46.1186
 30
0.0
 11
85.3765
 21
46.1186
 31
0.0
  0
LINE
  8
0
 62
     0
 10
85.3765
 20
46.1186
 30
0.0
 11
85.3765
 21
49.349
 31
0.0
  0
LINE
  8
0
 62
     0
 10
85.3765
 20
49.349
 30
0.0
 11
83.651
 21
49.349
 31
0.0
  0
LINE
  8
0
 62
     0
 10
83.651
 20
49.349
 30
0.0
 11
83.651
 21
50.268
 31
0.0
  0
LINE
  8
0
 62
     0
 10
83.651
 20
50.268
 30
0.0
 11
80.3522
 21
50.268
 31
0.0
  0
LINE
  8
0
 62
     0
 10
80.3522
 20
50.268
 30
0.0
 11
80.3522
 21
49.349
 31
0.0
  0
LINE
  8
0
 62
     0
 10
80.3522
 20
49.349
 30
0.0
 11
78.6268
 21
49.349
 31
0.0
  0
LINE
  8
0
 62
     0
 10
78.6268
 20
49.349
 30
0.0
 11
78.6268
 21
46.1186
 31
0.0
  0
LINE
  8
0
 62
     0
 10
78.6268
 20
46.1186
 30
0.0
 11
77.1013
 21
46.1186
 31
0.0
  0
LINE
  8
0
 62
     0
 10
77.1013
 20
46.1186
 30
0.0
 11
77.1013
 21
50.818
 31
0.0
  0
LINE
  8
0
 62
     0
 10
77.1013
 20
50.818
 30
0.0
 11
63.1017
 21
50.818
 31
0.0
  0
LINE
  8
0
 62
     0
 10
317.895
 20
50.818
 30
0.0
 11
331.895
 21
50.818
 31
0.0
  0
LINE
  8
0
 62
     0
 10
331.895
 20
50.818
 30
0.0
 11
331.895
 21
36.8184
 31
0.0
  0
LINE
  8
0
 62
     0
 10
331.895
 20
36.8184
 30
0.0
 11
317.895
 21
36.8184
 31
0.0
  0
LINE
  8
0
 62
     0
 10
317.895
 20
36.8184
 30
0.0
 11
317.895
 21
50.818
 31
0.0
  0
LINE
  8
0
 62
     0
 10
291.702
 20
50.818
 30
0.0
 11
305.701
 21
50.818
 31
0.0
  0
LINE
  8
0
 62
     0
 10
305.701
 20
50.818
 30
0.0
 11
305.701
 21
36.8184
 31
0.0
  0
LINE
  8
0
 62
     0
 10
305.701
 20
36.8184
 30
0.0
 11
291.702
 21
36.8184
 31
0.0
  0
LINE
  8
0
 62
     0
 10
291.702
 20
36.8184
 30
0.0
 11
291.702
 21
50.818
 31
0.0
  0
LINE
  8
0
 62
     0
 10
265.508
 20
50.818
 30
0.0
 11
279.508
 21
50.818
 31
0.0
  0
LINE
  8
0
 62
     0
 10
279.508
 20
50.818
 30
0.0
 11
279.508
 21
36.8184
 31
0.0
  0
LINE
  8
0
 62
     0
 10
279.508
 20
36.8184
 30
0.0
 11
265.508
 21
36.8184
 31
0.0
  0
LINE
  8
0
 62
     0
 10
265.508
 20
36.8184
 30
0.0
 11
265.508
 21
50.818
 31
0.0
  0
LINE
  8
0
 62
     0
 10
246.458
 20
50.818
 30
0.0
 11
260.458
 21
50.818
 31
0.0
  0
LINE
  8
0
 62
     0
 10
260.458
 20
50.818
 30
0.0
 11
260.458
 21
36.8184
 31
0.0
  0
LINE
  8
0
 62
     0
 10
260.458
 20
36.8184
 30
0.0
 11
246.458
 21
36.8184
 31
0.0
  0
LINE
  8
0
 62
     0
 10
246.458
 20
36.8184
 30
0.0
 11
246.458
 21
50.818
 31
0.0
  0
LINE
  8
0
 62
     0
 10
227.408
 20
50.818
 30
0.0
 11
241.408
 21
50.818
 31
0.0
  0
LINE
  8
0
 62
     0
 10
241.408
 20
50.818
 30
0.0
 11
241.408
 21
36.8184
 31
0.0
  0
LINE
  8
0
 62
     0
 10
241.408
 20
36.8184
 30
0.0
 11
227.408
 21
36.8184
 31
0.0
  0
LINE
  8
0
 62
     0
 10
227.408
 20
36.8184
 30
0.0
 11
227.408
 21
50.818
 31
0.0
  0
LINE
  8
0
 62
     0
 10
208.358
 20
50.818
 30
0.0
 11
222.358
 21
50.818
 31
0.0
  0
LINE
  8
0
 62
     0
 10
222.358
 20
50.818
 30
0.0
 11
222.358
 21
36.8184
 31
0.0
  0
LINE
  8
0
 62
     0
 10
222.358
 20
36.8184
 30
0.0
 11
208.358
 21
36.8184
 31
0.0
  0
LINE
  8
0
 62
     0
 10
208.358
 20
36.8184
 30
0.0
 11
208.358
 21
50.818
 31
0.0
  0
LINE
  8
0
 62
     0
 10
189.308
 20
50.818
 30
0.0
 11
203.308
 21
50.818
 31
0.0
  0
LINE
  8
0
 62
     0
 10
203.308
 20
50.818
 30
0.0
 11
203.308
 21
36.8184
 31
0.0
  0
LINE
  8
0
 62
     0
 10
203.308
 20
36.8184
 30
0.0
 11
189.308
 21
36.8184
 31
0.0
  0
LINE
  8
0
 62
     0
 10
189.308
 20
36.8184
 30
0.0
 11
189.308
 21
50.818
 31
0.0
  0
LINE
  8
0
 62
     0
 10
170.258
 20
50.818
 30
0.0
 11
184.258
 21
50.818
 31
0.0
  0
LINE
  8
0
 62
     0
 10
184.258
 20
50.818
 30
0.0
 11
184.258
 21
36.8184
 31
0.0
  0
LINE
  8
0
 62
     0
 10
184.258
 20
36.8184
 30
0.0
 11
170.258
 21
36.8184
 31
0.0
  0
LINE
  8
0
 62
     0
 10
170.258
 20
36.8184
 30
0.0
 11
170.258
 21
50.818
 31
0.0
  0
LINE
  8
0
 62
     0
 10
151.208
 20
50.818
 30
0.0
 11
165.208
 21
50.818
 31
0.0
  0
LINE
  8
0
 62
     0
 10
165.208
 20
50.818
 30
0.0
 11
165.208
 21
36.8184
 31
0.0
  0
LINE
  8
0
 62
     0
 10
165.208
 20
36.8184
 30
0.0
 11
151.208
 21
36.8184
 31
0.0
  0
LINE
  8
0
 62
     0
 10
151.208
 20
36.8184
 30
0.0
 11
151.208
 21
50.818
 31
0.0
  0
LINE
  8
0
 62
     0
 10
132.158
 20
50.818
 30
0.0
 11
146.158
 21
50.818
 31
0.0
  0
LINE
  8
0
 62
     0
 10
146.158
 20
50.818
 30
0.0
 11
146.158
 21
36.8184
 31
0.0
  0
LINE
  8
0
 62
     0
 10
146.158
 20
36.8184
 30
0.0
 11
132.158
 21
36.8184
 31
0.0
  0
LINE
  8
0
 62
     0
 10
132.158
 20
36.8184
 30
0.0
 11
132.158
 21
50.818
 31
0.0
  0
LINE
  8
0
 62
     0
 10
113.108
 20
50.818
 30
0.0
 11
127.108
 21
50.818
 31
0.0
  0
LINE
  8
0
 62
     0
 10
127.108
 20
50.818
 30
0.0
 11
127.108
 21
36.8184
 31
0.0
  0
LINE
  8
0
 62
     0
 10
127.108
 20
36.8184
 30
0.0
 11
113.108
 21
36.8184
 31
0.0
  0
LINE
  8
0
 62
     0
 10
113.108
 20
36.8184
 30
0.0
 11
113.108
 21
50.818
 31
0.0
  0
LINE
  8
0
 62
     0
 10
94.058
 20
50.818
 30
0.0
 11
108.058
 21
50.818
 31
0.0
  0
LINE
  8
0
 62
     0
 10
108.058
 20
50.818
 30
0.0
 11
108.058
 21
36.8184
 31
0.0
  0
LINE
  8
0
 62
     0
 10
108.058
 20
36.8184
 30
0.0
 11
94.058
 21
36.8184
 31
0.0
  0
LINE
  8
0
 62
     0
 10
94.058
 20
36.8184
 30
0.0
 11
94.058
 21
50.818
 31
0.0
  0
LINE
  8
0
 62
     0
 10
22.6205
 20
50.818
 30
0.0
 11
36.6201
 21
50.818
 31
0.0
  0
LINE
  8
0
 62
     0
 10
36.6201
 20
50.818
 30
0.0
 11
36.6201
 21
36.8184
 31
0.0
  0
LINE
  8
0
 62
     0
 10
36.6201
 20
36.8184
 30
0.0
 11
22.6205
 21
36.8184
 31
0.0
  0
LINE
  8
0
 62
     0
 10
22.6205
 20
36.8184
 30
0.0
 11
22.6205
 21
50.818
 31
0.0
  0
LINE
  8
0
 62
     0
 10
305.988
 20
69.868
 30
0.0
 11
305.988
 21
65.1686
 31
0.0
  0
LINE
  8
0
 62
     0
 10
305.988
 20
65.1686
 30
0.0
 11
304.464
 21
65.1686
 31
0.0
  0
LINE
  8
0
 62
     0
 10
304.464
 20
65.1686
 30
0.0
 11
304.464
 21
68.399
 31
0.0
  0
LINE
  8
0
 62
     0
 10
304.464
 20
68.399
 30
0.0
 11
302.738
 21
68.399
 31
0.0
  0
LINE
  8
0
 62
     0
 10
302.738
 20
68.399
 30
0.0
 11
302.738
 21
69.318
 31
0.0
  0
LINE
  8
0
 62
     0
 10
302.738
 20
69.318
 30
0.0
 11
299.438
 21
69.318
 31
0.0
  0
LINE
  8
0
 62
     0
 10
299.438
 20
69.318
 30
0.0
 11
299.438
 21
68.399
 31
0.0
  0
LINE
  8
0
 62
     0
 10
299.438
 20
68.399
 30
0.0
 11
297.714
 21
68.399
 31
0.0
  0
LINE
  8
0
 62
     0
 10
297.714
 20
68.399
 30
0.0
 11
297.714
 21
65.1686
 31
0.0
  0
LINE
  8
0
 62
     0
 10
297.714
 20
65.1686
 30
0.0
 11
296.889
 21
65.1686
 31
0.0
  0
LINE
  8
0
 62
     0
 10
296.889
 20
65.1686
 30
0.0
 11
296.889
 21
62.3686
 31
0.0
  0
LINE
  8
0
 62
     0
 10
296.889
 20
62.3686
 30
0.0
 11
297.714
 21
62.3686
 31
0.0
  0
LINE
  8
0
 62
     0
 10
297.714
 20
62.3686
 30
0.0
 11
297.714
 21
56.0987
 31
0.0
  0
LINE
  8
0
 62
     0
 10
297.714
 20
56.0987
 30
0.0
 11
299.438
 21
56.0987
 31
0.0
  0
LINE
  8
0
 62
     0
 10
299.438
 20
56.0987
 30
0.0
 11
299.438
 21
55.1187
 31
0.0
  0
LINE
  8
0
 62
     0
 10
299.438
 20
55.1187
 30
0.0
 11
302.738
 21
55.1187
 31
0.0
  0
LINE
  8
0
 62
     0
 10
302.738
 20
55.1187
 30
0.0
 11
302.738
 21
56.0987
 31
0.0
  0
LINE
  8
0
 62
     0
 10
302.738
 20
56.0987
 30
0.0
 11
304.464
 21
56.0987
 31
0.0
  0
LINE
  8
0
 62
     0
 10
304.464
 20
56.0987
 30
0.0
 11
304.464
 21
60.5688
 31
0.0
  0
LINE
  8
0
 62
     0
 10
304.464
 20
60.5688
 30
0.0
 11
305.988
 21
60.5688
 31
0.0
  0
LINE
  8
0
 62
     0
 10
305.988
 20
60.5688
 30
0.0
 11
305.988
 21
55.8684
 31
0.0
  0
LINE
  8
0
 62
     0
 10
305.988
 20
55.8684
 30
0.0
 11
319.989
 21
55.8684
 31
0.0
  0
LINE
  8
0
 62
     0
 10
319.989
 20
55.8684
 30
0.0
 11
319.989
 21
60.5688
 31
0.0
  0
LINE
  8
0
 62
     0
 10
319.989
 20
60.5688
 30
0.0
 11
321.513
 21
60.5688
 31
0.0
  0
LINE
  8
0
 62
     0
 10
321.513
 20
60.5688
 30
0.0
 11
321.513
 21
56.0987
 31
0.0
  0
LINE
  8
0
 62
     0
 10
321.513
 20
56.0987
 30
0.0
 11
323.238
 21
56.0987
 31
0.0
  0
LINE
  8
0
 62
     0
 10
323.238
 20
56.0987
 30
0.0
 11
323.238
 21
55.1187
 31
0.0
  0
LINE
  8
0
 62
     0
 10
323.238
 20
55.1187
 30
0.0
 11
326.539
 21
55.1187
 31
0.0
  0
LINE
  8
0
 62
     0
 10
326.539
 20
55.1187
 30
0.0
 11
326.539
 21
56.0987
 31
0.0
  0
LINE
  8
0
 62
     0
 10
326.539
 20
56.0987
 30
0.0
 11
328.264
 21
56.0987
 31
0.0
  0
LINE
  8
0
 62
     0
 10
328.264
 20
56.0987
 30
0.0
 11
328.264
 21
62.3686
 31
0.0
  0
LINE
  8
0
 62
     0
 10
328.264
 20
62.3686
 30
0.0
 11
329.088
 21
62.3686
 31
0.0
  0
LINE
  8
0
 62
     0
 10
329.088
 20
62.3686
 30
0.0
 11
329.088
 21
65.1686
 31
0.0
  0
LINE
  8
0
 62
     0
 10
329.088
 20
65.1686
 30
0.0
 11
328.264
 21
65.1686
 31
0.0
  0
LINE
  8
0
 62
     0
 10
328.264
 20
65.1686
 30
0.0
 11
328.264
 21
68.399
 31
0.0
  0
LINE
  8
0
 62
     0
 10
328.264
 20
68.399
 30
0.0
 11
326.539
 21
68.399
 31
0.0
  0
LINE
  8
0
 62
     0
 10
326.539
 20
68.399
 30
0.0
 11
326.539
 21
69.318
 31
0.0
  0
LINE
  8
0
 62
     0
 10
326.539
 20
69.318
 30
0.0
 11
323.238
 21
69.318
 31
0.0
  0
LINE
  8
0
 62
     0
 10
323.238
 20
69.318
 30
0.0
 11
323.238
 21
68.399
 31
0.0
  0
LINE
  8
0
 62
     0
 10
323.238
 20
68.399
 30
0.0
 11
321.513
 21
68.399
 31
0.0
  0
LINE
  8
0
 62
     0
 10
321.513
 20
68.399
 30
0.0
 11
321.513
 21
65.1686
 31
0.0
  0
LINE
  8
0
 62
     0
 10
321.513
 20
65.1686
 30
0.0
 11
319.989
 21
65.1686
 31
0.0
  0
LINE
  8
0
 62
     0
 10
319.989
 20
65.1686
 30
0.0
 11
319.989
 21
69.868
 31
0.0
  0
LINE
  8
0
 62
     0
 10
319.989
 20
69.868
 30
0.0
 11
305.988
 21
69.868
 31
0.0
  0
LINE
  8
0
 62
     0
 10
275.033
 20
69.868
 30
0.0
 11
289.033
 21
69.868
 31
0.0
  0
LINE
  8
0
 62
     0
 10
289.033
 20
69.868
 30
0.0
 11
289.033
 21
55.8684
 31
0.0
  0
LINE
  8
0
 62
     0
 10
289.033
 20
55.8684
 30
0.0
 11
275.033
 21
55.8684
 31
0.0
  0
LINE
  8
0
 62
     0
 10
275.033
 20
55.8684
 30
0.0
 11
275.033
 21
69.868
 31
0.0
  0
LINE
  8
0
 62
     0
 10
255.983
 20
69.868
 30
0.0
 11
269.983
 21
69.868
 31
0.0
  0
LINE
  8
0
 62
     0
 10
269.983
 20
69.868
 30
0.0
 11
269.983
 21
55.8684
 31
0.0
  0
LINE
  8
0
 62
     0
 10
269.983
 20
55.8684
 30
0.0
 11
255.983
 21
55.8684
 31
0.0
  0
LINE
  8
0
 62
     0
 10
255.983
 20
55.8684
 30
0.0
 11
255.983
 21
69.868
 31
0.0
  0
LINE
  8
0
 62
     0
 10
236.933
 20
69.868
 30
0.0
 11
250.933
 21
69.868
 31
0.0
  0
LINE
  8
0
 62
     0
 10
250.933
 20
69.868
 30
0.0
 11
250.933
 21
55.8684
 31
0.0
  0
LINE
  8
0
 62
     0
 10
250.933
 20
55.8684
 30
0.0
 11
236.933
 21
55.8684
 31
0.0
  0
LINE
  8
0
 62
     0
 10
236.933
 20
55.8684
 30
0.0
 11
236.933
 21
69.868
 31
0.0
  0
LINE
  8
0
 62
     0
 10
217.883
 20
69.868
 30
0.0
 11
231.883
 21
69.868
 31
0.0
  0
LINE
  8
0
 62
     0
 10
231.883
 20
69.868
 30
0.0
 11
231.883
 21
55.8684
 31
0.0
  0
LINE
  8
0
 62
     0
 10
231.883
 20
55.8684
 30
0.0
 11
217.883
 21
55.8684
 31
0.0
  0
LINE
  8
0
 62
     0
 10
217.883
 20
55.8684
 30
0.0
 11
217.883
 21
69.868
 31
0.0
  0
LINE
  8
0
 62
     0
 10
198.833
 20
69.868
 30
0.0
 11
212.833
 21
69.868
 31
0.0
  0
LINE
  8
0
 62
     0
 10
212.833
 20
69.868
 30
0.0
 11
212.833
 21
55.8684
 31
0.0
  0
LINE
  8
0
 62
     0
 10
212.833
 20
55.8684
 30
0.0
 11
198.833
 21
55.8684
 31
0.0
  0
LINE
  8
0
 62
     0
 10
198.833
 20
55.8684
 30
0.0
 11
198.833
 21
69.868
 31
0.0
  0
LINE
  8
0
 62
     0
 10
179.783
 20
69.868
 30
0.0
 11
193.783
 21
69.868
 31
0.0
  0
LINE
  8
0
 62
     0
 10
193.783
 20
69.868
 30
0.0
 11
193.783
 21
55.8684
 31
0.0
  0
LINE
  8
0
 62
     0
 10
193.783
 20
55.8684
 30
0.0
 11
179.783
 21
55.8684
 31
0.0
  0
LINE
  8
0
 62
     0
 10
179.783
 20
55.8684
 30
0.0
 11
179.783
 21
69.868
 31
0.0
  0
LINE
  8
0
 62
     0
 10
160.733
 20
69.868
 30
0.0
 11
174.733
 21
69.868
 31
0.0
  0
LINE
  8
0
 62
     0
 10
174.733
 20
69.868
 30
0.0
 11
174.733
 21
55.8684
 31
0.0
  0
LINE
  8
0
 62
     0
 10
174.733
 20
55.8684
 30
0.0
 11
160.733
 21
55.8684
 31
0.0
  0
LINE
  8
0
 62
     0
 10
160.733
 20
55.8684
 30
0.0
 11
160.733
 21
69.868
 31
0.0
  0
LINE
  8
0
 62
     0
 10
141.683
 20
69.868
 30
0.0
 11
155.683
 21
69.868
 31
0.0
  0
LINE
  8
0
 62
     0
 10
155.683
 20
69.868
 30
0.0
 11
155.683
 21
55.8684
 31
0.0
  0
LINE
  8
0
 62
     0
 10
155.683
 20
55.8684
 30
0.0
 11
141.683
 21
55.8684
 31
0.0
  0
LINE
  8
0
 62
     0
 10
141.683
 20
55.8684
 30
0.0
 11
141.683
 21
69.868
 31
0.0
  0
LINE
  8
0
 62
     0
 10
122.633
 20
69.868
 30
0.0
 11
136.633
 21
69.868
 31
0.0
  0
LINE
  8
0
 62
     0
 10
136.633
 20
69.868
 30
0.0
 11
136.633
 21
55.8684
 31
0.0
  0
LINE
  8
0
 62
     0
 10
136.633
 20
55.8684
 30
0.0
 11
122.633
 21
55.8684
 31
0.0
  0
LINE
  8
0
 62
     0
 10
122.633
 20
55.8684
 30
0.0
 11
122.633
 21
69.868
 31
0.0
  0
LINE
  8
0
 62
     0
 10
103.583
 20
69.868
 30
0.0
 11
117.583
 21
69.868
 31
0.0
  0
LINE
  8
0
 62
     0
 10
117.583
 20
69.868
 30
0.0
 11
117.583
 21
55.8684
 31
0.0
  0
LINE
  8
0
 62
     0
 10
117.583
 20
55.8684
 30
0.0
 11
103.583
 21
55.8684
 31
0.0
  0
LINE
  8
0
 62
     0
 10
103.583
 20
55.8684
 30
0.0
 11
103.583
 21
69.868
 31
0.0
  0
LINE
  8
0
 62
     0
 10
84.533
 20
69.868
 30
0.0
 11
98.5326
 21
69.868
 31
0.0
  0
LINE
  8
0
 62
     0
 10
98.5326
 20
69.868
 30
0.0
 11
98.5326
 21
55.8684
 31
0.0
  0
LINE
  8
0
 62
     0
 10
98.5326
 20
55.8684
 30
0.0
 11
84.533
 21
55.8684
 31
0.0
  0
LINE
  8
0
 62
     0
 10
84.533
 20
55.8684
 30
0.0
 11
84.533
 21
69.868
 31
0.0
  0
LINE
  8
0
 62
     0
 10
58.3378
 20
69.868
 30
0.0
 11
72.3388
 21
69.868
 31
0.0
  0
LINE
  8
0
 62
     0
 10
72.3388
 20
69.868
 30
0.0
 11
72.3388
 21
55.8684
 31
0.0
  0
LINE
  8
0
 62
     0
 10
72.3388
 20
55.8684
 30
0.0
 11
58.3378
 21
55.8684
 31
0.0
  0
LINE
  8
0
 62
     0
 10
58.3378
 20
55.8684
 30
0.0
 11
58.3378
 21
69.868
 31
0.0
  0
LINE
  8
0
 62
     0
 10
22.6205
 20
69.868
 30
0.0
 11
36.6201
 21
69.868
 31
0.0
  0
LINE
  8
0
 62
     0
 10
36.6201
 20
69.868
 30
0.0
 11
36.6201
 21
55.8684
 31
0.0
  0
LINE
  8
0
 62
     0
 10
36.6201
 20
55.8684
 30
0.0
 11
22.6205
 21
55.8684
 31
0.0
  0
LINE
  8
0
 62
     0
 10
22.6205
 20
55.8684
 30
0.0
 11
22.6205
 21
69.868
 31
0.0
  0
LINE
  8
0
 62
     0
 10
313.133
 20
88.918
 30
0.0
 11
327.133
 21
88.918
 31
0.0
  0
LINE
  8
0
 62
     0
 10
327.133
 20
88.918
 30
0.0
 11
327.133
 21
74.9184
 31
0.0
  0
LINE
  8
0
 62
     0
 10
327.133
 20
74.9184
 30
0.0
 11
313.133
 21
74.9184
 31
0.0
  0
LINE
  8
0
 62
     0
 10
313.133
 20
74.9184
 30
0.0
 11
313.133
 21
88.918
 31
0.0
  0
LINE
  8
0
 62
     0
 10
289.32
 20
88.918
 30
0.0
 11
303.32
 21
88.918
 31
0.0
  0
LINE
  8
0
 62
     0
 10
303.32
 20
88.918
 30
0.0
 11
303.32
 21
74.9184
 31
0.0
  0
LINE
  8
0
 62
     0
 10
303.32
 20
74.9184
 30
0.0
 11
289.32
 21
74.9184
 31
0.0
  0
LINE
  8
0
 62
     0
 10
289.32
 20
74.9184
 30
0.0
 11
289.32
 21
88.918
 31
0.0
  0
LINE
  8
0
 62
     0
 10
270.27
 20
88.918
 30
0.0
 11
284.27
 21
88.918
 31
0.0
  0
LINE
  8
0
 62
     0
 10
284.27
 20
88.918
 30
0.0
 11
284.27
 21
74.9184
 31
0.0
  0
LINE
  8
0
 62
     0
 10
284.27
 20
74.9184
 30
0.0
 11
270.27
 21
74.9184
 31
0.0
  0
LINE
  8
0
 62
     0
 10
270.27
 20
74.9184
 30
0.0
 11
270.27
 21
88.918
 31
0.0
  0
LINE
  8
0
 62
     0
 10
251.22
 20
88.918
 30
0.0
 11
265.22
 21
88.918
 31
0.0
  0
LINE
  8
0
 62
     0
 10
265.22
 20
88.918
 30
0.0
 11
265.22
 21
74.9184
 31
0.0
  0
LINE
  8
0
 62
     0
 10
265.22
 20
74.9184
 30
0.0
 11
251.22
 21
74.9184
 31
0.0
  0
LINE
  8
0
 62
     0
 10
251.22
 20
74.9184
 30
0.0
 11
251.22
 21
88.918
 31
0.0
  0
LINE
  8
0
 62
     0
 10
232.17
 20
88.918
 30
0.0
 11
246.17
 21
88.918
 31
0.0
  0
LINE
  8
0
 62
     0
 10
246.17
 20
88.918
 30
0.0
 11
246.17
 21
74.9184
 31
0.0
  0
LINE
  8
0
 62
     0
 10
246.17
 20
74.9184
 30
0.0
 11
232.17
 21
74.9184
 31
0.0
  0
LINE
  8
0
 62
     0
 10
232.17
 20
74.9184
 30
0.0
 11
232.17
 21
88.918
 31
0.0
  0
LINE
  8
0
 62
     0
 10
213.12
 20
88.918
 30
0.0
 11
227.12
 21
88.918
 31
0.0
  0
LINE
  8
0
 62
     0
 10
227.12
 20
88.918
 30
0.0
 11
227.12
 21
74.9184
 31
0.0
  0
LINE
  8
0
 62
     0
 10
227.12
 20
74.9184
 30
0.0
 11
213.12
 21
74.9184
 31
0.0
  0
LINE
  8
0
 62
     0
 10
213.12
 20
74.9184
 30
0.0
 11
213.12
 21
88.918
 31
0.0
  0
LINE
  8
0
 62
     0
 10
194.07
 20
88.918
 30
0.0
 11
208.07
 21
88.918
 31
0.0
  0
LINE
  8
0
 62
     0
 10
208.07
 20
88.918
 30
0.0
 11
208.07
 21
74.9184
 31
0.0
  0
LINE
  8
0
 62
     0
 10
208.07
 20
74.9184
 30
0.0
 11
194.07
 21
74.9184
 31
0.0
  0
LINE
  8
0
 62
     0
 10
194.07
 20
74.9184
 30
0.0
 11
194.07
 21
88.918
 31
0.0
  0
LINE
  8
0
 62
     0
 10
175.02
 20
88.918
 30
0.0
 11
189.02
 21
88.918
 31
0.0
  0
LINE
  8
0
 62
     0
 10
189.02
 20
88.918
 30
0.0
 11
189.02
 21
74.9184
 31
0.0
  0
LINE
  8
0
 62
     0
 10
189.02
 20
74.9184
 30
0.0
 11
175.02
 21
74.9184
 31
0.0
  0
LINE
  8
0
 62
     0
 10
175.02
 20
74.9184
 30
0.0
 11
175.02
 21
88.918
 31
0.0
  0
LINE
  8
0
 62
     0
 10
155.97
 20
88.918
 30
0.0
 11
169.97
 21
88.918
 31
0.0
  0
LINE
  8
0
 62
     0
 10
169.97
 20
88.918
 30
0.0
 11
169.97
 21
74.9184
 31
0.0
  0
LINE
  8
0
 62
     0
 10
169.97
 20
74.9184
 30
0.0
 11
155.97
 21
74.9184
 31
0.0
  0
LINE
  8
0
 62
     0
 10
155.97
 20
74.9184
 30
0.0
 11
155.97
 21
88.918
 31
0.0
  0
LINE
  8
0
 62
     0
 10
136.92
 20
88.918
 30
0.0
 11
150.92
 21
88.918
 31
0.0
  0
LINE
  8
0
 62
     0
 10
150.92
 20
88.918
 30
0.0
 11
150.92
 21
74.9184
 31
0.0
  0
LINE
  8
0
 62
     0
 10
150.92
 20
74.9184
 30
0.0
 11
136.92
 21
74.9184
 31
0.0
  0
LINE
  8
0
 62
     0
 10
136.92
 20
74.9184
 30
0.0
 11
136.92
 21
88.918
 31
0.0
  0
LINE
  8
0
 62
     0
 10
117.87
 20
88.918
 30
0.0
 11
131.87
 21
88.918
 31
0.0
  0
LINE
  8
0
 62
     0
 10
131.87
 20
88.918
 30
0.0
 11
131.87
 21
74.9184
 31
0.0
  0
LINE
  8
0
 62
     0
 10
131.87
 20
74.9184
 30
0.0
 11
117.87
 21
74.9184
 31
0.0
  0
LINE
  8
0
 62
     0
 10
117.87
 20
74.9184
 30
0.0
 11
117.87
 21
88.918
 31
0.0
  0
LINE
  8
0
 62
     0
 10
98.8205
 20
88.918
 30
0.0
 11
112.82
 21
88.918
 31
0.0
  0
LINE
  8
0
 62
     0
 10
112.82
 20
88.918
 30
0.0
 11
112.82
 21
74.9184
 31
0.0
  0
LINE
  8
0
 62
     0
 10
112.82
 20
74.9184
 30
0.0
 11
98.8205
 21
74.9184
 31
0.0
  0
LINE
  8
0
 62
     0
 10
98.8205
 20
74.9184
 30
0.0
 11
98.8205
 21
88.918
 31
0.0
  0
LINE
  8
0
 62
     0
 10
79.7705
 20
88.918
 30
0.0
 11
93.7701
 21
88.918
 31
0.0
  0
LINE
  8
0
 62
     0
 10
93.7701
 20
88.918
 30
0.0
 11
93.7701
 21
74.9184
 31
0.0
  0
LINE
  8
0
 62
     0
 10
93.7701
 20
74.9184
 30
0.0
 11
79.7705
 21
74.9184
 31
0.0
  0
LINE
  8
0
 62
     0
 10
79.7705
 20
74.9184
 30
0.0
 11
79.7705
 21
88.918
 31
0.0
  0
LINE
  8
0
 62
     0
 10
55.958
 20
88.918
 30
0.0
 11
69.9576
 21
88.918
 31
0.0
  0
LINE
  8
0
 62
     0
 10
69.9576
 20
88.918
 30
0.0
 11
69.9576
 21
74.9184
 31
0.0
  0
LINE
  8
0
 62
     0
 10
69.9576
 20
74.9184
 30
0.0
 11
55.958
 21
74.9184
 31
0.0
  0
LINE
  8
0
 62
     0
 10
55.958
 20
74.9184
 30
0.0
 11
55.958
 21
88.918
 31
0.0
  0
LINE
  8
0
 62
     0
 10
22.6205
 20
88.918
 30
0.0
 11
36.6201
 21
88.918
 31
0.0
  0
LINE
  8
0
 62
     0
 10
36.6201
 20
88.918
 30
0.0
 11
36.6201
 21
74.9184
 31
0.0
  0
LINE
  8
0
 62
     0
 10
36.6201
 20
74.9184
 30
0.0
 11
22.6205
 21
74.9184
 31
0.0
  0
LINE
  8
0
 62
     0
 10
22.6205
 20
74.9184
 30
0.0
 11
22.6205
 21
88.918
 31
0.0
  0
LINE
  8
0
 62
     0
 10
317.895
 20
107.968
 30
0.0
 11
331.895
 21
107.968
 31
0.0
  0
LINE
  8
0
 62
     0
 10
331.895
 20
107.968
 30
0.0
 11
331.895
 21
93.9684
 31
0.0
  0
LINE
  8
0
 62
     0
 10
331.895
 20
93.9684
 30
0.0
 11
317.895
 21
93.9684
 31
0.0
  0
LINE
  8
0
 62
     0
 10
317.895
 20
93.9684
 30
0.0
 11
317.895
 21
107.968
 31
0.0
  0
LINE
  8
0
 62
     0
 10
298.845
 20
107.968
 30
0.0
 11
312.845
 21
107.968
 31
0.0
  0
LINE
  8
0
 62
     0
 10
312.845
 20
107.968
 30
0.0
 11
312.845
 21
93.9684
 31
0.0
  0
LINE
  8
0
 62
     0
 10
312.845
 20
93.9684
 30
0.0
 11
298.845
 21
93.9684
 31
0.0
  0
LINE
  8
0
 62
     0
 10
298.845
 20
93.9684
 30
0.0
 11
298.845
 21
107.968
 31
0.0
  0
LINE
  8
0
 62
     0
 10
279.795
 20
107.968
 30
0.0
 11
293.795
 21
107.968
 31
0.0
  0
LINE
  8
0
 62
     0
 10
293.795
 20
107.968
 30
0.0
 11
293.795
 21
93.9684
 31
0.0
  0
LINE
  8
0
 62
     0
 10
293.795
 20
93.9684
 30
0.0
 11
279.795
 21
93.9684
 31
0.0
  0
LINE
  8
0
 62
     0
 10
279.795
 20
93.9684
 30
0.0
 11
279.795
 21
107.968
 31
0.0
  0
LINE
  8
0
 62
     0
 10
260.745
 20
107.968
 30
0.0
 11
274.745
 21
107.968
 31
0.0
  0
LINE
  8
0
 62
     0
 10
274.745
 20
107.968
 30
0.0
 11
274.745
 21
93.9684
 31
0.0
  0
LINE
  8
0
 62
     0
 10
274.745
 20
93.9684
 30
0.0
 11
260.745
 21
93.9684
 31
0.0
  0
LINE
  8
0
 62
     0
 10
260.745
 20
93.9684
 30
0.0
 11
260.745
 21
107.968
 31
0.0
  0
LINE
  8
0
 62
     0
 10
241.695
 20
107.968
 30
0.0
 11
255.695
 21
107.968
 31
0.0
  0
LINE
  8
0
 62
     0
 10
255.695
 20
107.968
 30
0.0
 11
255.695
 21
93.9684
 31
0.0
  0
LINE
  8
0
 62
     0
 10
255.695
 20
93.9684
 30
0.0
 11
241.695
 21
93.9684
 31
0.0
  0
LINE
  8
0
 62
     0
 10
241.695
 20
93.9684
 30
0.0
 11
241.695
 21
107.968
 31
0.0
  0
LINE
  8
0
 62
     0
 10
222.645
 20
107.968
 30
0.0
 11
236.645
 21
107.968
 31
0.0
  0
LINE
  8
0
 62
     0
 10
236.645
 20
107.968
 30
0.0
 11
236.645
 21
93.9684
 31
0.0
  0
LINE
  8
0
 62
     0
 10
236.645
 20
93.9684
 30
0.0
 11
222.645
 21
93.9684
 31
0.0
  0
LINE
  8
0
 62
     0
 10
222.645
 20
93.9684
 30
0.0
 11
222.645
 21
107.968
 31
0.0
  0
LINE
  8
0
 62
     0
 10
203.595
 20
107.968
 30
0.0
 11
217.595
 21
107.968
 31
0.0
  0
LINE
  8
0
 62
     0
 10
217.595
 20
107.968
 30
0.0
 11
217.595
 21
93.9684
 31
0.0
  0
LINE
  8
0
 62
     0
 10
217.595
 20
93.9684
 30
0.0
 11
203.595
 21
93.9684
 31
0.0
  0
LINE
  8
0
 62
     0
 10
203.595
 20
93.9684
 30
0.0
 11
203.595
 21
107.968
 31
0.0
  0
LINE
  8
0
 62
     0
 10
184.545
 20
107.968
 30
0.0
 11
198.545
 21
107.968
 31
0.0
  0
LINE
  8
0
 62
     0
 10
198.545
 20
107.968
 30
0.0
 11
198.545
 21
93.9684
 31
0.0
  0
LINE
  8
0
 62
     0
 10
198.545
 20
93.9684
 30
0.0
 11
184.545
 21
93.9684
 31
0.0
  0
LINE
  8
0
 62
     0
 10
184.545
 20
93.9684
 30
0.0
 11
184.545
 21
107.968
 31
0.0
  0
LINE
  8
0
 62
     0
 10
165.495
 20
107.968
 30
0.0
 11
179.495
 21
107.968
 31
0.0
  0
LINE
  8
0
 62
     0
 10
179.495
 20
107.968
 30
0.0
 11
179.495
 21
93.9684
 31
0.0
  0
LINE
  8
0
 62
     0
 10
179.495
 20
93.9684
 30
0.0
 11
165.495
 21
93.9684
 31
0.0
  0
LINE
  8
0
 62
     0
 10
165.495
 20
93.9684
 30
0.0
 11
165.495
 21
107.968
 31
0.0
  0
LINE
  8
0
 62
     0
 10
146.445
 20
107.968
 30
0.0
 11
160.445
 21
107.968
 31
0.0
  0
LINE
  8
0
 62
     0
 10
160.445
 20
107.968
 30
0.0
 11
160.445
 21
93.9684
 31
0.0
  0
LINE
  8
0
 62
     0
 10
160.445
 20
93.9684
 30
0.0
 11
146.445
 21
93.9684
 31
0.0
  0
LINE
  8
0
 62
     0
 10
146.445
 20
93.9684
 30
0.0
 11
146.445
 21
107.968
 31
0.0
  0
LINE
  8
0
 62
     0
 10
127.395
 20
107.968
 30
0.0
 11
141.395
 21
107.968
 31
0.0
  0
LINE
  8
0
 62
     0
 10
141.395
 20
107.968
 30
0.0
 11
141.395
 21
93.9684
 31
0.0
  0
LINE
  8
0
 62
     0
 10
141.395
 20
93.9684
 30
0.0
 11
127.395
 21
93.9684
 31
0.0
  0
LINE
  8
0
 62
     0
 10
127.395
 20
93.9684
 30
0.0
 11
127.395
 21
107.968
 31
0.0
  0
LINE
  8
0
 62
     0
 10
108.345
 20
107.968
 30
0.0
 11
122.345
 21
107.968
 31
0.0
  0
LINE
  8
0
 62
     0
 10
122.345
 20
107.968
 30
0.0
 11
122.345
 21
93.9684
 31
0.0
  0
LINE
  8
0
 62
     0
 10
122.345
 20
93.9684
 30
0.0
 11
108.345
 21
93.9684
 31
0.0
  0
LINE
  8
0
 62
     0
 10
108.345
 20
93.9684
 30
0.0
 11
108.345
 21
107.968
 31
0.0
  0
LINE
  8
0
 62
     0
 10
89.2955
 20
107.968
 30
0.0
 11
103.295
 21
107.968
 31
0.0
  0
LINE
  8
0
 62
     0
 10
103.295
 20
107.968
 30
0.0
 11
103.295
 21
93.9684
 31
0.0
  0
LINE
  8
0
 62
     0
 10
103.295
 20
93.9684
 30
0.0
 11
89.2955
 21
93.9684
 31
0.0
  0
LINE
  8
0
 62
     0
 10
89.2955
 20
93.9684
 30
0.0
 11
89.2955
 21
107.968
 31
0.0
  0
LINE
  8
0
 62
     0
 10
70.2455
 20
107.968
 30
0.0
 11
84.2451
 21
107.968
 31
0.0
  0
LINE
  8
0
 62
     0
 10
84.2451
 20
107.968
 30
0.0
 11
84.2451
 21
93.9684
 31
0.0
  0
LINE
  8
0
 62
     0
 10
84.2451
 20
93.9684
 30
0.0
 11
70.2455
 21
93.9684
 31
0.0
  0
LINE
  8
0
 62
     0
 10
70.2455
 20
93.9684
 30
0.0
 11
70.2455
 21
107.968
 31
0.0
  0
LINE
  8
0
 62
     0
 10
51.1955
 20
107.968
 30
0.0
 11
65.1951
 21
107.968
 31
0.0
  0
LINE
  8
0
 62
     0
 10
65.1951
 20
107.968
 30
0.0
 11
65.1951
 21
93.9684
 31
0.0
  0
LINE
  8
0
 62
     0
 10
65.1951
 20
93.9684
 30
0.0
 11
51.1955
 21
93.9684
 31
0.0
  0
LINE
  8
0
 62
     0
 10
51.1955
 20
93.9684
 30
0.0
 11
51.1955
 21
107.968
 31
0.0
  0
LINE
  8
0
 62
     0
 10
22.6205
 20
107.968
 30
0.0
 11
36.6201
 21
107.968
 31
0.0
  0
LINE
  8
0
 62
     0
 10
36.6201
 20
107.968
 30
0.0
 11
36.6201
 21
93.9684
 31
0.0
  0
LINE
  8
0
 62
     0
 10
36.6201
 20
93.9684
 30
0.0
 11
22.6205
 21
93.9684
 31
0.0
  0
LINE
  8
0
 62
     0
 10
22.6205
 20
93.9684
 30
0.0
 11
22.6205
 21
107.968
 31
0.0
  0
LINE
  8
0
 62
     0
 10
6.13089
 20
120.42
 30
0.0
 11
5.71334
 21
120.208
 31
0.0
  0
LINE
  8
0
 62
     0
 10
5.71334
 20
120.208
 30
0.0
 11
5.38124
 21
119.876
 31
0.0
  0
LINE
  8
0
 62
     0
 10
5.38124
 20
119.876
 30
0.0
 11
5.16901
 21
119.458
 31
0.0
  0
LINE
  8
0
 62
     0
 10
5.16901
 20
119.458
 30
0.0
 11
5.09598
 21
118.994
 31
0.0
  0
LINE
  8
0
 62
     0
 10
5.09598
 20
118.994
 30
0.0
 11
5.16901
 21
118.531
 31
0.0
  0
LINE
  8
0
 62
     0
 10
5.16901
 20
118.531
 30
0.0
 11
5.38124
 21
118.113
 31
0.0
  0
LINE
  8
0
 62
     0
 10
5.38124
 20
118.113
 30
0.0
 11
5.71334
 21
117.781
 31
0.0
  0
LINE
  8
0
 62
     0
 10
5.71334
 20
117.781
 30
0.0
 11
6.13089
 21
117.567
 31
0.0
  0
LINE
  8
0
 62
     0
 10
6.13089
 20
117.567
 30
0.0
 11
6.59529
 21
117.493
 31
0.0
  0
LINE
  8
0
 62
     0
 10
6.59529
 20
117.493
 30
0.0
 11
7.05831
 21
117.567
 31
0.0
  0
LINE
  8
0
 62
     0
 10
7.05831
 20
117.567
 30
0.0
 11
7.47586
 21
117.781
 31
0.0
  0
LINE
  8
0
 62
     0
 10
7.47586
 20
117.781
 30
0.0
 11
7.80796
 21
118.113
 31
0.0
  0
LINE
  8
0
 62
     0
 10
7.80796
 20
118.113
 30
0.0
 11
8.02157
 21
118.531
 31
0.0
  0
LINE
  8
0
 62
     0
 10
8.02157
 20
118.531
 30
0.0
 11
8.09597
 21
118.994
 31
0.0
  0
LINE
  8
0
 62
     0
 10
8.09597
 20
118.994
 30
0.0
 11
8.02157
 21
119.458
 31
0.0
  0
LINE
  8
0
 62
     0
 10
8.02157
 20
119.458
 30
0.0
 11
7.80796
 21
119.876
 31
0.0
  0
LINE
  8
0
 62
     0
 10
7.80796
 20
119.876
 30
0.0
 11
7.47586
 21
120.208
 31
0.0
  0
LINE
  8
0
 62
     0
 10
7.47586
 20
120.208
 30
0.0
 11
7.05831
 21
120.42
 31
0.0
  0
LINE
  8
0
 62
     0
 10
7.05831
 20
120.42
 30
0.0
 11
6.59529
 21
120.493
 31
0.0
  0
LINE
  8
0
 62
     0
 10
6.59529
 20
120.493
 30
0.0
 11
6.13089
 21
120.42
 31
0.0
  0
LINE
  8
0
 62
     0
 10
347.457
 20
120.42
 30
0.0
 11
347.039
 21
120.208
 31
0.0
  0
LINE
  8
0
 62
     0
 10
347.039
 20
120.208
 30
0.0
 11
346.708
 21
119.876
 31
0.0
  0
LINE
  8
0
 62
     0
 10
346.708
 20
119.876
 30
0.0
 11
346.494
 21
119.458
 31
0.0
  0
LINE
  8
0
 62
     0
 10
346.494
 20
119.458
 30
0.0
 11
346.421
 21
118.994
 31
0.0
  0
LINE
  8
0
 62
     0
 10
346.421
 20
118.994
 30
0.0
 11
346.494
 21
118.531
 31
0.0
  0
LINE
  8
0
 62
     0
 10
346.494
 20
118.531
 30
0.0
 11
346.708
 21
118.113
 31
0.0
  0
LINE
  8
0
 62
     0
 10
346.708
 20
118.113
 30
0.0
 11
347.039
 21
117.781
 31
0.0
  0
LINE
  8
0
 62
     0
 10
347.039
 20
117.781
 30
0.0
 11
347.457
 21
117.567
 31
0.0
  0
LINE
  8
0
 62
     0
 10
347.457
 20
117.567
 30
0.0
 11
347.921
 21
117.493
 31
0.0
  0
LINE
  8
0
 62
     0
 10
347.921
 20
117.493
 30
0.0
 11
348.385
 21
117.567
 31
0.0
  0
LINE
  8
0
 62
     0
 10
348.385
 20
117.567
 30
0.0
 11
348.802
 21
117.781
 31
0.0
  0
LINE
  8
0
 62
     0
 10
348.802
 20
117.781
 30
0.0
 11
349.134
 21
118.113
 31
0.0
  0
LINE
  8
0
 62
     0
 10
349.134
 20
118.113
 30
0.0
 11
349.348
 21
118.531
 31
0.0
  0
LINE
  8
0
 62
     0
 10
349.348
 20
118.531
 30
0.0
 11
349.421
 21
118.994
 31
0.0
  0
LINE
  8
0
 62
     0
 10
349.421
 20
118.994
 30
0.0
 11
349.348
 21
119.458
 31
0.0
  0
LINE
  8
0
 62
     0
 10
349.348
 20
119.458
 30
0.0
 11
349.134
 21
119.876
 31
0.0
  0
LINE
  8
0
 62
     0
 10
349.134
 20
119.876
 30
0.0
 11
348.802
 21
120.208
 31
0.0
  0
LINE
  8
0
 62
     0
 10
348.802
 20
120.208
 30
0.0
 11
348.385
 21
120.42
 31
0.0
  0
LINE
  8
0
 62
     0
 10
348.385
 20
120.42
 30
0.0
 11
347.921
 21
120.493
 31
0.0
  0
LINE
  8
0
 62
     0
 10
347.921
 20
120.493
 30
0.0
 11
347.457
 21
120.42
 31
0.0
  0
LINE
  8
0
 62
     0
 10
262.125
 20
120.42
 30
0.0
 11
261.707
 21
120.208
 31
0.0
  0
LINE
  8
0
 62
     0
 10
261.707
 20
120.208
 30
0.0
 11
261.375
 21
119.876
 31
0.0
  0
LINE
  8
0
 62
     0
 10
261.375
 20
119.876
 30
0.0
 11
261.163
 21
119.458
 31
0.0
  0
LINE
  8
0
 62
     0
 10
261.163
 20
119.458
 30
0.0
 11
261.09
 21
118.994
 31
0.0
  0
LINE
  8
0
 62
     0
 10
261.09
 20
118.994
 30
0.0
 11
261.163
 21
118.531
 31
0.0
  0
LINE
  8
0
 62
     0
 10
261.163
 20
118.531
 30
0.0
 11
261.375
 21
118.113
 31
0.0
  0
LINE
  8
0
 62
     0
 10
261.375
 20
118.113
 30
0.0
 11
261.707
 21
117.781
 31
0.0
  0
LINE
  8
0
 62
     0
 10
261.707
 20
117.781
 30
0.0
 11
262.125
 21
117.567
 31
0.0
  0
LINE
  8
0
 62
     0
 10
262.125
 20
117.567
 30
0.0
 11
262.589
 21
117.493
 31
0.0
  0
LINE
  8
0
 62
     0
 10
262.589
 20
117.493
 30
0.0
 11
263.054
 21
117.567
 31
0.0
  0
LINE
  8
0
 62
     0
 10
263.054
 20
117.567
 30
0.0
 11
263.471
 21
117.781
 31
0.0
  0
LINE
  8
0
 62
     0
 10
263.471
 20
117.781
 30
0.0
 11
263.803
 21
118.113
 31
0.0
  0
LINE
  8
0
 62
     0
 10
263.803
 20
118.113
 30
0.0
 11
264.017
 21
118.531
 31
0.0
  0
LINE
  8
0
 62
     0
 10
264.017
 20
118.531
 30
0.0
 11
264.09
 21
118.994
 31
0.0
  0
LINE
  8
0
 62
     0
 10
264.09
 20
118.994
 30
0.0
 11
264.017
 21
119.458
 31
0.0
  0
LINE
  8
0
 62
     0
 10
264.017
 20
119.458
 30
0.0
 11
263.803
 21
119.876
 31
0.0
  0
LINE
  8
0
 62
     0
 10
263.803
 20
119.876
 30
0.0
 11
263.471
 21
120.208
 31
0.0
  0
LINE
  8
0
 62
     0
 10
263.471
 20
120.208
 30
0.0
 11
263.054
 21
120.42
 31
0.0
  0
LINE
  8
0
 62
     0
 10
263.054
 20
120.42
 30
0.0
 11
262.589
 21
120.493
 31
0.0
  0
LINE
  8
0
 62
     0
 10
262.589
 20
120.493
 30
0.0
 11
262.125
 21
120.42
 31
0.0
  0
LINE
  8
0
 62
     0
 10
176.794
 20
120.42
 30
0.0
 11
176.377
 21
120.208
 31
0.0
  0
LINE
  8
0
 62
     0
 10
176.377
 20
120.208
 30
0.0
 11
176.044
 21
119.876
 31
0.0
  0
LINE
  8
0
 62
     0
 10
176.044
 20
119.876
 30
0.0
 11
175.832
 21
119.458
 31
0.0
  0
LINE
  8
0
 62
     0
 10
175.832
 20
119.458
 30
0.0
 11
175.759
 21
118.994
 31
0.0
  0
LINE
  8
0
 62
     0
 10
175.759
 20
118.994
 30
0.0
 11
175.832
 21
118.531
 31
0.0
  0
LINE
  8
0
 62
     0
 10
175.832
 20
118.531
 30
0.0
 11
176.044
 21
118.113
 31
0.0
  0
LINE
  8
0
 62
     0
 10
176.044
 20
118.113
 30
0.0
 11
176.377
 21
117.781
 31
0.0
  0
LINE
  8
0
 62
     0
 10
176.377
 20
117.781
 30
0.0
 11
176.794
 21
117.567
 31
0.0
  0
LINE
  8
0
 62
     0
 10
176.794
 20
117.567
 30
0.0
 11
177.258
 21
117.493
 31
0.0
  0
LINE
  8
0
 62
     0
 10
177.258
 20
117.493
 30
0.0
 11
177.721
 21
117.567
 31
0.0
  0
LINE
  8
0
 62
     0
 10
177.721
 20
117.567
 30
0.0
 11
178.139
 21
117.781
 31
0.0
  0
LINE
  8
0
 62
     0
 10
178.139
 20
117.781
 30
0.0
 11
178.471
 21
118.113
 31
0.0
  0
LINE
  8
0
 62
     0
 10
178.471
 20
118.113
 30
0.0
 11
178.685
 21
118.531
 31
0.0
  0
LINE
  8
0
 62
     0
 10
178.685
 20
118.531
 30
0.0
 11
178.759
 21
118.994
 31
0.0
  0
LINE
  8
0
 62
     0
 10
178.759
 20
118.994
 30
0.0
 11
178.685
 21
119.458
 31
0.0
  0
LINE
  8
0
 62
     0
 10
178.685
 20
119.458
 30
0.0
 11
178.471
 21
119.876
 31
0.0
  0
LINE
  8
0
 62
     0
 10
178.471
 20
119.876
 30
0.0
 11
178.139
 21
120.208
 31
0.0
  0
LINE
  8
0
 62
     0
 10
178.139
 20
120.208
 30
0.0
 11
177.721
 21
120.42
 31
0.0
  0
LINE
  8
0
 62
     0
 10
177.721
 20
120.42
 30
0.0
 11
177.258
 21
120.493
 31
0.0
  0
LINE
  8
0
 62
     0
 10
177.258
 20
120.493
 30
0.0
 11
176.794
 21
120.42
 31
0.0
  0
LINE
  8
0
 62
     0
 10
91.4633
 20
120.42
 30
0.0
 11
91.0442
 21
120.208
 31
0.0
  0
LINE
  8
0
 62
     0
 10
91.0442
 20
120.208
 30
0.0
 11
90.7122
 21
119.876
 31
0.0
  0
LINE
  8
0
 62
     0
 10
90.7122
 20
119.876
 30
0.0
 11
90.4998
 21
119.458
 31
0.0
  0
LINE
  8
0
 62
     0
 10
90.4998
 20
119.458
 30
0.0
 11
90.4268
 21
118.994
 31
0.0
  0
LINE
  8
0
 62
     0
 10
90.4268
 20
118.994
 30
0.0
 11
90.4998
 21
118.531
 31
0.0
  0
LINE
  8
0
 62
     0
 10
90.4998
 20
118.531
 30
0.0
 11
90.7122
 21
118.113
 31
0.0
  0
LINE
  8
0
 62
     0
 10
90.7122
 20
118.113
 30
0.0
 11
91.0442
 21
117.781
 31
0.0
  0
LINE
  8
0
 62
     0
 10
91.0442
 20
117.781
 30
0.0
 11
91.4633
 21
117.567
 31
0.0
  0
LINE
  8
0
 62
     0
 10
91.4633
 20
117.567
 30
0.0
 11
91.9261
 21
117.493
 31
0.0
  0
LINE
  8
0
 62
     0
 10
91.9261
 20
117.493
 30
0.0
 11
92.3907
 21
117.567
 31
0.0
  0
LINE
  8
0
 62
     0
 10
92.3907
 20
117.567
 30
0.0
 11
92.8081
 21
117.781
 31
0.0
  0
LINE
  8
0
 62
     0
 10
92.8081
 20
117.781
 30
0.0
 11
93.1404
 21
118.113
 31
0.0
  0
LINE
  8
0
 62
     0
 10
93.1404
 20
118.113
 30
0.0
 11
93.3538
 21
118.531
 31
0.0
  0
LINE
  8
0
 62
     0
 10
93.3538
 20
118.531
 30
0.0
 11
93.4268
 21
118.994
 31
0.0
  0
LINE
  8
0
 62
     0
 10
93.4268
 20
118.994
 30
0.0
 11
93.3538
 21
119.458
 31
0.0
  0
LINE
  8
0
 62
     0
 10
93.3538
 20
119.458
 30
0.0
 11
93.1404
 21
119.876
 31
0.0
  0
LINE
  8
0
 62
     0
 10
93.1404
 20
119.876
 30
0.0
 11
92.8081
 21
120.208
 31
0.0
  0
LINE
  8
0
 62
     0
 10
92.8081
 20
120.208
 30
0.0
 11
92.3907
 21
120.42
 31
0.0
  0
LINE
  8
0
 62
     0
 10
92.3907
 20
120.42
 30
0.0
 11
91.9261
 21
120.493
 31
0.0
  0
LINE
  8
0
 62
     0
 10
91.9261
 20
120.493
 30
0.0
 11
91.4633
 21
120.42
 31
0.0
  0
ENDSEC
  0
EOF
